<?xml version="1.0" encoding="UTF-8"?>
<svg width="50px" height="50px" viewBox="0 0 50 50" version="1.1" xmlns="http://www.w3.org/2000/svg" xmlns:xlink="http://www.w3.org/1999/xlink">
    <!-- Generator: Sketch 49.2 (51160) - http://www.bohemiancoding.com/sketch -->
    <title>ic-04-africa</title>
    <desc>Created with Sketch.</desc>
    <defs></defs>
    <g id="ic-04-africa" stroke="none" stroke-width="1" fill="none" fill-rule="evenodd">
        <path d="M7.46782949,15.6635656 C7.44568293,15.597226 7.43439237,15.5277553 7.43439237,15.4578272 L7.43439237,14.5903577 C7.43439237,14.4178073 7.50304116,14.2523241 7.6252368,14.1303126 L8.30317057,13.4534001 L8.30317057,12.8554188 C8.30317057,12.6828684 8.37181936,12.5173852 8.494015,12.3953737 L9.3627932,11.5279042 C9.48498883,11.4058926 9.65072168,11.3373473 9.82353241,11.3373473 L10.0606379,11.3373473 L10.9095052,10.7722882 L10.9095052,9.81927573 C10.9095052,9.5392368 11.0889709,9.29061647 11.35504,9.20206039 L12.349134,8.87119488 L12.6804987,7.87859837 C12.7881667,7.55608095 13.1263671,7.37070689 13.4566774,7.45316008 L14.9898323,7.83587141 L16.966155,7.04653321 C17.0431202,7.0157935 17.125253,7 17.2081471,7 L21.117649,7 C21.5415505,7 21.8525892,7.3977709 21.749778,7.80839628 L21.4865686,8.85964776 L23.3967142,9.17752578 C23.4996874,9.19466214 23.5970297,9.23625221 23.6805446,9.29879405 L24.867071,10.1873483 L25.3537787,9.45838662 C25.4746252,9.27738998 25.67807,9.16867363 25.895929,9.16867363 L26.7647072,9.16867363 C26.8347408,9.16867363 26.9043164,9.17994719 26.9707561,9.20206039 L28.2501836,9.62789377 L29.7296234,9.99719657 L30.3828121,9.67109425 C30.473288,9.62592443 30.573054,9.60240836 30.6742091,9.60240836 L32.4117655,9.60240836 C32.6922269,9.60240836 32.9412224,9.78160376 33.029912,10.047272 L33.4643011,11.3484762 C33.5668414,11.6556336 33.4275794,11.9913354 33.1375517,12.1361308 L32.8515676,12.2789075 L33.4289488,13.4319302 C33.4741867,13.5222698 33.4977383,13.6218855 33.4977383,13.7228883 L33.4977383,14.3208695 L34.175672,14.997782 C34.2978677,15.1197936 34.3665165,15.2852768 34.3665165,15.4578272 L34.3665165,15.9232024 L34.8751081,16.1771152 C35.0296747,16.254282 35.14721,16.3895972 35.2018575,16.5532929 L35.5718818,17.6616935 L37.1466067,18.840958 C37.3106793,18.9638271 37.4072402,19.156658 37.4072402,19.3614397 L37.4072402,19.826815 L37.6244347,19.9352486 L39.070594,19.2132582 C39.16107,19.1680884 39.2608359,19.1445724 39.3619911,19.1445724 L40.2307693,19.1445724 C40.590629,19.1445724 40.8823529,19.4358568 40.8823529,19.7951744 L40.8823529,20.6626439 C40.8823529,20.7636467 40.8588014,20.8632624 40.8135634,20.953602 L39.5103961,23.5560104 C39.4790762,23.6185559 39.4378624,23.6756508 39.3883412,23.7250974 L35.2352947,27.8718877 L35.2352947,29.501585 L35.9132284,30.1784975 C36.0354241,30.300509 36.1040729,30.4659922 36.1040729,30.6385426 L36.1040729,32.3734815 C36.1040729,32.5019266 36.0659956,32.6274978 35.9946396,32.7343706 L35.1258614,34.0355748 C35.0629622,34.1297815 34.97653,34.2059674 34.8751081,34.2566019 L33.2321262,35.0768554 L33.4289488,35.5524012 C33.4741867,35.6427409 33.4977383,35.7423566 33.4977383,35.8433593 L33.4977383,37.1445635 C33.4977383,37.4246024 33.3182725,37.6732228 33.0522035,37.7617789 L32.194571,38.0472257 L32.194571,38.8795024 C32.194571,39.0079475 32.1564937,39.1335187 32.0851377,39.2403915 L31.2163595,40.5415957 C31.1753839,40.6029665 31.1242551,40.6569332 31.0651593,40.7011883 L29.3276029,42.0023925 C29.2963313,42.0258109 29.2630126,42.0463719 29.2280498,42.063827 L28.3592716,42.4975617 C28.2687957,42.5427315 28.1690297,42.5662476 28.0678745,42.5662476 L26.8704447,42.5662476 L25.6675888,42.9665956 C25.4334522,43.0445236 25.1753159,42.9836776 25.0008007,42.8094254 L24.1320225,41.9419559 C24.0098269,41.8199444 23.9411781,41.6544612 23.9411781,41.4819108 L23.9411781,40.7680277 L22.7068003,38.3029911 C22.6809004,38.2512692 22.662022,38.1963304 22.6506641,38.1396265 L22.2452604,36.1156613 L21.0307711,34.4987817 C20.9461812,34.386165 20.9004544,34.2491913 20.9004544,34.1084204 L20.9004544,32.8072163 C20.9004544,32.6787711 20.9385317,32.5531999 21.0098877,32.4463271 L21.7692326,31.3090256 L21.7692326,29.5174415 L20.5754986,27.5295539 L19.7067204,26.2283497 C19.6048883,26.0758317 19.572217,25.8874973 19.6167418,25.7096664 L19.9926709,24.208215 L19.8461699,23.9156544 L18.9457035,23.9156544 C18.7728927,23.9156544 18.6071599,23.847109 18.4849643,23.7250974 L17.8070305,23.0481849 L16.5366525,23.0481849 L15.3976352,23.8063859 C15.2303328,23.9177528 15.0209069,23.9457565 14.8301527,23.8822676 L13.7330343,23.5171124 L12.6359158,23.8822676 C12.4719732,23.9368328 12.2930365,23.9241353 12.1384699,23.8469685 L9.53213535,22.5457643 C9.37756873,22.4685974 9.26003344,22.3332822 9.20538589,22.1695865 L8.81963832,21.0140871 L7.6252368,19.8214849 C7.5537093,19.7500651 7.49981757,19.6629978 7.46782949,19.5671782 L7.0334404,18.265974 C6.96985569,18.0755072 6.99790161,17.8663968 7.10943655,17.6993464 L7.80144344,16.6628998 L7.46782949,15.6635656 Z M9.13851164,16.5532929 C9.20209634,16.7437597 9.17405043,16.9528701 9.06251548,17.1199205 L8.37050859,18.1563671 L8.65548101,19.0099965 L9.84988253,20.2025987 C9.92141003,20.2740185 9.97530176,20.3610858 10.0072898,20.4569055 L10.3563307,21.5024507 L12.4798628,22.5626173 L13.5269855,22.2141022 C13.6607339,22.1695865 13.8053346,22.1695865 13.9390831,22.2141022 L14.939925,22.5472136 L15.9779353,21.8562491 C16.0849693,21.7850006 16.21073,21.7469807 16.3393689,21.7469807 L18.0769253,21.7469807 C18.249736,21.7469807 18.4154689,21.8155261 18.5376645,21.9375377 L19.2155983,22.6144502 L20.2488708,22.6144502 C20.4956725,22.6144502 20.7212918,22.7536806 20.8316649,22.9740942 L21.266054,23.8415636 C21.3356138,23.9804736 21.3531129,24.1396469 21.3153889,24.2903159 L20.9508648,25.7462155 L21.6763773,26.8339328 L22.9795446,29.0026064 C23.0403043,29.10372 23.0723999,29.2194207 23.0723999,29.3373384 L23.0723999,31.5060121 C23.0723999,31.6344572 23.0343226,31.7600284 22.9629666,31.8669012 L22.2036217,33.0042027 L22.2036217,33.8915531 L23.3764723,35.4529981 C23.4348495,35.5307172 23.4750545,35.6205035 23.4941357,35.7157658 L23.9114119,37.799004 L25.1755559,40.3234832 C25.2207939,40.4138229 25.2443454,40.5134386 25.2443454,40.6144413 L25.2443454,41.2124226 L25.6375267,41.6050116 L26.5586584,41.2984302 C26.6250981,41.276317 26.6946737,41.2650434 26.7647072,41.2650434 L27.9140565,41.2650434 L28.5927052,40.9262303 L30.1939697,39.727091 L30.8914037,38.682516 L30.8914037,37.5782982 C30.8914037,37.2982593 31.0708694,37.049639 31.3369385,36.9610829 L32.194571,36.6756361 L32.194571,35.9969457 L31.8289714,35.266848 C31.7035452,35.0163736 31.7527101,34.7138622 31.9510263,34.5158447 L32.3854154,34.08211 C32.4349366,34.0326634 32.4921176,33.9915117 32.5547576,33.960239 L34.1375446,33.1700376 L34.8009056,32.1764951 L34.8009056,30.9080308 L34.1229718,30.2311183 C34.0007762,30.1091068 33.9321274,29.9436236 33.9321274,29.7710732 L33.9321274,27.6023995 C33.9321274,27.4298491 34.0007762,27.2643659 34.1229718,27.1423544 L38.3920951,22.8796622 L39.5791856,20.5090576 L37.9158318,21.2445601 C37.7323931,21.3361413 37.5164763,21.3361413 37.3330376,21.2445601 L36.4642594,20.8108254 C36.2435133,20.7006186 36.1040729,20.4753391 36.1040729,20.2289092 L36.1040729,19.6867408 L34.6271499,18.5807172 C34.5211219,18.501316 34.4418648,18.3915183 34.3999536,18.265974 L34.0509127,17.2204288 L33.4235358,16.9072128 C33.2027896,16.797006 33.0633492,16.5717265 33.0633492,16.3252966 L33.0633492,15.7273154 L32.3854154,15.0504029 C32.2632198,14.9283913 32.194571,14.7629081 32.194571,14.5903577 L32.194571,13.8764746 L31.3945823,12.2789075 C31.2336481,11.957524 31.364111,11.5667249 31.6859794,11.4060332 L32.0493029,11.2246451 L31.9421306,10.9036125 L30.8280272,10.9036125 L30.096828,11.2686614 C29.9577085,11.3381164 29.798295,11.3555892 29.6473987,11.3179219 L27.9098423,10.8841872 L26.6589698,10.4698778 L26.244646,10.4698778 L25.5693012,11.481369 C25.3618076,11.7921405 24.9354522,11.8650621 24.6362007,11.6409616 L23.025752,10.4349446 L20.5761402,10.0272909 C20.2009699,9.96485677 19.9588836,9.59618006 20.0511309,9.22774681 L20.283116,8.30120418 L17.3336306,8.30120418 L15.2781937,9.12214042 C15.1510201,9.17293323 15.0110499,9.18241838 14.8781693,9.14924828 L13.7259841,8.86163588 L13.4824026,9.59127944 C13.4175472,9.78555248 13.2648711,9.93799866 13.0703049,10.0027563 L12.2126725,10.2882032 L12.2126725,11.1204799 C12.2126725,11.3380108 12.1037921,11.5411491 11.9225224,11.6618136 L10.6193551,12.529283 C10.5123211,12.6005315 10.3865604,12.6385515 10.2579215,12.6385515 L10.0934272,12.6385515 L9.60633786,13.124907 L9.60633786,13.7228883 C9.60633786,13.8954387 9.53768907,14.0609219 9.41549343,14.1829334 L8.73755966,14.8598459 L8.73755966,15.352249 L9.13851164,16.5532929 Z M42.5293883,34.8637771 C42.5293883,34.9535293 42.5172002,35.0428435 42.4931757,35.1291424 L41.5520035,38.5099473 C41.5080628,38.6677879 41.4256526,38.8115315 41.3125532,38.9276078 L40.371381,39.8935521 C40.1948769,40.0747018 39.9554861,40.1764706 39.7058717,40.1764706 L38.7646995,40.1764706 C38.4082098,40.1764706 38.0823165,39.9697562 37.9228895,39.6425097 L37.4523034,38.6765655 C37.3869599,38.5424388 37.3529412,38.3945402 37.3529412,38.244582 L37.3529412,37.2786378 C37.3529412,37.1286797 37.3869599,36.980781 37.4523034,36.8466544 L37.712437,36.3126935 L37.4523034,35.7787326 C37.3198204,35.5067928 37.3198204,35.1867057 37.4523034,34.9147658 L37.9228895,33.9488215 C38.0823165,33.6215751 38.4082098,33.4148607 38.7646995,33.4148607 L39.1241953,33.4148607 L39.3346478,32.9828773 C39.3798875,32.8900163 39.4394182,32.805248 39.5109486,32.7318349 L39.8735374,32.3597026 L40.27582,31.5339609 C40.4352471,31.2067144 40.7611403,31 41.11763,31 L41.5882161,31 C41.9933253,31 42.3529837,31.2660501 42.4810905,31.6604859 L42.9516766,33.1094023 C43.0644085,33.4564996 42.9763878,33.8391754 42.7243115,34.0978864 L42.5293883,34.29794 L42.5293883,34.8637771 Z M41.11763,31.9659443 L40.6470439,32.9318885 L40.1764578,33.4148607 L39.7058717,34.380805 L38.7646995,34.380805 L38.2941134,35.3467492 L38.7646995,36.3126935 L38.2941134,37.2786378 L38.2941134,38.244582 L38.7646995,39.2105263 L39.7058717,39.2105263 L40.6470439,38.244582 L41.5882161,34.8637771 L41.5882161,33.8978328 L42.0588022,33.4148607 L41.5882161,31.9659443 L41.11763,31.9659443 Z" id="Combined-Shape" fill="#FFFFFF" fill-rule="nonzero"></path>
    </g>
</svg>