<?xml version="1.0" encoding="UTF-8"?>
<svg width="40px" height="40px" viewBox="0 0 40 40" version="1.1" xmlns="http://www.w3.org/2000/svg" xmlns:xlink="http://www.w3.org/1999/xlink">
    <!-- Generator: Sketch 49.2 (51160) - http://www.bohemiancoding.com/sketch -->
    <title>ic-07-f-tokens</title>
    <desc>Created with Sketch.</desc>
    <defs></defs>
    <g id="ic-07-f-tokens" stroke="none" stroke-width="1" fill="none" fill-rule="evenodd">
        <path d="M20,40 C8.954305,40 0,31.045695 0,20 C0,8.954305 8.954305,0 20,0 C31.045695,0 40,8.954305 40,20 C40,31.045695 31.045695,40 20,40 Z M20,38 C29.9411255,38 38,29.9411255 38,20 C38,10.0588745 29.9411255,2 20,2 C10.0588745,2 2,10.0588745 2,20 C2,29.9411255 10.0588745,38 20,38 Z" id="Oval-3" fill="#6699FF" fill-rule="nonzero"></path>
        <path d="M19.047619,23.8571429 L15.2380952,23.8571429 L15.2380952,22.5873016 L19.047619,22.5873016 L19.047619,20.6825397 L15.2380952,20.6825397 L15.2380952,19.4126984 L19.047619,19.4126984 L19.047619,13.0634921 L13.3333333,13.0634921 L13.3333333,14.968254 L11.4285714,14.968254 L11.4285714,13.0634921 L11.4285714,11.1587302 L27.9365079,11.1587302 L27.9365079,13.0634921 L27.9365079,14.968254 L26.031746,14.968254 L26.031746,13.0634921 L20.952381,13.0634921 L20.952381,19.4126984 L24.7619048,19.4126984 L24.7619048,20.6825397 L20.952381,20.6825397 L20.952381,22.5873016 L24.7619048,22.5873016 L24.7619048,23.8571429 L20.952381,23.8571429 L20.952381,30.2063492 L19.047619,30.2063492 L19.047619,23.8571429 Z" id="Combined-Shape" fill="#33FF99"></path>
    </g>
</svg>