<?xml version="1.0" encoding="UTF-8"?>
<svg width="40px" height="40px" viewBox="0 0 40 40" version="1.1" xmlns="http://www.w3.org/2000/svg" xmlns:xlink="http://www.w3.org/1999/xlink">
    <!-- Generator: Sketch 49.2 (51160) - http://www.bohemiancoding.com/sketch -->
    <title>ic-11-f-radar</title>
    <desc>Created with Sketch.</desc>
    <defs></defs>
    <g id="ic-11-f-radar" stroke="none" stroke-width="1" fill="none" fill-rule="evenodd">
        <path d="M22.9766915,20.4008449 L23.9550879,19.4224485 C23.9846668,19.6188526 24,19.8199311 24,20.0245952 C24,22.2364509 22.209139,24.0295143 20,24.0295143 C17.790861,24.0295143 16,22.2364509 16,20.0245952 C16,17.8127395 17.790861,16.0196762 20,16.0196762 C20.2061032,16.0196762 20.4085657,16.0352832 20.6062729,16.0653812 L19.6278658,17.0437882 C18.1466118,17.2272769 17,18.4918686 17,20.0245952 C17,21.683487 18.3431458,23.0282845 20,23.0282845 C21.5295852,23.0282845 22.7918052,21.8821498 22.9766915,20.4008449 Z M32.3773465,4.29430755 L31.6645488,5.0071052 C28.4449641,2.49660051 24.3968988,1.00122976 20,1.00122976 C9.50658975,1.00122976 1,9.51828059 1,20.0245952 C1,30.5309098 9.50658975,39.0479607 20,39.0479607 C30.4934102,39.0479607 39,30.5309098 39,20.0245952 C39,15.6306857 37.5121577,11.5847078 35.0133809,8.36415554 L35.7261786,7.65135776 C38.4031053,11.0573379 40,15.3542499 40,20.0245952 C40,31.0838738 31.045695,40.0491904 20,40.0491904 C8.954305,40.0491904 -4.37150316e-16,31.0838738 -4.37150316e-16,20.0245952 C-4.37150316e-16,8.96531666 8.954305,0 20,0 C24.6734378,0 28.9724877,1.60491664 32.3773465,4.29430755 Z M29.5221514,7.14950266 L28.8062286,7.86542545 C26.3332626,6.06687429 23.290352,5.0061488 20,5.0061488 C11.7157288,5.0061488 5,11.7301363 5,20.0245952 C5,28.3190541 11.7157288,35.0430416 20,35.0430416 C28.2842712,35.0430416 35,28.3190541 35,20.0245952 C35,16.7368196 33.9448326,13.6957946 32.1550599,11.2224765 L32.8709829,10.5065535 C34.8373252,13.1677104 36,16.4602072 36,20.0245952 C36,28.8720181 28.836556,36.0442714 20,36.0442714 C11.163444,36.0442714 4,28.8720181 4,20.0245952 C4,11.1771724 11.163444,4.00491904 20,4.00491904 C23.5670677,4.00491904 26.8615004,5.17364383 29.5221514,7.14950266 Z M26.6498494,10.0218047 L25.9268254,10.7448286 C24.2163088,9.64738687 22.1823732,9.01106785 20,9.01106785 C13.9248678,9.01106785 9,13.941992 9,20.0245952 C9,26.1071984 13.9248678,31.0381226 20,31.0381226 C26.0751322,31.0381226 31,26.1071984 31,20.0245952 C31,17.8443844 30.3672785,15.8121354 29.2756551,14.1018813 L29.9986796,13.3788568 C31.2631817,15.2822037 32,17.5672471 32,20.0245952 C32,26.6601624 26.627417,32.0393523 20,32.0393523 C13.372583,32.0393523 8,26.6601624 8,20.0245952 C8,13.3890281 13.372583,8.00983809 20,8.00983809 C22.4596142,8.00983809 24.7463934,8.75074266 26.6498494,10.0218047 Z M23.7331453,12.9385087 L22.9872541,13.6843999 C22.0812431,13.2557202 21.0685835,13.0159869 20,13.0159869 C16.1340068,13.0159869 13,16.1538477 13,20.0245952 C13,23.8953427 16.1340068,27.0332035 20,27.0332035 C23.8659932,27.0332035 27,23.8953427 27,20.0245952 C27,18.9577592 26.7619295,17.9465959 26.3360789,17.0414575 L27.0819719,16.2955645 C27.6681891,17.4093143 28,18.6781578 28,20.0245952 C28,24.4483066 24.418278,28.0344333 20,28.0344333 C15.581722,28.0344333 12,24.4483066 12,20.0245952 C12,15.6008838 15.581722,12.0147571 20,12.0147571 C21.3482887,12.0147571 22.6186743,12.3487101 23.7331453,12.9385087 Z" id="Combined-Shape" fill="#6699FF" fill-rule="nonzero"></path>
        <path d="M20.7071068,20.731702 C20.3165825,21.1222263 19.6834175,21.1222263 19.2928932,20.731702 C18.9023689,20.3411777 18.9023689,19.7080127 19.2928932,19.3174884 L33.2928932,5.31748843 C33.6834175,4.92696414 34.3165825,4.92696414 34.7071068,5.31748843 C35.0976311,5.70801273 35.0976311,6.34117771 34.7071068,6.731702 L20.7071068,20.731702 Z" id="Path-3" fill="#33FF99" fill-rule="nonzero"></path>
    </g>
</svg>