<?xml version="1.0" encoding="UTF-8"?>
<svg width="40px" height="40px" viewBox="0 0 40 40" version="1.1" xmlns="http://www.w3.org/2000/svg" xmlns:xlink="http://www.w3.org/1999/xlink">
    <!-- Generator: Sketch 49.2 (51160) - http://www.bohemiancoding.com/sketch -->
    <title>ic-10-f-impact</title>
    <desc>Created with Sketch.</desc>
    <defs></defs>
    <g id="ic-10-f-impact" stroke="none" stroke-width="1" fill="none" fill-rule="evenodd">
        <path d="M13.9473684,15.3125 C13.9473684,11.8392578 16.6429861,9 20,9 C23.3570139,9 26.0526316,11.8392578 26.0526316,15.3125 C26.0526316,17.005507 25.4068763,18.5876547 24.3067997,19.7491968 L26.9490809,21.4040603 C28.225094,22.2032294 29,23.6090601 29,25.1210953 C29,26.7089924 27.7209832,28 26.1385464,28 L13.8614536,28 C12.2790168,28 11,26.7089924 11,25.1210953 C11,23.6090601 11.774906,22.2032294 13.0509191,21.4040603 L15.6931995,19.7491959 C14.5931233,18.5876539 13.9473684,17.0055066 13.9473684,15.3125 Z M17.9287783,19.0202038 C18.5498912,19.4143374 18.5472103,20.3216005 17.923779,20.7120565 L14.112503,23.0990646 C13.421542,23.5318146 13,24.2965741 13,25.1210953 C13,25.608579 13.3877855,26 13.8614536,26 L26.1385464,26 C26.6122145,26 27,25.608579 27,25.1210953 C27,24.2965741 26.578458,23.5318146 25.8874973,23.0990648 L22.0762198,20.7120576 C21.4527881,20.3216017 21.4501072,19.4143381 22.0712205,19.0202046 C23.2875253,18.2483865 24.0526316,16.8529564 24.0526316,15.3125 C24.0526316,12.9212737 22.2285565,11 20,11 C17.7714435,11 15.9473684,12.9212737 15.9473684,15.3125 C15.9473684,16.8529559 16.7124741,18.2483855 17.9287783,19.0202038 Z" id="Shape" fill="#33FF99" fill-rule="nonzero"></path>
        <path d="M20,6 C18.3431458,6 17,4.65685425 17,3 C17,1.34314575 18.3431458,0 20,0 C21.6568542,0 23,1.34314575 23,3 C23,4.65685425 21.6568542,6 20,6 Z M20,5 C21.1045695,5 22,4.1045695 22,3 C22,1.8954305 21.1045695,1 20,1 C18.8954305,1 18,1.8954305 18,3 C18,4.1045695 18.8954305,5 20,5 Z M3,22 C1.34314575,22 0,20.6568542 0,19 C0,17.3431458 1.34314575,16 3,16 C4.65685425,16 6,17.3431458 6,19 C6,20.6568542 4.65685425,22 3,22 Z M3,21 C4.1045695,21 5,20.1045695 5,19 C5,17.8954305 4.1045695,17 3,17 C1.8954305,17 1,17.8954305 1,19 C1,20.1045695 1.8954305,21 3,21 Z M37,22 C35.3431458,22 34,20.6568542 34,19 C34,17.3431458 35.3431458,16 37,16 C38.6568542,16 40,17.3431458 40,19 C40,20.6568542 38.6568542,22 37,22 Z M37,21 C38.1045695,21 39,20.1045695 39,19 C39,17.8954305 38.1045695,17 37,17 C35.8954305,17 35,17.8954305 35,19 C35,20.1045695 35.8954305,21 37,21 Z M20,40 C18.3431458,40 17,38.6568542 17,37 C17,35.3431458 18.3431458,34 20,34 C21.6568542,34 23,35.3431458 23,37 C23,38.6568542 21.6568542,40 20,40 Z M20,39 C21.1045695,39 22,38.1045695 22,37 C22,35.8954305 21.1045695,35 20,35 C18.8954305,35 18,35.8954305 18,37 C18,38.1045695 18.8954305,39 20,39 Z M29.8994949,10.1005051 C28.7279221,8.92893219 28.7279221,7.02943725 29.8994949,5.85786438 C31.0710678,4.6862915 32.9705627,4.6862915 34.1421356,5.85786438 C35.3137085,7.02943725 35.3137085,8.92893219 34.1421356,10.1005051 C32.9705627,11.2720779 31.0710678,11.2720779 29.8994949,10.1005051 Z M30.6066017,9.39339828 C31.3876503,10.1744469 32.6539803,10.1744469 33.4350288,9.39339828 C34.2160774,8.6123497 34.2160774,7.34601974 33.4350288,6.56497116 C32.6539803,5.78392257 31.3876503,5.78392257 30.6066017,6.56497116 C29.8255531,7.34601974 29.8255531,8.6123497 30.6066017,9.39339828 Z M6.56497116,9.39339828 C5.39339828,8.22182541 5.39339828,6.32233047 6.56497116,5.1507576 C7.73654403,3.97918472 9.63603897,3.97918472 10.8076118,5.1507576 C11.9791847,6.32233047 11.9791847,8.22182541 10.8076118,9.39339828 C9.63603897,10.5649712 7.73654403,10.5649712 6.56497116,9.39339828 Z M7.27207794,8.6862915 C8.05312652,9.46734008 9.31945648,9.46734008 10.1005051,8.6862915 C10.8815536,7.90524292 10.8815536,6.63891296 10.1005051,5.85786438 C9.31945648,5.07681579 8.05312652,5.07681579 7.27207794,5.85786438 C6.49102936,6.63891296 6.49102936,7.90524292 7.27207794,8.6862915 Z M30.6066017,33.4350288 C29.4350288,32.263456 29.4350288,30.363961 30.6066017,29.1923882 C31.7781746,28.0208153 33.6776695,28.0208153 34.8492424,29.1923882 C36.0208153,30.363961 36.0208153,32.263456 34.8492424,33.4350288 C33.6776695,34.6066017 31.7781746,34.6066017 30.6066017,33.4350288 Z M31.3137085,32.7279221 C32.0947571,33.5089706 33.361087,33.5089706 34.1421356,32.7279221 C34.9231842,31.9468735 34.9231842,30.6805435 34.1421356,29.8994949 C33.361087,29.1184464 32.0947571,29.1184464 31.3137085,29.8994949 C30.5326599,30.6805435 30.5326599,31.9468735 31.3137085,32.7279221 Z M5.85786438,34.1421356 C4.6862915,32.9705627 4.6862915,31.0710678 5.85786438,29.8994949 C7.02943725,28.7279221 8.92893219,28.7279221 10.1005051,29.8994949 C11.2720779,31.0710678 11.2720779,32.9705627 10.1005051,34.1421356 C8.92893219,35.3137085 7.02943725,35.3137085 5.85786438,34.1421356 Z M6.56497116,33.4350288 C7.34601974,34.2160774 8.6123497,34.2160774 9.39339828,33.4350288 C10.1744469,32.6539803 10.1744469,31.3876503 9.39339828,30.6066017 C8.6123497,29.8255531 7.34601974,29.8255531 6.56497116,30.6066017 C5.78392257,31.3876503 5.78392257,32.6539803 6.56497116,33.4350288 Z" id="Combined-Shape" fill="#6699FF" fill-rule="nonzero"></path>
    </g>
</svg>