<svg width="24" height="24" xmlns="http://www.w3.org/2000/svg"><path d="M11.847 0C5.305 0 0 5.305 0 11.848c0 5.233 3.394 9.674 8.103 11.24.592.11.808-.256.808-.57 0-.282-.01-1.026-.016-2.015-3.295.716-3.99-1.588-3.99-1.588-.54-1.369-1.316-1.733-1.316-1.733-1.076-.735.082-.72.082-.72 1.189.083 1.814 1.22 1.814 1.22 1.057 1.811 2.772 1.288 3.448.985.108-.766.413-1.288.752-1.584-2.63-.299-5.396-1.315-5.396-5.855 0-1.293.462-2.35 1.22-3.18-.123-.299-.53-1.503.115-3.134 0 0 .995-.32 3.258 1.214a11.347 11.347 0 0 1 2.966-.399c1.006.005 2.02.136 2.966.399 2.262-1.533 3.254-1.214 3.254-1.214.647 1.63.24 2.835.118 3.135.76.828 1.218 1.886 1.218 3.179 0 4.55-2.77 5.552-5.41 5.846.426.365.805 1.089.805 2.194 0 1.584-.014 2.861-.014 3.25 0 .316.213.685.814.57 4.704-1.57 8.096-6.008 8.096-11.24C23.695 5.305 18.39 0 11.847 0" fill="#FEFEFE" fill-rule="evenodd"/></svg>