<?xml version="1.0" encoding="UTF-8"?>
<svg width="50px" height="50px" viewBox="0 0 50 50" version="1.1" xmlns="http://www.w3.org/2000/svg" xmlns:xlink="http://www.w3.org/1999/xlink">
    <!-- Generator: Sketch 49.2 (51160) - http://www.bohemiancoding.com/sketch -->
    <title>ic-05-submit</title>
    <desc>Created with Sketch.</desc>
    <defs></defs>
    <g id="ic-05-submit" stroke="none" stroke-width="1" fill="none" fill-rule="evenodd">
        <path d="M25.75,8.51078455 L25.75,32.7964203 C28.7097337,33.1654939 31,35.6902868 31,38.75 C31,42.0637085 28.3137085,44.75 25,44.75 C21.6862915,44.75 19,42.0637085 19,38.75 C19,35.6902868 21.2902663,33.1654939 24.25,32.7964203 L24.25,8.61053579 L15.5303301,17.3302057 C15.2374369,17.6230989 14.7625631,17.6230989 14.4696699,17.3302057 C14.1767767,17.0373125 14.1767767,16.5624388 14.4696699,16.2695455 L24.5195455,6.21966991 C24.8124388,5.9267767 25.2873125,5.9267767 25.5802057,6.21966991 L35.5802057,16.2196699 C35.8730989,16.5125631 35.8730989,16.9874369 35.5802057,17.2803301 C35.2873125,17.5732233 34.8124388,17.5732233 34.5195455,17.2803301 L25.75,8.51078455 Z M25,43.25 C27.4852814,43.25 29.5,41.2352814 29.5,38.75 C29.5,36.2647186 27.4852814,34.25 25,34.25 C22.5147186,34.25 20.5,36.2647186 20.5,38.75 C20.5,41.2352814 22.5147186,43.25 25,43.25 Z M39,34.75 C36.790861,34.75 35,32.959139 35,30.75 C35,28.540861 36.790861,26.75 39,26.75 C41.209139,26.75 43,28.540861 43,30.75 C43,32.959139 41.209139,34.75 39,34.75 Z M39,33.25 C40.3807119,33.25 41.5,32.1307119 41.5,30.75 C41.5,29.3692881 40.3807119,28.25 39,28.25 C37.6192881,28.25 36.5,29.3692881 36.5,30.75 C36.5,32.1307119 37.6192881,33.25 39,33.25 Z M11,34.75 C8.790861,34.75 7,32.959139 7,30.75 C7,28.540861 8.790861,26.75 11,26.75 C13.209139,26.75 15,28.540861 15,30.75 C15,32.959139 13.209139,34.75 11,34.75 Z M11,33.25 C12.3807119,33.25 13.5,32.1307119 13.5,30.75 C13.5,29.3692881 12.3807119,28.25 11,28.25 C9.61928813,28.25 8.5,29.3692881 8.5,30.75 C8.5,32.1307119 9.61928813,33.25 11,33.25 Z" id="Combined-Shape" fill="#FFFFFF" fill-rule="nonzero"></path>
    </g>
</svg>