<?xml version="1.0" encoding="UTF-8"?>
<svg width="50px" height="50px" viewBox="0 0 50 50" version="1.1" xmlns="http://www.w3.org/2000/svg" xmlns:xlink="http://www.w3.org/1999/xlink">
    <!-- Generator: Sketch 49.2 (51160) - http://www.bohemiancoding.com/sketch -->
    <title>ic-03-tokens</title>
    <desc>Created with Sketch.</desc>
    <defs></defs>
    <g id="ic-03-tokens" stroke="none" stroke-width="1" fill="none" fill-rule="evenodd">
        <path d="M24.3846154,28.6666667 L20.6923077,28.6666667 L20.6923077,27.4 L24.3846154,27.4 L24.3846154,25.5 L20.6923077,25.5 L20.6923077,24.2333333 L24.3846154,24.2333333 L24.3846154,17.9 L18.8461538,17.9 L18.8461538,19.8 L17,19.8 L17,17.9 L17,16 L33,16 L33,17.9 L33,19.8 L31.1538462,19.8 L31.1538462,17.9 L26.2307692,17.9 L26.2307692,24.2333333 L29.9230769,24.2333333 L29.9230769,25.5 L26.2307692,25.5 L26.2307692,27.4 L29.9230769,27.4 L29.9230769,28.6666667 L26.2307692,28.6666667 L26.2307692,35 L24.3846154,35 L24.3846154,28.6666667 Z M25,45 C13.954305,45 5,36.045695 5,25 C5,13.954305 13.954305,5 25,5 C36.045695,5 45,13.954305 45,25 C45,36.045695 36.045695,45 25,45 Z M25,44 C35.4934102,44 44,35.4934102 44,25 C44,14.5065898 35.4934102,6 25,6 C14.5065898,6 6,14.5065898 6,25 C6,35.4934102 14.5065898,44 25,44 Z" fill="#FFFFFF" fill-rule="nonzero"></path>
    </g>
</svg>