<svg width="24" height="24" xmlns="http://www.w3.org/2000/svg"><path d="M12.783 17.776c-.92.896-1.833 1.777-2.736 2.666-.316.31-.671.483-1.125.459-.31-.017-.482-.153-.577-.446-.693-2.149-1.395-4.292-2.084-6.443-.067-.209-.165-.31-.377-.375A447.976 447.976 0 0 1 1 12.112a2.777 2.777 0 0 1-.718-.33c-.334-.227-.383-.596-.084-.861.277-.245.607-.458.95-.594 1.994-.79 3.998-1.555 6-2.326L22.382 2.12c.966-.373 1.708.152 1.608 1.197-.064.668-.237 1.325-.377 1.984-1.103 5.207-2.207 10.415-3.315 15.62-.264 1.237-1.132 1.56-2.149.81-1.704-1.257-3.406-2.516-5.109-3.774-.08-.06-.165-.116-.258-.181zm-3.825 1.58c.02-.004.039-.01.058-.015.01-.048.026-.096.03-.144.11-1.18.225-2.36.32-3.543a.867.867 0 0 1 .31-.627c1.57-1.405 3.131-2.818 4.695-4.228 1.732-1.562 3.464-3.122 5.189-4.69.106-.096.151-.26.224-.395-.162-.017-.336-.082-.484-.044-.201.052-.392.169-.571.282-3.821 2.406-7.64 4.817-11.463 7.22-.216.135-.257.25-.174.488.282.81.538 1.627.804 2.442l1.062 3.255z" fill="#1247b3" fill-rule="evenodd"/></svg>
