<svg width="24" height="24" xmlns="http://www.w3.org/2000/svg"><path d="M23.76 6.802s.24 2.027.24 4.054v1.9c0 2.028-.24 4.055-.24 4.055s-.235 1.726-.954 2.486c-.913.996-1.935 1.002-2.404 1.061-3.359.252-8.402.26-8.402.26s-6.24-.059-8.16-.251c-.534-.104-1.733-.074-2.646-1.071-.72-.76-.954-2.486-.954-2.486S0 14.784 0 12.756v-1.9c0-2.027.24-4.054.24-4.054s.235-1.727.954-2.488c.913-.997 1.935-1.003 2.404-1.06C6.956 3 11.994 3 11.994 3h.011s5.038 0 8.397.255c.469.056 1.491.062 2.404 1.06.72.76.954 2.487.954 2.487zM9 7v9l8-4.5L9 7z" fill="#FFF" fill-rule="nonzero"/></svg>