<svg width="1180" height="598" xmlns="http://www.w3.org/2000/svg"><g fill="none" fill-rule="evenodd"><g transform="translate(0 -8)"><rect fill="#F2F6FF" x="937.966" y="42" width="242.034" height="564" rx="5"/><path d="M943.294 9.008c1.184 0 2.144.392 2.88 1.176.736.784 1.104 1.816 1.104 3.096v8.64c0 1.104-.276 2.028-.828 2.772-.552.744-1.292 1.212-2.22 1.404-.064.016-.096.056-.096.12v2.304c0 .16-.08.24-.24.24h-1.224c-.16 0-.24-.08-.24-.24v-2.304c0-.064-.032-.104-.096-.12-.928-.208-1.668-.684-2.22-1.428-.552-.744-.828-1.66-.828-2.748v-8.64c0-1.264.372-2.292 1.116-3.084.744-.792 1.708-1.188 2.892-1.188zm2.28 4.104c0-.768-.208-1.396-.624-1.884-.416-.488-.968-.732-1.656-.732s-1.244.244-1.668.732c-.424.488-.636 1.116-.636 1.884v8.976c0 .768.212 1.396.636 1.884.424.488.98.732 1.668.732s1.24-.244 1.656-.732c.416-.488.624-1.116.624-1.884v-8.976zm5.808-3.84a.6.6 0 0 1 .312-.072h1.296c.16 0 .24.08.24.24v16.32c0 .16-.08.24-.24.24h-1.224c-.16 0-.24-.08-.24-.24V11.048a.08.08 0 0 0-.036-.072c-.024-.016-.052-.016-.084 0l-1.992.888-.096.024c-.128 0-.192-.072-.192-.216v-.864c0-.112.056-.208.168-.288l2.088-1.248zM960.55 26c-.16 0-.24-.08-.24-.24v-1.08c0-.128.032-.232.096-.312.496-.784.776-1.232.84-1.344a194.817 194.817 0 0 0 3.336-5.424c1.024-1.76 1.536-3.216 1.536-4.368 0-.832-.192-1.496-.576-1.992a1.821 1.821 0 0 0-1.512-.744c-.608 0-1.1.244-1.476.732-.376.488-.556 1.132-.54 1.932v.912c0 .16-.08.24-.24.24h-1.248c-.16 0-.24-.08-.24-.24v-.96c.032-1.232.396-2.224 1.092-2.976.696-.752 1.604-1.128 2.724-1.128s2.024.388 2.712 1.164c.688.776 1.032 1.796 1.032 3.06 0 1.504-.568 3.2-1.704 5.088a156.982 156.982 0 0 1-2.592 4.224c-.144.24-.308.516-.492.828-.184.312-.396.652-.636 1.02-.016.032-.016.06 0 .084a.08.08 0 0 0 .072.036h5.592c.16 0 .24.08.24.24v1.008c0 .16-.08.24-.24.24h-7.536zm13.368.24c-1.216 0-2.196-.396-2.94-1.188-.744-.792-1.116-1.828-1.116-3.108v-8.688c0-1.28.372-2.316 1.116-3.108.744-.792 1.724-1.188 2.94-1.188 1.232 0 2.224.396 2.976 1.188.752.792 1.128 1.828 1.128 3.108v8.688c0 1.28-.376 2.316-1.128 3.108-.752.792-1.744 1.188-2.976 1.188zm0-1.488c.72 0 1.3-.248 1.74-.744.44-.496.66-1.152.66-1.968v-8.88c0-.816-.22-1.472-.66-1.968-.44-.496-1.02-.744-1.74-.744-.704 0-1.272.248-1.704.744-.432.496-.648 1.152-.648 1.968v8.88c0 .816.216 1.472.648 1.968.432.496 1 .744 1.704.744zm7.752-15.48a.6.6 0 0 1 .312-.072h1.296c.16 0 .24.08.24.24v16.32c0 .16-.08.24-.24.24h-1.224c-.16 0-.24-.08-.24-.24V11.048a.08.08 0 0 0-.036-.072c-.024-.016-.052-.016-.084 0l-1.992.888-.096.024c-.128 0-.192-.072-.192-.216v-.864c0-.112.056-.208.168-.288l2.088-1.248zm11.568 12.816c0 1.248-.352 2.244-1.056 2.988-.704.744-1.632 1.116-2.784 1.116-1.04 0-1.9-.376-2.58-1.128-.68-.752-1.02-1.744-1.02-2.976v-.384c0-.16.08-.24.24-.24h1.224c.16 0 .24.08.24.24v.336c0 .768.184 1.396.552 1.884.368.488.816.732 1.344.732.64 0 1.152-.24 1.536-.72.384-.48.576-1.112.576-1.896v-3.216c0-.032-.012-.052-.036-.06-.024-.008-.052.004-.084.036-.224.32-.512.564-.864.732a2.695 2.695 0 0 1-1.176.252c-.976 0-1.776-.296-2.4-.888-.624-.592-1.024-1.408-1.2-2.448a10.924 10.924 0 0 1-.192-2.136c0-.688.032-1.28.096-1.776.128-1.136.516-2.008 1.164-2.616.648-.608 1.508-.912 2.58-.912.992 0 1.808.28 2.448.84.64.56 1.04 1.384 1.2 2.472.112.512.168 1.144.168 1.896l.024 7.872zm-3.84-3.792c1.04 0 1.696-.632 1.968-1.896.096-.512.144-1.168.144-1.968 0-.752-.04-1.376-.12-1.872-.272-1.376-.936-2.064-1.992-2.064-.544 0-.988.184-1.332.552-.344.368-.572.912-.684 1.632-.08.64-.12 1.224-.12 1.752 0 .72.072 1.408.216 2.064.128.592.356 1.04.684 1.344.328.304.74.456 1.236.456z" fill="#555"/><rect fill="#F2F6FF" x="160" y="42" width="242.034" height="564" rx="5"/><rect fill="#F2F6FF" y="42" width="143" height="564" rx="5"/><path d="M165.328 9.008c1.184 0 2.144.392 2.88 1.176.736.784 1.104 1.816 1.104 3.096v8.64c0 1.104-.276 2.028-.828 2.772-.552.744-1.292 1.212-2.22 1.404-.064.016-.096.056-.096.12v2.304c0 .16-.08.24-.24.24h-1.224c-.16 0-.24-.08-.24-.24v-2.304c0-.064-.032-.104-.096-.12-.928-.208-1.668-.684-2.22-1.428-.552-.744-.828-1.66-.828-2.748v-8.64c0-1.264.372-2.292 1.116-3.084.744-.792 1.708-1.188 2.892-1.188zm2.28 4.104c0-.768-.208-1.396-.624-1.884-.416-.488-.968-.732-1.656-.732s-1.244.244-1.668.732c-.424.488-.636 1.116-.636 1.884v8.976c0 .768.212 1.396.636 1.884.424.488.98.732 1.668.732s1.24-.244 1.656-.732c.416-.488.624-1.116.624-1.884v-8.976zM171.832 26c-.16 0-.24-.08-.24-.24v-1.08c0-.128.032-.232.096-.312.496-.784.776-1.232.84-1.344a194.817 194.817 0 0 0 3.336-5.424c1.024-1.76 1.536-3.216 1.536-4.368 0-.832-.192-1.496-.576-1.992a1.821 1.821 0 0 0-1.512-.744c-.608 0-1.1.244-1.476.732-.376.488-.556 1.132-.54 1.932v.912c0 .16-.08.24-.24.24h-1.248c-.16 0-.24-.08-.24-.24v-.96c.032-1.232.396-2.224 1.092-2.976.696-.752 1.604-1.128 2.724-1.128s2.024.388 2.712 1.164c.688.776 1.032 1.796 1.032 3.06 0 1.504-.568 3.2-1.704 5.088a156.982 156.982 0 0 1-2.592 4.224c-.144.24-.308.516-.492.828-.184.312-.396.652-.636 1.02-.016.032-.016.06 0 .084a.08.08 0 0 0 .072.036h5.592c.16 0 .24.08.24.24v1.008c0 .16-.08.24-.24.24h-7.536zm14.448 0c-.16 0-.24-.08-.24-.24v-1.08c0-.128.032-.232.096-.312.496-.784.776-1.232.84-1.344a194.817 194.817 0 0 0 3.336-5.424c1.024-1.76 1.536-3.216 1.536-4.368 0-.832-.192-1.496-.576-1.992a1.821 1.821 0 0 0-1.512-.744c-.608 0-1.1.244-1.476.732-.376.488-.556 1.132-.54 1.932v.912c0 .16-.08.24-.24.24h-1.248c-.16 0-.24-.08-.24-.24v-.96c.032-1.232.396-2.224 1.092-2.976.696-.752 1.604-1.128 2.724-1.128s2.024.388 2.712 1.164c.688.776 1.032 1.796 1.032 3.06 0 1.504-.568 3.2-1.704 5.088a156.982 156.982 0 0 1-2.592 4.224c-.144.24-.308.516-.492.828-.184.312-.396.652-.636 1.02-.016.032-.016.06 0 .084a.08.08 0 0 0 .072.036h5.592c.16 0 .24.08.24.24v1.008c0 .16-.08.24-.24.24h-7.536zm13.368.24c-1.216 0-2.196-.396-2.94-1.188-.744-.792-1.116-1.828-1.116-3.108v-8.688c0-1.28.372-2.316 1.116-3.108.744-.792 1.724-1.188 2.94-1.188 1.232 0 2.224.396 2.976 1.188.752.792 1.128 1.828 1.128 3.108v8.688c0 1.28-.376 2.316-1.128 3.108-.752.792-1.744 1.188-2.976 1.188zm0-1.488c.72 0 1.3-.248 1.74-.744.44-.496.66-1.152.66-1.968v-8.88c0-.816-.22-1.472-.66-1.968-.44-.496-1.02-.744-1.74-.744-.704 0-1.272.248-1.704.744-.432.496-.648 1.152-.648 1.968v8.88c0 .816.216 1.472.648 1.968.432.496 1 .744 1.704.744zm7.752-15.48a.6.6 0 0 1 .312-.072h1.296c.16 0 .24.08.24.24v16.32c0 .16-.08.24-.24.24h-1.224c-.16 0-.24-.08-.24-.24V11.048a.08.08 0 0 0-.036-.072c-.024-.016-.052-.016-.084 0l-1.992.888-.096.024c-.128 0-.192-.072-.192-.216v-.864c0-.112.056-.208.168-.288l2.088-1.248zm10.248 7.752c-.08.048-.08.096 0 .144.576.304 1 .76 1.272 1.368.368.816.552 1.744.552 2.784 0 .832-.12 1.592-.36 2.28-.272.816-.712 1.452-1.32 1.908-.608.456-1.336.684-2.184.684-.832 0-1.544-.224-2.136-.672-.592-.448-1.032-1.088-1.32-1.92a7.564 7.564 0 0 1-.336-2.304c0-1.04.152-1.896.456-2.568a2.999 2.999 0 0 1 1.344-1.56c.064-.048.064-.096 0-.144a2.983 2.983 0 0 1-1.296-1.296c-.336-.656-.504-1.472-.504-2.448 0-1.008.168-1.824.504-2.448a3.194 3.194 0 0 1 1.308-1.392c.568-.32 1.228-.48 1.98-.48.736 0 1.392.156 1.968.468a3.132 3.132 0 0 1 1.32 1.356c.384.672.576 1.512.576 2.52 0 .96-.168 1.752-.504 2.376a3.24 3.24 0 0 1-1.32 1.344zm-3.816-5.376c-.24.48-.36 1.072-.36 1.776 0 .72.128 1.32.384 1.8.336.784.92 1.176 1.752 1.176.432 0 .808-.112 1.128-.336.32-.224.56-.536.72-.936.224-.48.336-1.056.336-1.728 0-.72-.136-1.328-.408-1.824-.368-.752-.96-1.128-1.776-1.128-.832 0-1.424.4-1.776 1.2zm3.744 11.256a6.92 6.92 0 0 0 .192-1.68c0-.832-.112-1.52-.336-2.064-.336-.928-.944-1.392-1.824-1.392-.864 0-1.472.496-1.824 1.488-.192.528-.288 1.184-.288 1.968 0 .688.08 1.272.24 1.752.144.56.376.988.696 1.284.32.296.712.444 1.176.444.496 0 .912-.156 1.248-.468.336-.312.576-.756.72-1.332zM5.328 9.008c1.184 0 2.144.392 2.88 1.176.736.784 1.104 1.816 1.104 3.096v8.64c0 1.104-.276 2.028-.828 2.772-.552.744-1.292 1.212-2.22 1.404-.064.016-.096.056-.096.12v2.304c0 .16-.08.24-.24.24H4.704c-.16 0-.24-.08-.24-.24v-2.304c0-.064-.032-.104-.096-.12-.928-.208-1.668-.684-2.22-1.428-.552-.744-.828-1.66-.828-2.748v-8.64c0-1.264.372-2.292 1.116-3.084.744-.792 1.708-1.188 2.892-1.188zm2.28 4.104c0-.768-.208-1.396-.624-1.884-.416-.488-.968-.732-1.656-.732s-1.244.244-1.668.732c-.424.488-.636 1.116-.636 1.884v8.976c0 .768.212 1.396.636 1.884.424.488.98.732 1.668.732s1.24-.244 1.656-.732c.416-.488.624-1.116.624-1.884v-8.976zm5.808-3.84a.6.6 0 0 1 .312-.072h1.296c.16 0 .24.08.24.24v16.32c0 .16-.08.24-.24.24H13.8c-.16 0-.24-.08-.24-.24V11.048a.08.08 0 0 0-.036-.072c-.024-.016-.052-.016-.084 0l-1.992.888-.096.024c-.128 0-.192-.072-.192-.216v-.864c0-.112.056-.208.168-.288l2.088-1.248zM22.584 26c-.16 0-.24-.08-.24-.24v-1.08c0-.128.032-.232.096-.312.496-.784.776-1.232.84-1.344a194.817 194.817 0 0 0 3.336-5.424c1.024-1.76 1.536-3.216 1.536-4.368 0-.832-.192-1.496-.576-1.992a1.821 1.821 0 0 0-1.512-.744c-.608 0-1.1.244-1.476.732-.376.488-.556 1.132-.54 1.932v.912c0 .16-.08.24-.24.24H22.56c-.16 0-.24-.08-.24-.24v-.96c.032-1.232.396-2.224 1.092-2.976.696-.752 1.604-1.128 2.724-1.128s2.024.388 2.712 1.164c.688.776 1.032 1.796 1.032 3.06 0 1.504-.568 3.2-1.704 5.088a156.98 156.98 0 0 1-2.592 4.224c-.144.24-.308.516-.492.828-.184.312-.396.652-.636 1.02-.016.032-.016.06 0 .084a.08.08 0 0 0 .072.036h5.592c.16 0 .24.08.24.24v1.008c0 .16-.08.24-.24.24h-7.536zm13.368.24c-1.216 0-2.196-.396-2.94-1.188-.744-.792-1.116-1.828-1.116-3.108v-8.688c0-1.28.372-2.316 1.116-3.108.744-.792 1.724-1.188 2.94-1.188 1.232 0 2.224.396 2.976 1.188.752.792 1.128 1.828 1.128 3.108v8.688c0 1.28-.376 2.316-1.128 3.108-.752.792-1.744 1.188-2.976 1.188zm0-1.488c.72 0 1.3-.248 1.74-.744.44-.496.66-1.152.66-1.968v-8.88c0-.816-.22-1.472-.66-1.968-.44-.496-1.02-.744-1.74-.744-.704 0-1.272.248-1.704.744-.432.496-.648 1.152-.648 1.968v8.88c0 .816.216 1.472.648 1.968.432.496 1 .744 1.704.744zm7.752-15.48a.6.6 0 0 1 .312-.072h1.296c.16 0 .24.08.24.24v16.32c0 .16-.08.24-.24.24h-1.224c-.16 0-.24-.08-.24-.24V11.048a.08.08 0 0 0-.036-.072c-.024-.016-.052-.016-.084 0l-1.992.888-.096.024c-.128 0-.192-.072-.192-.216v-.864c0-.112.056-.208.168-.288l2.088-1.248zM49.536 26c-.08 0-.14-.024-.18-.072-.04-.048-.052-.112-.036-.192l4.104-14.952c.016-.016.012-.036-.012-.06a.115.115 0 0 0-.084-.036h-4.392c-.064 0-.096.032-.096.096v.984c0 .16-.08.24-.24.24h-.936c-.16 0-.24-.08-.24-.24V9.44c0-.16.08-.24.24-.24h7.344c.16 0 .24.08.24.24v1.104c0 .032-.016.128-.048.288l-4.08 14.952c-.032.144-.12.216-.264.216h-1.32z" fill="#BFBFBF"/><rect fill="#F2F6FF" x="419.322" y="42" width="242.034" height="564" rx="5"/><path d="M424.65 9.008c1.184 0 2.144.392 2.88 1.176.736.784 1.104 1.816 1.104 3.096v8.64c0 1.104-.276 2.028-.828 2.772-.552.744-1.292 1.212-2.22 1.404-.064.016-.096.056-.096.12v2.304c0 .16-.08.24-.24.24h-1.224c-.16 0-.24-.08-.24-.24v-2.304c0-.064-.032-.104-.096-.12-.928-.208-1.668-.684-2.22-1.428-.552-.744-.828-1.66-.828-2.748v-8.64c0-1.264.372-2.292 1.116-3.084.744-.792 1.708-1.188 2.892-1.188zm2.28 4.104c0-.768-.208-1.396-.624-1.884-.416-.488-.968-.732-1.656-.732s-1.244.244-1.668.732c-.424.488-.636 1.116-.636 1.884v8.976c0 .768.212 1.396.636 1.884.424.488.98.732 1.668.732s1.24-.244 1.656-.732c.416-.488.624-1.116.624-1.884v-8.976zm11.976 5.472c.144.592.216 1.368.216 2.328 0 .832-.048 1.504-.144 2.016-.16.992-.592 1.784-1.296 2.376-.704.592-1.592.888-2.664.888-1.104 0-2.012-.296-2.724-.888-.712-.592-1.148-1.4-1.308-2.424a10.067 10.067 0 0 1-.144-1.704c0-.16.08-.24.24-.24h1.224c.16 0 .24.08.24.24 0 .56.032 1.024.096 1.392.128.672.4 1.196.816 1.572.416.376.936.564 1.56.564.608 0 1.12-.184 1.536-.552.416-.368.688-.864.816-1.488.08-.48.12-1.112.12-1.896 0-.88-.056-1.592-.168-2.136-.144-.608-.42-1.084-.828-1.428-.408-.344-.9-.516-1.476-.516-.224 0-.432.056-.624.168a.334.334 0 0 1-.144.024.228.228 0 0 1-.192-.096l-.6-.6c-.096-.096-.104-.208-.024-.336l3.6-5.04c.016-.016.016-.04 0-.072-.016-.032-.04-.048-.072-.048h-5.76c-.16 0-.24-.08-.24-.24V9.44c0-.16.08-.24.24-.24h7.584c.16 0 .24.08.24.24v1.08a.484.484 0 0 1-.096.312l-3.072 4.44c-.048.048-.024.088.072.12.752.096 1.396.448 1.932 1.056a4.47 4.47 0 0 1 1.044 2.136zM446.394 26c-.16 0-.24-.08-.24-.24v-1.08c0-.128.032-.232.096-.312.496-.784.776-1.232.84-1.344a194.817 194.817 0 0 0 3.336-5.424c1.024-1.76 1.536-3.216 1.536-4.368 0-.832-.192-1.496-.576-1.992a1.821 1.821 0 0 0-1.512-.744c-.608 0-1.1.244-1.476.732-.376.488-.556 1.132-.54 1.932v.912c0 .16-.08.24-.24.24h-1.248c-.16 0-.24-.08-.24-.24v-.96c.032-1.232.396-2.224 1.092-2.976.696-.752 1.604-1.128 2.724-1.128s2.024.388 2.712 1.164c.688.776 1.032 1.796 1.032 3.06 0 1.504-.568 3.2-1.704 5.088a156.982 156.982 0 0 1-2.592 4.224c-.144.24-.308.516-.492.828-.184.312-.396.652-.636 1.02-.016.032-.016.06 0 .084a.08.08 0 0 0 .072.036h5.592c.16 0 .24.08.24.24v1.008c0 .16-.08.24-.24.24h-7.536zm13.368.24c-1.216 0-2.196-.396-2.94-1.188-.744-.792-1.116-1.828-1.116-3.108v-8.688c0-1.28.372-2.316 1.116-3.108.744-.792 1.724-1.188 2.94-1.188 1.232 0 2.224.396 2.976 1.188.752.792 1.128 1.828 1.128 3.108v8.688c0 1.28-.376 2.316-1.128 3.108-.752.792-1.744 1.188-2.976 1.188zm0-1.488c.72 0 1.3-.248 1.74-.744.44-.496.66-1.152.66-1.968v-8.88c0-.816-.22-1.472-.66-1.968-.44-.496-1.02-.744-1.74-.744-.704 0-1.272.248-1.704.744-.432.496-.648 1.152-.648 1.968v8.88c0 .816.216 1.472.648 1.968.432.496 1 .744 1.704.744zm7.752-15.48a.6.6 0 0 1 .312-.072h1.296c.16 0 .24.08.24.24v16.32c0 .16-.08.24-.24.24h-1.224c-.16 0-.24-.08-.24-.24V11.048a.08.08 0 0 0-.036-.072c-.024-.016-.052-.016-.084 0l-1.992.888-.096.024c-.128 0-.192-.072-.192-.216v-.864c0-.112.056-.208.168-.288l2.088-1.248zm10.248 7.752c-.08.048-.08.096 0 .144.576.304 1 .76 1.272 1.368.368.816.552 1.744.552 2.784 0 .832-.12 1.592-.36 2.28-.272.816-.712 1.452-1.32 1.908-.608.456-1.336.684-2.184.684-.832 0-1.544-.224-2.136-.672-.592-.448-1.032-1.088-1.32-1.92a7.564 7.564 0 0 1-.336-2.304c0-1.04.152-1.896.456-2.568a2.999 2.999 0 0 1 1.344-1.56c.064-.048.064-.096 0-.144a2.983 2.983 0 0 1-1.296-1.296c-.336-.656-.504-1.472-.504-2.448 0-1.008.168-1.824.504-2.448a3.194 3.194 0 0 1 1.308-1.392c.568-.32 1.228-.48 1.98-.48.736 0 1.392.156 1.968.468a3.132 3.132 0 0 1 1.32 1.356c.384.672.576 1.512.576 2.52 0 .96-.168 1.752-.504 2.376a3.24 3.24 0 0 1-1.32 1.344zm-3.816-5.376c-.24.48-.36 1.072-.36 1.776 0 .72.128 1.32.384 1.8.336.784.92 1.176 1.752 1.176.432 0 .808-.112 1.128-.336.32-.224.56-.536.72-.936.224-.48.336-1.056.336-1.728 0-.72-.136-1.328-.408-1.824-.368-.752-.96-1.128-1.776-1.128-.832 0-1.424.4-1.776 1.2zm3.744 11.256a6.92 6.92 0 0 0 .192-1.68c0-.832-.112-1.52-.336-2.064-.336-.928-.944-1.392-1.824-1.392-.864 0-1.472.496-1.824 1.488-.192.528-.288 1.184-.288 1.968 0 .688.08 1.272.24 1.752.144.56.376.988.696 1.284.32.296.712.444 1.176.444.496 0 .912-.156 1.248-.468.336-.312.576-.756.72-1.332z" fill="#555"/><rect fill="#F2F6FF" x="678.644" y="42" width="242.034" height="564" rx="5"/><path d="M683.972 9.008c1.184 0 2.144.392 2.88 1.176.736.784 1.104 1.816 1.104 3.096v8.64c0 1.104-.276 2.028-.828 2.772-.552.744-1.292 1.212-2.22 1.404-.064.016-.096.056-.096.12v2.304c0 .16-.08.24-.24.24h-1.224c-.16 0-.24-.08-.24-.24v-2.304c0-.064-.032-.104-.096-.12-.928-.208-1.668-.684-2.22-1.428-.552-.744-.828-1.66-.828-2.748v-8.64c0-1.264.372-2.292 1.116-3.084.744-.792 1.708-1.188 2.892-1.188zm2.28 4.104c0-.768-.208-1.396-.624-1.884-.416-.488-.968-.732-1.656-.732s-1.244.244-1.668.732c-.424.488-.636 1.116-.636 1.884v8.976c0 .768.212 1.396.636 1.884.424.488.98.732 1.668.732s1.24-.244 1.656-.732c.416-.488.624-1.116.624-1.884v-8.976zm11.88 6.744c.16 0 .24.08.24.24v1.056c0 .16-.08.24-.24.24h-.744c-.064 0-.096.032-.096.096v4.272c0 .16-.08.24-.24.24h-1.224c-.16 0-.24-.08-.24-.24v-4.272c0-.064-.032-.096-.096-.096h-5.448c-.16 0-.24-.08-.24-.24v-.912c0-.064.016-.16.048-.288l3.6-10.56c.048-.128.144-.192.288-.192h1.32c.176 0 .24.088.192.264l-3.456 10.272c-.016.032-.016.06 0 .084a.08.08 0 0 0 .072.036h3.624c.064 0 .096-.032.096-.096v-3.672c0-.16.08-.24.24-.24h1.224c.16 0 .24.08.24.24v3.672c0 .064.032.096.096.096h.744zM704.9 26c-.16 0-.24-.08-.24-.24v-1.08c0-.128.032-.232.096-.312.496-.784.776-1.232.84-1.344a194.817 194.817 0 0 0 3.336-5.424c1.024-1.76 1.536-3.216 1.536-4.368 0-.832-.192-1.496-.576-1.992a1.821 1.821 0 0 0-1.512-.744c-.608 0-1.1.244-1.476.732-.376.488-.556 1.132-.54 1.932v.912c0 .16-.08.24-.24.24h-1.248c-.16 0-.24-.08-.24-.24v-.96c.032-1.232.396-2.224 1.092-2.976.696-.752 1.604-1.128 2.724-1.128s2.024.388 2.712 1.164c.688.776 1.032 1.796 1.032 3.06 0 1.504-.568 3.2-1.704 5.088a156.982 156.982 0 0 1-2.592 4.224c-.144.24-.308.516-.492.828-.184.312-.396.652-.636 1.02-.016.032-.016.06 0 .084a.08.08 0 0 0 .072.036h5.592c.16 0 .24.08.24.24v1.008c0 .16-.08.24-.24.24H704.9zm13.368.24c-1.216 0-2.196-.396-2.94-1.188-.744-.792-1.116-1.828-1.116-3.108v-8.688c0-1.28.372-2.316 1.116-3.108.744-.792 1.724-1.188 2.94-1.188 1.232 0 2.224.396 2.976 1.188.752.792 1.128 1.828 1.128 3.108v8.688c0 1.28-.376 2.316-1.128 3.108-.752.792-1.744 1.188-2.976 1.188zm0-1.488c.72 0 1.3-.248 1.74-.744.44-.496.66-1.152.66-1.968v-8.88c0-.816-.22-1.472-.66-1.968-.44-.496-1.02-.744-1.74-.744-.704 0-1.272.248-1.704.744-.432.496-.648 1.152-.648 1.968v8.88c0 .816.216 1.472.648 1.968.432.496 1 .744 1.704.744zm7.752-15.48a.6.6 0 0 1 .312-.072h1.296c.16 0 .24.08.24.24v16.32c0 .16-.08.24-.24.24h-1.224c-.16 0-.24-.08-.24-.24V11.048a.08.08 0 0 0-.036-.072c-.024-.016-.052-.016-.084 0l-1.992.888-.096.024c-.128 0-.192-.072-.192-.216v-.864c0-.112.056-.208.168-.288l2.088-1.248zm10.248 7.752c-.08.048-.08.096 0 .144.576.304 1 .76 1.272 1.368.368.816.552 1.744.552 2.784 0 .832-.12 1.592-.36 2.28-.272.816-.712 1.452-1.32 1.908-.608.456-1.336.684-2.184.684-.832 0-1.544-.224-2.136-.672-.592-.448-1.032-1.088-1.32-1.92a7.564 7.564 0 0 1-.336-2.304c0-1.04.152-1.896.456-2.568a2.999 2.999 0 0 1 1.344-1.56c.064-.048.064-.096 0-.144a2.983 2.983 0 0 1-1.296-1.296c-.336-.656-.504-1.472-.504-2.448 0-1.008.168-1.824.504-2.448a3.194 3.194 0 0 1 1.308-1.392c.568-.32 1.228-.48 1.98-.48.736 0 1.392.156 1.968.468a3.132 3.132 0 0 1 1.32 1.356c.384.672.576 1.512.576 2.52 0 .96-.168 1.752-.504 2.376a3.24 3.24 0 0 1-1.32 1.344zm-3.816-5.376c-.24.48-.36 1.072-.36 1.776 0 .72.128 1.32.384 1.8.336.784.92 1.176 1.752 1.176.432 0 .808-.112 1.128-.336.32-.224.56-.536.72-.936.224-.48.336-1.056.336-1.728 0-.72-.136-1.328-.408-1.824-.368-.752-.96-1.128-1.776-1.128-.832 0-1.424.4-1.776 1.2zm3.744 11.256a6.92 6.92 0 0 0 .192-1.68c0-.832-.112-1.52-.336-2.064-.336-.928-.944-1.392-1.824-1.392-.864 0-1.472.496-1.824 1.488-.192.528-.288 1.184-.288 1.968 0 .688.08 1.272.24 1.752.144.56.376.988.696 1.284.32.296.712.444 1.176.444.496 0 .912-.156 1.248-.468.336-.312.576-.756.72-1.332z" fill="#555"/></g><g transform="translate(160 58)"><rect fill="#29CC7A" width="241.9" height="40" rx="5"/><path d="M14.144 25V13.72h2.064v9.584h5.264V25h-7.328zm12.064-8.016c1.098 0 1.914.267 2.448.8.533.533.8 1.355.8 2.464V25h-1.904v-1.2a2.088 2.088 0 0 1-.856.976c-.39.235-.84.352-1.352.352a3.14 3.14 0 0 1-1.424-.32 2.533 2.533 0 0 1-1.008-.88 2.224 2.224 0 0 1-.368-1.248c0-.576.146-1.03.44-1.36.293-.33.77-.57 1.432-.72.661-.15 1.573-.224 2.736-.224h.4v-.368c0-.533-.115-.917-.344-1.152-.23-.235-.61-.352-1.144-.352-.416 0-.85.072-1.304.216a6.595 6.595 0 0 0-1.336.6l-.56-1.376c.437-.277.965-.507 1.584-.688a6.262 6.262 0 0 1 1.76-.272zm-.464 6.704c.533 0 .968-.179 1.304-.536.336-.357.504-.819.504-1.384v-.336h-.288c-.715 0-1.27.032-1.664.096-.395.064-.678.176-.848.336-.17.16-.256.379-.256.656 0 .341.117.621.352.84.234.219.533.328.896.328zm12.928-6.512V25H36.72v-1.2a2.549 2.549 0 0 1-.992.984c-.416.23-.886.344-1.408.344-1.92 0-2.88-1.077-2.88-3.232v-4.72h2v4.736c0 .555.112.965.336 1.232.224.267.576.4 1.056.4.554 0 1-.184 1.336-.552.336-.368.504-.856.504-1.464v-4.352h2zm6.624-.192c.938 0 1.637.267 2.096.8.458.533.688 1.339.688 2.416V25h-2v-4.688c0-.608-.115-1.05-.344-1.328-.23-.277-.59-.416-1.08-.416-.576 0-1.038.181-1.384.544-.347.363-.52.848-.52 1.456V25h-2v-7.824h1.952v1.168a2.706 2.706 0 0 1 1.072-1.008 3.226 3.226 0 0 1 1.52-.352zm8.384 8.144c-.822 0-1.534-.165-2.136-.496a3.355 3.355 0 0 1-1.384-1.408c-.32-.608-.48-1.317-.48-2.128 0-.81.168-1.528.504-2.152a3.533 3.533 0 0 1 1.432-1.448c.618-.341 1.333-.512 2.144-.512.554 0 1.096.088 1.624.264.528.176.952.413 1.272.712l-.576 1.408c-.33-.267-.68-.47-1.048-.608a3.091 3.091 0 0 0-1.096-.208c-.694 0-1.232.216-1.616.648-.384.432-.576 1.053-.576 1.864 0 .8.192 1.416.576 1.848.384.432.922.648 1.616.648.362 0 .728-.07 1.096-.208a3.803 3.803 0 0 0 1.048-.608l.576 1.392c-.342.31-.779.552-1.312.728a5.275 5.275 0 0 1-1.664.264zm8.784-8.144c.938 0 1.637.267 2.096.8.458.533.688 1.339.688 2.416V25h-2v-4.688c0-.608-.115-1.05-.344-1.328-.23-.277-.59-.416-1.08-.416-.576 0-1.038.181-1.384.544-.347.363-.52.848-.52 1.456V25h-2V13.72h2v4.544a2.62 2.62 0 0 1 1.064-.952 3.296 3.296 0 0 1 1.48-.328zm4.64.192h2.24v2.208h-2.24v-2.208zm0 5.616h2.24V25h-2.24v-2.208zm8.656-9.072h4.16c1.845 0 3.277.493 4.296 1.48 1.018.987 1.528 2.37 1.528 4.152 0 1.781-.51 3.168-1.528 4.16-1.019.992-2.45 1.488-4.296 1.488h-4.16V13.72zm4.032 9.6c2.592 0 3.888-1.323 3.888-3.968 0-2.635-1.296-3.952-3.888-3.952h-1.968v7.92h1.968zm11.424 1.808c-.8 0-1.502-.165-2.104-.496a3.432 3.432 0 0 1-1.4-1.424c-.33-.619-.496-1.339-.496-2.16 0-.821.165-1.539.496-2.152a3.444 3.444 0 0 1 1.4-1.416c.602-.33 1.304-.496 2.104-.496s1.501.165 2.104.496c.602.33 1.066.803 1.392 1.416.325.613.488 1.33.488 2.152 0 .821-.163 1.541-.488 2.16a3.382 3.382 0 0 1-1.392 1.424c-.603.33-1.304.496-2.104.496zm-.016-1.552c.65 0 1.146-.213 1.488-.64.341-.427.512-1.056.512-1.888 0-.821-.17-1.448-.512-1.88-.342-.432-.832-.648-1.472-.648s-1.134.216-1.48.648c-.347.432-.52 1.059-.52 1.88 0 .832.17 1.461.512 1.888.341.427.832.64 1.472.64zm10.192-6.592c.938 0 1.637.267 2.096.8.458.533.688 1.339.688 2.416V25h-2v-4.688c0-.608-.115-1.05-.344-1.328-.23-.277-.59-.416-1.08-.416-.576 0-1.038.181-1.384.544-.347.363-.52.848-.52 1.456V25h-2v-7.824H98.8v1.168a2.706 2.706 0 0 1 1.072-1.008 3.226 3.226 0 0 1 1.52-.352zm11.68 4.464h-5.328c.064.725.282 1.264.656 1.616.373.352.906.528 1.6.528.864 0 1.653-.277 2.368-.832l.576 1.376c-.363.299-.819.539-1.368.72a5.254 5.254 0 0 1-1.656.272c-1.28 0-2.29-.363-3.032-1.088-.742-.725-1.112-1.717-1.112-2.976 0-.8.16-1.51.48-2.128a3.49 3.49 0 0 1 1.352-1.44c.581-.341 1.24-.512 1.976-.512 1.077 0 1.928.347 2.552 1.04.624.693.936 1.648.936 2.864v.56zm-3.44-3.056c-.534 0-.963.17-1.288.512-.326.341-.526.832-.6 1.472h3.616c-.022-.65-.182-1.144-.48-1.48-.299-.336-.715-.504-1.248-.504z" fill="#FFF"/></g><g transform="translate(0 58)"><rect fill="#29CC7A" width="143" height="40" rx="5"/><path d="M16.8 25v-9.584h-3.68V13.72h9.424v1.696h-3.68V25H16.8zm13.84-3.552h-5.328c.064.725.282 1.264.656 1.616.373.352.906.528 1.6.528.864 0 1.653-.277 2.368-.832l.576 1.376c-.363.299-.819.539-1.368.72a5.254 5.254 0 0 1-1.656.272c-1.28 0-2.29-.363-3.032-1.088-.742-.725-1.112-1.717-1.112-2.976 0-.8.16-1.51.48-2.128a3.49 3.49 0 0 1 1.352-1.44c.581-.341 1.24-.512 1.976-.512 1.077 0 1.928.347 2.552 1.04.624.693.936 1.648.936 2.864v.56zm-3.44-3.056c-.534 0-.963.17-1.288.512-.326.341-.526.832-.6 1.472h3.616c-.022-.65-.182-1.144-.48-1.48-.299-.336-.715-.504-1.248-.504zm8.64 6.736c-.822 0-1.534-.165-2.136-.496a3.355 3.355 0 0 1-1.384-1.408c-.32-.608-.48-1.317-.48-2.128 0-.81.168-1.528.504-2.152a3.533 3.533 0 0 1 1.432-1.448c.618-.341 1.333-.512 2.144-.512.554 0 1.096.088 1.624.264.528.176.952.413 1.272.712l-.576 1.408c-.33-.267-.68-.47-1.048-.608a3.091 3.091 0 0 0-1.096-.208c-.694 0-1.232.216-1.616.648-.384.432-.576 1.053-.576 1.864 0 .8.192 1.416.576 1.848.384.432.922.648 1.616.648.362 0 .728-.07 1.096-.208a3.803 3.803 0 0 0 1.048-.608l.576 1.392c-.342.31-.779.552-1.312.728a5.275 5.275 0 0 1-1.664.264zm8.784-8.144c.938 0 1.637.267 2.096.8.458.533.688 1.339.688 2.416V25h-2v-4.688c0-.608-.115-1.05-.344-1.328-.23-.277-.59-.416-1.08-.416-.576 0-1.038.181-1.384.544-.347.363-.52.848-.52 1.456V25h-2V13.72h2v4.544a2.62 2.62 0 0 1 1.064-.952 3.296 3.296 0 0 1 1.48-.328zM62.576 25l-1.136-2.64h-5.488L54.816 25h-2.08l5.104-11.28h1.68L64.624 25h-2.048zm-5.952-4.24h4.128l-2.064-4.8-2.064 4.8zm12.592 4.368c-.822 0-1.534-.165-2.136-.496a3.355 3.355 0 0 1-1.384-1.408c-.32-.608-.48-1.317-.48-2.128 0-.81.168-1.528.504-2.152a3.533 3.533 0 0 1 1.432-1.448c.618-.341 1.333-.512 2.144-.512.554 0 1.096.088 1.624.264.528.176.952.413 1.272.712l-.576 1.408c-.33-.267-.68-.47-1.048-.608a3.091 3.091 0 0 0-1.096-.208c-.694 0-1.232.216-1.616.648-.384.432-.576 1.053-.576 1.864 0 .8.192 1.416.576 1.848.384.432.922.648 1.616.648.362 0 .728-.07 1.096-.208a3.803 3.803 0 0 0 1.048-.608l.576 1.392c-.342.31-.779.552-1.312.728a5.275 5.275 0 0 1-1.664.264zm8.24-1.504c.234 0 .48-.016.736-.048l-.096 1.488c-.32.032-.614.048-.88.048-1.099 0-1.91-.253-2.432-.76-.523-.507-.784-1.261-.784-2.264V18.68h-1.504v-1.504H74V14.84h2v2.336h2.064v1.504H76v3.376c0 1.045.485 1.568 1.456 1.568zM79.36 25v-7.824h2V25h-2zm-.112-11.456h2.208v1.968h-2.208v-1.968zm9.664 3.648h1.968L87.456 25h-1.744l-3.392-7.808h2.112l2.208 5.52 2.272-5.52zm9.792 4.256h-5.328c.064.725.282 1.264.656 1.616.373.352.906.528 1.6.528.864 0 1.653-.277 2.368-.832l.576 1.376c-.363.299-.819.539-1.368.72a5.254 5.254 0 0 1-1.656.272c-1.28 0-2.29-.363-3.032-1.088-.742-.725-1.112-1.717-1.112-2.976 0-.8.16-1.51.48-2.128a3.49 3.49 0 0 1 1.352-1.44c.581-.341 1.24-.512 1.976-.512 1.077 0 1.928.347 2.552 1.04.624.693.936 1.648.936 2.864v.56zm-3.44-3.056c-.534 0-.963.17-1.288.512-.326.341-.526.832-.6 1.472h3.616c-.022-.65-.182-1.144-.48-1.48-.299-.336-.715-.504-1.248-.504z" fill="#FFF"/></g><g transform="translate(160 238)"><rect fill="#1247B3" width="501.127" height="40" rx="5"/><path d="M23.584 18.904v5.408c-.512.256-1.133.459-1.864.608-.73.15-1.474.224-2.232.224-1.162 0-2.17-.232-3.024-.696a4.697 4.697 0 0 1-1.96-2c-.453-.87-.68-1.901-.68-3.096 0-1.184.227-2.21.68-3.08a4.734 4.734 0 0 1 1.936-2c.838-.464 1.822-.696 2.952-.696.79 0 1.53.115 2.224.344.694.23 1.27.557 1.728.984l-.688 1.488c-.522-.405-1.037-.696-1.544-.872a5.066 5.066 0 0 0-1.672-.264c-1.162 0-2.04.344-2.632 1.032-.592.688-.888 1.71-.888 3.064 0 2.773 1.216 4.16 3.648 4.16.726 0 1.45-.101 2.176-.304v-2.832h-2.432v-1.472h4.272zm7.296-.256l-1.168.112c-1.322.139-1.984.81-1.984 2.016V25h-2v-7.824h1.904v1.376c.406-.939 1.243-1.45 2.512-1.536l.608-.048.128 1.68zm4.544 6.48c-.8 0-1.501-.165-2.104-.496a3.432 3.432 0 0 1-1.4-1.424c-.33-.619-.496-1.339-.496-2.16 0-.821.166-1.539.496-2.152a3.444 3.444 0 0 1 1.4-1.416c.603-.33 1.304-.496 2.104-.496s1.502.165 2.104.496c.603.33 1.067.803 1.392 1.416.326.613.488 1.33.488 2.152 0 .821-.162 1.541-.488 2.16a3.382 3.382 0 0 1-1.392 1.424c-.602.33-1.304.496-2.104.496zm-.016-1.552c.65 0 1.147-.213 1.488-.64.342-.427.512-1.056.512-1.888 0-.821-.17-1.448-.512-1.88-.341-.432-.832-.648-1.472-.648s-1.133.216-1.48.648c-.346.432-.52 1.059-.52 1.88 0 .832.17 1.461.512 1.888.342.427.832.64 1.472.64zm16.208-6.4h1.952L50.496 25h-1.744l-1.92-5.04L44.96 25h-1.728l-3.088-7.824h2.048l2 5.44 2-5.44h1.44l2 5.472 1.984-5.472zm17.056 1.728v5.408c-.512.256-1.133.459-1.864.608-.73.15-1.474.224-2.232.224-1.162 0-2.17-.232-3.024-.696a4.697 4.697 0 0 1-1.96-2c-.453-.87-.68-1.901-.68-3.096 0-1.184.227-2.21.68-3.08a4.734 4.734 0 0 1 1.936-2c.838-.464 1.822-.696 2.952-.696.79 0 1.53.115 2.224.344.694.23 1.27.557 1.728.984l-.688 1.488c-.522-.405-1.037-.696-1.544-.872a5.066 5.066 0 0 0-1.672-.264c-1.162 0-2.04.344-2.632 1.032-.592.688-.888 1.71-.888 3.064 0 2.773 1.216 4.16 3.648 4.16.726 0 1.45-.101 2.176-.304v-2.832H64.4v-1.472h4.272zM80.448 25h-2.24l-1.936-3.6c-.181-.341-.405-.581-.672-.72-.266-.139-.602-.208-1.008-.208h-1.568V25h-2.032V13.72h4.992c1.28 0 2.254.285 2.92.856.667.57 1 1.395 1 2.472 0 .864-.242 1.576-.728 2.136-.485.56-1.17.925-2.056 1.096.598.16 1.078.581 1.44 1.264L80.448 25zm-4.752-6.112c.779 0 1.35-.147 1.712-.44.363-.293.544-.744.544-1.352 0-.619-.181-1.07-.544-1.352-.362-.283-.933-.424-1.712-.424h-2.688v3.568h2.688zM82.112 25V13.72h2.064V25h-2.064zm4.496-11.28h4.16c1.846 0 3.278.493 4.296 1.48 1.019.987 1.528 2.37 1.528 4.152 0 1.781-.51 3.168-1.528 4.16S92.614 25 90.768 25h-4.16V13.72zm4.032 9.6c2.592 0 3.888-1.323 3.888-3.968 0-2.635-1.296-3.952-3.888-3.952h-1.968v7.92h1.968zm7.68-6.144h2.24v2.208h-2.24v-2.208zm0 5.616h2.24V25h-2.24v-2.208zm8.832-9.072h4.464c1.184 0 2.104.288 2.76.864.656.576.984 1.392.984 2.448s-.33 1.877-.992 2.464c-.661.587-1.578.88-2.752.88h-3.152V25h-1.312V13.72zm4.336 5.568c1.718 0 2.576-.752 2.576-2.256 0-1.483-.858-2.224-2.576-2.224h-3.024v4.48h3.024zm10.208-1.152l-.848.08c-.8.075-1.378.325-1.736.752-.357.427-.536.955-.536 1.584V25h-1.296v-7.792h1.264v1.36c.438-.907 1.296-1.413 2.576-1.52l.464-.032.112 1.12zm4.464 6.976c-.736 0-1.384-.165-1.944-.496a3.305 3.305 0 0 1-1.296-1.416c-.304-.613-.456-1.325-.456-2.136 0-.81.152-1.523.456-2.136a3.305 3.305 0 0 1 1.296-1.416c.56-.33 1.208-.496 1.944-.496s1.387.165 1.952.496c.566.33 1 .803 1.304 1.416.304.613.456 1.325.456 2.136 0 .81-.152 1.523-.456 2.136a3.29 3.29 0 0 1-1.304 1.416c-.565.33-1.216.496-1.952.496zm0-1.072c.768 0 1.358-.253 1.768-.76.41-.507.616-1.245.616-2.216 0-.95-.208-1.683-.624-2.2-.416-.517-1.002-.776-1.76-.776-.757 0-1.344.259-1.76.776-.416.517-.624 1.25-.624 2.2 0 .96.206 1.696.616 2.208.41.512 1 .768 1.768.768zm14.32-7.024c1.728 0 2.592 1.03 2.592 3.088V25h-1.296v-4.832c0-.715-.125-1.237-.376-1.568-.25-.33-.653-.496-1.208-.496-.65 0-1.162.219-1.536.656-.373.437-.56 1.035-.56 1.792V25H136.8v-4.832c0-.725-.128-1.25-.384-1.576-.256-.325-.661-.488-1.216-.488-.65 0-1.162.219-1.536.656-.373.437-.56 1.035-.56 1.792V25h-1.296v-7.792h1.28v1.232c.235-.459.56-.81.976-1.056.416-.245.896-.368 1.44-.368 1.206 0 2 .512 2.384 1.536.224-.48.566-.856 1.024-1.128a3.015 3.015 0 0 1 1.568-.408zm8.192 8.096c-.736 0-1.384-.165-1.944-.496a3.305 3.305 0 0 1-1.296-1.416c-.304-.613-.456-1.325-.456-2.136 0-.81.152-1.523.456-2.136a3.305 3.305 0 0 1 1.296-1.416c.56-.33 1.208-.496 1.944-.496s1.387.165 1.952.496c.566.33 1 .803 1.304 1.416.304.613.456 1.325.456 2.136 0 .81-.152 1.523-.456 2.136a3.29 3.29 0 0 1-1.304 1.416c-.565.33-1.216.496-1.952.496zm0-1.072c.768 0 1.358-.253 1.768-.76.41-.507.616-1.245.616-2.216 0-.95-.208-1.683-.624-2.2-.416-.517-1.002-.776-1.76-.776-.757 0-1.344.259-1.76.776-.416.517-.624 1.25-.624 2.2 0 .96.206 1.696.616 2.208.41.512 1 .768 1.768.768zm9.072.032c.235 0 .47-.016.704-.048l-.064 1.024a4.677 4.677 0 0 1-.8.064c-.938 0-1.645-.245-2.12-.736-.474-.49-.712-1.173-.712-2.048v-4.096h-1.52v-1.024h1.52V14.84h1.296v2.368h2.208v1.024h-2.208v4c0 1.227.566 1.84 1.696 1.84zm8.544-2.768h-5.696c.043.907.288 1.592.736 2.056.448.464 1.083.696 1.904.696.907 0 1.739-.31 2.496-.928l.432.944c-.341.32-.778.573-1.312.76a4.907 4.907 0 0 1-1.632.28c-1.216 0-2.173-.357-2.872-1.072-.698-.715-1.048-1.701-1.048-2.96 0-.8.155-1.507.464-2.12.31-.613.744-1.09 1.304-1.432.56-.341 1.198-.512 1.912-.512 1.035 0 1.846.339 2.432 1.016.587.677.88 1.608.88 2.792v.48zm-3.296-3.28c-.682 0-1.23.213-1.64.64-.41.427-.653 1.03-.728 1.808h4.528c-.021-.79-.218-1.395-.592-1.816-.373-.421-.896-.632-1.568-.632zm14.336 7.104c-1.066 0-1.994-.232-2.784-.696-.79-.464-1.394-1.13-1.816-2-.421-.87-.632-1.896-.632-3.08 0-1.184.21-2.208.632-3.072.422-.864 1.027-1.528 1.816-1.992.79-.464 1.718-.696 2.784-.696.779 0 1.494.12 2.144.36.65.24 1.216.595 1.696 1.064l-.496 1.008c-.544-.459-1.077-.79-1.6-.992a4.742 4.742 0 0 0-1.728-.304c-1.237 0-2.194.403-2.872 1.208-.677.805-1.016 1.944-1.016 3.416 0 1.483.339 2.627 1.016 3.432.678.805 1.635 1.208 2.872 1.208.63 0 1.206-.101 1.728-.304.523-.203 1.056-.533 1.6-.992l.496 1.008c-.48.47-1.045.824-1.696 1.064-.65.24-1.365.36-2.144.36zm9.056-.016c-.736 0-1.384-.165-1.944-.496a3.305 3.305 0 0 1-1.296-1.416c-.304-.613-.456-1.325-.456-2.136 0-.81.152-1.523.456-2.136a3.305 3.305 0 0 1 1.296-1.416c.56-.33 1.208-.496 1.944-.496s1.387.165 1.952.496c.566.33 1 .803 1.304 1.416.304.613.456 1.325.456 2.136 0 .81-.152 1.523-.456 2.136a3.29 3.29 0 0 1-1.304 1.416c-.565.33-1.216.496-1.952.496zm0-1.072c.768 0 1.358-.253 1.768-.76.41-.507.616-1.245.616-2.216 0-.95-.208-1.683-.624-2.2-.416-.517-1.002-.776-1.76-.776-.757 0-1.344.259-1.76.776-.416.517-.624 1.25-.624 2.2 0 .96.206 1.696.616 2.208.41.512 1 .768 1.768.768zm8.88 1.072c-.736 0-1.384-.165-1.944-.496a3.305 3.305 0 0 1-1.296-1.416c-.304-.613-.456-1.325-.456-2.136 0-.81.152-1.523.456-2.136a3.305 3.305 0 0 1 1.296-1.416c.56-.33 1.208-.496 1.944-.496s1.387.165 1.952.496c.566.33 1 .803 1.304 1.416.304.613.456 1.325.456 2.136 0 .81-.152 1.523-.456 2.136a3.29 3.29 0 0 1-1.304 1.416c-.565.33-1.216.496-1.952.496zm0-1.072c.768 0 1.358-.253 1.768-.76.41-.507.616-1.245.616-2.216 0-.95-.208-1.683-.624-2.2-.416-.517-1.002-.776-1.76-.776-.757 0-1.344.259-1.76.776-.416.517-.624 1.25-.624 2.2 0 .96.206 1.696.616 2.208.41.512 1 .768 1.768.768zm9.568-7.024c.683 0 1.286.17 1.808.512.523.341.928.819 1.216 1.432.288.613.432 1.325.432 2.136 0 .81-.144 1.517-.432 2.12-.288.603-.69 1.07-1.208 1.4-.517.33-1.122.496-1.816.496-.608 0-1.138-.133-1.592-.4a2.571 2.571 0 0 1-1.032-1.136v4.304h-1.296V17.208h1.296v1.344c.235-.49.579-.87 1.032-1.136.454-.267.984-.4 1.592-.4zm-.256 7.024c.758 0 1.344-.256 1.76-.768.416-.512.624-1.237.624-2.176 0-.939-.208-1.672-.624-2.2-.416-.528-1.002-.792-1.76-.792-.757 0-1.341.256-1.752.768-.41.512-.616 1.243-.616 2.192 0 .95.206 1.683.616 2.2.41.517.995.776 1.752.776zm12.176-2.736h-5.696c.043.907.288 1.592.736 2.056.448.464 1.083.696 1.904.696.907 0 1.739-.31 2.496-.928l.432.944c-.341.32-.778.573-1.312.76a4.907 4.907 0 0 1-1.632.28c-1.216 0-2.173-.357-2.872-1.072-.698-.715-1.048-1.701-1.048-2.96 0-.8.155-1.507.464-2.12.31-.613.744-1.09 1.304-1.432.56-.341 1.198-.512 1.912-.512 1.035 0 1.846.339 2.432 1.016.587.677.88 1.608.88 2.792v.48zm-3.296-3.28c-.682 0-1.23.213-1.64.64-.41.427-.653 1.03-.728 1.808h4.528c-.021-.79-.218-1.395-.592-1.816-.373-.421-.896-.632-1.568-.632zm9.616.112l-.848.08c-.8.075-1.378.325-1.736.752-.357.427-.536.955-.536 1.584V25h-1.296v-7.792h1.264v1.36c.438-.907 1.296-1.413 2.576-1.52l.464-.032.112 1.12zm4.4-1.12c.992 0 1.73.253 2.216.76.486.507.728 1.277.728 2.312V25h-1.264v-1.328a2.289 2.289 0 0 1-.928 1.064c-.416.25-.896.376-1.44.376a3.15 3.15 0 0 1-1.384-.304 2.473 2.473 0 0 1-1-.848 2.096 2.096 0 0 1-.368-1.2c0-.587.15-1.043.448-1.368.299-.325.79-.56 1.472-.704.683-.144 1.632-.216 2.848-.216h.352v-.528c0-.65-.133-1.123-.4-1.416-.266-.293-.698-.44-1.296-.44-.896 0-1.786.277-2.672.832l-.432-.944a5.11 5.11 0 0 1 1.464-.696 5.609 5.609 0 0 1 1.656-.264zm-.512 7.072c.64 0 1.166-.216 1.576-.648.41-.432.616-.99.616-1.672v-.464h-.288c-.938 0-1.653.04-2.144.12-.49.08-.84.213-1.048.4-.208.187-.312.461-.312.824 0 .416.152.76.456 1.032.304.272.686.408 1.144.408zm9.248-.016c.235 0 .47-.016.704-.048l-.064 1.024a4.677 4.677 0 0 1-.8.064c-.938 0-1.645-.245-2.12-.736-.474-.49-.712-1.173-.712-2.048v-4.096h-1.52v-1.024h1.52V14.84h1.296v2.368h2.208v1.024h-2.208v4c0 1.227.566 1.84 1.696 1.84zm2.016.928v-7.792h1.296V25h-1.296zm-.128-11.168h1.568v1.456h-1.568v-1.456zm9.424 3.392h1.296L245.456 25h-1.216l-3.344-7.776h1.376l2.608 6.368 2.64-6.368zm9.168 4.08h-5.696c.043.907.288 1.592.736 2.056.448.464 1.083.696 1.904.696.907 0 1.739-.31 2.496-.928l.432.944c-.341.32-.778.573-1.312.76a4.907 4.907 0 0 1-1.632.28c-1.216 0-2.173-.357-2.872-1.072-.698-.715-1.048-1.701-1.048-2.96 0-.8.155-1.507.464-2.12.31-.613.744-1.09 1.304-1.432.56-.341 1.198-.512 1.912-.512 1.035 0 1.846.339 2.432 1.016.587.677.88 1.608.88 2.792v.48zm-3.296-3.28c-.682 0-1.23.213-1.64.64-.41.427-.653 1.03-.728 1.808h4.528c-.021-.79-.218-1.395-.592-1.816-.373-.421-.896-.632-1.568-.632zm7.84 7.088c-1.312 0-2.352-.336-3.12-1.008l.432-.96c.416.33.84.568 1.272.712.432.144.92.216 1.464.216.576 0 1.016-.099 1.32-.296.304-.197.456-.483.456-.856 0-.31-.101-.555-.304-.736-.202-.181-.538-.325-1.008-.432l-1.312-.304c-.661-.15-1.168-.405-1.52-.768-.352-.363-.528-.81-.528-1.344 0-.693.272-1.253.816-1.68.544-.427 1.27-.64 2.176-.64.544 0 1.062.088 1.552.264.49.176.902.43 1.232.76l-.432.944c-.714-.608-1.498-.912-2.352-.912-.544 0-.968.104-1.272.312a.998.998 0 0 0-.456.872c0 .31.094.557.28.744.187.187.488.328.904.424l1.328.32c.726.17 1.264.43 1.616.776.352.347.528.797.528 1.352 0 .683-.274 1.227-.824 1.632-.55.405-1.298.608-2.248.608zm12.336-8.096c.992 0 1.73.253 2.216.76.486.507.728 1.277.728 2.312V25h-1.264v-1.328a2.289 2.289 0 0 1-.928 1.064c-.416.25-.896.376-1.44.376a3.15 3.15 0 0 1-1.384-.304 2.473 2.473 0 0 1-1-.848 2.096 2.096 0 0 1-.368-1.2c0-.587.15-1.043.448-1.368.299-.325.79-.56 1.472-.704.683-.144 1.632-.216 2.848-.216h.352v-.528c0-.65-.133-1.123-.4-1.416-.266-.293-.698-.44-1.296-.44-.896 0-1.786.277-2.672.832l-.432-.944a5.11 5.11 0 0 1 1.464-.696 5.609 5.609 0 0 1 1.656-.264zm-.512 7.072c.64 0 1.166-.216 1.576-.648.41-.432.616-.99.616-1.672v-.464h-.288c-.938 0-1.653.04-2.144.12-.49.08-.84.213-1.048.4-.208.187-.312.461-.312.824 0 .416.152.76.456 1.032.304.272.686.408 1.144.408zm9.744-7.072c1.867 0 2.8 1.03 2.8 3.088V25h-1.296v-4.816c0-.725-.141-1.253-.424-1.584-.282-.33-.733-.496-1.352-.496-.714 0-1.285.219-1.712.656-.426.437-.64 1.03-.64 1.776V25h-1.296v-7.792h1.28v1.28c.256-.48.614-.845 1.072-1.096.459-.25.982-.376 1.568-.376zm12.08-3.296V25h-1.296v-1.424c-.234.49-.578.87-1.032 1.136-.453.267-.984.4-1.592.4-.682 0-1.285-.17-1.808-.512-.522-.341-.928-.819-1.216-1.432-.288-.613-.432-1.325-.432-2.136 0-.8.144-1.504.432-2.112.288-.608.694-1.077 1.216-1.408.523-.33 1.126-.496 1.808-.496.608 0 1.139.133 1.592.4.454.267.798.645 1.032 1.136V13.72h1.296zm-3.664 10.32c.758 0 1.342-.259 1.752-.776.41-.517.616-1.25.616-2.2 0-.95-.205-1.68-.616-2.192-.41-.512-.994-.768-1.752-.768-.757 0-1.346.256-1.768.768-.421.512-.632 1.232-.632 2.16 0 .95.21 1.688.632 2.216.422.528 1.01.792 1.768.792zM301.6 25V13.72h6.976v1.104h-5.68v3.888h5.36v1.104h-5.36V25H301.6zm11.888-7.984c.992 0 1.73.253 2.216.76.486.507.728 1.277.728 2.312V25h-1.264v-1.328a2.289 2.289 0 0 1-.928 1.064c-.416.25-.896.376-1.44.376a3.15 3.15 0 0 1-1.384-.304 2.473 2.473 0 0 1-1-.848 2.096 2.096 0 0 1-.368-1.2c0-.587.15-1.043.448-1.368.299-.325.79-.56 1.472-.704.683-.144 1.632-.216 2.848-.216h.352v-.528c0-.65-.133-1.123-.4-1.416-.266-.293-.698-.44-1.296-.44-.896 0-1.786.277-2.672.832l-.432-.944a5.11 5.11 0 0 1 1.464-.696 5.609 5.609 0 0 1 1.656-.264zm-.512 7.072c.64 0 1.166-.216 1.576-.648.41-.432.616-.99.616-1.672v-.464h-.288c-.938 0-1.653.04-2.144.12-.49.08-.84.213-1.048.4-.208.187-.312.461-.312.824 0 .416.152.76.456 1.032.304.272.686.408 1.144.408zm10.24-5.952l-.848.08c-.8.075-1.378.325-1.736.752-.357.427-.536.955-.536 1.584V25H318.8v-7.792h1.264v1.36c.438-.907 1.296-1.413 2.576-1.52l.464-.032.112 1.12zm9.904-1.12c1.728 0 2.592 1.03 2.592 3.088V25h-1.296v-4.832c0-.715-.125-1.237-.376-1.568-.25-.33-.653-.496-1.208-.496-.65 0-1.162.219-1.536.656-.373.437-.56 1.035-.56 1.792V25h-1.296v-4.832c0-.725-.128-1.25-.384-1.576-.256-.325-.661-.488-1.216-.488-.65 0-1.162.219-1.536.656-.373.437-.56 1.035-.56 1.792V25h-1.296v-7.792h1.28v1.232c.235-.459.56-.81.976-1.056.416-.245.896-.368 1.44-.368 1.206 0 2 .512 2.384 1.536.224-.48.566-.856 1.024-1.128a3.015 3.015 0 0 1 1.568-.408zm11.488 4.288h-5.696c.043.907.288 1.592.736 2.056.448.464 1.083.696 1.904.696.907 0 1.739-.31 2.496-.928l.432.944c-.341.32-.778.573-1.312.76a4.907 4.907 0 0 1-1.632.28c-1.216 0-2.173-.357-2.872-1.072-.698-.715-1.048-1.701-1.048-2.96 0-.8.155-1.507.464-2.12.31-.613.744-1.09 1.304-1.432.56-.341 1.198-.512 1.912-.512 1.035 0 1.846.339 2.432 1.016.587.677.88 1.608.88 2.792v.48zm-3.296-3.28c-.682 0-1.23.213-1.64.64-.41.427-.653 1.03-.728 1.808h4.528c-.021-.79-.218-1.395-.592-1.816-.373-.421-.896-.632-1.568-.632zm9.616.112l-.848.08c-.8.075-1.378.325-1.736.752-.357.427-.536.955-.536 1.584V25h-1.296v-7.792h1.264v1.36c.438-.907 1.296-1.413 2.576-1.52l.464-.032.112 1.12zm3.872 6.976c-1.312 0-2.352-.336-3.12-1.008l.432-.96c.416.33.84.568 1.272.712.432.144.92.216 1.464.216.576 0 1.016-.099 1.32-.296.304-.197.456-.483.456-.856 0-.31-.101-.555-.304-.736-.202-.181-.538-.325-1.008-.432L354 21.448c-.661-.15-1.168-.405-1.52-.768-.352-.363-.528-.81-.528-1.344 0-.693.272-1.253.816-1.68.544-.427 1.27-.64 2.176-.64.544 0 1.062.088 1.552.264.49.176.902.43 1.232.76l-.432.944c-.714-.608-1.498-.912-2.352-.912-.544 0-.968.104-1.272.312a.998.998 0 0 0-.456.872c0 .31.094.557.28.744.187.187.488.328.904.424l1.328.32c.726.17 1.264.43 1.616.776.352.347.528.797.528 1.352 0 .683-.274 1.227-.824 1.632-.55.405-1.298.608-2.248.608z" fill="#FFF"/></g><g transform="translate(419.708 358)"><rect fill="#1247B3" width="501.127" height="40" rx="5"/><path d="M16.832 25v-9.584h-3.68V13.72h9.424v1.696h-3.68V25h-2.064zm10.544.128c-.8 0-1.501-.165-2.104-.496a3.432 3.432 0 0 1-1.4-1.424c-.33-.619-.496-1.339-.496-2.16 0-.821.166-1.539.496-2.152a3.444 3.444 0 0 1 1.4-1.416c.603-.33 1.304-.496 2.104-.496s1.502.165 2.104.496c.603.33 1.067.803 1.392 1.416.326.613.488 1.33.488 2.152 0 .821-.162 1.541-.488 2.16a3.382 3.382 0 0 1-1.392 1.424c-.602.33-1.304.496-2.104.496zm-.016-1.552c.65 0 1.147-.213 1.488-.64.342-.427.512-1.056.512-1.888 0-.821-.17-1.448-.512-1.88-.341-.432-.832-.648-1.472-.648s-1.133.216-1.48.648c-.346.432-.52 1.059-.52 1.88 0 .832.17 1.461.512 1.888.342.427.832.64 1.472.64zM40.848 25h-2.48l-3.36-3.568V25h-2V13.72h2v6.88l3.152-3.408h2.432l-3.52 3.744L40.848 25zm7.6-3.552H43.12c.064.725.283 1.264.656 1.616.374.352.907.528 1.6.528.864 0 1.654-.277 2.368-.832l.576 1.376c-.362.299-.818.539-1.368.72a5.254 5.254 0 0 1-1.656.272c-1.28 0-2.29-.363-3.032-1.088-.741-.725-1.112-1.717-1.112-2.976 0-.8.16-1.51.48-2.128a3.49 3.49 0 0 1 1.352-1.44c.582-.341 1.24-.512 1.976-.512 1.078 0 1.928.347 2.552 1.04.624.693.936 1.648.936 2.864v.56zm-3.44-3.056c-.533 0-.962.17-1.288.512-.325.341-.525.832-.6 1.472h3.616c-.021-.65-.181-1.144-.48-1.48-.298-.336-.714-.504-1.248-.504zm9.616-1.408c.939 0 1.638.267 2.096.8.459.533.688 1.339.688 2.416V25h-2v-4.688c0-.608-.114-1.05-.344-1.328-.23-.277-.59-.416-1.08-.416-.576 0-1.037.181-1.384.544-.346.363-.52.848-.52 1.456V25h-2v-7.824h1.952v1.168a2.706 2.706 0 0 1 1.072-1.008 3.226 3.226 0 0 1 1.52-.352zm7.696 8.144c-.693 0-1.33-.085-1.912-.256-.581-.17-1.074-.416-1.48-.736l.56-1.392c.832.608 1.787.912 2.864.912.459 0 .808-.075 1.048-.224.24-.15.36-.363.36-.64 0-.235-.082-.416-.248-.544-.165-.128-.461-.245-.888-.352l-1.28-.288c-.725-.16-1.264-.421-1.616-.784-.352-.363-.528-.832-.528-1.408 0-.48.136-.904.408-1.272.272-.368.65-.653 1.136-.856.486-.203 1.048-.304 1.688-.304a5.1 5.1 0 0 1 1.608.256c.518.17.974.41 1.368.72l-.56 1.36c-.81-.587-1.621-.88-2.432-.88-.437 0-.778.08-1.024.24a.76.76 0 0 0-.368.672c0 .213.078.39.232.528.155.139.403.245.744.32l1.328.304c.779.17 1.35.44 1.712.808.363.368.544.85.544 1.448 0 .725-.293 1.301-.88 1.728-.586.427-1.381.64-2.384.64zm9.392-11.408h4.928c1.206 0 2.144.301 2.816.904.672.603 1.008 1.448 1.008 2.536s-.336 1.936-1.008 2.544c-.672.608-1.61.912-2.816.912h-2.864V25h-2.064V13.72zm4.672 5.312c1.419 0 2.128-.619 2.128-1.856 0-.63-.176-1.096-.528-1.4-.352-.304-.885-.456-1.6-.456h-2.608v3.712h2.608zm10.864-.384l-1.168.112c-1.322.139-1.984.81-1.984 2.016V25h-2v-7.824H84v1.376c.406-.939 1.243-1.45 2.512-1.536l.608-.048.128 1.68zm4.544 6.48c-.8 0-1.501-.165-2.104-.496a3.432 3.432 0 0 1-1.4-1.424c-.33-.619-.496-1.339-.496-2.16 0-.821.166-1.539.496-2.152a3.444 3.444 0 0 1 1.4-1.416c.603-.33 1.304-.496 2.104-.496s1.502.165 2.104.496c.603.33 1.067.803 1.392 1.416.326.613.488 1.33.488 2.152 0 .821-.162 1.541-.488 2.16a3.382 3.382 0 0 1-1.392 1.424c-.602.33-1.304.496-2.104.496zm-.016-1.552c.65 0 1.147-.213 1.488-.64.342-.427.512-1.056.512-1.888 0-.821-.17-1.448-.512-1.88-.341-.432-.832-.648-1.472-.648s-1.133.216-1.48.648c-.346.432-.52 1.059-.52 1.88 0 .832.17 1.461.512 1.888.342.427.832.64 1.472.64zm14.944-6.592c.886 0 1.547.264 1.984.792.438.528.656 1.336.656 2.424V25h-2v-4.72c0-.597-.101-1.032-.304-1.304-.202-.272-.528-.408-.976-.408-.533 0-.95.181-1.248.544-.298.363-.448.87-.448 1.52V25h-2v-4.72c0-.597-.098-1.032-.296-1.304-.197-.272-.525-.408-.984-.408-.522 0-.933.181-1.232.544-.298.363-.448.87-.448 1.52V25h-2v-7.824h1.952v1.104c.235-.427.56-.75.976-.968.416-.219.89-.328 1.424-.328 1.184 0 1.968.49 2.352 1.472a2.672 2.672 0 0 1 1.056-1.08c.459-.261.97-.392 1.536-.392zm8.24 8.144c-.8 0-1.501-.165-2.104-.496a3.432 3.432 0 0 1-1.4-1.424c-.33-.619-.496-1.339-.496-2.16 0-.821.166-1.539.496-2.152a3.444 3.444 0 0 1 1.4-1.416c.603-.33 1.304-.496 2.104-.496s1.502.165 2.104.496c.603.33 1.067.803 1.392 1.416.326.613.488 1.33.488 2.152 0 .821-.162 1.541-.488 2.16a3.382 3.382 0 0 1-1.392 1.424c-.602.33-1.304.496-2.104.496zm-.016-1.552c.65 0 1.147-.213 1.488-.64.342-.427.512-1.056.512-1.888 0-.821-.17-1.448-.512-1.88-.341-.432-.832-.648-1.472-.648s-1.133.216-1.48.648c-.346.432-.52 1.059-.52 1.88 0 .832.17 1.461.512 1.888.342.427.832.64 1.472.64zm9.648.048c.235 0 .48-.016.736-.048l-.096 1.488c-.32.032-.613.048-.88.048-1.098 0-1.91-.253-2.432-.76s-.784-1.261-.784-2.264V18.68h-1.504v-1.504h1.504V14.84h2v2.336h2.064v1.504h-2.064v3.376c0 1.045.486 1.568 1.456 1.568zM126.496 25v-7.824h2V25h-2zm-.112-11.456h2.208v1.968h-2.208v-1.968zm7.744 11.584c-.8 0-1.501-.165-2.104-.496a3.432 3.432 0 0 1-1.4-1.424c-.33-.619-.496-1.339-.496-2.16 0-.821.166-1.539.496-2.152a3.444 3.444 0 0 1 1.4-1.416c.603-.33 1.304-.496 2.104-.496s1.502.165 2.104.496c.603.33 1.067.803 1.392 1.416.326.613.488 1.33.488 2.152 0 .821-.162 1.541-.488 2.16a3.382 3.382 0 0 1-1.392 1.424c-.602.33-1.304.496-2.104.496zm-.016-1.552c.65 0 1.147-.213 1.488-.64.342-.427.512-1.056.512-1.888 0-.821-.17-1.448-.512-1.88-.341-.432-.832-.648-1.472-.648s-1.133.216-1.48.648c-.346.432-.52 1.059-.52 1.88 0 .832.17 1.461.512 1.888.342.427.832.64 1.472.64zm10.192-6.592c.939 0 1.638.267 2.096.8.459.533.688 1.339.688 2.416V25h-2v-4.688c0-.608-.114-1.05-.344-1.328-.23-.277-.59-.416-1.08-.416-.576 0-1.037.181-1.384.544-.346.363-.52.848-.52 1.456V25h-2v-7.824h1.952v1.168a2.706 2.706 0 0 1 1.072-1.008 3.226 3.226 0 0 1 1.52-.352zm17.2 8.016l-1.184-1.216c-.47.427-.994.757-1.576.992a4.848 4.848 0 0 1-1.832.352c-.757 0-1.43-.13-2.016-.392-.586-.261-1.042-.624-1.368-1.088a2.73 2.73 0 0 1-.488-1.608c0-.672.19-1.275.568-1.808.379-.533.984-1.035 1.816-1.504-.416-.459-.717-.88-.904-1.264a2.712 2.712 0 0 1-.28-1.2c0-.8.286-1.443.856-1.928.57-.485 1.315-.728 2.232-.728.854 0 1.534.221 2.04.664.507.443.76 1.037.76 1.784 0 .576-.165 1.09-.496 1.544-.33.453-.874.91-1.632 1.368l2.224 2.272c.438-.864.678-1.872.72-3.024h1.664c-.064 1.643-.464 3.056-1.2 4.24l2.48 2.544h-2.384zm-4.16-10.016c-.394 0-.71.115-.944.344-.234.23-.352.536-.352.92 0 .256.064.501.192.736s.374.544.736.928c.566-.32.96-.616 1.184-.888.224-.272.336-.568.336-.888 0-.352-.106-.632-.32-.84-.213-.208-.49-.312-.832-.312zm-.368 8.592c.843 0 1.59-.31 2.24-.928l-2.752-2.848c-.522.32-.898.648-1.128.984-.23.336-.344.723-.344 1.16 0 .501.179.899.536 1.192.358.293.84.44 1.448.44zM168.864 25V13.72h2.064v9.584h5.264V25h-7.328zm8.704 0v-7.824h2V25h-2zm-.112-11.456h2.208v1.968h-2.208v-1.968zm11.728 3.632V27.88h-2v-4.112a2.48 2.48 0 0 1-1.016 1c-.442.24-.941.36-1.496.36-.682 0-1.285-.165-1.808-.496-.522-.33-.93-.8-1.224-1.408-.293-.608-.44-1.317-.44-2.128 0-.81.147-1.528.44-2.152.294-.624.704-1.107 1.232-1.448a3.243 3.243 0 0 1 1.8-.512c.566 0 1.07.12 1.512.36.443.24.782.579 1.016 1.016v-1.184h1.984zm-3.968 6.4c.63 0 1.118-.219 1.464-.656.347-.437.52-1.056.52-1.856 0-.81-.173-1.435-.52-1.872-.346-.437-.84-.656-1.48-.656-.63 0-1.12.224-1.472.672-.352.448-.528 1.077-.528 1.888 0 .79.176 1.4.528 1.832.352.432.848.648 1.488.648zm13.216-6.4V25h-1.952v-1.2a2.549 2.549 0 0 1-.992.984c-.416.23-.885.344-1.408.344-1.92 0-2.88-1.077-2.88-3.232v-4.72h2v4.736c0 .555.112.965.336 1.232.224.267.576.4 1.056.4.555 0 1-.184 1.336-.552.336-.368.504-.856.504-1.464v-4.352h2zm2.08 7.824v-7.824h2V25h-2zm-.112-11.456h2.208v1.968H200.4v-1.968zm11.728.176V25h-1.984v-1.264a2.505 2.505 0 0 1-1.016 1.024c-.442.245-.946.368-1.512.368-.672 0-1.272-.17-1.8-.512-.528-.341-.938-.824-1.232-1.448-.293-.624-.44-1.341-.44-2.152 0-.81.147-1.52.44-2.128.294-.608.702-1.077 1.224-1.408.523-.33 1.126-.496 1.808-.496.566 0 1.067.117 1.504.352.438.235.774.565 1.008.992V13.72h2zm-3.984 9.856c.64 0 1.134-.219 1.48-.656.347-.437.52-1.061.52-1.872 0-.81-.173-1.432-.52-1.864-.346-.432-.834-.648-1.464-.648-.64 0-1.136.213-1.488.64-.352.427-.528 1.04-.528 1.84 0 .81.176 1.44.528 1.888.352.448.843.672 1.472.672zM214.192 25v-7.824h2V25h-2zm-.112-11.456h2.208v1.968h-2.208v-1.968zm8.176 10.08c.235 0 .48-.016.736-.048l-.096 1.488c-.32.032-.613.048-.88.048-1.098 0-1.91-.253-2.432-.76s-.784-1.261-.784-2.264V18.68h-1.504v-1.504h1.504V14.84h2v2.336h2.064v1.504H220.8v3.376c0 1.045.486 1.568 1.456 1.568zm7.392-6.432h1.968l-4.704 10.688h-2.016l1.424-3.184-3.264-7.504h2.112l2.208 5.52 2.272-5.52z" fill="#FFF"/></g><g transform="translate(419.708 418)"><rect fill="#1247B3" width="501.127" height="40" rx="5"/><path d="M23.584 18.904v5.408c-.512.256-1.133.459-1.864.608-.73.15-1.474.224-2.232.224-1.162 0-2.17-.232-3.024-.696a4.697 4.697 0 0 1-1.96-2c-.453-.87-.68-1.901-.68-3.096 0-1.184.227-2.21.68-3.08a4.734 4.734 0 0 1 1.936-2c.838-.464 1.822-.696 2.952-.696.79 0 1.53.115 2.224.344.694.23 1.27.557 1.728.984l-.688 1.488c-.522-.405-1.037-.696-1.544-.872a5.066 5.066 0 0 0-1.672-.264c-1.162 0-2.04.344-2.632 1.032-.592.688-.888 1.71-.888 3.064 0 2.773 1.216 4.16 3.648 4.16.726 0 1.45-.101 2.176-.304v-2.832h-2.432v-1.472h4.272zm7.296-.256l-1.168.112c-1.322.139-1.984.81-1.984 2.016V25h-2v-7.824h1.904v1.376c.406-.939 1.243-1.45 2.512-1.536l.608-.048.128 1.68zM31.856 25v-7.824h2V25h-2zm-.112-11.456h2.208v1.968h-2.208v-1.968zm11.728.176V25h-1.984v-1.264a2.505 2.505 0 0 1-1.016 1.024c-.442.245-.946.368-1.512.368-.672 0-1.272-.17-1.8-.512-.528-.341-.938-.824-1.232-1.448-.293-.624-.44-1.341-.44-2.152 0-.81.147-1.52.44-2.128.294-.608.702-1.077 1.224-1.408.523-.33 1.126-.496 1.808-.496.566 0 1.067.117 1.504.352.438.235.774.565 1.008.992V13.72h2zm-3.984 9.856c.64 0 1.134-.219 1.48-.656.347-.437.52-1.061.52-1.872 0-.81-.173-1.432-.52-1.864-.346-.432-.834-.648-1.464-.648-.64 0-1.136.213-1.488.64-.352.427-.528 1.04-.528 1.84 0 .81.176 1.44.528 1.888.352.448.843.672 1.472.672zm10.56-9.856h4.16c1.846 0 3.278.493 4.296 1.48 1.019.987 1.528 2.37 1.528 4.152 0 1.781-.51 3.168-1.528 4.16S56.054 25 54.208 25h-4.16V13.72zm4.032 9.6c2.592 0 3.888-1.323 3.888-3.968 0-2.635-1.296-3.952-3.888-3.952h-1.968v7.92h1.968zm14.72-1.872h-5.328c.064.725.283 1.264.656 1.616.374.352.907.528 1.6.528.864 0 1.654-.277 2.368-.832l.576 1.376c-.362.299-.818.539-1.368.72a5.254 5.254 0 0 1-1.656.272c-1.28 0-2.29-.363-3.032-1.088-.741-.725-1.112-1.717-1.112-2.976 0-.8.16-1.51.48-2.128a3.49 3.49 0 0 1 1.352-1.44c.582-.341 1.24-.512 1.976-.512 1.078 0 1.928.347 2.552 1.04.624.693.936 1.648.936 2.864v.56zm-3.44-3.056c-.533 0-.962.17-1.288.512-.325.341-.525.832-.6 1.472h3.616c-.021-.65-.181-1.144-.48-1.48-.298-.336-.714-.504-1.248-.504zm10.56-1.2h1.968L74.464 25H72.72l-3.392-7.808h2.112l2.208 5.52 2.272-5.52zm9.792 4.256h-5.328c.064.725.283 1.264.656 1.616.374.352.907.528 1.6.528.864 0 1.654-.277 2.368-.832l.576 1.376c-.362.299-.818.539-1.368.72a5.254 5.254 0 0 1-1.656.272c-1.28 0-2.29-.363-3.032-1.088-.741-.725-1.112-1.717-1.112-2.976 0-.8.16-1.51.48-2.128a3.49 3.49 0 0 1 1.352-1.44c.582-.341 1.24-.512 1.976-.512 1.078 0 1.928.347 2.552 1.04.624.693.936 1.648.936 2.864v.56zm-3.44-3.056c-.533 0-.962.17-1.288.512-.325.341-.525.832-.6 1.472H84c-.021-.65-.181-1.144-.48-1.48-.298-.336-.714-.504-1.248-.504zM87.344 25V13.72h2V25h-2zm7.632.128c-.8 0-1.501-.165-2.104-.496a3.432 3.432 0 0 1-1.4-1.424c-.33-.619-.496-1.339-.496-2.16 0-.821.166-1.539.496-2.152a3.444 3.444 0 0 1 1.4-1.416c.603-.33 1.304-.496 2.104-.496s1.502.165 2.104.496c.603.33 1.067.803 1.392 1.416.326.613.488 1.33.488 2.152 0 .821-.162 1.541-.488 2.16a3.382 3.382 0 0 1-1.392 1.424c-.602.33-1.304.496-2.104.496zm-.016-1.552c.65 0 1.147-.213 1.488-.64.342-.427.512-1.056.512-1.888 0-.821-.17-1.448-.512-1.88-.341-.432-.832-.648-1.472-.648s-1.133.216-1.48.648c-.346.432-.52 1.059-.52 1.88 0 .832.17 1.461.512 1.888.342.427.832.64 1.472.64zm10.144-6.592c.672 0 1.272.17 1.8.512.528.341.939.824 1.232 1.448.294.624.44 1.341.44 2.152 0 .81-.146 1.52-.44 2.128-.293.608-.701 1.077-1.224 1.408-.522.33-1.125.496-1.808.496-.554 0-1.05-.117-1.488-.352a2.47 2.47 0 0 1-1.008-.976v4.08h-2V17.176h1.968v1.184a2.455 2.455 0 0 1 1.016-1.016c.443-.24.947-.36 1.512-.36zm-.528 6.592c.63 0 1.12-.216 1.472-.648.352-.432.528-1.043.528-1.832 0-.81-.176-1.44-.528-1.888-.352-.448-.842-.672-1.472-.672-.64 0-1.133.219-1.48.656-.346.437-.52 1.061-.52 1.872 0 .8.174 1.419.52 1.856.347.437.84.656 1.48.656zm12.512-2.128h-5.328c.064.725.283 1.264.656 1.616.374.352.907.528 1.6.528.864 0 1.654-.277 2.368-.832l.576 1.376c-.362.299-.818.539-1.368.72a5.254 5.254 0 0 1-1.656.272c-1.28 0-2.29-.363-3.032-1.088-.741-.725-1.112-1.717-1.112-2.976 0-.8.16-1.51.48-2.128a3.49 3.49 0 0 1 1.352-1.44c.582-.341 1.24-.512 1.976-.512 1.078 0 1.928.347 2.552 1.04.624.693.936 1.648.936 2.864v.56zm-3.44-3.056c-.533 0-.962.17-1.288.512-.325.341-.525.832-.6 1.472h3.616c-.021-.65-.181-1.144-.48-1.48-.298-.336-.714-.504-1.248-.504zm10.224.256l-1.168.112c-1.322.139-1.984.81-1.984 2.016V25h-2v-7.824h1.904v1.376c.406-.939 1.243-1.45 2.512-1.536l.608-.048.128 1.68zm3.856 6.48c-.693 0-1.33-.085-1.912-.256-.581-.17-1.074-.416-1.48-.736l.56-1.392c.832.608 1.787.912 2.864.912.459 0 .808-.075 1.048-.224.24-.15.36-.363.36-.64 0-.235-.082-.416-.248-.544-.165-.128-.461-.245-.888-.352l-1.28-.288c-.725-.16-1.264-.421-1.616-.784-.352-.363-.528-.832-.528-1.408 0-.48.136-.904.408-1.272.272-.368.65-.653 1.136-.856.486-.203 1.048-.304 1.688-.304a5.1 5.1 0 0 1 1.608.256c.518.17.974.41 1.368.72l-.56 1.36c-.81-.587-1.621-.88-2.432-.88-.437 0-.778.08-1.024.24a.76.76 0 0 0-.368.672c0 .213.078.39.232.528.155.139.403.245.744.32l1.328.304c.779.17 1.35.44 1.712.808.363.368.544.85.544 1.448 0 .725-.293 1.301-.88 1.728-.586.427-1.381.64-2.384.64zm9.392-11.408h4.928c1.206 0 2.144.301 2.816.904.672.603 1.008 1.448 1.008 2.536s-.336 1.936-1.008 2.544c-.672.608-1.61.912-2.816.912h-2.864V25h-2.064V13.72zm4.672 5.312c1.419 0 2.128-.619 2.128-1.856 0-.63-.176-1.096-.528-1.4-.352-.304-.885-.456-1.6-.456h-2.608v3.712h2.608zm10.864-.384l-1.168.112c-1.322.139-1.984.81-1.984 2.016V25h-2v-7.824h1.904v1.376c.406-.939 1.243-1.45 2.512-1.536l.608-.048.128 1.68zm4.544 6.48c-.8 0-1.501-.165-2.104-.496a3.432 3.432 0 0 1-1.4-1.424c-.33-.619-.496-1.339-.496-2.16 0-.821.166-1.539.496-2.152a3.444 3.444 0 0 1 1.4-1.416c.603-.33 1.304-.496 2.104-.496s1.502.165 2.104.496c.603.33 1.067.803 1.392 1.416.326.613.488 1.33.488 2.152 0 .821-.162 1.541-.488 2.16a3.382 3.382 0 0 1-1.392 1.424c-.602.33-1.304.496-2.104.496zm-.016-1.552c.65 0 1.147-.213 1.488-.64.342-.427.512-1.056.512-1.888 0-.821-.17-1.448-.512-1.88-.341-.432-.832-.648-1.472-.648s-1.133.216-1.48.648c-.346.432-.52 1.059-.52 1.88 0 .832.17 1.461.512 1.888.342.427.832.64 1.472.64zm14.944-6.592c.886 0 1.547.264 1.984.792.438.528.656 1.336.656 2.424V25h-2v-4.72c0-.597-.101-1.032-.304-1.304-.202-.272-.528-.408-.976-.408-.533 0-.95.181-1.248.544-.298.363-.448.87-.448 1.52V25h-2v-4.72c0-.597-.098-1.032-.296-1.304-.197-.272-.525-.408-.984-.408-.522 0-.933.181-1.232.544-.298.363-.448.87-.448 1.52V25h-2v-7.824h1.952v1.104c.235-.427.56-.75.976-.968.416-.219.89-.328 1.424-.328 1.184 0 1.968.49 2.352 1.472a2.672 2.672 0 0 1 1.056-1.08c.459-.261.97-.392 1.536-.392zm8.24 8.144c-.8 0-1.501-.165-2.104-.496a3.432 3.432 0 0 1-1.4-1.424c-.33-.619-.496-1.339-.496-2.16 0-.821.166-1.539.496-2.152a3.444 3.444 0 0 1 1.4-1.416c.603-.33 1.304-.496 2.104-.496s1.502.165 2.104.496c.603.33 1.067.803 1.392 1.416.326.613.488 1.33.488 2.152 0 .821-.162 1.541-.488 2.16a3.382 3.382 0 0 1-1.392 1.424c-.602.33-1.304.496-2.104.496zm-.016-1.552c.65 0 1.147-.213 1.488-.64.342-.427.512-1.056.512-1.888 0-.821-.17-1.448-.512-1.88-.341-.432-.832-.648-1.472-.648s-1.133.216-1.48.648c-.346.432-.52 1.059-.52 1.88 0 .832.17 1.461.512 1.888.342.427.832.64 1.472.64zm9.648.048c.235 0 .48-.016.736-.048l-.096 1.488c-.32.032-.613.048-.88.048-1.098 0-1.91-.253-2.432-.76s-.784-1.261-.784-2.264V18.68h-1.504v-1.504h1.504V14.84h2v2.336h2.064v1.504h-2.064v3.376c0 1.045.486 1.568 1.456 1.568zM191.904 25v-7.824h2V25h-2zm-.112-11.456H194v1.968h-2.208v-1.968zm7.744 11.584c-.8 0-1.501-.165-2.104-.496a3.432 3.432 0 0 1-1.4-1.424c-.33-.619-.496-1.339-.496-2.16 0-.821.166-1.539.496-2.152a3.444 3.444 0 0 1 1.4-1.416c.603-.33 1.304-.496 2.104-.496s1.502.165 2.104.496c.603.33 1.067.803 1.392 1.416.326.613.488 1.33.488 2.152 0 .821-.162 1.541-.488 2.16a3.382 3.382 0 0 1-1.392 1.424c-.602.33-1.304.496-2.104.496zm-.016-1.552c.65 0 1.147-.213 1.488-.64.342-.427.512-1.056.512-1.888 0-.821-.17-1.448-.512-1.88-.341-.432-.832-.648-1.472-.648s-1.133.216-1.48.648c-.346.432-.52 1.059-.52 1.88 0 .832.17 1.461.512 1.888.342.427.832.64 1.472.64zm10.192-6.592c.939 0 1.638.267 2.096.8.459.533.688 1.339.688 2.416V25h-2v-4.688c0-.608-.114-1.05-.344-1.328-.23-.277-.59-.416-1.08-.416-.576 0-1.037.181-1.384.544-.346.363-.52.848-.52 1.456V25h-2v-7.824h1.952v1.168a2.706 2.706 0 0 1 1.072-1.008 3.226 3.226 0 0 1 1.52-.352z" fill="#FFF"/></g><g transform="translate(678.426 478)"><rect fill="#1247B3" width="501.127" height="40" rx="5"/><path d="M16.832 25v-9.584h-3.68V13.72h9.424v1.696h-3.68V25h-2.064zm11.52-8.016c.939 0 1.638.267 2.096.8.459.533.688 1.339.688 2.416V25h-2v-4.688c0-.608-.114-1.05-.344-1.328-.23-.277-.59-.416-1.08-.416-.576 0-1.037.181-1.384.544-.346.363-.52.848-.52 1.456V25h-2V13.72h2v4.544a2.62 2.62 0 0 1 1.064-.952 3.296 3.296 0 0 1 1.48-.328zm9.968 1.664l-1.168.112c-1.322.139-1.984.81-1.984 2.016V25h-2v-7.824h1.904v1.376c.406-.939 1.243-1.45 2.512-1.536l.608-.048.128 1.68zm7.84 2.8h-5.328c.064.725.283 1.264.656 1.616.374.352.907.528 1.6.528.864 0 1.654-.277 2.368-.832l.576 1.376c-.362.299-.818.539-1.368.72a5.254 5.254 0 0 1-1.656.272c-1.28 0-2.29-.363-3.032-1.088-.741-.725-1.112-1.717-1.112-2.976 0-.8.16-1.51.48-2.128a3.49 3.49 0 0 1 1.352-1.44c.582-.341 1.24-.512 1.976-.512 1.078 0 1.928.347 2.552 1.04.624.693.936 1.648.936 2.864v.56zm-3.44-3.056c-.533 0-.962.17-1.288.512-.325.341-.525.832-.6 1.472h3.616c-.021-.65-.181-1.144-.48-1.48-.298-.336-.714-.504-1.248-.504zm11.936 3.056h-5.328c.064.725.283 1.264.656 1.616.374.352.907.528 1.6.528.864 0 1.654-.277 2.368-.832l.576 1.376c-.362.299-.818.539-1.368.72a5.254 5.254 0 0 1-1.656.272c-1.28 0-2.29-.363-3.032-1.088-.741-.725-1.112-1.717-1.112-2.976 0-.8.16-1.51.48-2.128a3.49 3.49 0 0 1 1.352-1.44c.582-.341 1.24-.512 1.976-.512 1.078 0 1.928.347 2.552 1.04.624.693.936 1.648.936 2.864v.56zm-3.44-3.056c-.533 0-.962.17-1.288.512-.325.341-.525.832-.6 1.472h3.616c-.021-.65-.181-1.144-.48-1.48-.298-.336-.714-.504-1.248-.504zM56.464 25V13.72h7.392v1.648h-5.36v3.072h5.04v1.648h-5.04V25h-2.032zm12.448.128c-.8 0-1.501-.165-2.104-.496a3.432 3.432 0 0 1-1.4-1.424c-.33-.619-.496-1.339-.496-2.16 0-.821.166-1.539.496-2.152a3.444 3.444 0 0 1 1.4-1.416c.603-.33 1.304-.496 2.104-.496s1.502.165 2.104.496c.603.33 1.067.803 1.392 1.416.326.613.488 1.33.488 2.152 0 .821-.162 1.541-.488 2.16a3.382 3.382 0 0 1-1.392 1.424c-.602.33-1.304.496-2.104.496zm-.016-1.552c.65 0 1.147-.213 1.488-.64.342-.427.512-1.056.512-1.888 0-.821-.17-1.448-.512-1.88-.341-.432-.832-.648-1.472-.648s-1.133.216-1.48.648c-.346.432-.52 1.059-.52 1.88 0 .832.17 1.461.512 1.888.342.427.832.64 1.472.64zM74.544 25V13.72h2V25h-2zM86.16 13.72V25h-1.984v-1.264a2.505 2.505 0 0 1-1.016 1.024c-.442.245-.946.368-1.512.368-.672 0-1.272-.17-1.8-.512-.528-.341-.938-.824-1.232-1.448-.293-.624-.44-1.341-.44-2.152 0-.81.147-1.52.44-2.128.294-.608.702-1.077 1.224-1.408.523-.33 1.126-.496 1.808-.496.566 0 1.067.117 1.504.352.438.235.774.565 1.008.992V13.72h2zm-3.984 9.856c.64 0 1.134-.219 1.48-.656.347-.437.52-1.061.52-1.872 0-.81-.173-1.432-.52-1.864-.346-.432-.834-.648-1.464-.648-.64 0-1.136.213-1.488.64-.352.427-.528 1.04-.528 1.84 0 .81.176 1.44.528 1.888.352.448.843.672 1.472.672zM92.736 25V13.72H94.8V25h-2.064zm13.616-8.016c.886 0 1.547.264 1.984.792.438.528.656 1.336.656 2.424V25h-2v-4.72c0-.597-.101-1.032-.304-1.304-.202-.272-.528-.408-.976-.408-.533 0-.95.181-1.248.544-.298.363-.448.87-.448 1.52V25h-2v-4.72c0-.597-.098-1.032-.296-1.304-.197-.272-.525-.408-.984-.408-.522 0-.933.181-1.232.544-.298.363-.448.87-.448 1.52V25h-2v-7.824h1.952v1.104c.235-.427.56-.75.976-.968.416-.219.89-.328 1.424-.328 1.184 0 1.968.49 2.352 1.472a2.672 2.672 0 0 1 1.056-1.08c.459-.261.97-.392 1.536-.392zm9.168 0c.672 0 1.272.17 1.8.512.528.341.939.824 1.232 1.448.294.624.44 1.341.44 2.152 0 .81-.146 1.52-.44 2.128-.293.608-.701 1.077-1.224 1.408-.522.33-1.125.496-1.808.496-.554 0-1.05-.117-1.488-.352a2.47 2.47 0 0 1-1.008-.976v4.08h-2V17.176h1.968v1.184a2.455 2.455 0 0 1 1.016-1.016c.443-.24.947-.36 1.512-.36zm-.528 6.592c.63 0 1.12-.216 1.472-.648.352-.432.528-1.043.528-1.832 0-.81-.176-1.44-.528-1.888-.352-.448-.842-.672-1.472-.672-.64 0-1.133.219-1.48.656-.346.437-.52 1.061-.52 1.872 0 .8.174 1.419.52 1.856.347.437.84.656 1.48.656zM124 16.984c1.099 0 1.915.267 2.448.8.534.533.8 1.355.8 2.464V25h-1.904v-1.2a2.088 2.088 0 0 1-.856.976c-.39.235-.84.352-1.352.352a3.14 3.14 0 0 1-1.424-.32 2.533 2.533 0 0 1-1.008-.88 2.224 2.224 0 0 1-.368-1.248c0-.576.147-1.03.44-1.36.294-.33.77-.57 1.432-.72.662-.15 1.574-.224 2.736-.224h.4v-.368c0-.533-.114-.917-.344-1.152-.23-.235-.61-.352-1.144-.352-.416 0-.85.072-1.304.216a6.595 6.595 0 0 0-1.336.6l-.56-1.376c.438-.277.966-.507 1.584-.688a6.262 6.262 0 0 1 1.76-.272zm-.464 6.704c.534 0 .968-.179 1.304-.536.336-.357.504-.819.504-1.384v-.336h-.288c-.714 0-1.27.032-1.664.096-.394.064-.677.176-.848.336-.17.16-.256.379-.256.656 0 .341.118.621.352.84.235.219.534.328.896.328zm9.312 1.44c-.821 0-1.533-.165-2.136-.496a3.355 3.355 0 0 1-1.384-1.408c-.32-.608-.48-1.317-.48-2.128 0-.81.168-1.528.504-2.152a3.533 3.533 0 0 1 1.432-1.448c.619-.341 1.334-.512 2.144-.512.555 0 1.096.088 1.624.264.528.176.952.413 1.272.712l-.576 1.408c-.33-.267-.68-.47-1.048-.608a3.091 3.091 0 0 0-1.096-.208c-.693 0-1.232.216-1.616.648-.384.432-.576 1.053-.576 1.864 0 .8.192 1.416.576 1.848.384.432.923.648 1.616.648.363 0 .728-.07 1.096-.208a3.803 3.803 0 0 0 1.048-.608l.576 1.392c-.341.31-.778.552-1.312.728a5.275 5.275 0 0 1-1.664.264zm8.24-1.504c.235 0 .48-.016.736-.048l-.096 1.488c-.32.032-.613.048-.88.048-1.098 0-1.91-.253-2.432-.76s-.784-1.261-.784-2.264V18.68h-1.504v-1.504h1.504V14.84h2v2.336h2.064v1.504h-2.064v3.376c0 1.045.486 1.568 1.456 1.568zM147.504 25V13.72h7.392v1.648h-5.36v3.072h5.04v1.648h-5.04V25h-2.032zm16.064-7.824V25h-1.952v-1.2a2.549 2.549 0 0 1-.992.984c-.416.23-.885.344-1.408.344-1.92 0-2.88-1.077-2.88-3.232v-4.72h2v4.736c0 .555.112.965.336 1.232.224.267.576.4 1.056.4.555 0 1-.184 1.336-.552.336-.368.504-.856.504-1.464v-4.352h2zm6.624-.192c.939 0 1.638.267 2.096.8.459.533.688 1.339.688 2.416V25h-2v-4.688c0-.608-.114-1.05-.344-1.328-.23-.277-.59-.416-1.08-.416-.576 0-1.037.181-1.384.544-.346.363-.52.848-.52 1.456V25h-2v-7.824h1.952v1.168a2.706 2.706 0 0 1 1.072-1.008 3.226 3.226 0 0 1 1.52-.352zm12.368-3.264V25h-1.984v-1.264a2.505 2.505 0 0 1-1.016 1.024c-.442.245-.946.368-1.512.368-.672 0-1.272-.17-1.8-.512-.528-.341-.938-.824-1.232-1.448-.293-.624-.44-1.341-.44-2.152 0-.81.147-1.52.44-2.128.294-.608.702-1.077 1.224-1.408.523-.33 1.126-.496 1.808-.496.566 0 1.067.117 1.504.352.438.235.774.565 1.008.992V13.72h2zm-3.984 9.856c.64 0 1.134-.219 1.48-.656.347-.437.52-1.061.52-1.872 0-.81-.173-1.432-.52-1.864-.346-.432-.834-.648-1.464-.648-.64 0-1.136.213-1.488.64-.352.427-.528 1.04-.528 1.84 0 .81.176 1.44.528 1.888.352.448.843.672 1.472.672z" fill="#FFF"/></g><g transform="translate(938.134 538)"><rect fill="#1247B3" width="241.65" height="40" rx="5"/><path d="M14.162 13.72h4.928c1.205 0 2.144.301 2.816.904.672.603 1.008 1.448 1.008 2.536s-.336 1.936-1.008 2.544c-.672.608-1.611.912-2.816.912h-2.864V25h-2.064V13.72zm4.672 5.312c1.418 0 2.128-.619 2.128-1.856 0-.63-.176-1.096-.528-1.4-.352-.304-.886-.456-1.6-.456h-2.608v3.712h2.608zm10.864-.384l-1.168.112c-1.323.139-1.984.81-1.984 2.016V25h-2v-7.824h1.904v1.376c.405-.939 1.242-1.45 2.512-1.536l.608-.048.128 1.68zm4.544 6.48c-.8 0-1.502-.165-2.104-.496a3.432 3.432 0 0 1-1.4-1.424c-.331-.619-.496-1.339-.496-2.16 0-.821.165-1.539.496-2.152a3.444 3.444 0 0 1 1.4-1.416c.602-.33 1.304-.496 2.104-.496s1.5.165 2.104.496c.602.33 1.066.803 1.392 1.416.325.613.488 1.33.488 2.152 0 .821-.163 1.541-.488 2.16a3.382 3.382 0 0 1-1.392 1.424c-.603.33-1.304.496-2.104.496zm-.016-1.552c.65 0 1.146-.213 1.488-.64.34-.427.512-1.056.512-1.888 0-.821-.171-1.448-.512-1.88-.342-.432-.832-.648-1.472-.648s-1.134.216-1.48.648c-.347.432-.52 1.059-.52 1.88 0 .832.17 1.461.512 1.888.34.427.832.64 1.472.64zm14.944-6.592c.885 0 1.546.264 1.984.792.437.528.656 1.336.656 2.424V25h-2v-4.72c0-.597-.102-1.032-.304-1.304-.203-.272-.528-.408-.976-.408-.534 0-.95.181-1.248.544-.3.363-.448.87-.448 1.52V25h-2v-4.72c0-.597-.1-1.032-.296-1.304-.198-.272-.526-.408-.984-.408-.523 0-.934.181-1.232.544-.3.363-.448.87-.448 1.52V25h-2v-7.824h1.952v1.104c.234-.427.56-.75.976-.968.416-.219.89-.328 1.424-.328 1.184 0 1.968.49 2.352 1.472a2.672 2.672 0 0 1 1.056-1.08c.458-.261.97-.392 1.536-.392zm8.24 8.144c-.8 0-1.502-.165-2.104-.496a3.432 3.432 0 0 1-1.4-1.424c-.331-.619-.496-1.339-.496-2.16 0-.821.165-1.539.496-2.152a3.444 3.444 0 0 1 1.4-1.416c.602-.33 1.304-.496 2.104-.496s1.5.165 2.104.496c.602.33 1.066.803 1.392 1.416.325.613.488 1.33.488 2.152 0 .821-.163 1.541-.488 2.16a3.382 3.382 0 0 1-1.392 1.424c-.603.33-1.304.496-2.104.496zm-.016-1.552c.65 0 1.146-.213 1.488-.64.34-.427.512-1.056.512-1.888 0-.821-.171-1.448-.512-1.88-.342-.432-.832-.648-1.472-.648s-1.134.216-1.48.648c-.347.432-.52 1.059-.52 1.88 0 .832.17 1.461.512 1.888.34.427.832.64 1.472.64zm9.648.048c.234 0 .48-.016.736-.048l-.096 1.488c-.32.032-.614.048-.88.048-1.1 0-1.91-.253-2.432-.76-.523-.507-.784-1.261-.784-2.264V18.68h-1.504v-1.504h1.504V14.84h2v2.336h2.064v1.504h-2.064v3.376c0 1.045.485 1.568 1.456 1.568zm8.768-2.176h-5.328c.064.725.282 1.264.656 1.616.373.352.906.528 1.6.528.864 0 1.653-.277 2.368-.832l.576 1.376c-.363.299-.82.539-1.368.72a5.254 5.254 0 0 1-1.656.272c-1.28 0-2.291-.363-3.032-1.088-.742-.725-1.112-1.717-1.112-2.976 0-.8.16-1.51.48-2.128a3.49 3.49 0 0 1 1.352-1.44c.58-.341 1.24-.512 1.976-.512 1.077 0 1.928.347 2.552 1.04.624.693.936 1.648.936 2.864v.56zm-3.44-3.056c-.534 0-.963.17-1.288.512-.326.341-.526.832-.6 1.472h3.616c-.022-.65-.182-1.144-.48-1.48-.3-.336-.715-.504-1.248-.504zm14.24 6.752c-1.547 0-2.72-.4-3.52-1.2-.8-.8-1.2-1.968-1.2-3.504v-6.72h2.016v6.832c0 .97.229 1.704.688 2.2.458.496 1.13.744 2.016.744.874 0 1.54-.25 2-.752.458-.501.688-1.232.688-2.192V13.72h2.016v6.72c0 1.525-.4 2.69-1.2 3.496-.8.805-1.968 1.208-3.504 1.208zm9.776-.016c-.694 0-1.331-.085-1.912-.256-.582-.17-1.075-.416-1.48-.736l.56-1.392c.832.608 1.786.912 2.864.912.458 0 .808-.075 1.048-.224.24-.15.36-.363.36-.64 0-.235-.083-.416-.248-.544-.166-.128-.462-.245-.888-.352l-1.28-.288c-.726-.16-1.264-.421-1.616-.784-.352-.363-.528-.832-.528-1.408 0-.48.136-.904.408-1.272.272-.368.65-.653 1.136-.856.485-.203 1.048-.304 1.688-.304a5.1 5.1 0 0 1 1.608.256c.517.17.973.41 1.368.72l-.56 1.36c-.811-.587-1.622-.88-2.432-.88-.438 0-.78.08-1.024.24a.76.76 0 0 0-.368.672c0 .213.077.39.232.528.154.139.402.245.744.32l1.328.304c.778.17 1.349.44 1.712.808.362.368.544.85.544 1.448 0 .725-.294 1.301-.88 1.728-.587.427-1.382.64-2.384.64zm8.24-8.144c1.098 0 1.914.267 2.448.8.533.533.8 1.355.8 2.464V25h-1.904v-1.2a2.088 2.088 0 0 1-.856.976c-.39.235-.84.352-1.352.352a3.14 3.14 0 0 1-1.424-.32 2.533 2.533 0 0 1-1.008-.88 2.224 2.224 0 0 1-.368-1.248c0-.576.146-1.03.44-1.36.293-.33.77-.57 1.432-.72.66-.15 1.573-.224 2.736-.224h.4v-.368c0-.533-.115-.917-.344-1.152-.23-.235-.611-.352-1.144-.352-.416 0-.851.072-1.304.216a6.595 6.595 0 0 0-1.336.6l-.56-1.376c.437-.277.965-.507 1.584-.688a6.262 6.262 0 0 1 1.76-.272zm-.464 6.704c.533 0 .968-.179 1.304-.536.336-.357.504-.819.504-1.384v-.336h-.288c-.715 0-1.27.032-1.664.096-.395.064-.678.176-.848.336-.171.16-.256.379-.256.656 0 .341.117.621.352.84.234.219.533.328.896.328zm13.36-6.512v7.104c0 1.227-.34 2.155-1.016 2.784-.678.63-1.678.944-3 .944a7.273 7.273 0 0 1-1.968-.264A5.56 5.56 0 0 1 109.89 27l.56-1.408c.97.587 1.973.88 3.008.88 1.386 0 2.08-.683 2.08-2.048V23.4a2.443 2.443 0 0 1-1.024 1.016c-.448.24-.96.36-1.536.36-.683 0-1.288-.163-1.816-.488a3.354 3.354 0 0 1-1.24-1.368c-.3-.587-.448-1.264-.448-2.032s.146-1.448.44-2.04a3.271 3.271 0 0 1 1.24-1.376c.533-.325 1.14-.488 1.824-.488.576 0 1.088.12 1.536.36.448.24.789.579 1.024 1.016v-1.184h1.984zm-4.016 6.048c.64 0 1.138-.208 1.496-.624.357-.416.536-.987.536-1.712 0-.736-.18-1.312-.536-1.728-.358-.416-.856-.624-1.496-.624-.63 0-1.126.208-1.488.624-.363.416-.544.992-.544 1.728 0 .715.18 1.283.544 1.704.362.421.858.632 1.488.632zm12.944-1.776h-5.328c.064.725.282 1.264.656 1.616.373.352.906.528 1.6.528.864 0 1.653-.277 2.368-.832l.576 1.376c-.363.299-.82.539-1.368.72a5.254 5.254 0 0 1-1.656.272c-1.28 0-2.291-.363-3.032-1.088-.742-.725-1.112-1.717-1.112-2.976 0-.8.16-1.51.48-2.128a3.49 3.49 0 0 1 1.352-1.44c.58-.341 1.24-.512 1.976-.512 1.077 0 1.928.347 2.552 1.04.624.693.936 1.648.936 2.864v.56zm-3.44-3.056c-.534 0-.963.17-1.288.512-.326.341-.526.832-.6 1.472h3.616c-.022-.65-.182-1.144-.48-1.48-.3-.336-.715-.504-1.248-.504zm12.976 6.736c-.8 0-1.502-.165-2.104-.496a3.432 3.432 0 0 1-1.4-1.424c-.331-.619-.496-1.339-.496-2.16 0-.821.165-1.539.496-2.152a3.444 3.444 0 0 1 1.4-1.416c.602-.33 1.304-.496 2.104-.496s1.5.165 2.104.496c.602.33 1.066.803 1.392 1.416.325.613.488 1.33.488 2.152 0 .821-.163 1.541-.488 2.16a3.382 3.382 0 0 1-1.392 1.424c-.603.33-1.304.496-2.104.496zm-.016-1.552c.65 0 1.146-.213 1.488-.64.34-.427.512-1.056.512-1.888 0-.821-.171-1.448-.512-1.88-.342-.432-.832-.648-1.472-.648s-1.134.216-1.48.648c-.347.432-.52 1.059-.52 1.88 0 .832.17 1.461.512 1.888.34.427.832.64 1.472.64zm8.192-6.4h2.064v1.504h-2.064V25h-2v-6.32h-1.504v-1.504h1.504c0-1.12.29-1.963.872-2.528.58-.565 1.485-.88 2.712-.944l.784-.048.128 1.488-.752.032c-.63.032-1.078.173-1.344.424-.267.25-.4.653-.4 1.208v.368zm17.104 1.728v5.408c-.512.256-1.134.459-1.864.608-.731.15-1.475.224-2.232.224-1.163 0-2.171-.232-3.024-.696a4.697 4.697 0 0 1-1.96-2c-.454-.87-.68-1.901-.68-3.096 0-1.184.226-2.21.68-3.08a4.734 4.734 0 0 1 1.936-2c.837-.464 1.82-.696 2.952-.696.789 0 1.53.115 2.224.344.693.23 1.269.557 1.728.984l-.688 1.488c-.523-.405-1.038-.696-1.544-.872a5.066 5.066 0 0 0-1.672-.264c-1.163 0-2.04.344-2.632 1.032-.592.688-.888 1.71-.888 3.064 0 2.773 1.216 4.16 3.648 4.16.725 0 1.45-.101 2.176-.304v-2.832h-2.432v-1.472h4.272zM173.042 25h-2.24l-1.936-3.6c-.182-.341-.406-.581-.672-.72-.267-.139-.603-.208-1.008-.208h-1.568V25h-2.032V13.72h4.992c1.28 0 2.253.285 2.92.856.666.57 1 1.395 1 2.472 0 .864-.243 1.576-.728 2.136-.486.56-1.171.925-2.056 1.096.597.16 1.077.581 1.44 1.264L173.042 25zm-4.752-6.112c.778 0 1.349-.147 1.712-.44.362-.293.544-.744.544-1.352 0-.619-.182-1.07-.544-1.352-.363-.283-.934-.424-1.712-.424h-2.688v3.568h2.688zM174.706 25V13.72h2.064V25h-2.064zm4.496-11.28h4.16c1.845 0 3.277.493 4.296 1.48 1.018.987 1.528 2.37 1.528 4.152 0 1.781-.51 3.168-1.528 4.16-1.02.992-2.451 1.488-4.296 1.488h-4.16V13.72zm4.032 9.6c2.592 0 3.888-1.323 3.888-3.968 0-2.635-1.296-3.952-3.888-3.952h-1.968v7.92h1.968z" fill="#FFF"/></g><g transform="translate(419.708 298)"><rect fill="#1247B3" width="241.65" height="40" rx="5"/><rect fill="#1247B3" width="241.65" height="40" rx="5"/><path d="M16.818 25v-9.584h-3.68V13.72h9.424v1.696h-3.68V25h-2.064zm11.52-8.016c.938 0 1.637.267 2.096.8.458.533.688 1.339.688 2.416V25h-2v-4.688c0-.608-.115-1.05-.344-1.328-.23-.277-.59-.416-1.08-.416-.576 0-1.038.181-1.384.544-.347.363-.52.848-.52 1.456V25h-2V13.72h2v4.544a2.62 2.62 0 0 1 1.064-.952 3.296 3.296 0 0 1 1.48-.328zm9.968 1.664l-1.168.112c-1.323.139-1.984.81-1.984 2.016V25h-2v-7.824h1.904v1.376c.405-.939 1.242-1.45 2.512-1.536l.608-.048.128 1.68zm7.84 2.8h-5.328c.064.725.282 1.264.656 1.616.373.352.906.528 1.6.528.864 0 1.653-.277 2.368-.832l.576 1.376c-.363.299-.82.539-1.368.72a5.254 5.254 0 0 1-1.656.272c-1.28 0-2.291-.363-3.032-1.088-.742-.725-1.112-1.717-1.112-2.976 0-.8.16-1.51.48-2.128a3.49 3.49 0 0 1 1.352-1.44c.58-.341 1.24-.512 1.976-.512 1.077 0 1.928.347 2.552 1.04.624.693.936 1.648.936 2.864v.56zm-3.44-3.056c-.534 0-.963.17-1.288.512-.326.341-.526.832-.6 1.472h3.616c-.022-.65-.182-1.144-.48-1.48-.3-.336-.715-.504-1.248-.504zm11.936 3.056h-5.328c.064.725.282 1.264.656 1.616.373.352.906.528 1.6.528.864 0 1.653-.277 2.368-.832l.576 1.376c-.363.299-.82.539-1.368.72a5.254 5.254 0 0 1-1.656.272c-1.28 0-2.291-.363-3.032-1.088-.742-.725-1.112-1.717-1.112-2.976 0-.8.16-1.51.48-2.128a3.49 3.49 0 0 1 1.352-1.44c.58-.341 1.24-.512 1.976-.512 1.077 0 1.928.347 2.552 1.04.624.693.936 1.648.936 2.864v.56zm-3.44-3.056c-.534 0-.963.17-1.288.512-.326.341-.526.832-.6 1.472h3.616c-.022-.65-.182-1.144-.48-1.48-.3-.336-.715-.504-1.248-.504zM56.45 25V13.72h7.392v1.648h-5.36v3.072h5.04v1.648h-5.04V25H56.45zm12.448.128c-.8 0-1.502-.165-2.104-.496a3.432 3.432 0 0 1-1.4-1.424c-.331-.619-.496-1.339-.496-2.16 0-.821.165-1.539.496-2.152a3.444 3.444 0 0 1 1.4-1.416c.602-.33 1.304-.496 2.104-.496s1.5.165 2.104.496c.602.33 1.066.803 1.392 1.416.325.613.488 1.33.488 2.152 0 .821-.163 1.541-.488 2.16a3.382 3.382 0 0 1-1.392 1.424c-.603.33-1.304.496-2.104.496zm-.016-1.552c.65 0 1.146-.213 1.488-.64.34-.427.512-1.056.512-1.888 0-.821-.171-1.448-.512-1.88-.342-.432-.832-.648-1.472-.648s-1.134.216-1.48.648c-.347.432-.52 1.059-.52 1.88 0 .832.17 1.461.512 1.888.34.427.832.64 1.472.64zM74.53 25V13.72h2V25h-2zm11.616-11.28V25h-1.984v-1.264a2.505 2.505 0 0 1-1.016 1.024c-.443.245-.947.368-1.512.368-.672 0-1.272-.17-1.8-.512-.528-.341-.94-.824-1.232-1.448-.294-.624-.44-1.341-.44-2.152 0-.81.146-1.52.44-2.128.293-.608.7-1.077 1.224-1.408.522-.33 1.125-.496 1.808-.496.565 0 1.066.117 1.504.352.437.235.773.565 1.008.992V13.72h2zm-3.984 9.856c.64 0 1.133-.219 1.48-.656.346-.437.52-1.061.52-1.872 0-.81-.174-1.432-.52-1.864-.347-.432-.835-.648-1.464-.648-.64 0-1.136.213-1.488.64-.352.427-.528 1.04-.528 1.84 0 .81.176 1.44.528 1.888.352.448.842.672 1.472.672zM92.722 25V13.72h2.064V25h-2.064zm8.864-8.016c.938 0 1.637.267 2.096.8.458.533.688 1.339.688 2.416V25h-2v-4.688c0-.608-.115-1.05-.344-1.328-.23-.277-.59-.416-1.08-.416-.576 0-1.038.181-1.384.544-.347.363-.52.848-.52 1.456V25h-2v-7.824h1.952v1.168a2.706 2.706 0 0 1 1.072-1.008 3.226 3.226 0 0 1 1.52-.352zm8.384 8.144c-.822 0-1.534-.165-2.136-.496a3.355 3.355 0 0 1-1.384-1.408c-.32-.608-.48-1.317-.48-2.128 0-.81.168-1.528.504-2.152a3.533 3.533 0 0 1 1.432-1.448c.618-.341 1.333-.512 2.144-.512.554 0 1.096.088 1.624.264.528.176.952.413 1.272.712l-.576 1.408c-.331-.267-.68-.47-1.048-.608a3.091 3.091 0 0 0-1.096-.208c-.694 0-1.232.216-1.616.648-.384.432-.576 1.053-.576 1.864 0 .8.192 1.416.576 1.848.384.432.922.648 1.616.648.362 0 .728-.07 1.096-.208a3.803 3.803 0 0 0 1.048-.608l.576 1.392c-.342.31-.78.552-1.312.728a5.275 5.275 0 0 1-1.664.264zm11.424-7.952V25h-1.952v-1.2a2.549 2.549 0 0 1-.992.984c-.416.23-.886.344-1.408.344-1.92 0-2.88-1.077-2.88-3.232v-4.72h2v4.736c0 .555.112.965.336 1.232.224.267.576.4 1.056.4.554 0 1-.184 1.336-.552.336-.368.504-.856.504-1.464v-4.352h2zm6.576-.192c.682 0 1.285.165 1.808.496.522.33.93.8 1.224 1.408.293.608.44 1.317.44 2.128 0 .81-.147 1.528-.44 2.152-.294.624-.704 1.107-1.232 1.448a3.243 3.243 0 0 1-1.8.512c-.566 0-1.07-.123-1.512-.368a2.505 2.505 0 0 1-1.016-1.024V25h-1.968V13.72h2v4.592c.234-.427.57-.755 1.008-.984.437-.23.933-.344 1.488-.344zm-.528 6.592c.629 0 1.12-.224 1.472-.672.352-.448.528-1.077.528-1.888 0-.8-.174-1.413-.52-1.84-.347-.427-.84-.64-1.48-.64s-1.134.216-1.48.648c-.347.432-.52 1.053-.52 1.864 0 .81.173 1.435.52 1.872.346.437.84.656 1.48.656zm9.008-6.592c1.098 0 1.914.267 2.448.8.533.533.8 1.355.8 2.464V25h-1.904v-1.2a2.088 2.088 0 0 1-.856.976c-.39.235-.84.352-1.352.352a3.14 3.14 0 0 1-1.424-.32 2.533 2.533 0 0 1-1.008-.88 2.224 2.224 0 0 1-.368-1.248c0-.576.146-1.03.44-1.36.293-.33.77-.57 1.432-.72.66-.15 1.573-.224 2.736-.224h.4v-.368c0-.533-.115-.917-.344-1.152-.23-.235-.611-.352-1.144-.352-.416 0-.851.072-1.304.216a6.595 6.595 0 0 0-1.336.6l-.56-1.376c.437-.277.965-.507 1.584-.688a6.262 6.262 0 0 1 1.76-.272zm-.464 6.704c.533 0 .968-.179 1.304-.536.336-.357.504-.819.504-1.384v-.336h-.288c-.715 0-1.27.032-1.664.096-.395.064-.678.176-.848.336-.171.16-.256.379-.256.656 0 .341.117.621.352.84.234.219.533.328.896.328zm9.744-.064c.234 0 .48-.016.736-.048l-.096 1.488c-.32.032-.614.048-.88.048-1.1 0-1.91-.253-2.432-.76-.523-.507-.784-1.261-.784-2.264V18.68h-1.504v-1.504h1.504V14.84h2v2.336h2.064v1.504h-2.064v3.376c0 1.045.485 1.568 1.456 1.568zm5.472 1.504c-.8 0-1.502-.165-2.104-.496a3.432 3.432 0 0 1-1.4-1.424c-.331-.619-.496-1.339-.496-2.16 0-.821.165-1.539.496-2.152a3.444 3.444 0 0 1 1.4-1.416c.602-.33 1.304-.496 2.104-.496s1.5.165 2.104.496c.602.33 1.066.803 1.392 1.416.325.613.488 1.33.488 2.152 0 .821-.163 1.541-.488 2.16a3.382 3.382 0 0 1-1.392 1.424c-.603.33-1.304.496-2.104.496zm-.016-1.552c.65 0 1.146-.213 1.488-.64.34-.427.512-1.056.512-1.888 0-.821-.171-1.448-.512-1.88-.342-.432-.832-.648-1.472-.648s-1.134.216-1.48.648c-.347.432-.52 1.059-.52 1.88 0 .832.17 1.461.512 1.888.34.427.832.64 1.472.64zm10.8-4.928l-1.168.112c-1.323.139-1.984.81-1.984 2.016V25h-2v-7.824h1.904v1.376c.405-.939 1.242-1.45 2.512-1.536l.608-.048.128 1.68z" fill="#FFF"/></g><g transform="translate(160 118)"><rect fill="#29CC7A" width="241.65" height="40" rx="5"/><path d="M21.106 19.176c.65.181 1.154.512 1.512.992.357.48.536 1.067.536 1.76 0 .96-.344 1.712-1.032 2.256-.688.544-1.635.816-2.84.816h-5.12V13.72h4.96c1.173 0 2.093.259 2.76.776.666.517 1 1.24 1 2.168 0 .597-.158 1.115-.472 1.552-.315.437-.75.757-1.304.96zm-4.928-.704h2.608c1.418 0 2.128-.528 2.128-1.584 0-.533-.176-.928-.528-1.184-.352-.256-.886-.384-1.6-.384h-2.608v3.152zm2.88 4.928c.746 0 1.29-.133 1.632-.4.34-.267.512-.683.512-1.248s-.174-.987-.52-1.264c-.347-.277-.888-.416-1.624-.416h-2.88V23.4h2.88zm5.856 1.6V13.72h2V25h-2zm7.632.128c-.8 0-1.502-.165-2.104-.496a3.432 3.432 0 0 1-1.4-1.424c-.331-.619-.496-1.339-.496-2.16 0-.821.165-1.539.496-2.152a3.444 3.444 0 0 1 1.4-1.416c.602-.33 1.304-.496 2.104-.496s1.5.165 2.104.496c.602.33 1.066.803 1.392 1.416.325.613.488 1.33.488 2.152 0 .821-.163 1.541-.488 2.16a3.382 3.382 0 0 1-1.392 1.424c-.603.33-1.304.496-2.104.496zm-.016-1.552c.65 0 1.146-.213 1.488-.64.34-.427.512-1.056.512-1.888 0-.821-.171-1.448-.512-1.88-.342-.432-.832-.648-1.472-.648s-1.134.216-1.48.648c-.347.432-.52 1.059-.52 1.88 0 .832.17 1.461.512 1.888.34.427.832.64 1.472.64zm9.216 1.552c-.822 0-1.534-.165-2.136-.496a3.355 3.355 0 0 1-1.384-1.408c-.32-.608-.48-1.317-.48-2.128 0-.81.168-1.528.504-2.152a3.533 3.533 0 0 1 1.432-1.448c.618-.341 1.333-.512 2.144-.512.554 0 1.096.088 1.624.264.528.176.952.413 1.272.712l-.576 1.408c-.331-.267-.68-.47-1.048-.608a3.091 3.091 0 0 0-1.096-.208c-.694 0-1.232.216-1.616.648-.384.432-.576 1.053-.576 1.864 0 .8.192 1.416.576 1.848.384.432.922.648 1.616.648.362 0 .728-.07 1.096-.208a3.803 3.803 0 0 0 1.048-.608l.576 1.392c-.342.31-.78.552-1.312.728a5.275 5.275 0 0 1-1.664.264zM53.826 25h-2.48l-3.36-3.568V25h-2V13.72h2v6.88l3.152-3.408h2.432l-3.52 3.744L53.826 25zm4.304.128c-.822 0-1.534-.165-2.136-.496a3.355 3.355 0 0 1-1.384-1.408c-.32-.608-.48-1.317-.48-2.128 0-.81.168-1.528.504-2.152a3.533 3.533 0 0 1 1.432-1.448c.618-.341 1.333-.512 2.144-.512.554 0 1.096.088 1.624.264.528.176.952.413 1.272.712l-.576 1.408c-.331-.267-.68-.47-1.048-.608a3.091 3.091 0 0 0-1.096-.208c-.694 0-1.232.216-1.616.648-.384.432-.576 1.053-.576 1.864 0 .8.192 1.416.576 1.848.384.432.922.648 1.616.648.362 0 .728-.07 1.096-.208a3.803 3.803 0 0 0 1.048-.608l.576 1.392c-.342.31-.78.552-1.312.728a5.275 5.275 0 0 1-1.664.264zm8.784-8.144c.938 0 1.637.267 2.096.8.458.533.688 1.339.688 2.416V25h-2v-4.688c0-.608-.115-1.05-.344-1.328-.23-.277-.59-.416-1.08-.416-.576 0-1.038.181-1.384.544-.347.363-.52.848-.52 1.456V25h-2V13.72h2v4.544a2.62 2.62 0 0 1 1.064-.952 3.296 3.296 0 0 1 1.48-.328zm8.176 0c1.098 0 1.914.267 2.448.8.533.533.8 1.355.8 2.464V25h-1.904v-1.2a2.088 2.088 0 0 1-.856.976c-.39.235-.84.352-1.352.352a3.14 3.14 0 0 1-1.424-.32 2.533 2.533 0 0 1-1.008-.88 2.224 2.224 0 0 1-.368-1.248c0-.576.146-1.03.44-1.36.293-.33.77-.57 1.432-.72.66-.15 1.573-.224 2.736-.224h.4v-.368c0-.533-.115-.917-.344-1.152-.23-.235-.611-.352-1.144-.352-.416 0-.851.072-1.304.216a6.595 6.595 0 0 0-1.336.6l-.56-1.376c.437-.277.965-.507 1.584-.688a6.262 6.262 0 0 1 1.76-.272zm-.464 6.704c.533 0 .968-.179 1.304-.536.336-.357.504-.819.504-1.384v-.336h-.288c-.715 0-1.27.032-1.664.096-.395.064-.678.176-.848.336-.171.16-.256.379-.256.656 0 .341.117.621.352.84.234.219.533.328.896.328zM80.37 25v-7.824h2V25h-2zm-.112-11.456h2.208v1.968h-2.208v-1.968zm8.72 3.44c.938 0 1.637.267 2.096.8.458.533.688 1.339.688 2.416V25h-2v-4.688c0-.608-.115-1.05-.344-1.328-.23-.277-.59-.416-1.08-.416-.576 0-1.038.181-1.384.544-.347.363-.52.848-.52 1.456V25h-2v-7.824h1.952v1.168a2.706 2.706 0 0 1 1.072-1.008 3.226 3.226 0 0 1 1.52-.352zM98.306 25V13.72h2.064v9.584h5.264V25h-7.328zm12.064-8.016c1.098 0 1.914.267 2.448.8.533.533.8 1.355.8 2.464V25h-1.904v-1.2a2.088 2.088 0 0 1-.856.976c-.39.235-.84.352-1.352.352a3.14 3.14 0 0 1-1.424-.32 2.533 2.533 0 0 1-1.008-.88 2.224 2.224 0 0 1-.368-1.248c0-.576.146-1.03.44-1.36.293-.33.77-.57 1.432-.72.66-.15 1.573-.224 2.736-.224h.4v-.368c0-.533-.115-.917-.344-1.152-.23-.235-.611-.352-1.144-.352-.416 0-.851.072-1.304.216a6.595 6.595 0 0 0-1.336.6l-.56-1.376c.437-.277.965-.507 1.584-.688a6.262 6.262 0 0 1 1.76-.272zm-.464 6.704c.533 0 .968-.179 1.304-.536.336-.357.504-.819.504-1.384v-.336h-.288c-.715 0-1.27.032-1.664.096-.395.064-.678.176-.848.336-.171.16-.256.379-.256.656 0 .341.117.621.352.84.234.219.533.328.896.328zm12.928-6.512V25h-1.952v-1.2a2.549 2.549 0 0 1-.992.984c-.416.23-.886.344-1.408.344-1.92 0-2.88-1.077-2.88-3.232v-4.72h2v4.736c0 .555.112.965.336 1.232.224.267.576.4 1.056.4.554 0 1-.184 1.336-.552.336-.368.504-.856.504-1.464v-4.352h2zm6.624-.192c.938 0 1.637.267 2.096.8.458.533.688 1.339.688 2.416V25h-2v-4.688c0-.608-.115-1.05-.344-1.328-.23-.277-.59-.416-1.08-.416-.576 0-1.038.181-1.384.544-.347.363-.52.848-.52 1.456V25h-2v-7.824h1.952v1.168a2.706 2.706 0 0 1 1.072-1.008 3.226 3.226 0 0 1 1.52-.352zm8.384 8.144c-.822 0-1.534-.165-2.136-.496a3.355 3.355 0 0 1-1.384-1.408c-.32-.608-.48-1.317-.48-2.128 0-.81.168-1.528.504-2.152a3.533 3.533 0 0 1 1.432-1.448c.618-.341 1.333-.512 2.144-.512.554 0 1.096.088 1.624.264.528.176.952.413 1.272.712l-.576 1.408c-.331-.267-.68-.47-1.048-.608a3.091 3.091 0 0 0-1.096-.208c-.694 0-1.232.216-1.616.648-.384.432-.576 1.053-.576 1.864 0 .8.192 1.416.576 1.848.384.432.922.648 1.616.648.362 0 .728-.07 1.096-.208a3.803 3.803 0 0 0 1.048-.608l.576 1.392c-.342.31-.78.552-1.312.728a5.275 5.275 0 0 1-1.664.264zm8.784-8.144c.938 0 1.637.267 2.096.8.458.533.688 1.339.688 2.416V25h-2v-4.688c0-.608-.115-1.05-.344-1.328-.23-.277-.59-.416-1.08-.416-.576 0-1.038.181-1.384.544-.347.363-.52.848-.52 1.456V25h-2V13.72h2v4.544a2.62 2.62 0 0 1 1.064-.952 3.296 3.296 0 0 1 1.48-.328z" fill="#FFF"/></g><g transform="translate(160 178)"><rect fill="#29CC7A" width="241.65" height="40" rx="5"/><path d="M16.818 25v-9.584h-3.68V13.72h9.424v1.696h-3.68V25h-2.064zm10.544.128c-.8 0-1.502-.165-2.104-.496a3.432 3.432 0 0 1-1.4-1.424c-.331-.619-.496-1.339-.496-2.16 0-.821.165-1.539.496-2.152a3.444 3.444 0 0 1 1.4-1.416c.602-.33 1.304-.496 2.104-.496s1.5.165 2.104.496c.602.33 1.066.803 1.392 1.416.325.613.488 1.33.488 2.152 0 .821-.163 1.541-.488 2.16a3.382 3.382 0 0 1-1.392 1.424c-.603.33-1.304.496-2.104.496zm-.016-1.552c.65 0 1.146-.213 1.488-.64.34-.427.512-1.056.512-1.888 0-.821-.171-1.448-.512-1.88-.342-.432-.832-.648-1.472-.648s-1.134.216-1.48.648c-.347.432-.52 1.059-.52 1.88 0 .832.17 1.461.512 1.888.34.427.832.64 1.472.64zM40.834 25h-2.48l-3.36-3.568V25h-2V13.72h2v6.88l3.152-3.408h2.432l-3.52 3.744L40.834 25zm7.6-3.552h-5.328c.064.725.282 1.264.656 1.616.373.352.906.528 1.6.528.864 0 1.653-.277 2.368-.832l.576 1.376c-.363.299-.82.539-1.368.72a5.254 5.254 0 0 1-1.656.272c-1.28 0-2.291-.363-3.032-1.088-.742-.725-1.112-1.717-1.112-2.976 0-.8.16-1.51.48-2.128a3.49 3.49 0 0 1 1.352-1.44c.58-.341 1.24-.512 1.976-.512 1.077 0 1.928.347 2.552 1.04.624.693.936 1.648.936 2.864v.56zm-3.44-3.056c-.534 0-.963.17-1.288.512-.326.341-.526.832-.6 1.472h3.616c-.022-.65-.182-1.144-.48-1.48-.3-.336-.715-.504-1.248-.504zm9.616-1.408c.938 0 1.637.267 2.096.8.458.533.688 1.339.688 2.416V25h-2v-4.688c0-.608-.115-1.05-.344-1.328-.23-.277-.59-.416-1.08-.416-.576 0-1.038.181-1.384.544-.347.363-.52.848-.52 1.456V25h-2v-7.824h1.952v1.168a2.706 2.706 0 0 1 1.072-1.008 3.226 3.226 0 0 1 1.52-.352zm7.696 8.144c-.694 0-1.331-.085-1.912-.256-.582-.17-1.075-.416-1.48-.736l.56-1.392c.832.608 1.786.912 2.864.912.458 0 .808-.075 1.048-.224.24-.15.36-.363.36-.64 0-.235-.083-.416-.248-.544-.166-.128-.462-.245-.888-.352l-1.28-.288c-.726-.16-1.264-.421-1.616-.784-.352-.363-.528-.832-.528-1.408 0-.48.136-.904.408-1.272.272-.368.65-.653 1.136-.856.485-.203 1.048-.304 1.688-.304a5.1 5.1 0 0 1 1.608.256c.517.17.973.41 1.368.72l-.56 1.36c-.811-.587-1.622-.88-2.432-.88-.438 0-.78.08-1.024.24a.76.76 0 0 0-.368.672c0 .213.077.39.232.528.154.139.402.245.744.32l1.328.304c.778.17 1.349.44 1.712.808.362.368.544.85.544 1.448 0 .725-.294 1.301-.88 1.728-.587.427-1.382.64-2.384.64zm14.416.016c-1.1 0-2.051-.235-2.856-.704-.806-.47-1.427-1.141-1.864-2.016-.438-.875-.656-1.899-.656-3.072s.216-2.195.648-3.064a4.655 4.655 0 0 1 1.864-2.008c.81-.47 1.765-.704 2.864-.704 1.098 0 2.05.235 2.856.704.805.47 1.424 1.139 1.856 2.008.432.87.648 1.89.648 3.064 0 1.173-.22 2.197-.656 3.072-.438.875-1.06 1.547-1.864 2.016-.806.47-1.752.704-2.84.704zm0-1.648c1.034 0 1.842-.357 2.424-1.072.58-.715.872-1.739.872-3.072s-.291-2.355-.872-3.064c-.582-.71-1.39-1.064-2.424-1.064-1.046 0-1.86.355-2.44 1.064-.582.71-.872 1.73-.872 3.064 0 1.333.29 2.357.872 3.072.58.715 1.394 1.072 2.44 1.072zm11.808-6.512c.938 0 1.637.267 2.096.8.458.533.688 1.339.688 2.416V25h-2v-4.688c0-.608-.115-1.05-.344-1.328-.23-.277-.59-.416-1.08-.416-.576 0-1.038.181-1.384.544-.347.363-.52.848-.52 1.456V25h-2v-7.824h1.952v1.168a2.706 2.706 0 0 1 1.072-1.008 3.226 3.226 0 0 1 1.52-.352zM97.858 25V13.72h7.552v1.632h-5.536v3.104h5.216v1.616h-5.216v3.296h5.536V25h-7.552zm13.616-4.032L114.77 25h-2.368l-2.08-2.608L108.258 25h-2.368l3.28-4.032-3.104-3.792h2.384l1.872 2.384 1.872-2.384h2.384l-3.104 3.792zm7.712 4.16c-.822 0-1.534-.165-2.136-.496a3.355 3.355 0 0 1-1.384-1.408c-.32-.608-.48-1.317-.48-2.128 0-.81.168-1.528.504-2.152a3.533 3.533 0 0 1 1.432-1.448c.618-.341 1.333-.512 2.144-.512.554 0 1.096.088 1.624.264.528.176.952.413 1.272.712l-.576 1.408c-.331-.267-.68-.47-1.048-.608a3.091 3.091 0 0 0-1.096-.208c-.694 0-1.232.216-1.616.648-.384.432-.576 1.053-.576 1.864 0 .8.192 1.416.576 1.848.384.432.922.648 1.616.648.362 0 .728-.07 1.096-.208a3.803 3.803 0 0 0 1.048-.608l.576 1.392c-.342.31-.78.552-1.312.728a5.275 5.275 0 0 1-1.664.264zm8.784-8.144c.938 0 1.637.267 2.096.8.458.533.688 1.339.688 2.416V25h-2v-4.688c0-.608-.115-1.05-.344-1.328-.23-.277-.59-.416-1.08-.416-.576 0-1.038.181-1.384.544-.347.363-.52.848-.52 1.456V25h-2V13.72h2v4.544a2.62 2.62 0 0 1 1.064-.952 3.296 3.296 0 0 1 1.48-.328zm8.176 0c1.098 0 1.914.267 2.448.8.533.533.8 1.355.8 2.464V25h-1.904v-1.2a2.088 2.088 0 0 1-.856.976c-.39.235-.84.352-1.352.352a3.14 3.14 0 0 1-1.424-.32 2.533 2.533 0 0 1-1.008-.88 2.224 2.224 0 0 1-.368-1.248c0-.576.146-1.03.44-1.36.293-.33.77-.57 1.432-.72.66-.15 1.573-.224 2.736-.224h.4v-.368c0-.533-.115-.917-.344-1.152-.23-.235-.611-.352-1.144-.352-.416 0-.851.072-1.304.216a6.595 6.595 0 0 0-1.336.6l-.56-1.376c.437-.277.965-.507 1.584-.688a6.262 6.262 0 0 1 1.76-.272zm-.464 6.704c.533 0 .968-.179 1.304-.536.336-.357.504-.819.504-1.384v-.336h-.288c-.715 0-1.27.032-1.664.096-.395.064-.678.176-.848.336-.171.16-.256.379-.256.656 0 .341.117.621.352.84.234.219.533.328.896.328zm10.288-6.704c.938 0 1.637.267 2.096.8.458.533.688 1.339.688 2.416V25h-2v-4.688c0-.608-.115-1.05-.344-1.328-.23-.277-.59-.416-1.08-.416-.576 0-1.038.181-1.384.544-.347.363-.52.848-.52 1.456V25h-2v-7.824h1.952v1.168a2.706 2.706 0 0 1 1.072-1.008 3.226 3.226 0 0 1 1.52-.352zm12.432.192v7.104c0 1.227-.34 2.155-1.016 2.784-.678.63-1.678.944-3 .944a7.273 7.273 0 0 1-1.968-.264A5.56 5.56 0 0 1 150.77 27l.56-1.408c.97.587 1.973.88 3.008.88 1.386 0 2.08-.683 2.08-2.048V23.4a2.443 2.443 0 0 1-1.024 1.016c-.448.24-.96.36-1.536.36-.683 0-1.288-.163-1.816-.488a3.354 3.354 0 0 1-1.24-1.368c-.3-.587-.448-1.264-.448-2.032s.146-1.448.44-2.04a3.271 3.271 0 0 1 1.24-1.376c.533-.325 1.14-.488 1.824-.488.576 0 1.088.12 1.536.36.448.24.789.579 1.024 1.016v-1.184h1.984zm-4.016 6.048c.64 0 1.138-.208 1.496-.624.357-.416.536-.987.536-1.712 0-.736-.18-1.312-.536-1.728-.358-.416-.856-.624-1.496-.624-.63 0-1.126.208-1.488.624-.363.416-.544.992-.544 1.728 0 .715.18 1.283.544 1.704.362.421.858.632 1.488.632zm12.944-1.776h-5.328c.064.725.282 1.264.656 1.616.373.352.906.528 1.6.528.864 0 1.653-.277 2.368-.832l.576 1.376c-.363.299-.82.539-1.368.72a5.254 5.254 0 0 1-1.656.272c-1.28 0-2.291-.363-3.032-1.088-.742-.725-1.112-1.717-1.112-2.976 0-.8.16-1.51.48-2.128a3.49 3.49 0 0 1 1.352-1.44c.58-.341 1.24-.512 1.976-.512 1.077 0 1.928.347 2.552 1.04.624.693.936 1.648.936 2.864v.56zm-3.44-3.056c-.534 0-.963.17-1.288.512-.326.341-.526.832-.6 1.472h3.616c-.022-.65-.182-1.144-.48-1.48-.3-.336-.715-.504-1.248-.504z" fill="#FFF"/></g></g></svg>