<?xml version="1.0" encoding="utf-8"?>
<!-- Generator: Adobe Illustrator 22.1.0, SVG Export Plug-In . SVG Version: 6.00 Build 0)  -->
<svg version="1.1" xmlns="http://www.w3.org/2000/svg" xmlns:xlink="http://www.w3.org/1999/xlink" x="0px" y="0px"
	 viewBox="0 0 1180 664.6" style="enable-background:new 0 0 1180 664.6;" xml:space="preserve">
<style type="text/css">
	.st0{fill:#F2F6FF;}
	.st1{fill:#555555;}
	.st2{fill:#BFBFBF;}
	.st3{fill:#29CC7A;}
	.st4{fill:#FFFFFF;}
	.st5{fill:#1247B3;}
	.st6{font-family:'Nunito-Bold';}
	.st7{font-size:16px;}
</style>
<g id="Layer_2">
	<g>
		<path class="st0" d="M943,34h232c2.8,0,5,2.5,5,5.6V659c0,3.1-2.2,5.6-5,5.6H943c-2.8,0-5-2.5-5-5.6V39.6
			C938,36.5,940.2,34,943,34z"/>
		<path class="st1" d="M943.3,1c1.2,0,2.1,0.4,2.9,1.2s1.1,1.8,1.1,3.1v8.6c0,1.1-0.3,2-0.8,2.8c-0.6,0.7-1.3,1.2-2.2,1.4
			c-0.1,0-0.1,0.1-0.1,0.1v2.3c0,0.2-0.1,0.2-0.2,0.2h-1.2c-0.2,0-0.2-0.1-0.2-0.2v-2.3c0-0.1,0-0.1-0.1-0.1
			c-0.9-0.2-1.7-0.7-2.2-1.4c-0.6-0.7-0.8-1.7-0.8-2.7V5.3c0-1.3,0.4-2.3,1.1-3.1S942.1,1,943.3,1L943.3,1z M945.6,5.1
			c0-0.8-0.2-1.4-0.6-1.9s-1-0.7-1.7-0.7s-1.2,0.2-1.7,0.7S941,4.3,941,5.1v9c0,0.8,0.2,1.4,0.6,1.9c0.4,0.5,1,0.7,1.7,0.7
			s1.2-0.2,1.7-0.7s0.6-1.1,0.6-1.9V5.1z M951.4,1.3c0.1-0.1,0.2-0.1,0.3-0.1h1.3c0.2,0,0.2,0.1,0.2,0.2v16.3c0,0.2-0.1,0.2-0.2,0.2
			h-1.2c-0.2,0-0.2-0.1-0.2-0.2V3c0,0,0-0.1,0-0.1c0,0-0.1,0-0.1,0l-2,0.9l-0.1,0c-0.1,0-0.2-0.1-0.2-0.2V2.8c0-0.1,0.1-0.2,0.2-0.3
			L951.4,1.3L951.4,1.3z M960.5,18c-0.2,0-0.2-0.1-0.2-0.2v-1.1c0-0.1,0-0.2,0.1-0.3c0.5-0.8,0.8-1.2,0.8-1.3
			c1.1-1.8,2.3-3.6,3.3-5.4c1-1.8,1.5-3.2,1.5-4.4c0-0.8-0.2-1.5-0.6-2c-0.4-0.5-0.9-0.8-1.5-0.7c-0.6,0-1.1,0.2-1.5,0.7
			c-0.4,0.5-0.6,1.1-0.5,1.9v0.9c0,0.2-0.1,0.2-0.2,0.2h-1.2c-0.2,0-0.2-0.1-0.2-0.2v-1c0-1.2,0.4-2.2,1.1-3S963,1,964.1,1
			s2,0.4,2.7,1.2s1,1.8,1,3.1c0,1.5-0.6,3.2-1.7,5.1c-0.8,1.4-1.7,2.8-2.6,4.2c-0.1,0.2-0.3,0.5-0.5,0.8s-0.4,0.7-0.6,1
			c0,0,0,0.1,0,0.1c0,0,0,0,0.1,0h5.6c0.2,0,0.2,0.1,0.2,0.2v1c0,0.2-0.1,0.2-0.2,0.2L960.5,18L960.5,18z M973.9,18.2
			c-1.2,0-2.2-0.4-2.9-1.2s-1.1-1.8-1.1-3.1V5.3c0-1.3,0.4-2.3,1.1-3.1s1.7-1.2,2.9-1.2c1.2,0,2.2,0.4,3,1.2S978,4,978,5.3v8.7
			c0,1.3-0.4,2.3-1.1,3.1S975.1,18.2,973.9,18.2z M973.9,16.8c0.7,0,1.3-0.2,1.7-0.7c0.4-0.5,0.7-1.2,0.7-2V5.2c0-0.8-0.2-1.5-0.7-2
			s-1-0.7-1.7-0.7c-0.7,0-1.3,0.2-1.7,0.7s-0.6,1.2-0.6,2V14c0,0.8,0.2,1.5,0.6,2C972.6,16.5,973.2,16.8,973.9,16.8z M981.7,1.3
			c0.1-0.1,0.2-0.1,0.3-0.1h1.3c0.2,0,0.2,0.1,0.2,0.2v16.3c0,0.2-0.1,0.2-0.2,0.2h-1.2c-0.2,0-0.2-0.1-0.2-0.2V3c0,0,0-0.1,0-0.1
			c0,0-0.1,0-0.1,0l-2,0.9l-0.1,0c-0.1,0-0.2-0.1-0.2-0.2V2.8c0-0.1,0.1-0.2,0.2-0.3L981.7,1.3L981.7,1.3z M993.2,14.1
			c0,1.2-0.4,2.2-1.1,3c-0.7,0.7-1.6,1.1-2.8,1.1c-1,0-1.9-0.4-2.6-1.1s-1-1.7-1-3v-0.4c0-0.2,0.1-0.2,0.2-0.2h1.2
			c0.2,0,0.2,0.1,0.2,0.2V14c0,0.8,0.2,1.4,0.6,1.9s0.8,0.7,1.3,0.7c0.6,0,1.2-0.2,1.5-0.7c0.4-0.5,0.6-1.1,0.6-1.9v-3.2
			c0,0,0-0.1,0-0.1s-0.1,0-0.1,0c-0.2,0.3-0.5,0.6-0.9,0.7c-0.4,0.2-0.8,0.3-1.2,0.3c-1,0-1.8-0.3-2.4-0.9c-0.6-0.6-1-1.4-1.2-2.4
			c-0.1-0.7-0.2-1.4-0.2-2.1c0-0.7,0-1.3,0.1-1.8c0.1-1.1,0.5-2,1.2-2.6s1.5-0.9,2.6-0.9c1,0,1.8,0.3,2.4,0.8s1,1.4,1.2,2.5
			c0.1,0.5,0.2,1.1,0.2,1.9L993.2,14.1L993.2,14.1z M989.4,10.3c1,0,1.7-0.6,2-1.9c0.1-0.5,0.1-1.2,0.1-2c0-0.8,0-1.4-0.1-1.9
			c-0.3-1.4-0.9-2.1-2-2.1c-0.5,0-1,0.2-1.3,0.6s-0.6,0.9-0.7,1.6c-0.1,0.6-0.1,1.2-0.1,1.8c0,0.7,0.1,1.4,0.2,2.1
			c0.1,0.6,0.4,1,0.7,1.3S988.9,10.3,989.4,10.3L989.4,10.3z"/>
		<path class="st0" d="M165,34h232c2.8,0,5,2.5,5,5.6V659c0,3.1-2.2,5.6-5,5.6H165c-2.8,0-5-2.5-5-5.6V39.6
			C160,36.5,162.2,34,165,34z"/>
		<path class="st0" d="M5,34h133c2.8,0,5,2.5,5,5.6V659c0,3.1-2.2,5.6-5,5.6H5c-2.8,0-5-2.5-5-5.6V39.6C0,36.5,2.2,34,5,34z"/>
		<path class="st2" d="M165.3,1c1.2,0,2.1,0.4,2.9,1.2c0.7,0.8,1.1,1.8,1.1,3.1v8.6c0,1.1-0.3,2-0.8,2.8c-0.6,0.7-1.3,1.2-2.2,1.4
			c-0.1,0-0.1,0.1-0.1,0.1v2.3c0,0.2-0.1,0.2-0.2,0.2h-1.2c-0.2,0-0.2-0.1-0.2-0.2v-2.3c0-0.1,0-0.1-0.1-0.1
			c-0.9-0.2-1.7-0.7-2.2-1.4s-0.8-1.7-0.8-2.7V5.3c0-1.3,0.4-2.3,1.1-3.1S164.1,1,165.3,1z M167.6,5.1c0-0.8-0.2-1.4-0.6-1.9
			s-1-0.7-1.7-0.7s-1.2,0.2-1.7,0.7S163,4.3,163,5.1v9c0,0.8,0.2,1.4,0.6,1.9c0.4,0.5,1,0.7,1.7,0.7s1.2-0.2,1.7-0.7
			s0.6-1.1,0.6-1.9V5.1z M171.8,18c-0.2,0-0.2-0.1-0.2-0.2v-1.1c0-0.1,0-0.2,0.1-0.3c0.5-0.8,0.8-1.2,0.8-1.3
			c1.1-1.8,2.3-3.6,3.3-5.4c1-1.8,1.5-3.2,1.5-4.4c0-0.8-0.2-1.5-0.6-2c-0.4-0.5-0.9-0.8-1.5-0.7c-0.6,0-1.1,0.2-1.5,0.7
			c-0.4,0.5-0.6,1.1-0.5,1.9v0.9c0,0.2-0.1,0.2-0.2,0.2h-1.2c-0.2,0-0.2-0.1-0.2-0.2v-1c0-1.2,0.4-2.2,1.1-3s1.6-1.1,2.7-1.1
			s2,0.4,2.7,1.2s1,1.8,1,3.1c0,1.5-0.6,3.2-1.7,5.1c-0.8,1.4-1.7,2.8-2.6,4.2c-0.1,0.2-0.3,0.5-0.5,0.8s-0.4,0.7-0.6,1
			c0,0,0,0.1,0,0.1c0,0,0,0,0.1,0h5.6c0.2,0,0.2,0.1,0.2,0.2v1c0,0.2-0.1,0.2-0.2,0.2L171.8,18L171.8,18z M186.3,18
			c-0.2,0-0.2-0.1-0.2-0.2v-1.1c0-0.1,0-0.2,0.1-0.3c0.5-0.8,0.8-1.2,0.8-1.3c1.1-1.8,2.3-3.6,3.3-5.4c1-1.8,1.5-3.2,1.5-4.4
			c0-0.8-0.2-1.5-0.6-2c-0.4-0.5-0.9-0.8-1.5-0.7c-0.6,0-1.1,0.2-1.5,0.7c-0.4,0.5-0.6,1.1-0.5,1.9v0.9c0,0.2-0.1,0.2-0.2,0.2h-1.2
			c-0.2,0-0.2-0.1-0.2-0.2v-1c0-1.2,0.4-2.2,1.1-3s1.6-1.1,2.7-1.1s2,0.4,2.7,1.2s1,1.8,1,3.1c0,1.5-0.6,3.2-1.7,5.1
			c-0.8,1.4-1.7,2.8-2.6,4.2c-0.1,0.2-0.3,0.5-0.5,0.8s-0.4,0.7-0.6,1c0,0,0,0.1,0,0.1c0,0,0,0,0.1,0h5.6c0.2,0,0.2,0.1,0.2,0.2v1
			c0,0.2-0.1,0.2-0.2,0.2L186.3,18L186.3,18z M199.6,18.2c-1.2,0-2.2-0.4-2.9-1.2s-1.1-1.8-1.1-3.1V5.3c0-1.3,0.4-2.3,1.1-3.1
			s1.7-1.2,2.9-1.2c1.2,0,2.2,0.4,3,1.2s1.1,1.8,1.1,3.1v8.7c0,1.3-0.4,2.3-1.1,3.1S200.9,18.2,199.6,18.2z M199.6,16.8
			c0.7,0,1.3-0.2,1.7-0.7c0.4-0.5,0.7-1.2,0.7-2V5.2c0-0.8-0.2-1.5-0.7-2s-1-0.7-1.7-0.7c-0.7,0-1.3,0.2-1.7,0.7
			c-0.4,0.5-0.6,1.2-0.6,2V14c0,0.8,0.2,1.5,0.6,2C198.4,16.5,198.9,16.8,199.6,16.8z M207.4,1.3c0.1-0.1,0.2-0.1,0.3-0.1h1.3
			c0.2,0,0.2,0.1,0.2,0.2v16.3c0,0.2-0.1,0.2-0.2,0.2h-1.2c-0.2,0-0.2-0.1-0.2-0.2V3c0,0,0-0.1,0-0.1c0,0-0.1,0-0.1,0l-2,0.9l-0.1,0
			c-0.1,0-0.2-0.1-0.2-0.2V2.8c0-0.1,0.1-0.2,0.2-0.3L207.4,1.3z M217.6,9c-0.1,0-0.1,0.1,0,0.1c0.6,0.3,1,0.8,1.3,1.4
			c0.4,0.8,0.6,1.7,0.6,2.8c0,0.8-0.1,1.6-0.4,2.3c-0.3,0.8-0.7,1.5-1.3,1.9s-1.3,0.7-2.2,0.7c-0.8,0-1.5-0.2-2.1-0.7
			s-1-1.1-1.3-1.9c-0.2-0.7-0.3-1.5-0.3-2.3c0-1,0.2-1.9,0.5-2.6c0.2-0.7,0.7-1.2,1.3-1.6c0.1,0,0.1-0.1,0-0.1
			c-0.6-0.3-1-0.7-1.3-1.3c-0.3-0.7-0.5-1.5-0.5-2.4c0-1,0.2-1.8,0.5-2.4c0.3-0.6,0.7-1.1,1.3-1.4c0.6-0.3,1.2-0.5,2-0.5
			c0.7,0,1.4,0.2,2,0.5c0.6,0.3,1,0.8,1.3,1.4c0.4,0.7,0.6,1.5,0.6,2.5c0,1-0.2,1.8-0.5,2.4C218.7,8.2,218.2,8.7,217.6,9L217.6,9z
			 M213.8,3.6c-0.2,0.5-0.4,1.1-0.4,1.8c0,0.7,0.1,1.3,0.4,1.8c0.3,0.8,0.9,1.2,1.8,1.2c0.4,0,0.8-0.1,1.1-0.3s0.6-0.5,0.7-0.9
			c0.2-0.5,0.3-1.1,0.3-1.7c0-0.7-0.1-1.3-0.4-1.8c-0.4-0.8-1-1.1-1.8-1.1C214.8,2.4,214.2,2.8,213.8,3.6z M217.6,14.9
			c0.1-0.6,0.2-1.1,0.2-1.7c0-0.8-0.1-1.5-0.3-2.1c-0.3-0.9-0.9-1.4-1.8-1.4c-0.9,0-1.5,0.5-1.8,1.5c-0.2,0.5-0.3,1.2-0.3,2
			c0,0.7,0.1,1.3,0.2,1.8c0.1,0.6,0.4,1,0.7,1.3c0.3,0.3,0.7,0.4,1.2,0.4c0.5,0,0.9-0.2,1.2-0.5C217.2,15.9,217.4,15.5,217.6,14.9z
			 M5.3,1c1.2,0,2.1,0.4,2.9,1.2S9.3,4,9.3,5.3v8.6c0,1.1-0.3,2-0.8,2.8c-0.6,0.7-1.3,1.2-2.2,1.4c-0.1,0-0.1,0.1-0.1,0.1v2.3
			c0,0.2-0.1,0.2-0.2,0.2H4.7c-0.2,0-0.2-0.1-0.2-0.2v-2.3c0-0.1,0-0.1-0.1-0.1c-0.9-0.2-1.7-0.7-2.2-1.4S1.3,15,1.3,13.9V5.3
			C1.3,4,1.7,3,2.4,2.2S4.1,1,5.3,1z M7.6,5.1c0-0.8-0.2-1.4-0.6-1.9S6,2.5,5.3,2.5S4.1,2.7,3.7,3.2S3,4.3,3,5.1v9
			c0,0.8,0.2,1.4,0.6,1.9c0.4,0.5,1,0.7,1.7,0.7S6.6,16.5,7,16s0.6-1.1,0.6-1.9V5.1z M13.4,1.3c0.1-0.1,0.2-0.1,0.3-0.1H15
			c0.2,0,0.2,0.1,0.2,0.2v16.3c0,0.2-0.1,0.2-0.2,0.2h-1.2c-0.2,0-0.2-0.1-0.2-0.2V3c0,0,0-0.1,0-0.1c0,0-0.1,0-0.1,0l-2,0.9l-0.1,0
			c-0.1,0-0.2-0.1-0.2-0.2V2.8c0-0.1,0.1-0.2,0.2-0.3L13.4,1.3z M22.6,18c-0.2,0-0.2-0.1-0.2-0.2v-1.1c0-0.1,0-0.2,0.1-0.3
			c0.5-0.8,0.8-1.2,0.8-1.3c1.1-1.8,2.3-3.6,3.3-5.4c1-1.8,1.5-3.2,1.5-4.4c0-0.8-0.2-1.5-0.6-2c-0.4-0.5-0.9-0.8-1.5-0.7
			c-0.6,0-1.1,0.2-1.5,0.7S24,4.4,24,5.2v0.9c0,0.2-0.1,0.2-0.2,0.2h-1.2c-0.2,0-0.2-0.1-0.2-0.2v-1c0-1.2,0.4-2.2,1.1-3
			S25,1,26.1,1s2,0.4,2.7,1.2s1,1.8,1,3.1c0,1.5-0.6,3.2-1.7,5.1c-0.8,1.4-1.7,2.8-2.6,4.2c-0.1,0.2-0.3,0.5-0.5,0.8s-0.4,0.7-0.6,1
			c0,0,0,0.1,0,0.1c0,0,0,0,0.1,0h5.6c0.2,0,0.2,0.1,0.2,0.2v1c0,0.2-0.1,0.2-0.2,0.2L22.6,18z M36,18.2c-1.2,0-2.2-0.4-2.9-1.2
			s-1.1-1.8-1.1-3.1V5.3c0-1.3,0.4-2.3,1.1-3.1S34.7,1,36,1c1.2,0,2.2,0.4,3,1.2c0.8,0.8,1.1,1.8,1.1,3.1v8.7c0,1.3-0.4,2.3-1.1,3.1
			S37.2,18.2,36,18.2z M36,16.8c0.7,0,1.3-0.2,1.7-0.7c0.4-0.5,0.7-1.2,0.7-2V5.2c0-0.8-0.2-1.5-0.7-2s-1-0.7-1.7-0.7
			c-0.7,0-1.3,0.2-1.7,0.7s-0.6,1.2-0.6,2V14c0,0.8,0.2,1.5,0.6,2C34.7,16.5,35.2,16.8,36,16.8z M43.7,1.3c0.1-0.1,0.2-0.1,0.3-0.1
			h1.3c0.2,0,0.2,0.1,0.2,0.2v16.3c0,0.2-0.1,0.2-0.2,0.2h-1.2c-0.2,0-0.2-0.1-0.2-0.2V3c0,0,0-0.1,0-0.1c0,0-0.1,0-0.1,0l-2,0.9
			l-0.1,0c-0.1,0-0.2-0.1-0.2-0.2V2.8c0-0.1,0.1-0.2,0.2-0.3L43.7,1.3z M49.5,18c-0.1,0-0.1,0-0.2-0.1s-0.1-0.1,0-0.2l4.1-15
			c0,0,0,0,0-0.1c0,0-0.1,0-0.1,0h-4.4c-0.1,0-0.1,0-0.1,0.1v1c0,0.2-0.1,0.2-0.2,0.2h-0.9c-0.2,0-0.2-0.1-0.2-0.2V1.4
			c0-0.2,0.1-0.2,0.2-0.2H55c0.2,0,0.2,0.1,0.2,0.2v1.1c0,0,0,0.1,0,0.3l-4.1,15c0,0.1-0.1,0.2-0.3,0.2H49.5z"/>
		<path class="st0" d="M424.3,34h232c2.8,0,5,2.5,5,5.6V659c0,3.1-2.2,5.6-5,5.6h-232c-2.8,0-5-2.5-5-5.6V39.6
			C419.3,36.5,421.6,34,424.3,34z"/>
		<path class="st1" d="M424.6,1c1.2,0,2.1,0.4,2.9,1.2s1.1,1.8,1.1,3.1v8.6c0,1.1-0.3,2-0.8,2.8c-0.6,0.7-1.3,1.2-2.2,1.4
			c-0.1,0-0.1,0.1-0.1,0.1v2.3c0,0.2-0.1,0.2-0.2,0.2H424c-0.2,0-0.2-0.1-0.2-0.2v-2.3c0-0.1,0-0.1-0.1-0.1
			c-0.9-0.2-1.7-0.7-2.2-1.4s-0.8-1.7-0.8-2.7V5.3c0-1.3,0.4-2.3,1.1-3.1S423.5,1,424.6,1z M426.9,5.1c0-0.8-0.2-1.4-0.6-1.9
			s-1-0.7-1.7-0.7s-1.2,0.2-1.7,0.7s-0.6,1.1-0.6,1.9v9c0,0.8,0.2,1.4,0.6,1.9c0.4,0.5,1,0.7,1.7,0.7s1.2-0.2,1.7-0.7
			c0.4-0.5,0.6-1.1,0.6-1.9V5.1z M438.9,10.6c0.1,0.6,0.2,1.4,0.2,2.3c0,0.8,0,1.5-0.1,2c-0.2,1-0.6,1.8-1.3,2.4
			c-0.7,0.6-1.6,0.9-2.7,0.9c-1.1,0-2-0.3-2.7-0.9s-1.1-1.4-1.3-2.4c-0.1-0.6-0.1-1.1-0.1-1.7c0-0.2,0.1-0.2,0.2-0.2h1.2
			c0.2,0,0.2,0.1,0.2,0.2c0,0.6,0,1,0.1,1.4c0.1,0.7,0.4,1.2,0.8,1.6c0.4,0.4,0.9,0.6,1.6,0.6c0.6,0,1.1-0.2,1.5-0.6
			c0.4-0.4,0.7-0.9,0.8-1.5c0.1-0.5,0.1-1.1,0.1-1.9c0-0.9-0.1-1.6-0.2-2.1c-0.1-0.6-0.4-1.1-0.8-1.4c-0.4-0.3-0.9-0.5-1.5-0.5
			c-0.2,0-0.4,0.1-0.6,0.2c0,0-0.1,0-0.1,0c-0.1,0-0.1,0-0.2-0.1l-0.6-0.6c-0.1-0.1-0.1-0.2,0-0.3l3.6-5c0,0,0,0,0-0.1s0,0-0.1,0
			h-5.8c-0.2,0-0.2-0.1-0.2-0.2v-1c0-0.2,0.1-0.2,0.2-0.2h7.6c0.2,0,0.2,0.1,0.2,0.2v1.1c0,0.1,0,0.2-0.1,0.3l-3.1,4.4
			c0,0,0,0.1,0.1,0.1c0.8,0.1,1.4,0.4,1.9,1.1C438.4,9.1,438.8,9.8,438.9,10.6z M446.4,18c-0.2,0-0.2-0.1-0.2-0.2v-1.1
			c0-0.1,0-0.2,0.1-0.3c0.5-0.8,0.8-1.2,0.8-1.3c1.1-1.8,2.3-3.6,3.3-5.4c1-1.8,1.5-3.2,1.5-4.4c0-0.8-0.2-1.5-0.6-2
			c-0.4-0.5-0.9-0.8-1.5-0.7c-0.6,0-1.1,0.2-1.5,0.7s-0.6,1.1-0.5,1.9v0.9c0,0.2-0.1,0.2-0.2,0.2h-1.2c-0.2,0-0.2-0.1-0.2-0.2v-1
			c0-1.2,0.4-2.2,1.1-3s1.6-1.1,2.7-1.1s2,0.4,2.7,1.2c0.7,0.8,1,1.8,1,3.1c0,1.5-0.6,3.2-1.7,5.1c-0.8,1.4-1.7,2.8-2.6,4.2
			c-0.1,0.2-0.3,0.5-0.5,0.8s-0.4,0.7-0.6,1c0,0,0,0.1,0,0.1c0,0,0,0,0.1,0h5.6c0.2,0,0.2,0.1,0.2,0.2v1c0,0.2-0.1,0.2-0.2,0.2
			L446.4,18L446.4,18z M459.8,18.2c-1.2,0-2.2-0.4-2.9-1.2s-1.1-1.8-1.1-3.1V5.3c0-1.3,0.4-2.3,1.1-3.1s1.7-1.2,2.9-1.2
			c1.2,0,2.2,0.4,3,1.2s1.1,1.8,1.1,3.1v8.7c0,1.3-0.4,2.3-1.1,3.1C462,17.8,461,18.2,459.8,18.2z M459.8,16.8
			c0.7,0,1.3-0.2,1.7-0.7c0.4-0.5,0.7-1.2,0.7-2V5.2c0-0.8-0.2-1.5-0.7-2s-1-0.7-1.7-0.7c-0.7,0-1.3,0.2-1.7,0.7s-0.6,1.2-0.6,2V14
			c0,0.8,0.2,1.5,0.6,2C458.5,16.5,459.1,16.8,459.8,16.8z M467.5,1.3c0.1-0.1,0.2-0.1,0.3-0.1h1.3c0.2,0,0.2,0.1,0.2,0.2v16.3
			c0,0.2-0.1,0.2-0.2,0.2h-1.2c-0.2,0-0.2-0.1-0.2-0.2V3c0,0,0-0.1,0-0.1c0,0-0.1,0-0.1,0l-2,0.9l-0.1,0c-0.1,0-0.2-0.1-0.2-0.2V2.8
			c0-0.1,0.1-0.2,0.2-0.3L467.5,1.3z M477.8,9c-0.1,0-0.1,0.1,0,0.1c0.6,0.3,1,0.8,1.3,1.4c0.4,0.8,0.6,1.7,0.6,2.8
			c0,0.8-0.1,1.6-0.4,2.3c-0.3,0.8-0.7,1.5-1.3,1.9s-1.3,0.7-2.2,0.7c-0.8,0-1.5-0.2-2.1-0.7c-0.6-0.4-1-1.1-1.3-1.9
			c-0.2-0.7-0.3-1.5-0.3-2.3c0-1,0.2-1.9,0.5-2.6c0.2-0.7,0.7-1.2,1.3-1.6c0.1,0,0.1-0.1,0-0.1c-0.6-0.3-1-0.7-1.3-1.3
			c-0.3-0.7-0.5-1.5-0.5-2.4c0-1,0.2-1.8,0.5-2.4c0.3-0.6,0.7-1.1,1.3-1.4c0.6-0.3,1.2-0.5,2-0.5c0.7,0,1.4,0.2,2,0.5
			c0.6,0.3,1,0.8,1.3,1.4c0.4,0.7,0.6,1.5,0.6,2.5c0,1-0.2,1.8-0.5,2.4C478.8,8.2,478.3,8.7,477.8,9L477.8,9z M473.9,3.6
			c-0.2,0.5-0.4,1.1-0.4,1.8c0,0.7,0.1,1.3,0.4,1.8c0.3,0.8,0.9,1.2,1.8,1.2c0.4,0,0.8-0.1,1.1-0.3c0.3-0.2,0.6-0.5,0.7-0.9
			c0.2-0.5,0.3-1.1,0.3-1.7c0-0.7-0.1-1.3-0.4-1.8c-0.4-0.8-1-1.1-1.8-1.1C474.9,2.4,474.3,2.8,473.9,3.6L473.9,3.6z M477.7,14.9
			c0.1-0.6,0.2-1.1,0.2-1.7c0-0.8-0.1-1.5-0.3-2.1c-0.3-0.9-0.9-1.4-1.8-1.4c-0.9,0-1.5,0.5-1.8,1.5c-0.2,0.5-0.3,1.2-0.3,2
			c0,0.7,0.1,1.3,0.2,1.8c0.1,0.6,0.4,1,0.7,1.3c0.3,0.3,0.7,0.4,1.2,0.4c0.5,0,0.9-0.2,1.2-0.5C477.3,15.9,477.5,15.5,477.7,14.9
			L477.7,14.9z"/>
		<path class="st0" d="M683.6,34h232c2.8,0,5,2.5,5,5.6V659c0,3.1-2.2,5.6-5,5.6h-232c-2.8,0-5-2.5-5-5.6V39.6
			C678.6,36.5,680.9,34,683.6,34z"/>
		<path class="st1" d="M684,1c1.2,0,2.1,0.4,2.9,1.2S688,4,688,5.3v8.6c0,1.1-0.3,2-0.8,2.8c-0.6,0.7-1.3,1.2-2.2,1.4
			c-0.1,0-0.1,0.1-0.1,0.1v2.3c0,0.2-0.1,0.2-0.2,0.2h-1.2c-0.2,0-0.2-0.1-0.2-0.2v-2.3c0-0.1,0-0.1-0.1-0.1
			c-0.9-0.2-1.7-0.7-2.2-1.4c-0.6-0.7-0.8-1.7-0.8-2.7V5.3c0-1.3,0.4-2.3,1.1-3.1S682.8,1,684,1L684,1z M686.3,5.1
			c0-0.8-0.2-1.4-0.6-1.9s-1-0.7-1.7-0.7s-1.2,0.2-1.7,0.7s-0.6,1.1-0.6,1.9v9c0,0.8,0.2,1.4,0.6,1.9c0.4,0.5,1,0.7,1.7,0.7
			s1.2-0.2,1.7-0.7s0.6-1.1,0.6-1.9V5.1z M698.1,11.9c0.2,0,0.2,0.1,0.2,0.2v1.1c0,0.2-0.1,0.2-0.2,0.2h-0.7c-0.1,0-0.1,0-0.1,0.1
			v4.3c0,0.2-0.1,0.2-0.2,0.2h-1.2c-0.2,0-0.2-0.1-0.2-0.2v-4.3c0-0.1,0-0.1-0.1-0.1H690c-0.2,0-0.2-0.1-0.2-0.2v-0.9
			c0-0.1,0-0.2,0-0.3l3.6-10.6c0-0.1,0.1-0.2,0.3-0.2h1.3c0.2,0,0.2,0.1,0.2,0.3l-3.5,10.3c0,0,0,0.1,0,0.1c0,0,0,0,0.1,0h3.6
			c0.1,0,0.1,0,0.1-0.1V8.1c0-0.2,0.1-0.2,0.2-0.2h1.2c0.2,0,0.2,0.1,0.2,0.2v3.7c0,0.1,0,0.1,0.1,0.1H698.1L698.1,11.9z M704.9,18
			c-0.2,0-0.2-0.1-0.2-0.2v-1.1c0-0.1,0-0.2,0.1-0.3c0.5-0.8,0.8-1.2,0.8-1.3c1.1-1.8,2.3-3.6,3.3-5.4c1-1.8,1.5-3.2,1.5-4.4
			c0-0.8-0.2-1.5-0.6-2c-0.4-0.5-0.9-0.8-1.5-0.7c-0.6,0-1.1,0.2-1.5,0.7c-0.4,0.5-0.6,1.1-0.5,1.9v0.9c0,0.2-0.1,0.2-0.2,0.2h-1.2
			c-0.2,0-0.2-0.1-0.2-0.2v-1c0-1.2,0.4-2.2,1.1-3s1.6-1.1,2.7-1.1s2,0.4,2.7,1.2s1,1.8,1,3.1c0,1.5-0.6,3.2-1.7,5.1
			c-0.8,1.4-1.7,2.8-2.6,4.2c-0.1,0.2-0.3,0.5-0.5,0.8s-0.4,0.7-0.6,1c0,0,0,0.1,0,0.1c0,0,0,0,0.1,0h5.6c0.2,0,0.2,0.1,0.2,0.2v1
			c0,0.2-0.1,0.2-0.2,0.2L704.9,18z M718.3,18.2c-1.2,0-2.2-0.4-2.9-1.2s-1.1-1.8-1.1-3.1V5.3c0-1.3,0.4-2.3,1.1-3.1
			s1.7-1.2,2.9-1.2c1.2,0,2.2,0.4,3,1.2s1.1,1.8,1.1,3.1v8.7c0,1.3-0.4,2.3-1.1,3.1S719.5,18.2,718.3,18.2z M718.3,16.8
			c0.7,0,1.3-0.2,1.7-0.7c0.4-0.5,0.7-1.2,0.7-2V5.2c0-0.8-0.2-1.5-0.7-2s-1-0.7-1.7-0.7c-0.7,0-1.3,0.2-1.7,0.7s-0.6,1.2-0.6,2V14
			c0,0.8,0.2,1.5,0.6,2C717,16.5,717.6,16.8,718.3,16.8z M726,1.3c0.1-0.1,0.2-0.1,0.3-0.1h1.3c0.2,0,0.2,0.1,0.2,0.2v16.3
			c0,0.2-0.1,0.2-0.2,0.2h-1.2c-0.2,0-0.2-0.1-0.2-0.2V3c0,0,0-0.1,0-0.1c0,0-0.1,0-0.1,0l-2,0.9l-0.1,0c-0.1,0-0.2-0.1-0.2-0.2V2.8
			c0-0.1,0.1-0.2,0.2-0.3L726,1.3L726,1.3z M736.3,9c-0.1,0-0.1,0.1,0,0.1c0.6,0.3,1,0.8,1.3,1.4c0.4,0.8,0.6,1.7,0.6,2.8
			c0,0.8-0.1,1.6-0.4,2.3c-0.3,0.8-0.7,1.5-1.3,1.9c-0.6,0.5-1.3,0.7-2.2,0.7c-0.8,0-1.5-0.2-2.1-0.7s-1-1.1-1.3-1.9
			c-0.2-0.7-0.3-1.5-0.3-2.3c0-1,0.2-1.9,0.5-2.6c0.2-0.7,0.7-1.2,1.3-1.6c0.1,0,0.1-0.1,0-0.1c-0.6-0.3-1-0.7-1.3-1.3
			c-0.3-0.7-0.5-1.5-0.5-2.4c0-1,0.2-1.8,0.5-2.4c0.3-0.6,0.7-1.1,1.3-1.4c0.6-0.3,1.2-0.5,2-0.5c0.7,0,1.4,0.2,2,0.5
			c0.6,0.3,1,0.8,1.3,1.4c0.4,0.7,0.6,1.5,0.6,2.5c0,1-0.2,1.8-0.5,2.4C737.3,8.2,736.8,8.7,736.3,9L736.3,9z M732.5,3.6
			c-0.2,0.5-0.4,1.1-0.4,1.8c0,0.7,0.1,1.3,0.4,1.8c0.3,0.8,0.9,1.2,1.8,1.2c0.4,0,0.8-0.1,1.1-0.3s0.6-0.5,0.7-0.9
			c0.2-0.5,0.3-1.1,0.3-1.7c0-0.7-0.1-1.3-0.4-1.8c-0.4-0.8-1-1.1-1.8-1.1C733.4,2.4,732.8,2.8,732.5,3.6L732.5,3.6z M736.2,14.9
			c0.1-0.6,0.2-1.1,0.2-1.7c0-0.8-0.1-1.5-0.3-2.1c-0.3-0.9-0.9-1.4-1.8-1.4c-0.9,0-1.5,0.5-1.8,1.5c-0.2,0.5-0.3,1.2-0.3,2
			c0,0.7,0.1,1.3,0.2,1.8c0.1,0.6,0.4,1,0.7,1.3c0.3,0.3,0.7,0.4,1.2,0.4c0.5,0,0.9-0.2,1.2-0.5C735.8,15.9,736.1,15.5,736.2,14.9z"
			/>
	</g>
</g>
<g id="Layer_1">
	<g transform="translate(160 58)">
		<path class="st3" d="M5,0h231.9c2.8,0,5,2.2,5,5v30c0,2.8-2.2,5-5,5H5c-2.8,0-5-2.2-5-5V5C0,2.2,2.2,0,5,0z"/>
		<path class="st4" d="M14.1,25V13.7h2.1v9.6h5.3V25H14.1z M26.2,17c1.1,0,1.9,0.3,2.4,0.8c0.5,0.5,0.8,1.4,0.8,2.5V25h-1.9v-1.2
			c-0.2,0.4-0.5,0.7-0.9,1c-0.4,0.2-0.8,0.4-1.4,0.4c-0.5,0-1-0.1-1.4-0.3c-0.4-0.2-0.8-0.5-1-0.9c-0.2-0.4-0.4-0.8-0.4-1.2
			c0-0.6,0.1-1,0.4-1.4c0.3-0.3,0.8-0.6,1.4-0.7c0.7-0.1,1.6-0.2,2.7-0.2h0.4V20c0-0.5-0.1-0.9-0.3-1.2c-0.2-0.2-0.6-0.4-1.1-0.4
			c-0.4,0-0.9,0.1-1.3,0.2c-0.5,0.1-0.9,0.4-1.3,0.6l-0.6-1.4c0.4-0.3,1-0.5,1.6-0.7C25,17.1,25.6,17,26.2,17z M25.7,23.7
			c0.5,0,1-0.2,1.3-0.5c0.3-0.4,0.5-0.8,0.5-1.4v-0.3h-0.3c-0.7,0-1.3,0-1.7,0.1c-0.4,0.1-0.7,0.2-0.8,0.3s-0.3,0.4-0.3,0.7
			c0,0.3,0.1,0.6,0.4,0.8C25.1,23.6,25.4,23.7,25.7,23.7z M38.7,17.2V25h-2v-1.2c-0.2,0.4-0.6,0.8-1,1c-0.4,0.2-0.9,0.3-1.4,0.3
			c-1.9,0-2.9-1.1-2.9-3.2v-4.7h2v4.7c0,0.6,0.1,1,0.3,1.2s0.6,0.4,1.1,0.4c0.6,0,1-0.2,1.3-0.6s0.5-0.9,0.5-1.5v-4.4
			C36.7,17.2,38.7,17.2,38.7,17.2z M45.3,17c0.9,0,1.6,0.3,2.1,0.8c0.5,0.5,0.7,1.3,0.7,2.4V25h-2v-4.7c0-0.6-0.1-1-0.3-1.3
			c-0.2-0.3-0.6-0.4-1.1-0.4c-0.6,0-1,0.2-1.4,0.5c-0.3,0.4-0.5,0.8-0.5,1.5V25h-2v-7.8h2v1.2c0.3-0.4,0.6-0.8,1.1-1
			C44.2,17.1,44.8,17,45.3,17z M53.7,25.1c-0.8,0-1.5-0.2-2.1-0.5c-0.6-0.3-1.1-0.8-1.4-1.4c-0.3-0.6-0.5-1.3-0.5-2.1
			c0-0.8,0.2-1.5,0.5-2.2c0.3-0.6,0.8-1.1,1.4-1.4c0.6-0.3,1.3-0.5,2.1-0.5c0.6,0,1.1,0.1,1.6,0.3s1,0.4,1.3,0.7l-0.6,1.4
			c-0.3-0.3-0.7-0.5-1-0.6c-0.3-0.1-0.7-0.2-1.1-0.2c-0.7,0-1.2,0.2-1.6,0.6c-0.4,0.4-0.6,1.1-0.6,1.9c0,0.8,0.2,1.4,0.6,1.8
			s0.9,0.6,1.6,0.6c0.4,0,0.7-0.1,1.1-0.2c0.4-0.1,0.7-0.4,1-0.6l0.6,1.4c-0.3,0.3-0.8,0.6-1.3,0.7C54.8,25,54.2,25.1,53.7,25.1z
			 M62.5,17c0.9,0,1.6,0.3,2.1,0.8c0.5,0.5,0.7,1.3,0.7,2.4V25h-2v-4.7c0-0.6-0.1-1-0.3-1.3c-0.2-0.3-0.6-0.4-1.1-0.4
			c-0.6,0-1,0.2-1.4,0.5c-0.3,0.4-0.5,0.8-0.5,1.5V25h-2V13.7h2v4.5c0.3-0.4,0.6-0.7,1.1-1C61.4,17.1,62,17,62.5,17z M67.1,17.2h2.2
			v2.2h-2.2V17.2z M67.1,22.8h2.2V25h-2.2V22.8z M75.8,13.7h4.2c1.8,0,3.3,0.5,4.3,1.5c1,1,1.5,2.4,1.5,4.2c0,1.8-0.5,3.2-1.5,4.2
			c-1,1-2.4,1.5-4.3,1.5h-4.2C75.8,25,75.8,13.7,75.8,13.7z M79.8,23.3c2.6,0,3.9-1.3,3.9-4c0-2.6-1.3-4-3.9-4h-2v7.9H79.8z
			 M91.2,25.1c-0.8,0-1.5-0.2-2.1-0.5c-0.6-0.3-1.1-0.8-1.4-1.4c-0.3-0.6-0.5-1.3-0.5-2.2s0.2-1.5,0.5-2.2c0.3-0.6,0.8-1.1,1.4-1.4
			c0.6-0.3,1.3-0.5,2.1-0.5s1.5,0.2,2.1,0.5c0.6,0.3,1.1,0.8,1.4,1.4c0.3,0.6,0.5,1.3,0.5,2.2c0,0.8-0.2,1.5-0.5,2.2
			c-0.3,0.6-0.8,1.1-1.4,1.4C92.7,25,92,25.1,91.2,25.1z M91.2,23.6c0.7,0,1.1-0.2,1.5-0.6c0.3-0.4,0.5-1.1,0.5-1.9
			c0-0.8-0.2-1.4-0.5-1.9s-0.8-0.6-1.5-0.6s-1.1,0.2-1.5,0.6c-0.3,0.4-0.5,1.1-0.5,1.9c0,0.8,0.2,1.5,0.5,1.9
			C90.1,23.4,90.6,23.6,91.2,23.6z M101.4,17c0.9,0,1.6,0.3,2.1,0.8c0.5,0.5,0.7,1.3,0.7,2.4V25h-2v-4.7c0-0.6-0.1-1-0.3-1.3
			c-0.2-0.3-0.6-0.4-1.1-0.4c-0.6,0-1,0.2-1.4,0.5c-0.3,0.4-0.5,0.8-0.5,1.5V25h-2v-7.8h2v1.2c0.3-0.4,0.6-0.8,1.1-1
			C100.3,17.1,100.9,17,101.4,17z M113.1,21.4h-5.3c0.1,0.7,0.3,1.3,0.7,1.6c0.4,0.4,0.9,0.5,1.6,0.5c0.9,0,1.7-0.3,2.4-0.8l0.6,1.4
			c-0.4,0.3-0.8,0.5-1.4,0.7c-0.5,0.2-1.1,0.3-1.7,0.3c-1.3,0-2.3-0.4-3-1.1c-0.7-0.7-1.1-1.7-1.1-3c0-0.8,0.2-1.5,0.5-2.1
			c0.3-0.6,0.8-1.1,1.4-1.4c0.6-0.3,1.2-0.5,2-0.5c1.1,0,1.9,0.3,2.6,1c0.6,0.7,0.9,1.6,0.9,2.9L113.1,21.4L113.1,21.4z M109.6,18.4
			c-0.5,0-1,0.2-1.3,0.5c-0.3,0.3-0.5,0.8-0.6,1.5h3.6c0-0.6-0.2-1.1-0.5-1.5C110.6,18.6,110.2,18.4,109.6,18.4z"/>
	</g>
	<g transform="translate(0 58)">
		<path class="st3" d="M5,0h133c2.8,0,5,2.2,5,5v30c0,2.8-2.2,5-5,5H5c-2.8,0-5-2.2-5-5V5C0,2.2,2.2,0,5,0z"/>
		<path class="st4" d="M16.8,25v-9.6h-3.7v-1.7h9.4v1.7h-3.7V25H16.8z M30.6,21.4h-5.3c0.1,0.7,0.3,1.3,0.7,1.6
			c0.4,0.4,0.9,0.5,1.6,0.5c0.9,0,1.7-0.3,2.4-0.8l0.6,1.4c-0.4,0.3-0.8,0.5-1.4,0.7c-0.5,0.2-1.1,0.3-1.7,0.3c-1.3,0-2.3-0.4-3-1.1
			c-0.7-0.7-1.1-1.7-1.1-3c0-0.8,0.2-1.5,0.5-2.1c0.3-0.6,0.8-1.1,1.4-1.4c0.6-0.3,1.2-0.5,2-0.5c1.1,0,1.9,0.3,2.6,1
			s0.9,1.6,0.9,2.9L30.6,21.4z M27.2,18.4c-0.5,0-1,0.2-1.3,0.5c-0.3,0.3-0.5,0.8-0.6,1.5h3.6c0-0.6-0.2-1.1-0.5-1.5
			C28.1,18.6,27.7,18.4,27.2,18.4z M35.8,25.1c-0.8,0-1.5-0.2-2.1-0.5c-0.6-0.3-1.1-0.8-1.4-1.4c-0.3-0.6-0.5-1.3-0.5-2.1
			c0-0.8,0.2-1.5,0.5-2.2c0.3-0.6,0.8-1.1,1.4-1.4c0.6-0.3,1.3-0.5,2.1-0.5c0.6,0,1.1,0.1,1.6,0.3s1,0.4,1.3,0.7l-0.6,1.4
			c-0.3-0.3-0.7-0.5-1-0.6c-0.3-0.1-0.7-0.2-1.1-0.2c-0.7,0-1.2,0.2-1.6,0.6c-0.4,0.4-0.6,1.1-0.6,1.9c0,0.8,0.2,1.4,0.6,1.8
			s0.9,0.6,1.6,0.6c0.4,0,0.7-0.1,1.1-0.2c0.4-0.1,0.7-0.4,1-0.6l0.6,1.4c-0.3,0.3-0.8,0.6-1.3,0.7C37,25,36.4,25.1,35.8,25.1z
			 M44.6,17c0.9,0,1.6,0.3,2.1,0.8c0.5,0.5,0.7,1.3,0.7,2.4V25h-2v-4.7c0-0.6-0.1-1-0.3-1.3c-0.2-0.3-0.6-0.4-1.1-0.4
			c-0.6,0-1,0.2-1.4,0.5c-0.3,0.4-0.5,0.8-0.5,1.5V25h-2V13.7h2v4.5c0.3-0.4,0.6-0.7,1.1-1C43.6,17.1,44.1,17,44.6,17z M62.6,25
			l-1.1-2.6H56L54.8,25h-2.1l5.1-11.3h1.7L64.6,25H62.6z M56.6,20.8h4.1L58.7,16L56.6,20.8z M69.2,25.1c-0.8,0-1.5-0.2-2.1-0.5
			c-0.6-0.3-1.1-0.8-1.4-1.4c-0.3-0.6-0.5-1.3-0.5-2.1c0-0.8,0.2-1.5,0.5-2.2c0.3-0.6,0.8-1.1,1.4-1.4c0.6-0.3,1.3-0.5,2.1-0.5
			c0.6,0,1.1,0.1,1.6,0.3s1,0.4,1.3,0.7l-0.6,1.4c-0.3-0.3-0.7-0.5-1-0.6c-0.3-0.1-0.7-0.2-1.1-0.2c-0.7,0-1.2,0.2-1.6,0.6
			c-0.4,0.4-0.6,1.1-0.6,1.9c0,0.8,0.2,1.4,0.6,1.8c0.4,0.4,0.9,0.6,1.6,0.6c0.4,0,0.7-0.1,1.1-0.2c0.4-0.1,0.7-0.4,1-0.6l0.6,1.4
			c-0.3,0.3-0.8,0.6-1.3,0.7C70.3,25,69.8,25.1,69.2,25.1z M77.5,23.6c0.2,0,0.5,0,0.7,0l-0.1,1.5c-0.3,0-0.6,0-0.9,0
			c-1.1,0-1.9-0.3-2.4-0.8c-0.5-0.5-0.8-1.3-0.8-2.3v-3.4h-1.5v-1.5H74v-2.3h2v2.3h2.1v1.5H76v3.4C76,23.1,76.5,23.6,77.5,23.6z
			 M79.4,25v-7.8h2V25H79.4z M79.2,13.5h2.2v2h-2.2V13.5z M88.9,17.2h2L87.5,25h-1.7l-3.4-7.8h2.1l2.2,5.5L88.9,17.2z M98.7,21.4
			h-5.3c0.1,0.7,0.3,1.3,0.7,1.6c0.4,0.4,0.9,0.5,1.6,0.5c0.9,0,1.7-0.3,2.4-0.8l0.6,1.4c-0.4,0.3-0.8,0.5-1.4,0.7
			c-0.5,0.2-1.1,0.3-1.7,0.3c-1.3,0-2.3-0.4-3-1.1c-0.7-0.7-1.1-1.7-1.1-3c0-0.8,0.2-1.5,0.5-2.1c0.3-0.6,0.8-1.1,1.4-1.4
			c0.6-0.3,1.2-0.5,2-0.5c1.1,0,1.9,0.3,2.6,1s0.9,1.6,0.9,2.9C98.7,20.9,98.7,21.4,98.7,21.4z M95.3,18.4c-0.5,0-1,0.2-1.3,0.5
			c-0.3,0.3-0.5,0.8-0.6,1.5H97c0-0.6-0.2-1.1-0.5-1.5C96.2,18.6,95.8,18.4,95.3,18.4z"/>
	</g>
	<g transform="translate(160 238)">
		<path class="st3" d="M5,0h1010c2.8,0,5,2.2,5,5v30c0,2.8-2.2,5-5,5H5c-2.8,0-5-2.2-5-5V5C0,2.2,2.2,0,5,0z"/>
		<path class="st4" d="M23.6,18.9v5.4c-0.5,0.3-1.1,0.5-1.9,0.6c-0.7,0.1-1.5,0.2-2.2,0.2c-1.2,0-2.2-0.2-3-0.7
			c-0.8-0.5-1.5-1.1-2-2c-0.5-0.9-0.7-1.9-0.7-3.1c0-1.2,0.2-2.2,0.7-3.1c0.4-0.8,1.1-1.5,1.9-2c0.8-0.5,1.8-0.7,3-0.7
			c0.8,0,1.5,0.1,2.2,0.3c0.7,0.2,1.3,0.6,1.7,1l-0.7,1.5c-0.5-0.4-1-0.7-1.5-0.9c-0.5-0.2-1.1-0.3-1.7-0.3c-1.2,0-2,0.3-2.6,1
			c-0.6,0.7-0.9,1.7-0.9,3.1c0,2.8,1.2,4.2,3.6,4.2c0.7,0,1.5-0.1,2.2-0.3v-2.8h-2.4v-1.5H23.6z M30.9,18.6l-1.2,0.1
			c-1.3,0.1-2,0.8-2,2V25h-2v-7.8h1.9v1.4c0.4-0.9,1.2-1.5,2.5-1.5l0.6,0L30.9,18.6z M35.4,25.1c-0.8,0-1.5-0.2-2.1-0.5
			c-0.6-0.3-1.1-0.8-1.4-1.4c-0.3-0.6-0.5-1.3-0.5-2.2s0.2-1.5,0.5-2.2c0.3-0.6,0.8-1.1,1.4-1.4c0.6-0.3,1.3-0.5,2.1-0.5
			s1.5,0.2,2.1,0.5c0.6,0.3,1.1,0.8,1.4,1.4c0.3,0.6,0.5,1.3,0.5,2.2c0,0.8-0.2,1.5-0.5,2.2c-0.3,0.6-0.8,1.1-1.4,1.4
			C36.9,25,36.2,25.1,35.4,25.1z M35.4,23.6c0.7,0,1.1-0.2,1.5-0.6c0.3-0.4,0.5-1.1,0.5-1.9c0-0.8-0.2-1.4-0.5-1.9
			c-0.3-0.4-0.8-0.6-1.5-0.6s-1.1,0.2-1.5,0.6c-0.3,0.4-0.5,1.1-0.5,1.9c0,0.8,0.2,1.5,0.5,1.9C34.3,23.4,34.8,23.6,35.4,23.6z
			 M51.6,17.2h2L50.5,25h-1.7l-1.9-5L45,25h-1.7l-3.1-7.8h2l2,5.4l2-5.4h1.4l2,5.5L51.6,17.2z M68.7,18.9v5.4
			c-0.5,0.3-1.1,0.5-1.9,0.6c-0.7,0.1-1.5,0.2-2.2,0.2c-1.2,0-2.2-0.2-3-0.7c-0.8-0.5-1.5-1.1-2-2c-0.5-0.9-0.7-1.9-0.7-3.1
			c0-1.2,0.2-2.2,0.7-3.1c0.4-0.8,1.1-1.5,1.9-2c0.8-0.5,1.8-0.7,3-0.7c0.8,0,1.5,0.1,2.2,0.3c0.7,0.2,1.3,0.6,1.7,1l-0.7,1.5
			c-0.5-0.4-1-0.7-1.5-0.9c-0.5-0.2-1.1-0.3-1.7-0.3c-1.2,0-2,0.3-2.6,1C61.3,17,61,18,61,19.4c0,2.8,1.2,4.2,3.6,4.2
			c0.7,0,1.4-0.1,2.2-0.3v-2.8h-2.4v-1.5H68.7z M80.4,25h-2.2l-1.9-3.6c-0.2-0.3-0.4-0.6-0.7-0.7c-0.3-0.1-0.6-0.2-1-0.2H73V25h-2
			V13.7h5c1.3,0,2.3,0.3,2.9,0.9c0.7,0.6,1,1.4,1,2.5c0,0.9-0.2,1.6-0.7,2.1c-0.5,0.6-1.2,0.9-2.1,1.1c0.6,0.2,1.1,0.6,1.4,1.3
			L80.4,25z M75.7,18.9c0.8,0,1.3-0.1,1.7-0.4c0.4-0.3,0.5-0.7,0.5-1.4c0-0.6-0.2-1.1-0.5-1.4c-0.4-0.3-0.9-0.4-1.7-0.4H73v3.6H75.7
			z M82.1,25V13.7h2.1V25H82.1z M86.6,13.7h4.2c1.8,0,3.3,0.5,4.3,1.5c1,1,1.5,2.4,1.5,4.2c0,1.8-0.5,3.2-1.5,4.2S92.6,25,90.8,25
			h-4.2V13.7z M90.6,23.3c2.6,0,3.9-1.3,3.9-4c0-2.6-1.3-4-3.9-4h-2v7.9H90.6z M98.3,17.2h2.2v2.2h-2.2V17.2z M98.3,22.8h2.2V25
			h-2.2V22.8z M107.2,13.7h4.5c1.2,0,2.1,0.3,2.8,0.9s1,1.4,1,2.4s-0.3,1.9-1,2.5c-0.7,0.6-1.6,0.9-2.8,0.9h-3.2V25h-1.3
			C107.2,25,107.2,13.7,107.2,13.7z M111.5,19.3c1.7,0,2.6-0.8,2.6-2.3c0-1.5-0.9-2.2-2.6-2.2h-3v4.5H111.5z M121.7,18.1l-0.8,0.1
			c-0.8,0.1-1.4,0.3-1.7,0.8c-0.4,0.4-0.5,1-0.5,1.6V25h-1.3v-7.8h1.3v1.4c0.4-0.9,1.3-1.4,2.6-1.5l0.5,0
			C121.6,17,121.7,18.1,121.7,18.1z M126.2,25.1c-0.7,0-1.4-0.2-1.9-0.5c-0.6-0.3-1-0.8-1.3-1.4c-0.3-0.6-0.5-1.3-0.5-2.1
			c0-0.8,0.2-1.5,0.5-2.1c0.3-0.6,0.7-1.1,1.3-1.4c0.6-0.3,1.2-0.5,1.9-0.5s1.4,0.2,2,0.5c0.6,0.3,1,0.8,1.3,1.4s0.5,1.3,0.5,2.1
			c0,0.8-0.2,1.5-0.5,2.1c-0.3,0.6-0.7,1.1-1.3,1.4C127.5,24.9,126.9,25.1,126.2,25.1z M126.2,24c0.8,0,1.4-0.3,1.8-0.8
			c0.4-0.5,0.6-1.2,0.6-2.2c0-1-0.2-1.7-0.6-2.2c-0.4-0.5-1-0.8-1.8-0.8c-0.8,0-1.3,0.3-1.8,0.8s-0.6,1.2-0.6,2.2
			c0,1,0.2,1.7,0.6,2.2C124.8,23.8,125.4,24,126.2,24L126.2,24z M140.5,17c1.7,0,2.6,1,2.6,3.1V25h-1.3v-4.8c0-0.7-0.1-1.2-0.4-1.6
			c-0.2-0.3-0.7-0.5-1.2-0.5c-0.6,0-1.2,0.2-1.5,0.7c-0.4,0.4-0.6,1-0.6,1.8V25h-1.3v-4.8c0-0.7-0.1-1.2-0.4-1.6
			c-0.3-0.3-0.7-0.5-1.2-0.5c-0.6,0-1.2,0.2-1.5,0.7c-0.4,0.4-0.6,1-0.6,1.8V25h-1.3v-7.8h1.3v1.2c0.2-0.5,0.6-0.8,1-1.1
			c0.4-0.2,0.9-0.4,1.4-0.4c1.2,0,2,0.5,2.4,1.5c0.2-0.5,0.6-0.9,1-1.1C139.4,17.1,139.9,17,140.5,17z M148.7,25.1
			c-0.7,0-1.4-0.2-1.9-0.5c-0.6-0.3-1-0.8-1.3-1.4c-0.3-0.6-0.5-1.3-0.5-2.1c0-0.8,0.2-1.5,0.5-2.1c0.3-0.6,0.7-1.1,1.3-1.4
			c0.6-0.3,1.2-0.5,1.9-0.5s1.4,0.2,2,0.5c0.6,0.3,1,0.8,1.3,1.4s0.5,1.3,0.5,2.1c0,0.8-0.2,1.5-0.5,2.1c-0.3,0.6-0.7,1.1-1.3,1.4
			C150.1,24.9,149.4,25.1,148.7,25.1z M148.7,24c0.8,0,1.4-0.3,1.8-0.8s0.6-1.2,0.6-2.2c0-1-0.2-1.7-0.6-2.2s-1-0.8-1.8-0.8
			c-0.8,0-1.3,0.3-1.8,0.8s-0.6,1.2-0.6,2.2c0,1,0.2,1.7,0.6,2.2C147.3,23.8,147.9,24,148.7,24L148.7,24z M157.7,24.1
			c0.2,0,0.5,0,0.7,0l-0.1,1c-0.3,0-0.5,0.1-0.8,0.1c-0.9,0-1.6-0.2-2.1-0.7c-0.5-0.5-0.7-1.2-0.7-2v-4.1h-1.5v-1h1.5v-2.4h1.3v2.4
			h2.2v1H156v4C156,23.5,156.6,24.1,157.7,24.1z M166.3,21.3h-5.7c0,0.9,0.3,1.6,0.7,2.1c0.4,0.5,1.1,0.7,1.9,0.7
			c0.9,0,1.7-0.3,2.5-0.9l0.4,0.9c-0.3,0.3-0.8,0.6-1.3,0.8c-0.5,0.2-1.1,0.3-1.6,0.3c-1.2,0-2.2-0.4-2.9-1.1c-0.7-0.7-1-1.7-1-3
			c0-0.8,0.2-1.5,0.5-2.1c0.3-0.6,0.7-1.1,1.3-1.4c0.6-0.3,1.2-0.5,1.9-0.5c1,0,1.8,0.3,2.4,1c0.6,0.7,0.9,1.6,0.9,2.8L166.3,21.3
			L166.3,21.3z M163,18c-0.7,0-1.2,0.2-1.6,0.6s-0.7,1-0.7,1.8h4.5c0-0.8-0.2-1.4-0.6-1.8C164.2,18.2,163.7,18,163,18L163,18z
			 M177.3,25.1c-1.1,0-2-0.2-2.8-0.7c-0.8-0.5-1.4-1.1-1.8-2c-0.4-0.9-0.6-1.9-0.6-3.1s0.2-2.2,0.6-3.1c0.4-0.9,1-1.5,1.8-2
			c0.8-0.5,1.7-0.7,2.8-0.7c0.8,0,1.5,0.1,2.1,0.4s1.2,0.6,1.7,1.1l-0.5,1c-0.5-0.5-1.1-0.8-1.6-1c-0.6-0.2-1.1-0.3-1.7-0.3
			c-1.2,0-2.2,0.4-2.9,1.2c-0.7,0.8-1,1.9-1,3.4c0,1.5,0.3,2.6,1,3.4c0.7,0.8,1.6,1.2,2.9,1.2c0.6,0,1.2-0.1,1.7-0.3
			c0.5-0.2,1.1-0.5,1.6-1l0.5,1c-0.5,0.5-1,0.8-1.7,1.1C178.8,25,178.1,25.1,177.3,25.1z M186.4,25.1c-0.7,0-1.4-0.2-1.9-0.5
			c-0.6-0.3-1-0.8-1.3-1.4c-0.3-0.6-0.5-1.3-0.5-2.1c0-0.8,0.2-1.5,0.5-2.1c0.3-0.6,0.7-1.1,1.3-1.4c0.6-0.3,1.2-0.5,1.9-0.5
			s1.4,0.2,2,0.5c0.6,0.3,1,0.8,1.3,1.4s0.5,1.3,0.5,2.1c0,0.8-0.2,1.5-0.5,2.1c-0.3,0.6-0.7,1.1-1.3,1.4
			C187.8,24.9,187.1,25.1,186.4,25.1z M186.4,24c0.8,0,1.4-0.3,1.8-0.8s0.6-1.2,0.6-2.2c0-1-0.2-1.7-0.6-2.2s-1-0.8-1.8-0.8
			c-0.8,0-1.3,0.3-1.8,0.8s-0.6,1.2-0.6,2.2c0,1,0.2,1.7,0.6,2.2C185,23.8,185.6,24,186.4,24L186.4,24z M195.3,25.1
			c-0.7,0-1.4-0.2-1.9-0.5c-0.6-0.3-1-0.8-1.3-1.4c-0.3-0.6-0.5-1.3-0.5-2.1c0-0.8,0.2-1.5,0.5-2.1c0.3-0.6,0.7-1.1,1.3-1.4
			c0.6-0.3,1.2-0.5,1.9-0.5s1.4,0.2,2,0.5c0.6,0.3,1,0.8,1.3,1.4s0.5,1.3,0.5,2.1c0,0.8-0.2,1.5-0.5,2.1c-0.3,0.6-0.7,1.1-1.3,1.4
			C196.7,24.9,196,25.1,195.3,25.1z M195.3,24c0.8,0,1.4-0.3,1.8-0.8s0.6-1.2,0.6-2.2c0-1-0.2-1.7-0.6-2.2s-1-0.8-1.8-0.8
			c-0.8,0-1.3,0.3-1.8,0.8s-0.6,1.2-0.6,2.2c0,1,0.2,1.7,0.6,2.2C193.9,23.8,194.5,24,195.3,24L195.3,24z M204.8,17
			c0.7,0,1.3,0.2,1.8,0.5c0.5,0.3,0.9,0.8,1.2,1.4c0.3,0.6,0.4,1.3,0.4,2.1c0,0.8-0.1,1.5-0.4,2.1c-0.3,0.6-0.7,1.1-1.2,1.4
			c-0.5,0.3-1.1,0.5-1.8,0.5c-0.6,0-1.1-0.1-1.6-0.4c-0.5-0.3-0.8-0.7-1-1.1v4.3h-1.3V17.2h1.3v1.3c0.2-0.5,0.6-0.9,1-1.1
			C203.7,17.1,204.2,17,204.8,17L204.8,17z M204.6,24c0.8,0,1.3-0.3,1.8-0.8s0.6-1.2,0.6-2.2c0-0.9-0.2-1.7-0.6-2.2s-1-0.8-1.8-0.8
			c-0.8,0-1.3,0.3-1.8,0.8c-0.4,0.5-0.6,1.2-0.6,2.2c0,1,0.2,1.7,0.6,2.2S203.8,24,204.6,24z M216.8,21.3h-5.7
			c0,0.9,0.3,1.6,0.7,2.1s1.1,0.7,1.9,0.7c0.9,0,1.7-0.3,2.5-0.9l0.4,0.9c-0.3,0.3-0.8,0.6-1.3,0.8c-0.5,0.2-1.1,0.3-1.6,0.3
			c-1.2,0-2.2-0.4-2.9-1.1c-0.7-0.7-1-1.7-1-3c0-0.8,0.2-1.5,0.5-2.1c0.3-0.6,0.7-1.1,1.3-1.4c0.6-0.3,1.2-0.5,1.9-0.5
			c1,0,1.8,0.3,2.4,1c0.6,0.7,0.9,1.6,0.9,2.8L216.8,21.3L216.8,21.3z M213.5,18c-0.7,0-1.2,0.2-1.6,0.6s-0.7,1-0.7,1.8h4.5
			c0-0.8-0.2-1.4-0.6-1.8C214.7,18.2,214.1,18,213.5,18L213.5,18z M223.1,18.1l-0.8,0.1c-0.8,0.1-1.4,0.3-1.7,0.8
			c-0.4,0.4-0.5,1-0.5,1.6V25h-1.3v-7.8h1.3v1.4c0.4-0.9,1.3-1.4,2.6-1.5l0.5,0L223.1,18.1L223.1,18.1z M227.5,17
			c1,0,1.7,0.3,2.2,0.8c0.5,0.5,0.7,1.3,0.7,2.3V25h-1.3v-1.3c-0.2,0.4-0.5,0.8-0.9,1.1c-0.4,0.2-0.9,0.4-1.4,0.4
			c-0.5,0-1-0.1-1.4-0.3c-0.4-0.2-0.7-0.5-1-0.8c-0.2-0.4-0.4-0.8-0.4-1.2c0-0.6,0.1-1,0.4-1.4c0.3-0.3,0.8-0.6,1.5-0.7
			c0.7-0.1,1.6-0.2,2.8-0.2h0.4v-0.5c0-0.6-0.1-1.1-0.4-1.4c-0.3-0.3-0.7-0.4-1.3-0.4c-0.9,0-1.8,0.3-2.7,0.8l-0.4-0.9
			c0.4-0.3,0.9-0.5,1.5-0.7C226.4,17.1,226.9,17,227.5,17L227.5,17z M227,24.1c0.6,0,1.2-0.2,1.6-0.6c0.4-0.4,0.6-1,0.6-1.7v-0.5
			h-0.3c-0.9,0-1.7,0-2.1,0.1c-0.5,0.1-0.8,0.2-1,0.4c-0.2,0.2-0.3,0.5-0.3,0.8c0,0.4,0.2,0.8,0.5,1S226.5,24.1,227,24.1z
			 M236.2,24.1c0.2,0,0.5,0,0.7,0l-0.1,1c-0.3,0-0.5,0.1-0.8,0.1c-0.9,0-1.6-0.2-2.1-0.7c-0.5-0.5-0.7-1.2-0.7-2v-4.1h-1.5v-1h1.5
			v-2.4h1.3v2.4h2.2v1h-2.2v4C234.5,23.5,235.1,24.1,236.2,24.1z M238.2,25v-7.8h1.3V25L238.2,25z M238.1,13.8h1.6v1.5h-1.6V13.8z
			 M247.5,17.2h1.3l-3.4,7.8h-1.2l-3.3-7.8h1.4l2.6,6.4L247.5,17.2L247.5,17.2z M256.7,21.3H251c0,0.9,0.3,1.6,0.7,2.1
			s1.1,0.7,1.9,0.7c0.9,0,1.7-0.3,2.5-0.9l0.4,0.9c-0.3,0.3-0.8,0.6-1.3,0.8c-0.5,0.2-1.1,0.3-1.6,0.3c-1.2,0-2.2-0.4-2.9-1.1
			c-0.7-0.7-1-1.7-1-3c0-0.8,0.2-1.5,0.5-2.1c0.3-0.6,0.7-1.1,1.3-1.4c0.6-0.3,1.2-0.5,1.9-0.5c1,0,1.8,0.3,2.4,1
			c0.6,0.7,0.9,1.6,0.9,2.8L256.7,21.3L256.7,21.3z M253.4,18c-0.7,0-1.2,0.2-1.6,0.6s-0.7,1-0.7,1.8h4.5c0-0.8-0.2-1.4-0.6-1.8
			C254.6,18.2,254.1,18,253.4,18L253.4,18z M261.2,25.1c-1.3,0-2.4-0.3-3.1-1l0.4-1c0.4,0.3,0.8,0.6,1.3,0.7s0.9,0.2,1.5,0.2
			c0.6,0,1-0.1,1.3-0.3c0.3-0.2,0.5-0.5,0.5-0.9c0-0.3-0.1-0.6-0.3-0.7c-0.2-0.2-0.5-0.3-1-0.4l-1.3-0.3c-0.7-0.1-1.2-0.4-1.5-0.8
			c-0.4-0.4-0.5-0.8-0.5-1.3c0-0.7,0.3-1.3,0.8-1.7s1.3-0.6,2.2-0.6c0.5,0,1.1,0.1,1.6,0.3s0.9,0.4,1.2,0.8l-0.4,0.9
			c-0.7-0.6-1.5-0.9-2.4-0.9c-0.5,0-1,0.1-1.3,0.3c-0.3,0.2-0.5,0.5-0.5,0.9c0,0.3,0.1,0.6,0.3,0.7c0.2,0.2,0.5,0.3,0.9,0.4l1.3,0.3
			c0.7,0.2,1.3,0.4,1.6,0.8c0.4,0.3,0.5,0.8,0.5,1.4c0,0.7-0.3,1.2-0.8,1.6C262.9,24.9,262.2,25.1,261.2,25.1L261.2,25.1z M273.6,17
			c1,0,1.7,0.3,2.2,0.8s0.7,1.3,0.7,2.3V25h-1.3v-1.3c-0.2,0.4-0.5,0.8-0.9,1.1c-0.4,0.2-0.9,0.4-1.4,0.4c-0.5,0-1-0.1-1.4-0.3
			c-0.4-0.2-0.7-0.5-1-0.8c-0.2-0.4-0.4-0.8-0.4-1.2c0-0.6,0.1-1,0.4-1.4c0.3-0.3,0.8-0.6,1.5-0.7c0.7-0.1,1.6-0.2,2.8-0.2h0.4v-0.5
			c0-0.6-0.1-1.1-0.4-1.4c-0.3-0.3-0.7-0.4-1.3-0.4c-0.9,0-1.8,0.3-2.7,0.8l-0.4-0.9c0.4-0.3,0.9-0.5,1.5-0.7
			C272.4,17.1,273,17,273.6,17L273.6,17z M273.1,24.1c0.6,0,1.2-0.2,1.6-0.6c0.4-0.4,0.6-1,0.6-1.7v-0.5H275c-0.9,0-1.7,0-2.1,0.1
			c-0.5,0.1-0.8,0.2-1,0.4s-0.3,0.5-0.3,0.8c0,0.4,0.2,0.8,0.5,1S272.6,24.1,273.1,24.1L273.1,24.1z M282.8,17c1.9,0,2.8,1,2.8,3.1
			V25h-1.3v-4.8c0-0.7-0.1-1.3-0.4-1.6c-0.3-0.3-0.7-0.5-1.4-0.5c-0.7,0-1.3,0.2-1.7,0.7c-0.4,0.4-0.6,1-0.6,1.8V25h-1.3v-7.8h1.3
			v1.3c0.3-0.5,0.6-0.8,1.1-1.1C281.7,17.1,282.2,17,282.8,17L282.8,17z M294.9,13.7V25h-1.3v-1.4c-0.2,0.5-0.6,0.9-1,1.1
			c-0.5,0.3-1,0.4-1.6,0.4c-0.7,0-1.3-0.2-1.8-0.5c-0.5-0.3-0.9-0.8-1.2-1.4c-0.3-0.6-0.4-1.3-0.4-2.1c0-0.8,0.1-1.5,0.4-2.1
			s0.7-1.1,1.2-1.4c0.5-0.3,1.1-0.5,1.8-0.5c0.6,0,1.1,0.1,1.6,0.4c0.5,0.3,0.8,0.6,1,1.1v-4.8C293.6,13.7,294.9,13.7,294.9,13.7z
			 M291.2,24c0.8,0,1.3-0.3,1.8-0.8c0.4-0.5,0.6-1.2,0.6-2.2s-0.2-1.7-0.6-2.2c-0.4-0.5-1-0.8-1.8-0.8c-0.8,0-1.3,0.3-1.8,0.8
			c-0.4,0.5-0.6,1.2-0.6,2.2c0,1,0.2,1.7,0.6,2.2S290.5,24,291.2,24z M301.6,25V13.7h7v1.1h-5.7v3.9h5.4v1.1h-5.4V25H301.6z
			 M313.5,17c1,0,1.7,0.3,2.2,0.8s0.7,1.3,0.7,2.3V25h-1.3v-1.3c-0.2,0.4-0.5,0.8-0.9,1.1c-0.4,0.2-0.9,0.4-1.4,0.4
			c-0.5,0-1-0.1-1.4-0.3c-0.4-0.2-0.7-0.5-1-0.8c-0.2-0.4-0.4-0.8-0.4-1.2c0-0.6,0.1-1,0.4-1.4c0.3-0.3,0.8-0.6,1.5-0.7
			c0.7-0.1,1.6-0.2,2.8-0.2h0.4v-0.5c0-0.6-0.1-1.1-0.4-1.4c-0.3-0.3-0.7-0.4-1.3-0.4c-0.9,0-1.8,0.3-2.7,0.8l-0.4-0.9
			c0.4-0.3,0.9-0.5,1.5-0.7C312.4,17.1,312.9,17,313.5,17L313.5,17z M313,24.1c0.6,0,1.2-0.2,1.6-0.6c0.4-0.4,0.6-1,0.6-1.7v-0.5
			h-0.3c-0.9,0-1.7,0-2.1,0.1c-0.5,0.1-0.8,0.2-1,0.4s-0.3,0.5-0.3,0.8c0,0.4,0.2,0.8,0.5,1S312.5,24.1,313,24.1L313,24.1z
			 M323.2,18.1l-0.8,0.1c-0.8,0.1-1.4,0.3-1.7,0.8c-0.4,0.4-0.5,1-0.5,1.6V25h-1.3v-7.8h1.3v1.4c0.4-0.9,1.3-1.4,2.6-1.5l0.5,0
			L323.2,18.1L323.2,18.1z M333.1,17c1.7,0,2.6,1,2.6,3.1V25h-1.3v-4.8c0-0.7-0.1-1.2-0.4-1.6c-0.2-0.3-0.7-0.5-1.2-0.5
			c-0.6,0-1.2,0.2-1.5,0.7c-0.4,0.4-0.6,1-0.6,1.8V25h-1.3v-4.8c0-0.7-0.1-1.2-0.4-1.6c-0.3-0.3-0.7-0.5-1.2-0.5
			c-0.6,0-1.2,0.2-1.5,0.7c-0.4,0.4-0.6,1-0.6,1.8V25h-1.3v-7.8h1.3v1.2c0.2-0.5,0.6-0.8,1-1.1c0.4-0.2,0.9-0.4,1.4-0.4
			c1.2,0,2,0.5,2.4,1.5c0.2-0.5,0.6-0.9,1-1.1C332,17.1,332.6,17,333.1,17z M344.6,21.3h-5.7c0,0.9,0.3,1.6,0.7,2.1
			c0.4,0.5,1.1,0.7,1.9,0.7c0.9,0,1.7-0.3,2.5-0.9l0.4,0.9c-0.3,0.3-0.8,0.6-1.3,0.8c-0.5,0.2-1.1,0.3-1.6,0.3
			c-1.2,0-2.2-0.4-2.9-1.1c-0.7-0.7-1-1.7-1-3c0-0.8,0.2-1.5,0.5-2.1c0.3-0.6,0.7-1.1,1.3-1.4c0.6-0.3,1.2-0.5,1.9-0.5
			c1,0,1.8,0.3,2.4,1c0.6,0.7,0.9,1.6,0.9,2.8L344.6,21.3L344.6,21.3z M341.3,18c-0.7,0-1.2,0.2-1.6,0.6s-0.7,1-0.7,1.8h4.5
			c0-0.8-0.2-1.4-0.6-1.8C342.5,18.2,342,18,341.3,18L341.3,18z M350.9,18.1l-0.8,0.1c-0.8,0.1-1.4,0.3-1.7,0.8
			c-0.4,0.4-0.5,1-0.5,1.6V25h-1.3v-7.8h1.3v1.4c0.4-0.9,1.3-1.4,2.6-1.5l0.5,0L350.9,18.1z M354.8,25.1c-1.3,0-2.4-0.3-3.1-1l0.4-1
			c0.4,0.3,0.8,0.6,1.3,0.7s0.9,0.2,1.5,0.2c0.6,0,1-0.1,1.3-0.3c0.3-0.2,0.5-0.5,0.5-0.9c0-0.3-0.1-0.6-0.3-0.7
			c-0.2-0.2-0.5-0.3-1-0.4l-1.3-0.3c-0.7-0.1-1.2-0.4-1.5-0.8c-0.4-0.4-0.5-0.8-0.5-1.3c0-0.7,0.3-1.3,0.8-1.7s1.3-0.6,2.2-0.6
			c0.5,0,1.1,0.1,1.6,0.3s0.9,0.4,1.2,0.8l-0.4,0.9c-0.7-0.6-1.5-0.9-2.4-0.9c-0.5,0-1,0.1-1.3,0.3c-0.3,0.2-0.5,0.5-0.5,0.9
			c0,0.3,0.1,0.6,0.3,0.7c0.2,0.2,0.5,0.3,0.9,0.4l1.3,0.3c0.7,0.2,1.3,0.4,1.6,0.8c0.4,0.3,0.5,0.8,0.5,1.4c0,0.7-0.3,1.2-0.8,1.6
			C356.5,24.9,355.8,25.1,354.8,25.1z"/>
	</g>
	<g transform="translate(678.708 358)">
		<path class="st5" d="M10.7,4h479.9c5.7,0,10.4,2.2,10.4,5v30c0,2.8-4.6,5-10.4,5H10.7c-5.7,0-10.4-2.2-10.4-5V9
			C0.3,6.2,4.9,4,10.7,4z"/>
		<path class="st4" d="M17.2,29v-9.6h-3.7v-1.7h9.4v1.7h-3.7V29H17.2z M27.7,29.1c-0.8,0-1.5-0.2-2.1-0.5c-0.6-0.3-1.1-0.8-1.4-1.4
			c-0.3-0.6-0.5-1.3-0.5-2.2s0.2-1.5,0.5-2.2c0.3-0.6,0.8-1.1,1.4-1.4c0.6-0.3,1.3-0.5,2.1-0.5s1.5,0.2,2.1,0.5
			c0.6,0.3,1.1,0.8,1.4,1.4c0.3,0.6,0.5,1.3,0.5,2.2c0,0.8-0.2,1.5-0.5,2.2c-0.3,0.6-0.8,1.1-1.4,1.4C29.2,29,28.5,29.1,27.7,29.1z
			 M27.7,27.6c0.6,0,1.1-0.2,1.5-0.6c0.3-0.4,0.5-1.1,0.5-1.9c0-0.8-0.2-1.4-0.5-1.9c-0.3-0.4-0.8-0.6-1.5-0.6s-1.1,0.2-1.5,0.6
			c-0.3,0.4-0.5,1.1-0.5,1.9c0,0.8,0.2,1.5,0.5,1.9C26.6,27.4,27.1,27.6,27.7,27.6z M41.2,29h-2.5l-3.4-3.6V29h-2V17.7h2v6.9
			l3.2-3.4h2.4l-3.5,3.7L41.2,29z M48.8,25.5h-5.3c0.1,0.7,0.3,1.3,0.7,1.6c0.4,0.4,0.9,0.5,1.6,0.5c0.9,0,1.7-0.3,2.4-0.8l0.6,1.4
			c-0.4,0.3-0.8,0.5-1.4,0.7c-0.5,0.2-1.1,0.3-1.7,0.3c-1.3,0-2.3-0.4-3-1.1c-0.7-0.7-1.1-1.7-1.1-3c0-0.8,0.2-1.5,0.5-2.1
			c0.3-0.6,0.8-1.1,1.4-1.4c0.6-0.3,1.2-0.5,2-0.5c1.1,0,1.9,0.3,2.6,1s0.9,1.6,0.9,2.9L48.8,25.5z M45.3,22.4c-0.5,0-1,0.2-1.3,0.5
			c-0.3,0.3-0.5,0.8-0.6,1.5h3.6c0-0.6-0.2-1.1-0.5-1.5C46.3,22.6,45.9,22.4,45.3,22.4z M55,21c0.9,0,1.6,0.3,2.1,0.8
			c0.5,0.5,0.7,1.3,0.7,2.4V29h-2v-4.7c0-0.6-0.1-1-0.3-1.3c-0.2-0.3-0.6-0.4-1.1-0.4c-0.6,0-1,0.2-1.4,0.5
			c-0.3,0.4-0.5,0.8-0.5,1.5V29h-2v-7.8h2v1.2c0.3-0.4,0.6-0.8,1.1-1C53.9,21.1,54.4,21,55,21z M62.7,29.1c-0.7,0-1.3-0.1-1.9-0.3
			c-0.6-0.2-1.1-0.4-1.5-0.7l0.6-1.4c0.8,0.6,1.8,0.9,2.9,0.9c0.5,0,0.8-0.1,1-0.2c0.2-0.1,0.4-0.4,0.4-0.6c0-0.2-0.1-0.4-0.2-0.5
			c-0.2-0.1-0.5-0.2-0.9-0.4l-1.3-0.3c-0.7-0.2-1.3-0.4-1.6-0.8s-0.5-0.8-0.5-1.4c0-0.5,0.1-0.9,0.4-1.3s0.7-0.7,1.1-0.9
			c0.5-0.2,1-0.3,1.7-0.3c0.5,0,1.1,0.1,1.6,0.3c0.5,0.2,1,0.4,1.4,0.7l-0.6,1.4c-0.8-0.6-1.6-0.9-2.4-0.9c-0.4,0-0.8,0.1-1,0.2
			c-0.2,0.1-0.4,0.4-0.4,0.7c0,0.2,0.1,0.4,0.2,0.5c0.2,0.1,0.4,0.2,0.7,0.3l1.3,0.3c0.8,0.2,1.3,0.4,1.7,0.8
			c0.4,0.4,0.5,0.9,0.5,1.4c0,0.7-0.3,1.3-0.9,1.7C64.4,28.9,63.7,29.1,62.7,29.1L62.7,29.1z M72,17.7H77c1.2,0,2.1,0.3,2.8,0.9
			c0.7,0.6,1,1.4,1,2.5s-0.3,1.9-1,2.5c-0.7,0.6-1.6,0.9-2.8,0.9h-2.9V29H72C72,29,72,17.7,72,17.7z M76.7,23c1.4,0,2.1-0.6,2.1-1.9
			c0-0.6-0.2-1.1-0.5-1.4c-0.4-0.3-0.9-0.5-1.6-0.5h-2.6V23H76.7z M87.6,22.7l-1.2,0.1c-1.3,0.1-2,0.8-2,2V29h-2v-7.8h1.9v1.4
			c0.4-0.9,1.2-1.5,2.5-1.5l0.6,0L87.6,22.7z M92.1,29.1c-0.8,0-1.5-0.2-2.1-0.5c-0.6-0.3-1.1-0.8-1.4-1.4c-0.3-0.6-0.5-1.3-0.5-2.2
			s0.2-1.5,0.5-2.2c0.3-0.6,0.8-1.1,1.4-1.4c0.6-0.3,1.3-0.5,2.1-0.5s1.5,0.2,2.1,0.5c0.6,0.3,1.1,0.8,1.4,1.4
			c0.3,0.6,0.5,1.3,0.5,2.2c0,0.8-0.2,1.5-0.5,2.2c-0.3,0.6-0.8,1.1-1.4,1.4C93.6,29,92.9,29.1,92.1,29.1z M92.1,27.6
			c0.7,0,1.1-0.2,1.5-0.6c0.3-0.4,0.5-1.1,0.5-1.9c0-0.8-0.2-1.4-0.5-1.9c-0.3-0.4-0.8-0.6-1.5-0.6s-1.1,0.2-1.5,0.6
			c-0.3,0.4-0.5,1.1-0.5,1.9c0,0.8,0.2,1.5,0.5,1.9C91,27.4,91.5,27.6,92.1,27.6z M107.1,21c0.9,0,1.5,0.3,2,0.8
			c0.4,0.5,0.7,1.3,0.7,2.4V29h-2v-4.7c0-0.6-0.1-1-0.3-1.3c-0.2-0.3-0.5-0.4-1-0.4c-0.5,0-0.9,0.2-1.2,0.5
			c-0.3,0.4-0.4,0.9-0.4,1.5V29h-2v-4.7c0-0.6-0.1-1-0.3-1.3c-0.2-0.3-0.5-0.4-1-0.4c-0.5,0-0.9,0.2-1.2,0.5
			c-0.3,0.4-0.4,0.9-0.4,1.5V29h-2v-7.8h2v1.1c0.2-0.4,0.6-0.8,1-1c0.4-0.2,0.9-0.3,1.4-0.3c1.2,0,2,0.5,2.4,1.5
			c0.2-0.5,0.6-0.8,1.1-1.1C106,21.1,106.5,21,107.1,21z M115.3,29.1c-0.8,0-1.5-0.2-2.1-0.5c-0.6-0.3-1.1-0.8-1.4-1.4
			c-0.3-0.6-0.5-1.3-0.5-2.2s0.2-1.5,0.5-2.2c0.3-0.6,0.8-1.1,1.4-1.4c0.6-0.3,1.3-0.5,2.1-0.5s1.5,0.2,2.1,0.5
			c0.6,0.3,1.1,0.8,1.4,1.4c0.3,0.6,0.5,1.3,0.5,2.2c0,0.8-0.2,1.5-0.5,2.2c-0.3,0.6-0.8,1.1-1.4,1.4
			C116.8,29,116.1,29.1,115.3,29.1z M115.3,27.6c0.7,0,1.1-0.2,1.5-0.6c0.3-0.4,0.5-1.1,0.5-1.9c0-0.8-0.2-1.4-0.5-1.9
			c-0.3-0.4-0.8-0.6-1.5-0.6s-1.1,0.2-1.5,0.6c-0.3,0.4-0.5,1.1-0.5,1.9c0,0.8,0.2,1.5,0.5,1.9C114.1,27.4,114.6,27.6,115.3,27.6z
			 M124.9,27.6c0.2,0,0.5,0,0.7,0l-0.1,1.5c-0.3,0-0.6,0-0.9,0c-1.1,0-1.9-0.3-2.4-0.8c-0.5-0.5-0.8-1.3-0.8-2.3v-3.4H120v-1.5h1.5
			v-2.3h2v2.3h2.1v1.5h-2.1v3.4C123.5,27.1,124,27.6,124.9,27.6z M126.8,29v-7.8h2V29H126.8z M126.7,17.6h2.2v2h-2.2
			C126.7,19.5,126.7,17.6,126.7,17.6z M134.5,29.1c-0.8,0-1.5-0.2-2.1-0.5c-0.6-0.3-1.1-0.8-1.4-1.4c-0.3-0.6-0.5-1.3-0.5-2.2
			s0.2-1.5,0.5-2.2c0.3-0.6,0.8-1.1,1.4-1.4c0.6-0.3,1.3-0.5,2.1-0.5s1.5,0.2,2.1,0.5c0.6,0.3,1.1,0.8,1.4,1.4
			c0.3,0.6,0.5,1.3,0.5,2.2c0,0.8-0.2,1.5-0.5,2.2c-0.3,0.6-0.8,1.1-1.4,1.4C136,29,135.3,29.1,134.5,29.1z M134.4,27.6
			c0.6,0,1.1-0.2,1.5-0.6c0.3-0.4,0.5-1.1,0.5-1.9c0-0.8-0.2-1.4-0.5-1.9c-0.3-0.4-0.8-0.6-1.5-0.6s-1.1,0.2-1.5,0.6
			c-0.3,0.4-0.5,1.1-0.5,1.9c0,0.8,0.2,1.5,0.5,1.9C133.3,27.4,133.8,27.6,134.4,27.6z M144.6,21c0.9,0,1.6,0.3,2.1,0.8
			c0.5,0.5,0.7,1.3,0.7,2.4V29h-2v-4.7c0-0.6-0.1-1-0.3-1.3c-0.2-0.3-0.6-0.4-1.1-0.4c-0.6,0-1,0.2-1.4,0.5
			c-0.3,0.4-0.5,0.8-0.5,1.5V29h-2v-7.8h2v1.2c0.3-0.4,0.6-0.8,1.1-1C143.6,21.1,144.1,21,144.6,21z M161.8,29l-1.2-1.2
			c-0.5,0.4-1,0.8-1.6,1c-0.6,0.2-1.2,0.4-1.8,0.4c-0.8,0-1.4-0.1-2-0.4c-0.6-0.3-1-0.6-1.4-1.1c-0.3-0.5-0.5-1-0.5-1.6
			c0-0.7,0.2-1.3,0.6-1.8c0.4-0.5,1-1,1.8-1.5c-0.4-0.5-0.7-0.9-0.9-1.3c-0.2-0.4-0.3-0.8-0.3-1.2c0-0.8,0.3-1.4,0.9-1.9
			c0.6-0.5,1.3-0.7,2.2-0.7c0.9,0,1.5,0.2,2,0.7c0.5,0.4,0.8,1,0.8,1.8c0,0.6-0.2,1.1-0.5,1.5c-0.3,0.5-0.9,0.9-1.6,1.4l2.2,2.3
			c0.4-0.9,0.7-1.9,0.7-3h1.7c-0.1,1.6-0.5,3.1-1.2,4.2l2.5,2.5L161.8,29z M157.7,19c-0.4,0-0.7,0.1-0.9,0.3
			c-0.2,0.2-0.4,0.5-0.4,0.9c0,0.3,0.1,0.5,0.2,0.7s0.4,0.5,0.7,0.9c0.6-0.3,1-0.6,1.2-0.9c0.2-0.3,0.3-0.6,0.3-0.9
			c0-0.4-0.1-0.6-0.3-0.8C158.3,19.1,158,19,157.7,19L157.7,19z M157.3,27.6c0.8,0,1.6-0.3,2.2-0.9l-2.8-2.8c-0.5,0.3-0.9,0.6-1.1,1
			c-0.2,0.3-0.3,0.7-0.3,1.2c0,0.5,0.2,0.9,0.5,1.2C156.2,27.4,156.7,27.6,157.3,27.6z M169.2,29V17.7h2.1v9.6h5.3V29H169.2
			L169.2,29z M177.9,29v-7.8h2V29H177.9z M177.8,17.6h2.2v2h-2.2V17.6z M189.5,21.2v10.7h-2v-4.1c-0.2,0.4-0.6,0.8-1,1
			c-0.4,0.2-0.9,0.4-1.5,0.4c-0.7,0-1.3-0.2-1.8-0.5c-0.5-0.3-0.9-0.8-1.2-1.4c-0.3-0.6-0.4-1.3-0.4-2.1c0-0.8,0.1-1.5,0.4-2.2
			c0.3-0.6,0.7-1.1,1.2-1.4c0.5-0.3,1.2-0.5,1.8-0.5c0.6,0,1.1,0.1,1.5,0.4c0.4,0.2,0.8,0.6,1,1v-1.2L189.5,21.2L189.5,21.2z
			 M185.5,27.6c0.6,0,1.1-0.2,1.5-0.7c0.3-0.4,0.5-1.1,0.5-1.9c0-0.8-0.2-1.4-0.5-1.9c-0.3-0.4-0.8-0.7-1.5-0.7
			c-0.6,0-1.1,0.2-1.5,0.7s-0.5,1.1-0.5,1.9c0,0.8,0.2,1.4,0.5,1.8C184.4,27.4,184.9,27.6,185.5,27.6L185.5,27.6z M198.8,21.2V29h-2
			v-1.2c-0.2,0.4-0.6,0.8-1,1c-0.4,0.2-0.9,0.3-1.4,0.3c-1.9,0-2.9-1.1-2.9-3.2v-4.7h2v4.7c0,0.6,0.1,1,0.3,1.2s0.6,0.4,1.1,0.4
			c0.6,0,1-0.2,1.3-0.6s0.5-0.9,0.5-1.5v-4.4H198.8L198.8,21.2z M200.8,29v-7.8h2V29L200.8,29z M200.7,17.6h2.2v2h-2.2V17.6z
			 M212.5,17.7V29h-2v-1.3c-0.2,0.4-0.6,0.8-1,1c-0.4,0.2-0.9,0.4-1.5,0.4c-0.7,0-1.3-0.2-1.8-0.5c-0.5-0.3-0.9-0.8-1.2-1.4
			c-0.3-0.6-0.4-1.3-0.4-2.2c0-0.8,0.1-1.5,0.4-2.1c0.3-0.6,0.7-1.1,1.2-1.4c0.5-0.3,1.1-0.5,1.8-0.5c0.6,0,1.1,0.1,1.5,0.4
			c0.4,0.2,0.8,0.6,1,1v-4.6L212.5,17.7z M208.5,27.6c0.6,0,1.1-0.2,1.5-0.7c0.3-0.4,0.5-1.1,0.5-1.9c0-0.8-0.2-1.4-0.5-1.9
			c-0.3-0.4-0.8-0.6-1.5-0.6c-0.6,0-1.1,0.2-1.5,0.6s-0.5,1-0.5,1.8c0,0.8,0.2,1.4,0.5,1.9S207.8,27.6,208.5,27.6L208.5,27.6z
			 M214.5,29v-7.8h2V29H214.5z M214.4,17.6h2.2v2h-2.2V17.6z M222.6,27.6c0.2,0,0.5,0,0.7,0l-0.1,1.5c-0.3,0-0.6,0-0.9,0
			c-1.1,0-1.9-0.3-2.4-0.8c-0.5-0.5-0.8-1.3-0.8-2.3v-3.4h-1.5v-1.5h1.5v-2.3h2v2.3h2.1v1.5h-2.1v3.4
			C221.1,27.1,221.6,27.6,222.6,27.6L222.6,27.6z M230,21.2h2l-4.7,10.7h-2l1.4-3.2l-3.3-7.5h2.1l2.2,5.5L230,21.2z"/>
	</g>
	<g transform="translate(419 298)">
		<path class="st5" d="M5.3,121.4h231.6c2.8,0,5,2.2,5,5v30c0,2.8-2.2,5-5,5H5.3c-2.8,0-5-2.2-5-5v-30
			C0.3,123.6,2.5,121.4,5.3,121.4z"/>
		<path class="st4" d="M14.5,146.4v-11.3h2.1v9.6h5.3v1.7H14.5z M26.1,138.3c1.1,0,1.9,0.3,2.4,0.8c0.5,0.5,0.8,1.4,0.8,2.5v4.8
			h-1.9v-1.2c-0.2,0.4-0.5,0.7-0.9,1c-0.4,0.2-0.8,0.4-1.4,0.4c-0.5,0-1-0.1-1.4-0.3c-0.4-0.2-0.8-0.5-1-0.9
			c-0.2-0.4-0.4-0.8-0.4-1.2c0-0.6,0.1-1,0.4-1.4c0.3-0.3,0.8-0.6,1.4-0.7c0.7-0.2,1.6-0.2,2.7-0.2h0.4v-0.4c0-0.5-0.1-0.9-0.3-1.2
			c-0.2-0.2-0.6-0.4-1.1-0.4c-0.4,0-0.9,0.1-1.3,0.2c-0.5,0.1-0.9,0.4-1.3,0.6l-0.6-1.4c0.4-0.3,1-0.5,1.6-0.7
			C24.9,138.4,25.5,138.4,26.1,138.3z M25.6,145.1c0.5,0,1-0.2,1.3-0.5c0.3-0.4,0.5-0.8,0.5-1.4v-0.3h-0.3c-0.7,0-1.3,0-1.7,0.1
			c-0.4,0.1-0.7,0.2-0.8,0.3c-0.2,0.2-0.3,0.4-0.3,0.7c0,0.3,0.1,0.6,0.4,0.8C24.9,144.9,25.2,145.1,25.6,145.1z M38,138.5v7.8h-2
			v-1.2c-0.2,0.4-0.6,0.8-1,1c-0.4,0.2-0.9,0.3-1.4,0.3c-1.9,0-2.9-1.1-2.9-3.2v-4.7h2v4.7c0,0.6,0.1,1,0.3,1.2s0.6,0.4,1.1,0.4
			c0.6,0,1-0.2,1.3-0.6c0.3-0.4,0.5-0.9,0.5-1.5v-4.4L38,138.5z M44.2,138.3c0.9,0,1.6,0.3,2.1,0.8c0.5,0.5,0.7,1.3,0.7,2.4v4.8h-2
			v-4.7c0-0.6-0.1-1-0.3-1.3c-0.2-0.3-0.6-0.4-1.1-0.4c-0.6,0-1,0.2-1.4,0.5c-0.3,0.4-0.5,0.8-0.5,1.5v4.4h-2v-7.8h2v1.2
			c0.3-0.4,0.6-0.8,1.1-1C43.1,138.5,43.6,138.3,44.2,138.3z M52,146.5c-0.8,0-1.5-0.2-2.1-0.5c-0.6-0.3-1.1-0.8-1.4-1.4
			c-0.3-0.6-0.5-1.3-0.5-2.1c0-0.8,0.2-1.5,0.5-2.2c0.3-0.6,0.8-1.1,1.4-1.4c0.6-0.3,1.3-0.5,2.1-0.5c0.6,0,1.1,0.1,1.6,0.3
			c0.5,0.2,1,0.4,1.3,0.7l-0.6,1.4c-0.3-0.3-0.7-0.5-1-0.6c-0.3-0.1-0.7-0.2-1.1-0.2c-0.7,0-1.2,0.2-1.6,0.6
			c-0.4,0.4-0.6,1.1-0.6,1.9c0,0.8,0.2,1.4,0.6,1.8c0.4,0.4,0.9,0.6,1.6,0.6c0.4,0,0.7-0.1,1.1-0.2c0.4-0.1,0.7-0.4,1-0.6l0.6,1.4
			c-0.3,0.3-0.8,0.6-1.3,0.7C53.2,146.4,52.6,146.5,52,146.5z M60.3,138.3c0.9,0,1.6,0.3,2.1,0.8c0.5,0.5,0.7,1.3,0.7,2.4v4.8h-2
			v-4.7c0-0.6-0.1-1-0.3-1.3c-0.2-0.3-0.6-0.4-1.1-0.4c-0.6,0-1,0.2-1.4,0.5c-0.3,0.4-0.5,0.8-0.5,1.5v4.4h-2v-11.3h2v4.5
			c0.3-0.4,0.6-0.7,1.1-1C59.3,138.5,59.8,138.3,60.3,138.3z M76,135.1v11.3h-2v-1.3c-0.2,0.4-0.6,0.8-1,1c-0.4,0.2-0.9,0.4-1.5,0.4
			c-0.7,0-1.3-0.2-1.8-0.5c-0.5-0.3-0.9-0.8-1.2-1.4c-0.3-0.6-0.4-1.3-0.4-2.2c0-0.8,0.1-1.5,0.4-2.1c0.3-0.6,0.7-1.1,1.2-1.4
			c0.5-0.3,1.1-0.5,1.8-0.5c0.6,0,1.1,0.1,1.5,0.4c0.4,0.2,0.8,0.6,1,1v-4.6C74,135.1,76,135.1,76,135.1z M72,144.9
			c0.6,0,1.1-0.2,1.5-0.7c0.3-0.4,0.5-1.1,0.5-1.9c0-0.8-0.2-1.4-0.5-1.9c-0.3-0.4-0.8-0.6-1.5-0.6c-0.6,0-1.1,0.2-1.5,0.6
			s-0.5,1-0.5,1.8c0,0.8,0.2,1.4,0.5,1.9C70.9,144.7,71.4,144.9,72,144.9z M84.5,142.8h-5.3c0.1,0.7,0.3,1.3,0.7,1.6
			c0.4,0.4,0.9,0.5,1.6,0.5c0.9,0,1.7-0.3,2.4-0.8l0.6,1.4c-0.4,0.3-0.8,0.5-1.4,0.7c-0.5,0.2-1.1,0.3-1.7,0.3c-1.3,0-2.3-0.4-3-1.1
			c-0.7-0.7-1.1-1.7-1.1-3c0-0.8,0.2-1.5,0.5-2.1c0.3-0.6,0.8-1.1,1.4-1.4c0.6-0.3,1.2-0.5,2-0.5c1.1,0,1.9,0.3,2.6,1
			c0.6,0.7,0.9,1.6,0.9,2.9C84.5,142.3,84.5,142.8,84.5,142.8z M81,139.8c-0.5,0-1,0.2-1.3,0.5c-0.3,0.3-0.5,0.8-0.6,1.5h3.6
			c0-0.7-0.2-1.1-0.5-1.5C82,139.9,81.6,139.8,81,139.8z M89.2,146.5c-0.8,0-1.5-0.2-2.1-0.5c-0.6-0.3-1.1-0.8-1.4-1.4
			c-0.3-0.6-0.5-1.3-0.5-2.1c0-0.8,0.2-1.5,0.5-2.2c0.3-0.6,0.8-1.1,1.4-1.4c0.6-0.3,1.3-0.5,2.1-0.5c0.6,0,1.1,0.1,1.6,0.3
			s1,0.4,1.3,0.7l-0.6,1.4c-0.3-0.3-0.7-0.5-1-0.6c-0.3-0.1-0.7-0.2-1.1-0.2c-0.7,0-1.2,0.2-1.6,0.6c-0.4,0.4-0.6,1.1-0.6,1.9
			c0,0.8,0.2,1.4,0.6,1.8c0.4,0.4,0.9,0.6,1.6,0.6c0.4,0,0.7-0.1,1.1-0.2c0.4-0.1,0.7-0.4,1-0.6l0.6,1.4c-0.3,0.3-0.8,0.6-1.3,0.7
			C90.3,146.4,89.7,146.5,89.2,146.5z M99.8,142.8h-5.3c0.1,0.7,0.3,1.3,0.7,1.6c0.4,0.4,0.9,0.5,1.6,0.5c0.9,0,1.7-0.3,2.4-0.8
			l0.6,1.4c-0.4,0.3-0.8,0.5-1.4,0.7c-0.5,0.2-1.1,0.3-1.7,0.3c-1.3,0-2.3-0.4-3-1.1c-0.7-0.7-1.1-1.7-1.1-3c0-0.8,0.2-1.5,0.5-2.1
			c0.3-0.6,0.8-1.1,1.4-1.4c0.6-0.3,1.2-0.5,2-0.5c1.1,0,1.9,0.3,2.6,1c0.6,0.7,0.9,1.6,0.9,2.9L99.8,142.8L99.8,142.8z M96.3,139.8
			c-0.5,0-1,0.2-1.3,0.5c-0.3,0.3-0.5,0.8-0.6,1.5h3.6c0-0.7-0.2-1.1-0.5-1.5C97.3,139.9,96.9,139.8,96.3,139.8z M105.4,138.3
			c0.9,0,1.6,0.3,2.1,0.8c0.5,0.5,0.7,1.3,0.7,2.4v4.8h-2v-4.7c0-0.6-0.1-1-0.3-1.3c-0.2-0.3-0.6-0.4-1.1-0.4c-0.6,0-1,0.2-1.4,0.5
			c-0.3,0.4-0.5,0.8-0.5,1.5v4.4h-2v-7.8h2v1.2c0.3-0.4,0.6-0.8,1.1-1C104.4,138.5,104.9,138.3,105.4,138.3z M113.8,145
			c0.2,0,0.5,0,0.7,0l-0.1,1.5c-0.3,0-0.6,0-0.9,0c-1.1,0-1.9-0.3-2.4-0.8c-0.5-0.5-0.8-1.3-0.8-2.3V140h-1.5v-1.5h1.5v-2.3h2v2.3
			h2.1v1.5h-2.1v3.4C112.3,144.5,112.8,145,113.8,145L113.8,145z M120.3,140l-1.2,0.1c-1.3,0.1-2,0.8-2,2v4.2h-2v-7.8h1.9v1.4
			c0.4-0.9,1.2-1.4,2.5-1.5l0.6,0L120.3,140z M124.1,138.3c1.1,0,1.9,0.3,2.4,0.8c0.5,0.5,0.8,1.4,0.8,2.5v4.8h-1.9v-1.2
			c-0.2,0.4-0.5,0.7-0.9,1c-0.4,0.2-0.8,0.4-1.4,0.4c-0.5,0-1-0.1-1.4-0.3c-0.4-0.2-0.8-0.5-1-0.9c-0.2-0.4-0.4-0.8-0.4-1.2
			c0-0.6,0.1-1,0.4-1.4c0.3-0.3,0.8-0.6,1.4-0.7c0.7-0.2,1.6-0.2,2.7-0.2h0.4v-0.4c0-0.5-0.1-0.9-0.3-1.2c-0.2-0.2-0.6-0.4-1.1-0.4
			c-0.4,0-0.9,0.1-1.3,0.2c-0.5,0.1-0.9,0.4-1.3,0.6l-0.6-1.4c0.4-0.3,1-0.5,1.6-0.7C122.9,138.4,123.5,138.4,124.1,138.3z
			 M123.7,145.1c0.5,0,1-0.2,1.3-0.5c0.3-0.4,0.5-0.8,0.5-1.4v-0.3h-0.3c-0.7,0-1.3,0-1.7,0.1c-0.4,0.1-0.7,0.2-0.8,0.3
			c-0.2,0.2-0.3,0.4-0.3,0.7c0,0.3,0.1,0.6,0.4,0.8C123,144.9,123.3,145.1,123.7,145.1z M128.9,146.4v-11.3h2v11.3H128.9z
			 M132.5,146.4v-7.8h2v7.8H132.5z M132.3,134.9h2.2v2h-2.2V134.9z M138.1,144.9h4.4v1.5h-6.8V145l4.3-4.9h-4.2v-1.5h6.6v1.4
			L138.1,144.9L138.1,144.9z M150.3,142.8H145c0.1,0.7,0.3,1.3,0.7,1.6c0.4,0.4,0.9,0.5,1.6,0.5c0.9,0,1.7-0.3,2.4-0.8l0.6,1.4
			c-0.4,0.3-0.8,0.5-1.4,0.7c-0.5,0.2-1.1,0.3-1.7,0.3c-1.3,0-2.3-0.4-3-1.1c-0.7-0.7-1.1-1.7-1.1-3c0-0.8,0.2-1.5,0.5-2.1
			c0.3-0.6,0.8-1.1,1.4-1.4c0.6-0.3,1.2-0.5,2-0.5c1.1,0,1.9,0.3,2.6,1c0.6,0.7,0.9,1.6,0.9,2.9L150.3,142.8L150.3,142.8z
			 M146.9,139.8c-0.5,0-1,0.2-1.3,0.5c-0.3,0.3-0.5,0.8-0.6,1.5h3.6c0-0.6-0.2-1.1-0.5-1.5C147.8,139.9,147.4,139.8,146.9,139.8z
			 M159,135.1v11.3h-2v-1.3c-0.2,0.4-0.6,0.8-1,1c-0.4,0.2-0.9,0.4-1.5,0.4c-0.7,0-1.3-0.2-1.8-0.5c-0.5-0.3-0.9-0.8-1.2-1.4
			c-0.3-0.6-0.4-1.3-0.4-2.2c0-0.8,0.1-1.5,0.4-2.1c0.3-0.6,0.7-1.1,1.2-1.4c0.5-0.3,1.1-0.5,1.8-0.5c0.6,0,1.1,0.1,1.5,0.4
			c0.4,0.2,0.8,0.6,1,1v-4.6H159z M155,144.9c0.6,0,1.1-0.2,1.5-0.7c0.3-0.4,0.5-1.1,0.5-1.9c0-0.8-0.2-1.4-0.5-1.9
			c-0.3-0.4-0.8-0.6-1.5-0.6c-0.6,0-1.1,0.2-1.5,0.6s-0.5,1-0.5,1.8c0,0.8,0.2,1.4,0.5,1.9C153.9,144.7,154.4,144.9,155,144.9
			L155,144.9z M164.6,146.4v-11.3h7.6v1.6h-5.5v3.1h5.2v1.6h-5.2v3.3h5.5v1.6H164.6z M177.7,142.3l3.3,4h-2.4l-2.1-2.6l-2.1,2.6
			h-2.4l3.3-4l-3.1-3.8h2.4l1.9,2.4l1.9-2.4h2.4L177.7,142.3L177.7,142.3z M184.8,146.5c-0.8,0-1.5-0.2-2.1-0.5
			c-0.6-0.3-1.1-0.8-1.4-1.4c-0.3-0.6-0.5-1.3-0.5-2.1c0-0.8,0.2-1.5,0.5-2.2c0.3-0.6,0.8-1.1,1.4-1.4c0.6-0.3,1.3-0.5,2.1-0.5
			c0.6,0,1.1,0.1,1.6,0.3s1,0.4,1.3,0.7l-0.6,1.4c-0.3-0.3-0.7-0.5-1-0.6c-0.3-0.1-0.7-0.2-1.1-0.2c-0.7,0-1.2,0.2-1.6,0.6
			c-0.4,0.4-0.6,1.1-0.6,1.9c0,0.8,0.2,1.4,0.6,1.8c0.4,0.4,0.9,0.6,1.6,0.6c0.4,0,0.7-0.1,1.1-0.2c0.4-0.1,0.7-0.4,1-0.6l0.6,1.4
			c-0.3,0.3-0.8,0.6-1.3,0.7C185.9,146.4,185.3,146.5,184.8,146.5z M193.1,138.3c0.9,0,1.6,0.3,2.1,0.8c0.5,0.5,0.7,1.3,0.7,2.4v4.8
			h-2v-4.7c0-0.6-0.1-1-0.3-1.3c-0.2-0.3-0.6-0.4-1.1-0.4c-0.6,0-1,0.2-1.4,0.5c-0.3,0.4-0.5,0.8-0.5,1.5v4.4h-2v-11.3h2v4.5
			c0.3-0.4,0.6-0.7,1.1-1C192,138.5,192.5,138.3,193.1,138.3L193.1,138.3z M200.7,138.3c1.1,0,1.9,0.3,2.4,0.8
			c0.5,0.5,0.8,1.4,0.8,2.5v4.8h-1.9v-1.2c-0.2,0.4-0.5,0.7-0.9,1c-0.4,0.2-0.8,0.4-1.4,0.4c-0.5,0-1-0.1-1.4-0.3
			c-0.4-0.2-0.8-0.5-1-0.9c-0.2-0.4-0.4-0.8-0.4-1.2c0-0.6,0.1-1,0.4-1.4c0.3-0.3,0.8-0.6,1.4-0.7c0.7-0.2,1.6-0.2,2.7-0.2h0.4v-0.4
			c0-0.5-0.1-0.9-0.3-1.2c-0.2-0.2-0.6-0.4-1.1-0.4c-0.4,0-0.9,0.1-1.3,0.2c-0.5,0.1-0.9,0.4-1.3,0.6l-0.6-1.4
			c0.4-0.3,1-0.5,1.6-0.7C199.5,138.4,200.1,138.4,200.7,138.3z M200.3,145.1c0.5,0,1-0.2,1.3-0.5c0.3-0.4,0.5-0.8,0.5-1.4v-0.3
			h-0.3c-0.7,0-1.3,0-1.7,0.1c-0.4,0.1-0.7,0.2-0.8,0.3c-0.2,0.2-0.3,0.4-0.3,0.7c0,0.3,0.1,0.6,0.4,0.8
			C199.6,144.9,199.9,145.1,200.3,145.1z M210.1,138.3c0.9,0,1.6,0.3,2.1,0.8c0.5,0.5,0.7,1.3,0.7,2.4v4.8h-2v-4.7
			c0-0.6-0.1-1-0.3-1.3c-0.2-0.3-0.6-0.4-1.1-0.4c-0.6,0-1,0.2-1.4,0.5c-0.3,0.4-0.5,0.8-0.5,1.5v4.4h-2v-7.8h2v1.2
			c0.3-0.4,0.6-0.8,1.1-1C209,138.5,209.5,138.3,210.1,138.3z M222,138.5v7.1c0,1.2-0.3,2.2-1,2.8c-0.7,0.6-1.7,0.9-3,0.9
			c-0.7,0-1.3-0.1-2-0.3c-0.6-0.2-1.1-0.4-1.6-0.7l0.6-1.4c1,0.6,2,0.9,3,0.9c1.4,0,2.1-0.7,2.1-2v-1c-0.2,0.4-0.6,0.8-1,1
			c-0.4,0.2-1,0.4-1.5,0.4c-0.7,0-1.3-0.2-1.8-0.5c-0.5-0.3-1-0.8-1.2-1.4c-0.3-0.6-0.4-1.3-0.4-2s0.1-1.4,0.4-2
			c0.3-0.6,0.7-1,1.2-1.4c0.5-0.3,1.1-0.5,1.8-0.5c0.6,0,1.1,0.1,1.5,0.4c0.4,0.2,0.8,0.6,1,1v-1.2H222z M218,144.6
			c0.6,0,1.1-0.2,1.5-0.6c0.4-0.4,0.5-1,0.5-1.7c0-0.7-0.2-1.3-0.5-1.7c-0.4-0.4-0.9-0.6-1.5-0.6c-0.6,0-1.1,0.2-1.5,0.6
			c-0.4,0.4-0.5,1-0.5,1.7c0,0.7,0.2,1.3,0.5,1.7C216.8,144.4,217.3,144.6,218,144.6z M230.4,142.8h-5.3c0.1,0.7,0.3,1.3,0.7,1.6
			c0.4,0.4,0.9,0.5,1.6,0.5c0.9,0,1.7-0.3,2.4-0.8l0.6,1.4c-0.4,0.3-0.8,0.5-1.4,0.7c-0.5,0.2-1.1,0.3-1.7,0.3c-1.3,0-2.3-0.4-3-1.1
			c-0.7-0.7-1.1-1.7-1.1-3c0-0.8,0.2-1.5,0.5-2.1c0.3-0.6,0.8-1.1,1.4-1.4c0.6-0.3,1.2-0.5,2-0.5c1.1,0,1.9,0.3,2.6,1
			c0.6,0.7,0.9,1.6,0.9,2.9L230.4,142.8L230.4,142.8z M227,139.8c-0.5,0-1,0.2-1.3,0.5c-0.3,0.3-0.5,0.8-0.6,1.5h3.6
			c0-0.7-0.2-1.1-0.5-1.5C227.9,139.9,227.5,139.8,227,139.8z"/>
	</g>
	<g transform="translate(938 538)">
		<path class="st5" d="M5,62h231.6c2.8,0,5,2.2,5,5v30c0,2.8-2.2,5-5,5H5c-2.8,0-5-2.2-5-5V67C0,64.2,2.2,62,5,62z"/>
		<path class="st4" d="M14.2,75.7h4.9c1.2,0,2.1,0.3,2.8,0.9c0.7,0.6,1,1.4,1,2.5c0,1.1-0.3,1.9-1,2.5c-0.7,0.6-1.6,0.9-2.8,0.9
			h-2.9V87h-2.1V75.7z M18.8,81c1.4,0,2.1-0.6,2.1-1.9c0-0.6-0.2-1.1-0.5-1.4s-0.9-0.5-1.6-0.5h-2.6V81H18.8z M29.7,80.7l-1.2,0.1
			c-1.3,0.1-2,0.8-2,2V87h-2v-7.8h1.9v1.4c0.4-0.9,1.2-1.5,2.5-1.5l0.6,0L29.7,80.7z M34.2,87.1c-0.8,0-1.5-0.2-2.1-0.5
			c-0.6-0.3-1.1-0.8-1.4-1.4c-0.3-0.6-0.5-1.3-0.5-2.2s0.2-1.5,0.5-2.2c0.3-0.6,0.8-1.1,1.4-1.4c0.6-0.3,1.3-0.5,2.1-0.5
			s1.5,0.2,2.1,0.5c0.6,0.3,1.1,0.8,1.4,1.4c0.3,0.6,0.5,1.3,0.5,2.2c0,0.8-0.2,1.5-0.5,2.2c-0.3,0.6-0.8,1.1-1.4,1.4
			C35.7,87,35,87.1,34.2,87.1z M34.2,85.6c0.7,0,1.1-0.2,1.5-0.6c0.3-0.4,0.5-1.1,0.5-1.9c0-0.8-0.2-1.4-0.5-1.9
			c-0.3-0.4-0.8-0.6-1.5-0.6s-1.1,0.2-1.5,0.6c-0.3,0.4-0.5,1.1-0.5,1.9c0,0.8,0.2,1.5,0.5,1.9C33.1,85.4,33.6,85.6,34.2,85.6z
			 M49.2,79c0.9,0,1.5,0.3,2,0.8c0.4,0.5,0.7,1.3,0.7,2.4V87h-2v-4.7c0-0.6-0.1-1-0.3-1.3c-0.2-0.3-0.5-0.4-1-0.4
			c-0.5,0-1,0.2-1.2,0.5c-0.3,0.4-0.4,0.9-0.4,1.5V87h-2v-4.7c0-0.6-0.1-1-0.3-1.3c-0.2-0.3-0.5-0.4-1-0.4c-0.5,0-0.9,0.2-1.2,0.5
			c-0.3,0.4-0.4,0.9-0.4,1.5V87h-2v-7.8h2v1.1c0.2-0.4,0.6-0.8,1-1c0.4-0.2,0.9-0.3,1.4-0.3c1.2,0,2,0.5,2.4,1.5
			c0.2-0.5,0.6-0.8,1.1-1.1C48.1,79.1,48.6,79,49.2,79z M57.4,87.1c-0.8,0-1.5-0.2-2.1-0.5c-0.6-0.3-1.1-0.8-1.4-1.4
			c-0.3-0.6-0.5-1.3-0.5-2.2s0.2-1.5,0.5-2.2c0.3-0.6,0.8-1.1,1.4-1.4c0.6-0.3,1.3-0.5,2.1-0.5s1.5,0.2,2.1,0.5
			c0.6,0.3,1.1,0.8,1.4,1.4c0.3,0.6,0.5,1.3,0.5,2.2c0,0.8-0.2,1.5-0.5,2.2c-0.3,0.6-0.8,1.1-1.4,1.4C58.9,87,58.2,87.1,57.4,87.1z
			 M57.4,85.6c0.7,0,1.1-0.2,1.5-0.6c0.3-0.4,0.5-1.1,0.5-1.9c0-0.8-0.2-1.4-0.5-1.9c-0.3-0.4-0.8-0.6-1.5-0.6s-1.1,0.2-1.5,0.6
			c-0.3,0.4-0.5,1.1-0.5,1.9c0,0.8,0.2,1.5,0.5,1.9C56.3,85.4,56.8,85.6,57.4,85.6z M67,85.6c0.2,0,0.5,0,0.7,0l-0.1,1.5
			c-0.3,0-0.6,0-0.9,0c-1.1,0-1.9-0.3-2.4-0.8c-0.5-0.5-0.8-1.3-0.8-2.3v-3.4h-1.5v-1.5h1.5v-2.3h2v2.3h2.1v1.5h-2.1v3.4
			C65.6,85.1,66.1,85.6,67,85.6z M75.8,83.5h-5.3c0.1,0.7,0.3,1.3,0.7,1.6c0.4,0.4,0.9,0.5,1.6,0.5c0.9,0,1.7-0.3,2.4-0.8l0.6,1.4
			c-0.4,0.3-0.8,0.5-1.4,0.7c-0.5,0.2-1.1,0.3-1.7,0.3c-1.3,0-2.3-0.4-3-1.1c-0.7-0.7-1.1-1.7-1.1-3c0-0.8,0.2-1.5,0.5-2.1
			c0.3-0.6,0.8-1.1,1.4-1.4c0.6-0.3,1.2-0.5,2-0.5c1.1,0,1.9,0.3,2.6,1s0.9,1.6,0.9,2.9C75.8,82.9,75.8,83.5,75.8,83.5z M72.4,80.4
			c-0.5,0-1,0.2-1.3,0.5c-0.3,0.3-0.5,0.8-0.6,1.5h3.6c0-0.7-0.2-1.1-0.5-1.5C73.3,80.6,72.9,80.4,72.4,80.4z M86.6,87.1
			c-1.5,0-2.7-0.4-3.5-1.2c-0.8-0.8-1.2-2-1.2-3.5v-6.7h2v6.8c0,1,0.2,1.7,0.7,2.2c0.5,0.5,1.1,0.7,2,0.7c0.9,0,1.5-0.2,2-0.8
			c0.5-0.5,0.7-1.2,0.7-2.2v-6.8h2v6.7c0,1.5-0.4,2.7-1.2,3.5C89.3,86.7,88.1,87.1,86.6,87.1L86.6,87.1z M96.4,87.1
			c-0.7,0-1.3-0.1-1.9-0.3c-0.6-0.2-1.1-0.4-1.5-0.7l0.6-1.4c0.8,0.6,1.8,0.9,2.9,0.9c0.5,0,0.8-0.1,1-0.2c0.2-0.2,0.4-0.4,0.4-0.6
			c0-0.2-0.1-0.4-0.2-0.5c-0.2-0.1-0.5-0.2-0.9-0.4l-1.3-0.3c-0.7-0.2-1.3-0.4-1.6-0.8s-0.5-0.8-0.5-1.4c0-0.5,0.1-0.9,0.4-1.3
			c0.3-0.4,0.7-0.7,1.1-0.9c0.5-0.2,1-0.3,1.7-0.3c0.5,0,1.1,0.1,1.6,0.3c0.5,0.2,1,0.4,1.4,0.7l-0.6,1.4c-0.8-0.6-1.6-0.9-2.4-0.9
			c-0.4,0-0.8,0.1-1,0.2c-0.2,0.1-0.4,0.4-0.4,0.7c0,0.2,0.1,0.4,0.2,0.5c0.2,0.1,0.4,0.2,0.7,0.3l1.3,0.3c0.8,0.2,1.3,0.4,1.7,0.8
			c0.4,0.4,0.5,0.9,0.5,1.4c0,0.7-0.3,1.3-0.9,1.7C98.2,86.9,97.4,87.1,96.4,87.1z M104.6,79c1.1,0,1.9,0.3,2.4,0.8
			c0.5,0.5,0.8,1.4,0.8,2.5V87H106v-1.2c-0.2,0.4-0.5,0.7-0.9,1c-0.4,0.2-0.8,0.4-1.4,0.4c-0.5,0-1-0.1-1.4-0.3
			c-0.4-0.2-0.8-0.5-1-0.9c-0.2-0.4-0.4-0.8-0.4-1.2c0-0.6,0.1-1,0.4-1.4c0.3-0.3,0.8-0.6,1.4-0.7c0.7-0.1,1.6-0.2,2.7-0.2h0.4V82
			c0-0.5-0.1-0.9-0.3-1.2c-0.2-0.2-0.6-0.4-1.1-0.4c-0.4,0-0.9,0.1-1.3,0.2c-0.5,0.1-0.9,0.4-1.3,0.6l-0.6-1.4
			c0.4-0.3,1-0.5,1.6-0.7C103.4,79.1,104,79,104.6,79z M104.2,85.7c0.5,0,1-0.2,1.3-0.5c0.3-0.4,0.5-0.8,0.5-1.4v-0.3h-0.3
			c-0.7,0-1.3,0-1.7,0.1c-0.4,0.1-0.7,0.2-0.8,0.3c-0.2,0.2-0.3,0.4-0.3,0.7c0,0.3,0.1,0.6,0.4,0.8
			C103.5,85.6,103.8,85.7,104.2,85.7z M117.5,79.2v7.1c0,1.2-0.3,2.2-1,2.8c-0.7,0.6-1.7,0.9-3,0.9c-0.7,0-1.3-0.1-2-0.3
			c-0.6-0.2-1.1-0.4-1.6-0.7l0.6-1.4c1,0.6,2,0.9,3,0.9c1.4,0,2.1-0.7,2.1-2v-1c-0.2,0.4-0.6,0.8-1,1c-0.4,0.2-1,0.4-1.5,0.4
			c-0.7,0-1.3-0.2-1.8-0.5c-0.5-0.3-1-0.8-1.2-1.4c-0.3-0.6-0.4-1.3-0.4-2s0.1-1.4,0.4-2c0.3-0.6,0.7-1,1.2-1.4
			c0.5-0.3,1.1-0.5,1.8-0.5c0.6,0,1.1,0.1,1.5,0.4c0.4,0.2,0.8,0.6,1,1v-1.2H117.5z M113.5,85.2c0.6,0,1.1-0.2,1.5-0.6
			c0.4-0.4,0.5-1,0.5-1.7c0-0.7-0.2-1.3-0.5-1.7c-0.4-0.4-0.9-0.6-1.5-0.6c-0.6,0-1.1,0.2-1.5,0.6c-0.4,0.4-0.5,1-0.5,1.7
			c0,0.7,0.2,1.3,0.5,1.7C112.4,85,112.9,85.2,113.5,85.2z M126.5,83.5h-5.3c0.1,0.7,0.3,1.3,0.7,1.6c0.4,0.4,0.9,0.5,1.6,0.5
			c0.9,0,1.7-0.3,2.4-0.8l0.6,1.4c-0.4,0.3-0.8,0.5-1.4,0.7c-0.5,0.2-1.1,0.3-1.7,0.3c-1.3,0-2.3-0.4-3-1.1c-0.7-0.7-1.1-1.7-1.1-3
			c0-0.8,0.2-1.5,0.5-2.1c0.3-0.6,0.8-1.1,1.4-1.4c0.6-0.3,1.2-0.5,2-0.5c1.1,0,1.9,0.3,2.6,1s0.9,1.6,0.9,2.9
			C126.4,82.9,126.4,83.5,126.5,83.5z M123,80.4c-0.5,0-1,0.2-1.3,0.5c-0.3,0.3-0.5,0.8-0.6,1.5h3.6c0-0.7-0.2-1.1-0.5-1.5
			C124,80.6,123.5,80.4,123,80.4z M136,87.1c-0.8,0-1.5-0.2-2.1-0.5c-0.6-0.3-1.1-0.8-1.4-1.4c-0.3-0.6-0.5-1.3-0.5-2.2
			s0.2-1.5,0.5-2.2c0.3-0.6,0.8-1.1,1.4-1.4c0.6-0.3,1.3-0.5,2.1-0.5s1.5,0.2,2.1,0.5c0.6,0.3,1.1,0.8,1.4,1.4
			c0.3,0.6,0.5,1.3,0.5,2.2c0,0.8-0.2,1.5-0.5,2.2c-0.3,0.6-0.8,1.1-1.4,1.4C137.5,87,136.8,87.1,136,87.1z M136,85.6
			c0.6,0,1.1-0.2,1.5-0.6c0.3-0.4,0.5-1.1,0.5-1.9c0-0.8-0.2-1.4-0.5-1.9c-0.3-0.4-0.8-0.6-1.5-0.6s-1.1,0.2-1.5,0.6
			c-0.3,0.4-0.5,1.1-0.5,1.9c0,0.8,0.2,1.5,0.5,1.9C134.8,85.4,135.3,85.6,136,85.6z M144.2,79.2h2.1v1.5h-2.1V87h-2v-6.3h-1.5v-1.5
			h1.5c0-1.1,0.3-2,0.9-2.5c0.6-0.6,1.5-0.9,2.7-0.9l0.8,0l0.1,1.5l-0.8,0c-0.6,0-1.1,0.2-1.3,0.4c-0.3,0.2-0.4,0.7-0.4,1.2
			L144.2,79.2L144.2,79.2z M161.3,80.9v5.4c-0.5,0.3-1.1,0.5-1.9,0.6c-0.7,0.2-1.5,0.2-2.2,0.2c-1.2,0-2.2-0.2-3-0.7
			c-0.8-0.5-1.5-1.1-2-2c-0.5-0.9-0.7-1.9-0.7-3.1c0-1.2,0.2-2.2,0.7-3.1c0.4-0.8,1.1-1.5,1.9-2c0.8-0.5,1.8-0.7,3-0.7
			c0.8,0,1.5,0.1,2.2,0.3c0.7,0.2,1.3,0.6,1.7,1l-0.7,1.5c-0.5-0.4-1-0.7-1.5-0.9c-0.5-0.2-1.1-0.3-1.7-0.3c-1.2,0-2,0.3-2.6,1
			c-0.6,0.7-0.9,1.7-0.9,3.1c0,2.8,1.2,4.2,3.6,4.2c0.7,0,1.4-0.1,2.2-0.3v-2.8H157v-1.5H161.3L161.3,80.9z M173,87h-2.2l-1.9-3.6
			c-0.2-0.3-0.4-0.6-0.7-0.7c-0.3-0.1-0.6-0.2-1-0.2h-1.6V87h-2V75.7h5c1.3,0,2.3,0.3,2.9,0.9c0.7,0.6,1,1.4,1,2.5
			c0,0.9-0.2,1.6-0.7,2.1c-0.5,0.6-1.2,0.9-2.1,1.1c0.6,0.2,1.1,0.6,1.4,1.3L173,87z M168.3,80.9c0.8,0,1.3-0.1,1.7-0.4
			c0.4-0.3,0.5-0.7,0.5-1.4c0-0.6-0.2-1.1-0.5-1.4c-0.4-0.3-0.9-0.4-1.7-0.4h-2.7v3.6H168.3z M174.7,87V75.7h2.1V87H174.7z
			 M179.2,75.7h4.2c1.8,0,3.3,0.5,4.3,1.5c1,1,1.5,2.4,1.5,4.2c0,1.8-0.5,3.2-1.5,4.2c-1,1-2.5,1.5-4.3,1.5h-4.2V75.7z M183.2,85.3
			c2.6,0,3.9-1.3,3.9-4c0-2.6-1.3-4-3.9-4h-2v7.9H183.2z"/>
	</g>
	<g transform="translate(938 478)">
		<path class="st5" d="M5,62h231.6c2.8,0,5,2.2,5,5v30c0,2.8-2.2,5-5,5H5c-2.8,0-5-2.2-5-5V67C0,64.2,2.2,62,5,62z"/>
		<path class="st4" d="M16.8,87v-9.6h-3.7v-1.7h9.4v1.7h-3.7V87H16.8z M28.3,79c0.9,0,1.6,0.3,2.1,0.8c0.5,0.5,0.7,1.3,0.7,2.4V87
			h-2v-4.7c0-0.6-0.1-1.1-0.3-1.3c-0.2-0.3-0.6-0.4-1.1-0.4c-0.6,0-1,0.2-1.4,0.5c-0.3,0.4-0.5,0.8-0.5,1.5V87h-2V75.7h2v4.5
			c0.3-0.4,0.6-0.7,1.1-1C27.3,79.1,27.8,79,28.3,79z M38.3,80.7l-1.2,0.1c-1.3,0.1-2,0.8-2,2V87h-2v-7.8h1.9v1.4
			c0.4-0.9,1.2-1.5,2.5-1.5l0.6,0L38.3,80.7z M46.1,83.5h-5.3c0.1,0.7,0.3,1.3,0.7,1.6c0.4,0.4,0.9,0.5,1.6,0.5
			c0.9,0,1.7-0.3,2.4-0.8l0.6,1.4c-0.4,0.3-0.8,0.5-1.4,0.7c-0.5,0.2-1.1,0.3-1.7,0.3c-1.3,0-2.3-0.4-3-1.1c-0.7-0.7-1.1-1.7-1.1-3
			c0-0.8,0.2-1.5,0.5-2.1c0.3-0.6,0.8-1.1,1.4-1.4c0.6-0.3,1.2-0.5,2-0.5c1.1,0,1.9,0.3,2.6,1c0.6,0.7,0.9,1.6,0.9,2.9V83.5z
			 M42.7,80.4c-0.5,0-1,0.2-1.3,0.5c-0.3,0.3-0.5,0.8-0.6,1.5h3.6c0-0.7-0.2-1.1-0.5-1.5C43.7,80.6,43.2,80.4,42.7,80.4z M54.6,83.5
			h-5.3c0.1,0.7,0.3,1.3,0.7,1.6c0.4,0.4,0.9,0.5,1.6,0.5c0.9,0,1.7-0.3,2.4-0.8l0.6,1.4c-0.4,0.3-0.8,0.5-1.4,0.7
			c-0.5,0.2-1.1,0.3-1.7,0.3c-1.3,0-2.3-0.4-3-1.1c-0.7-0.7-1.1-1.7-1.1-3c0-0.8,0.2-1.5,0.5-2.1c0.3-0.6,0.8-1.1,1.4-1.4
			c0.6-0.3,1.2-0.5,2-0.5c1.1,0,1.9,0.3,2.6,1c0.6,0.7,0.9,1.6,0.9,2.9V83.5z M51.2,80.4c-0.5,0-1,0.2-1.3,0.5
			c-0.3,0.3-0.5,0.8-0.6,1.5h3.6c0-0.7-0.2-1.1-0.5-1.5C52.2,80.6,51.7,80.4,51.2,80.4z M56.5,87V75.7h7.4v1.6h-5.4v3.1h5v1.6h-5V87
			H56.5z M68.9,87.1c-0.8,0-1.5-0.2-2.1-0.5c-0.6-0.3-1.1-0.8-1.4-1.4c-0.3-0.6-0.5-1.3-0.5-2.2s0.2-1.5,0.5-2.2
			c0.3-0.6,0.8-1.1,1.4-1.4c0.6-0.3,1.3-0.5,2.1-0.5s1.5,0.2,2.1,0.5c0.6,0.3,1.1,0.8,1.4,1.4c0.3,0.6,0.5,1.3,0.5,2.2
			c0,0.8-0.2,1.5-0.5,2.2c-0.3,0.6-0.8,1.1-1.4,1.4C70.4,87,69.7,87.1,68.9,87.1z M68.9,85.6c0.7,0,1.1-0.2,1.5-0.6
			c0.3-0.4,0.5-1.1,0.5-1.9c0-0.8-0.2-1.4-0.5-1.9c-0.3-0.4-0.8-0.6-1.5-0.6s-1.1,0.2-1.5,0.6c-0.3,0.4-0.5,1.1-0.5,1.9
			c0,0.8,0.2,1.5,0.5,1.9C67.8,85.4,68.2,85.6,68.9,85.6z M74.5,87V75.7h2V87H74.5z M86.1,75.7V87h-2v-1.3c-0.2,0.4-0.6,0.8-1,1
			c-0.4,0.2-0.9,0.4-1.5,0.4c-0.7,0-1.3-0.2-1.8-0.5c-0.5-0.3-0.9-0.8-1.2-1.4c-0.3-0.6-0.4-1.3-0.4-2.2c0-0.8,0.1-1.5,0.4-2.1
			c0.3-0.6,0.7-1.1,1.2-1.4c0.5-0.3,1.1-0.5,1.8-0.5c0.6,0,1.1,0.1,1.5,0.4c0.4,0.2,0.8,0.6,1,1v-4.6C84.1,75.7,86.1,75.7,86.1,75.7
			z M82.2,85.6c0.6,0,1.1-0.2,1.5-0.7c0.3-0.4,0.5-1.1,0.5-1.9c0-0.8-0.2-1.4-0.5-1.9c-0.3-0.4-0.8-0.6-1.5-0.6
			c-0.6,0-1.1,0.2-1.5,0.6c-0.4,0.4-0.5,1-0.5,1.8c0,0.8,0.2,1.4,0.5,1.9S81.5,85.6,82.2,85.6z M92.7,87V75.7h2.1V87H92.7z
			 M106.3,79c0.9,0,1.5,0.3,2,0.8c0.4,0.5,0.7,1.3,0.7,2.4V87h-2v-4.7c0-0.6-0.1-1-0.3-1.3c-0.2-0.3-0.5-0.4-1-0.4
			c-0.5,0-0.9,0.2-1.2,0.5c-0.3,0.4-0.4,0.9-0.4,1.5V87h-2v-4.7c0-0.6-0.1-1-0.3-1.3c-0.2-0.3-0.5-0.4-1-0.4c-0.5,0-0.9,0.2-1.2,0.5
			C99.2,81.5,99,82,99,82.6V87h-2v-7.8h2v1.1c0.2-0.4,0.6-0.8,1-1c0.4-0.2,0.9-0.3,1.4-0.3c1.2,0,2,0.5,2.4,1.5
			c0.2-0.5,0.6-0.8,1.1-1.1C105.3,79.1,105.8,79,106.3,79z M115.5,79c0.7,0,1.3,0.2,1.8,0.5c0.5,0.3,0.9,0.8,1.2,1.4
			c0.3,0.6,0.4,1.3,0.4,2.2c0,0.8-0.1,1.5-0.4,2.1c-0.3,0.6-0.7,1.1-1.2,1.4c-0.5,0.3-1.1,0.5-1.8,0.5c-0.6,0-1.1-0.1-1.5-0.4
			c-0.4-0.2-0.8-0.6-1-1v4.1h-2V79.2h2v1.2c0.2-0.4,0.6-0.8,1-1C114.4,79.1,114.9,79,115.5,79z M115,85.6c0.6,0,1.1-0.2,1.5-0.6
			s0.5-1,0.5-1.8c0-0.8-0.2-1.4-0.5-1.9s-0.8-0.7-1.5-0.7c-0.6,0-1.1,0.2-1.5,0.7c-0.3,0.4-0.5,1.1-0.5,1.9c0,0.8,0.2,1.4,0.5,1.9
			C113.8,85.4,114.3,85.6,115,85.6z M124,79c1.1,0,1.9,0.3,2.4,0.8c0.5,0.5,0.8,1.4,0.8,2.5V87h-1.9v-1.2c-0.2,0.4-0.5,0.7-0.9,1
			c-0.4,0.2-0.8,0.4-1.4,0.4c-0.5,0-1-0.1-1.4-0.3c-0.4-0.2-0.8-0.5-1-0.9c-0.2-0.4-0.4-0.8-0.4-1.2c0-0.6,0.1-1,0.4-1.4
			c0.3-0.3,0.8-0.6,1.4-0.7c0.7-0.1,1.6-0.2,2.7-0.2h0.4V82c0-0.5-0.1-0.9-0.3-1.2c-0.2-0.2-0.6-0.4-1.1-0.4c-0.4,0-0.9,0.1-1.3,0.2
			c-0.5,0.1-0.9,0.4-1.3,0.6l-0.6-1.4c0.4-0.3,1-0.5,1.6-0.7C122.8,79.1,123.4,79,124,79z M123.5,85.7c0.5,0,1-0.2,1.3-0.5
			c0.3-0.4,0.5-0.8,0.5-1.4v-0.3H125c-0.7,0-1.3,0-1.7,0.1c-0.4,0.1-0.7,0.2-0.8,0.3c-0.2,0.2-0.3,0.4-0.3,0.7
			c0,0.3,0.1,0.6,0.4,0.8C122.9,85.6,123.2,85.7,123.5,85.7z M132.8,87.1c-0.8,0-1.5-0.2-2.1-0.5c-0.6-0.3-1.1-0.8-1.4-1.4
			c-0.3-0.6-0.5-1.3-0.5-2.1c0-0.8,0.2-1.5,0.5-2.2c0.3-0.6,0.8-1.1,1.4-1.4c0.6-0.3,1.3-0.5,2.1-0.5c0.6,0,1.1,0.1,1.6,0.3
			c0.5,0.2,1,0.4,1.3,0.7l-0.6,1.4c-0.3-0.3-0.7-0.5-1-0.6c-0.3-0.1-0.7-0.2-1.1-0.2c-0.7,0-1.2,0.2-1.6,0.6s-0.6,1.1-0.6,1.9
			c0,0.8,0.2,1.4,0.6,1.8s0.9,0.6,1.6,0.6c0.4,0,0.7-0.1,1.1-0.2c0.4-0.1,0.7-0.4,1-0.6l0.6,1.4c-0.3,0.3-0.8,0.6-1.3,0.7
			C134,87,133.4,87.1,132.8,87.1z M141.1,85.6c0.2,0,0.5,0,0.7,0l-0.1,1.5c-0.3,0-0.6,0-0.9,0c-1.1,0-1.9-0.3-2.4-0.8
			c-0.5-0.5-0.8-1.3-0.8-2.3v-3.4h-1.5v-1.5h1.5v-2.3h2v2.3h2.1v1.5h-2.1v3.4C139.6,85.1,140.1,85.6,141.1,85.6L141.1,85.6z
			 M147.5,87V75.7h7.4v1.6h-5.4v3.1h5v1.6h-5V87H147.5z M163.6,79.2V87h-2v-1.2c-0.2,0.4-0.6,0.8-1,1c-0.4,0.2-0.9,0.3-1.4,0.3
			c-1.9,0-2.9-1.1-2.9-3.2v-4.7h2v4.7c0,0.6,0.1,1,0.3,1.2c0.2,0.3,0.6,0.4,1.1,0.4c0.6,0,1-0.2,1.3-0.6c0.3-0.4,0.5-0.9,0.5-1.5
			v-4.4H163.6L163.6,79.2z M170.2,79c0.9,0,1.6,0.3,2.1,0.8c0.5,0.5,0.7,1.3,0.7,2.4V87h-2v-4.7c0-0.6-0.1-1.1-0.3-1.3
			c-0.2-0.3-0.6-0.4-1.1-0.4c-0.6,0-1,0.2-1.4,0.5c-0.3,0.4-0.5,0.8-0.5,1.5V87h-2v-7.8h2v1.2c0.3-0.4,0.6-0.8,1.1-1
			C169.1,79.1,169.7,79,170.2,79z M182.5,75.7V87h-2v-1.3c-0.2,0.4-0.6,0.8-1,1c-0.4,0.2-0.9,0.4-1.5,0.4c-0.7,0-1.3-0.2-1.8-0.5
			c-0.5-0.3-0.9-0.8-1.2-1.4c-0.3-0.6-0.4-1.3-0.4-2.2c0-0.8,0.1-1.5,0.4-2.1c0.3-0.6,0.7-1.1,1.2-1.4c0.5-0.3,1.1-0.5,1.8-0.5
			c0.6,0,1.1,0.1,1.5,0.4c0.4,0.2,0.8,0.6,1,1v-4.6H182.5z M178.6,85.6c0.6,0,1.1-0.2,1.5-0.7c0.3-0.4,0.5-1.1,0.5-1.9
			c0-0.8-0.2-1.4-0.5-1.9c-0.3-0.4-0.8-0.6-1.5-0.6c-0.6,0-1.1,0.2-1.5,0.6c-0.4,0.4-0.5,1-0.5,1.8c0,0.8,0.2,1.4,0.5,1.9
			S177.9,85.6,178.6,85.6L178.6,85.6z"/>
	</g>
	<g transform="translate(938 418)">
		<path class="st5" d="M5,62h231.6c2.8,0,5,2.2,5,5v30c0,2.8-2.2,5-5,5H5c-2.8,0-5-2.2-5-5V67C0,64.2,2.2,62,5,62z"/>
		<path class="st4" d="M23.6,80.9v5.4c-0.5,0.3-1.1,0.5-1.9,0.6c-0.7,0.2-1.5,0.2-2.2,0.2c-1.2,0-2.2-0.2-3-0.7
			c-0.8-0.5-1.5-1.1-2-2c-0.5-0.9-0.7-1.9-0.7-3.1c0-1.2,0.2-2.2,0.7-3.1c0.4-0.8,1.1-1.5,1.9-2c0.8-0.5,1.8-0.7,3-0.7
			c0.8,0,1.5,0.1,2.2,0.3c0.7,0.2,1.3,0.6,1.7,1l-0.7,1.5c-0.5-0.4-1-0.7-1.5-0.9c-0.5-0.2-1.1-0.3-1.7-0.3c-1.2,0-2,0.3-2.6,1
			c-0.6,0.7-0.9,1.7-0.9,3.1c0,2.8,1.2,4.2,3.6,4.2c0.7,0,1.5-0.1,2.2-0.3v-2.8h-2.4v-1.5H23.6z M30.9,80.7l-1.2,0.1
			c-1.3,0.1-2,0.8-2,2V87h-2v-7.8h1.9v1.4c0.4-0.9,1.2-1.5,2.5-1.5l0.6,0L30.9,80.7z M31.8,87v-7.8h2V87H31.8z M31.7,75.5h2.2v2
			h-2.2V75.5z M43.5,75.7V87h-2v-1.3c-0.2,0.4-0.6,0.8-1,1c-0.4,0.2-0.9,0.4-1.5,0.4c-0.7,0-1.3-0.2-1.8-0.5
			c-0.5-0.3-0.9-0.8-1.2-1.4c-0.3-0.6-0.4-1.3-0.4-2.2c0-0.8,0.1-1.5,0.4-2.1c0.3-0.6,0.7-1.1,1.2-1.4c0.5-0.3,1.1-0.5,1.8-0.5
			c0.6,0,1.1,0.1,1.5,0.4c0.4,0.2,0.8,0.6,1,1v-4.6H43.5z M39.5,85.6c0.6,0,1.1-0.2,1.5-0.7c0.3-0.4,0.5-1.1,0.5-1.9
			c0-0.8-0.2-1.4-0.5-1.9c-0.3-0.4-0.8-0.6-1.5-0.6c-0.6,0-1.1,0.2-1.5,0.6c-0.4,0.4-0.5,1-0.5,1.8c0,0.8,0.2,1.4,0.5,1.9
			S38.8,85.6,39.5,85.6z M50,75.7h4.2c1.8,0,3.3,0.5,4.3,1.5c1,1,1.5,2.4,1.5,4.2c0,1.8-0.5,3.2-1.5,4.2c-1,1-2.5,1.5-4.3,1.5H50
			V75.7z M54.1,85.3c2.6,0,3.9-1.3,3.9-4c0-2.6-1.3-4-3.9-4h-2v7.9H54.1z M68.8,83.5h-5.3c0.1,0.7,0.3,1.3,0.7,1.6
			c0.4,0.4,0.9,0.5,1.6,0.5c0.9,0,1.7-0.3,2.4-0.8l0.6,1.4c-0.4,0.3-0.8,0.5-1.4,0.7c-0.5,0.2-1.1,0.3-1.7,0.3c-1.3,0-2.3-0.4-3-1.1
			c-0.7-0.7-1.1-1.7-1.1-3c0-0.8,0.2-1.5,0.5-2.1c0.3-0.6,0.8-1.1,1.4-1.4c0.6-0.3,1.2-0.5,2-0.5c1.1,0,1.9,0.3,2.6,1
			s0.9,1.6,0.9,2.9L68.8,83.5z M65.3,80.4c-0.5,0-1,0.2-1.3,0.5c-0.3,0.3-0.5,0.8-0.6,1.5h3.6c0-0.7-0.2-1.1-0.5-1.5
			C66.3,80.6,65.9,80.4,65.3,80.4z M75.9,79.2h2L74.4,87h-1.7l-3.4-7.8h2.1l2.2,5.5L75.9,79.2z M85.7,83.5h-5.3
			c0.1,0.7,0.3,1.3,0.7,1.6c0.4,0.4,0.9,0.5,1.6,0.5c0.9,0,1.7-0.3,2.4-0.8l0.6,1.4c-0.4,0.3-0.8,0.5-1.4,0.7
			c-0.5,0.2-1.1,0.3-1.7,0.3c-1.3,0-2.3-0.4-3-1.1c-0.7-0.7-1.1-1.7-1.1-3c0-0.8,0.2-1.5,0.5-2.1c0.3-0.6,0.8-1.1,1.4-1.4
			c0.6-0.3,1.2-0.5,2-0.5c1.1,0,1.9,0.3,2.6,1s0.9,1.6,0.9,2.9V83.5z M82.3,80.4c-0.5,0-1,0.2-1.3,0.5c-0.3,0.3-0.5,0.8-0.6,1.5H84
			c0-0.7-0.2-1.1-0.5-1.5C83.2,80.6,82.8,80.4,82.3,80.4z M87.3,87V75.7h2V87H87.3z M95,87.1c-0.8,0-1.5-0.2-2.1-0.5
			c-0.6-0.3-1.1-0.8-1.4-1.4c-0.3-0.6-0.5-1.3-0.5-2.2s0.2-1.5,0.5-2.2c0.3-0.6,0.8-1.1,1.4-1.4c0.6-0.3,1.3-0.5,2.1-0.5
			s1.5,0.2,2.1,0.5c0.6,0.3,1.1,0.8,1.4,1.4c0.3,0.6,0.5,1.3,0.5,2.2c0,0.8-0.2,1.5-0.5,2.2c-0.3,0.6-0.8,1.1-1.4,1.4
			C96.5,87,95.8,87.1,95,87.1z M94.9,85.6c0.7,0,1.1-0.2,1.5-0.6c0.3-0.4,0.5-1.1,0.5-1.9c0-0.8-0.2-1.4-0.5-1.9
			c-0.3-0.4-0.8-0.6-1.5-0.6s-1.1,0.2-1.5,0.6c-0.3,0.4-0.5,1.1-0.5,1.9c0,0.8,0.2,1.5,0.5,1.9C93.8,85.4,94.3,85.6,94.9,85.6z
			 M105.1,79c0.7,0,1.3,0.2,1.8,0.5c0.5,0.3,0.9,0.8,1.2,1.4c0.3,0.6,0.4,1.3,0.4,2.2c0,0.8-0.1,1.5-0.4,2.1
			c-0.3,0.6-0.7,1.1-1.2,1.4c-0.5,0.3-1.1,0.5-1.8,0.5c-0.6,0-1.1-0.1-1.5-0.4c-0.4-0.2-0.8-0.6-1-1v4.1h-2V79.2h2v1.2
			c0.2-0.4,0.6-0.8,1-1C104,79.1,104.5,79,105.1,79z M104.6,85.6c0.6,0,1.1-0.2,1.5-0.6s0.5-1,0.5-1.8c0-0.8-0.2-1.4-0.5-1.9
			s-0.8-0.7-1.5-0.7c-0.6,0-1.1,0.2-1.5,0.7c-0.3,0.4-0.5,1.1-0.5,1.9c0,0.8,0.2,1.4,0.5,1.9C103.4,85.4,103.9,85.6,104.6,85.6z
			 M117.1,83.5h-5.3c0.1,0.7,0.3,1.3,0.7,1.6c0.4,0.4,0.9,0.5,1.6,0.5c0.9,0,1.7-0.3,2.4-0.8l0.6,1.4c-0.4,0.3-0.8,0.5-1.4,0.7
			c-0.5,0.2-1.1,0.3-1.7,0.3c-1.3,0-2.3-0.4-3-1.1c-0.7-0.7-1.1-1.7-1.1-3c0-0.8,0.2-1.5,0.5-2.1c0.3-0.6,0.8-1.1,1.4-1.4
			c0.6-0.3,1.2-0.5,2-0.5c1.1,0,1.9,0.3,2.6,1s0.9,1.6,0.9,2.9L117.1,83.5L117.1,83.5z M113.6,80.4c-0.5,0-1,0.2-1.3,0.5
			c-0.3,0.3-0.5,0.8-0.6,1.5h3.6c0-0.7-0.2-1.1-0.5-1.5C114.6,80.6,114.2,80.4,113.6,80.4z M123.9,80.7l-1.2,0.1c-1.3,0.1-2,0.8-2,2
			V87h-2v-7.8h1.9v1.4c0.4-0.9,1.2-1.5,2.5-1.5l0.6,0L123.9,80.7z M127.7,87.1c-0.7,0-1.3-0.1-1.9-0.3c-0.6-0.2-1.1-0.4-1.5-0.7
			l0.6-1.4c0.8,0.6,1.8,0.9,2.9,0.9c0.5,0,0.8-0.1,1-0.2c0.2-0.2,0.4-0.4,0.4-0.6c0-0.2-0.1-0.4-0.2-0.5c-0.2-0.1-0.5-0.2-0.9-0.4
			l-1.3-0.3c-0.7-0.2-1.3-0.4-1.6-0.8c-0.4-0.4-0.5-0.8-0.5-1.4c0-0.5,0.1-0.9,0.4-1.3c0.3-0.4,0.7-0.7,1.1-0.9
			c0.5-0.2,1-0.3,1.7-0.3c0.5,0,1.1,0.1,1.6,0.3c0.5,0.2,1,0.4,1.4,0.7l-0.6,1.4c-0.8-0.6-1.6-0.9-2.4-0.9c-0.4,0-0.8,0.1-1,0.2
			c-0.2,0.1-0.4,0.4-0.4,0.7c0,0.2,0.1,0.4,0.2,0.5c0.2,0.1,0.4,0.2,0.7,0.3l1.3,0.3c0.8,0.2,1.3,0.4,1.7,0.8
			c0.4,0.4,0.5,0.8,0.5,1.4c0,0.7-0.3,1.3-0.9,1.7C129.5,86.9,128.7,87.1,127.7,87.1z M137.1,75.7h4.9c1.2,0,2.1,0.3,2.8,0.9
			c0.7,0.6,1,1.4,1,2.5c0,1.1-0.3,1.9-1,2.5s-1.6,0.9-2.8,0.9h-2.9V87h-2.1V75.7z M141.8,81c1.4,0,2.1-0.6,2.1-1.9
			c0-0.6-0.2-1.1-0.5-1.4s-0.9-0.5-1.6-0.5h-2.6V81H141.8z M152.6,80.7l-1.2,0.1c-1.3,0.1-2,0.8-2,2V87h-2v-7.8h1.9v1.4
			c0.4-0.9,1.2-1.5,2.5-1.5l0.6,0L152.6,80.7L152.6,80.7z M157.2,87.1c-0.8,0-1.5-0.2-2.1-0.5c-0.6-0.3-1.1-0.8-1.4-1.4
			c-0.3-0.6-0.5-1.3-0.5-2.2s0.2-1.5,0.5-2.2c0.3-0.6,0.8-1.1,1.4-1.4c0.6-0.3,1.3-0.5,2.1-0.5s1.5,0.2,2.1,0.5
			c0.6,0.3,1.1,0.8,1.4,1.4c0.3,0.6,0.5,1.3,0.5,2.2c0,0.8-0.2,1.5-0.5,2.2c-0.3,0.6-0.8,1.1-1.4,1.4C158.7,87,158,87.1,157.2,87.1z
			 M157.2,85.6c0.6,0,1.1-0.2,1.5-0.6c0.3-0.4,0.5-1.1,0.5-1.9c0-0.8-0.2-1.4-0.5-1.9c-0.3-0.4-0.8-0.6-1.5-0.6s-1.1,0.2-1.5,0.6
			c-0.3,0.4-0.5,1.1-0.5,1.9c0,0.8,0.2,1.5,0.5,1.9C156,85.4,156.5,85.6,157.2,85.6z M172.1,79c0.9,0,1.5,0.3,2,0.8
			c0.4,0.5,0.7,1.3,0.7,2.4V87h-2v-4.7c0-0.6-0.1-1-0.3-1.3c-0.2-0.3-0.5-0.4-1-0.4c-0.5,0-0.9,0.2-1.2,0.5
			c-0.3,0.4-0.4,0.9-0.4,1.5V87h-2v-4.7c0-0.6-0.1-1-0.3-1.3c-0.2-0.3-0.5-0.4-1-0.4c-0.5,0-0.9,0.2-1.2,0.5
			c-0.3,0.4-0.4,0.9-0.4,1.5V87h-2v-7.8h2v1.1c0.2-0.4,0.6-0.8,1-1c0.4-0.2,0.9-0.3,1.4-0.3c1.2,0,2,0.5,2.4,1.5
			c0.2-0.5,0.6-0.8,1.1-1.1C171,79.1,171.5,79,172.1,79z M180.4,87.1c-0.8,0-1.5-0.2-2.1-0.5c-0.6-0.3-1.1-0.8-1.4-1.4
			c-0.3-0.6-0.5-1.3-0.5-2.2s0.2-1.5,0.5-2.2c0.3-0.6,0.8-1.1,1.4-1.4c0.6-0.3,1.3-0.5,2.1-0.5s1.5,0.2,2.1,0.5
			c0.6,0.3,1.1,0.8,1.4,1.4c0.3,0.6,0.5,1.3,0.5,2.2c0,0.8-0.2,1.5-0.5,2.2c-0.3,0.6-0.8,1.1-1.4,1.4
			C181.9,87,181.2,87.1,180.4,87.1z M180.3,85.6c0.6,0,1.1-0.2,1.5-0.6c0.3-0.4,0.5-1.1,0.5-1.9c0-0.8-0.2-1.4-0.5-1.9
			c-0.3-0.4-0.8-0.6-1.5-0.6s-1.1,0.2-1.5,0.6c-0.3,0.4-0.5,1.1-0.5,1.9c0,0.8,0.2,1.5,0.5,1.9C179.2,85.4,179.7,85.6,180.3,85.6z
			 M190,85.6c0.2,0,0.5,0,0.7,0l-0.1,1.5c-0.3,0-0.6,0-0.9,0c-1.1,0-1.9-0.3-2.4-0.8c-0.5-0.5-0.8-1.3-0.8-2.3v-3.4H185v-1.5h1.5
			v-2.3h2v2.3h2.1v1.5h-2.1v3.4C188.5,85.1,189,85.6,190,85.6L190,85.6z M191.9,87v-7.8h2V87H191.9z M191.8,75.5h2.2v2h-2.2V75.5z
			 M199.5,87.1c-0.8,0-1.5-0.2-2.1-0.5c-0.6-0.3-1.1-0.8-1.4-1.4c-0.3-0.6-0.5-1.3-0.5-2.2s0.2-1.5,0.5-2.2c0.3-0.6,0.8-1.1,1.4-1.4
			c0.6-0.3,1.3-0.5,2.1-0.5s1.5,0.2,2.1,0.5c0.6,0.3,1.1,0.8,1.4,1.4c0.3,0.6,0.5,1.3,0.5,2.2c0,0.8-0.2,1.5-0.5,2.2
			c-0.3,0.6-0.8,1.1-1.4,1.4C201,87,200.3,87.1,199.5,87.1z M199.5,85.6c0.6,0,1.1-0.2,1.5-0.6c0.3-0.4,0.5-1.1,0.5-1.9
			c0-0.8-0.2-1.4-0.5-1.9c-0.3-0.4-0.8-0.6-1.5-0.6s-1.1,0.2-1.5,0.6c-0.3,0.4-0.5,1.1-0.5,1.9c0,0.8,0.2,1.5,0.5,1.9
			C198.4,85.4,198.9,85.6,199.5,85.6z M209.7,79c0.9,0,1.6,0.3,2.1,0.8c0.5,0.5,0.7,1.3,0.7,2.4V87h-2v-4.7c0-0.6-0.1-1.1-0.3-1.3
			c-0.2-0.3-0.6-0.4-1.1-0.4c-0.6,0-1,0.2-1.4,0.5c-0.3,0.4-0.5,0.8-0.5,1.5V87h-2v-7.8h2v1.2c0.3-0.4,0.6-0.8,1.1-1
			C208.6,79.1,209.2,79,209.7,79z"/>
	</g>
	<g transform="translate(938 298)">
		<path class="st5" d="M5,121.4h231.6c2.8,0,5,2.2,5,5v30c0,2.8-2.2,5-5,5H5c-2.8,0-5-2.2-5-5v-30C0,123.6,2.2,121.4,5,121.4z"/>
		<path class="st5" d="M5,121.4h231.6c2.8,0,5,2.2,5,5v30c0,2.8-2.2,5-5,5H5c-2.8,0-5-2.2-5-5v-30C0,123.6,2.2,121.4,5,121.4z"/>
		<path class="st4" d="M16.8,146.4v-9.6h-3.7v-1.7h9.4v1.7h-3.7v9.6H16.8z M28.3,138.3c0.9,0,1.6,0.3,2.1,0.8
			c0.5,0.5,0.7,1.3,0.7,2.4v4.8h-2v-4.7c0-0.6-0.1-1-0.3-1.3c-0.2-0.3-0.6-0.4-1.1-0.4c-0.6,0-1,0.2-1.4,0.5
			c-0.3,0.4-0.5,0.8-0.5,1.5v4.4h-2v-11.3h2v4.5c0.3-0.4,0.6-0.7,1.1-1C27.3,138.5,27.8,138.3,28.3,138.3z M38.3,140l-1.2,0.1
			c-1.3,0.1-2,0.8-2,2v4.2h-2v-7.8h1.9v1.4c0.4-0.9,1.2-1.4,2.5-1.5l0.6,0L38.3,140z M46.1,142.8h-5.3c0.1,0.7,0.3,1.3,0.7,1.6
			c0.4,0.4,0.9,0.5,1.6,0.5c0.9,0,1.7-0.3,2.4-0.8l0.6,1.4c-0.4,0.3-0.8,0.5-1.4,0.7c-0.5,0.2-1.1,0.3-1.7,0.3c-1.3,0-2.3-0.4-3-1.1
			c-0.7-0.7-1.1-1.7-1.1-3c0-0.8,0.2-1.5,0.5-2.1c0.3-0.6,0.8-1.1,1.4-1.4c0.6-0.3,1.2-0.5,2-0.5c1.1,0,1.9,0.3,2.6,1
			c0.6,0.7,0.9,1.6,0.9,2.9V142.8z M42.7,139.8c-0.5,0-1,0.2-1.3,0.5c-0.3,0.3-0.5,0.8-0.6,1.5h3.6c0-0.7-0.2-1.1-0.5-1.5
			C43.7,139.9,43.2,139.8,42.7,139.8z M54.6,142.8h-5.3c0.1,0.7,0.3,1.3,0.7,1.6c0.4,0.4,0.9,0.5,1.6,0.5c0.9,0,1.7-0.3,2.4-0.8
			l0.6,1.4c-0.4,0.3-0.8,0.5-1.4,0.7c-0.5,0.2-1.1,0.3-1.7,0.3c-1.3,0-2.3-0.4-3-1.1c-0.7-0.7-1.1-1.7-1.1-3c0-0.8,0.2-1.5,0.5-2.1
			c0.3-0.6,0.8-1.1,1.4-1.4c0.6-0.3,1.2-0.5,2-0.5c1.1,0,1.9,0.3,2.6,1c0.6,0.7,0.9,1.6,0.9,2.9V142.8z M51.2,139.8
			c-0.5,0-1,0.2-1.3,0.5c-0.3,0.3-0.5,0.8-0.6,1.5h3.6c0-0.7-0.2-1.1-0.5-1.5C52.2,139.9,51.7,139.8,51.2,139.8z M56.5,146.4v-11.3
			h7.4v1.6h-5.4v3.1h5v1.6h-5v4.9H56.5z M68.9,146.5c-0.8,0-1.5-0.2-2.1-0.5c-0.6-0.3-1.1-0.8-1.4-1.4c-0.3-0.6-0.5-1.3-0.5-2.2
			s0.2-1.5,0.5-2.2c0.3-0.6,0.8-1.1,1.4-1.4c0.6-0.3,1.3-0.5,2.1-0.5s1.5,0.2,2.1,0.5c0.6,0.3,1.1,0.8,1.4,1.4
			c0.3,0.6,0.5,1.3,0.5,2.2c0,0.8-0.2,1.5-0.5,2.2c-0.3,0.6-0.8,1.1-1.4,1.4C70.4,146.3,69.7,146.5,68.9,146.5z M68.9,144.9
			c0.7,0,1.1-0.2,1.5-0.6c0.3-0.4,0.5-1.1,0.5-1.9c0-0.8-0.2-1.4-0.5-1.9c-0.3-0.4-0.8-0.6-1.5-0.6s-1.1,0.2-1.5,0.6
			c-0.3,0.4-0.5,1.1-0.5,1.9c0,0.8,0.2,1.5,0.5,1.9C67.8,144.7,68.2,144.9,68.9,144.9z M74.5,146.4v-11.3h2v11.3H74.5z M86.1,135.1
			v11.3h-2v-1.3c-0.2,0.4-0.6,0.8-1,1c-0.4,0.2-0.9,0.4-1.5,0.4c-0.7,0-1.3-0.2-1.8-0.5c-0.5-0.3-0.9-0.8-1.2-1.4
			c-0.3-0.6-0.4-1.3-0.4-2.2c0-0.8,0.1-1.5,0.4-2.1c0.3-0.6,0.7-1.1,1.2-1.4c0.5-0.3,1.1-0.5,1.8-0.5c0.6,0,1.1,0.1,1.5,0.4
			c0.4,0.2,0.8,0.6,1,1v-4.6C84.1,135.1,86.1,135.1,86.1,135.1z M82.2,144.9c0.6,0,1.1-0.2,1.5-0.7c0.3-0.4,0.5-1.1,0.5-1.9
			c0-0.8-0.2-1.4-0.5-1.9c-0.3-0.4-0.8-0.6-1.5-0.6c-0.6,0-1.1,0.2-1.5,0.6s-0.5,1-0.5,1.8c0,0.8,0.2,1.4,0.5,1.9
			C81,144.7,81.5,144.9,82.2,144.9z M92.7,146.4v-11.3h2.1v11.3H92.7z M101.6,138.3c0.9,0,1.6,0.3,2.1,0.8c0.5,0.5,0.7,1.3,0.7,2.4
			v4.8h-2v-4.7c0-0.6-0.1-1-0.3-1.3c-0.2-0.3-0.6-0.4-1.1-0.4c-0.6,0-1,0.2-1.4,0.5c-0.3,0.4-0.5,0.8-0.5,1.5v4.4h-2v-7.8h2v1.2
			c0.3-0.4,0.6-0.8,1.1-1C100.5,138.5,101.1,138.3,101.6,138.3z M110,146.5c-0.8,0-1.5-0.2-2.1-0.5c-0.6-0.3-1.1-0.8-1.4-1.4
			c-0.3-0.6-0.5-1.3-0.5-2.1c0-0.8,0.2-1.5,0.5-2.2c0.3-0.6,0.8-1.1,1.4-1.4c0.6-0.3,1.3-0.5,2.1-0.5c0.6,0,1.1,0.1,1.6,0.3
			c0.5,0.2,1,0.4,1.3,0.7l-0.6,1.4c-0.3-0.3-0.7-0.5-1-0.6c-0.3-0.1-0.7-0.2-1.1-0.2c-0.7,0-1.2,0.2-1.6,0.6
			c-0.4,0.4-0.6,1.1-0.6,1.9c0,0.8,0.2,1.4,0.6,1.8c0.4,0.4,0.9,0.6,1.6,0.6c0.4,0,0.7-0.1,1.1-0.2c0.4-0.1,0.7-0.4,1-0.6l0.6,1.4
			c-0.3,0.3-0.8,0.6-1.3,0.7C111.1,146.4,110.5,146.5,110,146.5z M121.4,138.5v7.8h-2v-1.2c-0.2,0.4-0.6,0.8-1,1
			c-0.4,0.2-0.9,0.3-1.4,0.3c-1.9,0-2.9-1.1-2.9-3.2v-4.7h2v4.7c0,0.6,0.1,1,0.3,1.2s0.6,0.4,1.1,0.4c0.6,0,1-0.2,1.3-0.6
			c0.3-0.4,0.5-0.9,0.5-1.5v-4.4L121.4,138.5z M128,138.3c0.7,0,1.3,0.2,1.8,0.5c0.5,0.3,0.9,0.8,1.2,1.4c0.3,0.6,0.4,1.3,0.4,2.1
			c0,0.8-0.1,1.5-0.4,2.2c-0.3,0.6-0.7,1.1-1.2,1.4c-0.5,0.3-1.2,0.5-1.8,0.5c-0.6,0-1.1-0.1-1.5-0.4c-0.4-0.2-0.8-0.6-1-1v1.3h-2
			v-11.3h2v4.6c0.2-0.4,0.6-0.8,1-1C126.9,138.5,127.4,138.3,128,138.3z M127.4,144.9c0.6,0,1.1-0.2,1.5-0.7s0.5-1.1,0.5-1.9
			c0-0.8-0.2-1.4-0.5-1.8c-0.3-0.4-0.8-0.6-1.5-0.6s-1.1,0.2-1.5,0.6c-0.3,0.4-0.5,1.1-0.5,1.9c0,0.8,0.2,1.4,0.5,1.9
			C126.3,144.7,126.8,144.9,127.4,144.9z M136.4,138.3c1.1,0,1.9,0.3,2.4,0.8c0.5,0.5,0.8,1.4,0.8,2.5v4.8h-1.9v-1.2
			c-0.2,0.4-0.5,0.7-0.9,1c-0.4,0.2-0.8,0.4-1.4,0.4c-0.5,0-1-0.1-1.4-0.3c-0.4-0.2-0.8-0.5-1-0.9c-0.2-0.4-0.4-0.8-0.4-1.2
			c0-0.6,0.1-1,0.4-1.4c0.3-0.3,0.8-0.6,1.4-0.7c0.7-0.2,1.6-0.2,2.7-0.2h0.4v-0.4c0-0.5-0.1-0.9-0.3-1.2c-0.2-0.2-0.6-0.4-1.1-0.4
			c-0.4,0-0.9,0.1-1.3,0.2c-0.5,0.1-0.9,0.4-1.3,0.6l-0.6-1.4c0.4-0.3,1-0.5,1.6-0.7C135.3,138.4,135.9,138.4,136.4,138.3
			L136.4,138.3z M136,145.1c0.5,0,1-0.2,1.3-0.5s0.5-0.8,0.5-1.4v-0.3h-0.3c-0.7,0-1.3,0-1.7,0.1c-0.4,0.1-0.7,0.2-0.8,0.3
			c-0.2,0.2-0.3,0.4-0.3,0.7c0,0.3,0.1,0.6,0.4,0.8C135.3,144.9,135.6,145.1,136,145.1z M145.7,145c0.2,0,0.5,0,0.7,0l-0.1,1.5
			c-0.3,0-0.6,0-0.9,0c-1.1,0-1.9-0.3-2.4-0.8c-0.5-0.5-0.8-1.3-0.8-2.3V140h-1.5v-1.5h1.5v-2.3h2v2.3h2.1v1.5h-2.1v3.4
			C144.3,144.5,144.8,145,145.7,145L145.7,145z M151.2,146.5c-0.8,0-1.5-0.2-2.1-0.5c-0.6-0.3-1.1-0.8-1.4-1.4
			c-0.3-0.6-0.5-1.3-0.5-2.2s0.2-1.5,0.5-2.2c0.3-0.6,0.8-1.1,1.4-1.4c0.6-0.3,1.3-0.5,2.1-0.5s1.5,0.2,2.1,0.5
			c0.6,0.3,1.1,0.8,1.4,1.4c0.3,0.6,0.5,1.3,0.5,2.2c0,0.8-0.2,1.5-0.5,2.2c-0.3,0.6-0.8,1.1-1.4,1.4
			C152.7,146.3,152,146.5,151.2,146.5z M151.2,144.9c0.6,0,1.1-0.2,1.5-0.6c0.3-0.4,0.5-1.1,0.5-1.9c0-0.8-0.2-1.4-0.5-1.9
			c-0.3-0.4-0.8-0.6-1.5-0.6s-1.1,0.2-1.5,0.6c-0.3,0.4-0.5,1.1-0.5,1.9c0,0.8,0.2,1.5,0.5,1.9C150.1,144.7,150.5,144.9,151.2,144.9
			z M162,140l-1.2,0.1c-1.3,0.1-2,0.8-2,2v4.2h-2v-7.8h1.9v1.4c0.4-0.9,1.2-1.4,2.5-1.5l0.6,0L162,140L162,140z"/>
	</g>
	<g transform="translate(160 118)">
		<path class="st3" d="M5,0h231.6c2.8,0,5,2.2,5,5v30c0,2.8-2.2,5-5,5H5c-2.8,0-5-2.2-5-5V5C0,2.2,2.2,0,5,0z"/>
		<path class="st4" d="M21.1,19.2c0.6,0.2,1.2,0.5,1.5,1c0.4,0.5,0.5,1.1,0.5,1.8c0,1-0.3,1.7-1,2.3S20.5,25,19.3,25h-5.1V13.7h5
			c1.2,0,2.1,0.3,2.8,0.8c0.7,0.5,1,1.2,1,2.2c0,0.6-0.2,1.1-0.5,1.6C22.1,18.7,21.7,19,21.1,19.2z M16.2,18.5h2.6
			c1.4,0,2.1-0.5,2.1-1.6c0-0.5-0.2-0.9-0.5-1.2c-0.4-0.3-0.9-0.4-1.6-0.4h-2.6V18.5z M19.1,23.4c0.7,0,1.3-0.1,1.6-0.4
			c0.3-0.3,0.5-0.7,0.5-1.2s-0.2-1-0.5-1.3c-0.3-0.3-0.9-0.4-1.6-0.4h-2.9v3.3H19.1z M24.9,25V13.7h2V25H24.9z M32.5,25.1
			c-0.8,0-1.5-0.2-2.1-0.5c-0.6-0.3-1.1-0.8-1.4-1.4c-0.3-0.6-0.5-1.3-0.5-2.2s0.2-1.5,0.5-2.2c0.3-0.6,0.8-1.1,1.4-1.4
			c0.6-0.3,1.3-0.5,2.1-0.5s1.5,0.2,2.1,0.5c0.6,0.3,1.1,0.8,1.4,1.4c0.3,0.6,0.5,1.3,0.5,2.2c0,0.8-0.2,1.5-0.5,2.2
			c-0.3,0.6-0.8,1.1-1.4,1.4C34,25,33.3,25.1,32.5,25.1z M32.5,23.6c0.7,0,1.1-0.2,1.5-0.6c0.3-0.4,0.5-1.1,0.5-1.9
			c0-0.8-0.2-1.4-0.5-1.9c-0.3-0.4-0.8-0.6-1.5-0.6s-1.1,0.2-1.5,0.6c-0.3,0.4-0.5,1.1-0.5,1.9c0,0.8,0.2,1.5,0.5,1.9
			C31.4,23.4,31.9,23.6,32.5,23.6z M41.7,25.1c-0.8,0-1.5-0.2-2.1-0.5c-0.6-0.3-1.1-0.8-1.4-1.4c-0.3-0.6-0.5-1.3-0.5-2.1
			c0-0.8,0.2-1.5,0.5-2.2c0.3-0.6,0.8-1.1,1.4-1.4c0.6-0.3,1.3-0.5,2.1-0.5c0.6,0,1.1,0.1,1.6,0.3s1,0.4,1.3,0.7l-0.6,1.4
			c-0.3-0.3-0.7-0.5-1-0.6c-0.3-0.1-0.7-0.2-1.1-0.2c-0.7,0-1.2,0.2-1.6,0.6c-0.4,0.4-0.6,1.1-0.6,1.9c0,0.8,0.2,1.4,0.6,1.8
			s0.9,0.6,1.6,0.6c0.4,0,0.7-0.1,1.1-0.2c0.4-0.1,0.7-0.4,1-0.6l0.6,1.4c-0.3,0.3-0.8,0.6-1.3,0.7C42.9,25,42.3,25.1,41.7,25.1z
			 M53.8,25h-2.5L48,21.4V25h-2V13.7h2v6.9l3.2-3.4h2.4L50,20.9L53.8,25z M58.1,25.1c-0.8,0-1.5-0.2-2.1-0.5
			c-0.6-0.3-1.1-0.8-1.4-1.4c-0.3-0.6-0.5-1.3-0.5-2.1c0-0.8,0.2-1.5,0.5-2.2c0.3-0.6,0.8-1.1,1.4-1.4c0.6-0.3,1.3-0.5,2.1-0.5
			c0.6,0,1.1,0.1,1.6,0.3s1,0.4,1.3,0.7l-0.6,1.4c-0.3-0.3-0.7-0.5-1-0.6c-0.3-0.1-0.7-0.2-1.1-0.2c-0.7,0-1.2,0.2-1.6,0.6
			c-0.4,0.4-0.6,1.1-0.6,1.9c0,0.8,0.2,1.4,0.6,1.8s0.9,0.6,1.6,0.6c0.4,0,0.7-0.1,1.1-0.2c0.4-0.1,0.7-0.4,1-0.6l0.6,1.4
			c-0.3,0.3-0.8,0.6-1.3,0.7C59.3,25,58.7,25.1,58.1,25.1z M66.9,17c0.9,0,1.6,0.3,2.1,0.8c0.5,0.5,0.7,1.3,0.7,2.4V25h-2v-4.7
			c0-0.6-0.1-1-0.3-1.3c-0.2-0.3-0.6-0.4-1.1-0.4c-0.6,0-1,0.2-1.4,0.5c-0.3,0.4-0.5,0.8-0.5,1.5V25h-2V13.7h2v4.5
			c0.3-0.4,0.6-0.7,1.1-1C65.9,17.1,66.4,17,66.9,17z M75.1,17c1.1,0,1.9,0.3,2.4,0.8c0.5,0.5,0.8,1.4,0.8,2.5V25h-1.9v-1.2
			c-0.2,0.4-0.5,0.7-0.9,1c-0.4,0.2-0.8,0.4-1.4,0.4c-0.5,0-1-0.1-1.4-0.3c-0.4-0.2-0.8-0.5-1-0.9c-0.2-0.4-0.4-0.8-0.4-1.2
			c0-0.6,0.1-1,0.4-1.4c0.3-0.3,0.8-0.6,1.4-0.7c0.7-0.1,1.6-0.2,2.7-0.2h0.4V20c0-0.5-0.1-0.9-0.3-1.2c-0.2-0.2-0.6-0.4-1.1-0.4
			c-0.4,0-0.9,0.1-1.3,0.2c-0.5,0.1-0.9,0.4-1.3,0.6l-0.6-1.4c0.4-0.3,1-0.5,1.6-0.7C73.9,17.1,74.5,17,75.1,17z M74.6,23.7
			c0.5,0,1-0.2,1.3-0.5c0.3-0.4,0.5-0.8,0.5-1.4v-0.3h-0.3c-0.7,0-1.3,0-1.7,0.1c-0.4,0.1-0.7,0.2-0.8,0.3c-0.2,0.2-0.3,0.4-0.3,0.7
			c0,0.3,0.1,0.6,0.4,0.8C74,23.6,74.3,23.7,74.6,23.7z M80.4,25v-7.8h2V25H80.4z M80.3,13.5h2.2v2h-2.2V13.5z M89,17
			c0.9,0,1.6,0.3,2.1,0.8c0.5,0.5,0.7,1.3,0.7,2.4V25h-2v-4.7c0-0.6-0.1-1-0.3-1.3c-0.2-0.3-0.6-0.4-1.1-0.4c-0.6,0-1,0.2-1.4,0.5
			c-0.3,0.4-0.5,0.8-0.5,1.5V25h-2v-7.8h2v1.2c0.3-0.4,0.6-0.8,1.1-1C87.9,17.1,88.5,17,89,17z M98.3,25V13.7h2.1v9.6h5.3V25H98.3z
			 M110.4,17c1.1,0,1.9,0.3,2.4,0.8c0.5,0.5,0.8,1.4,0.8,2.5V25h-1.9v-1.2c-0.2,0.4-0.5,0.7-0.9,1c-0.4,0.2-0.8,0.4-1.4,0.4
			c-0.5,0-1-0.1-1.4-0.3c-0.4-0.2-0.8-0.5-1-0.9c-0.2-0.4-0.4-0.8-0.4-1.2c0-0.6,0.1-1,0.4-1.4c0.3-0.3,0.8-0.6,1.4-0.7
			c0.7-0.1,1.6-0.2,2.7-0.2h0.4V20c0-0.5-0.1-0.9-0.3-1.2c-0.2-0.2-0.6-0.4-1.1-0.4c-0.4,0-0.9,0.1-1.3,0.2
			c-0.5,0.1-0.9,0.4-1.3,0.6l-0.6-1.4c0.4-0.3,1-0.5,1.6-0.7C109.2,17.1,109.8,17,110.4,17z M109.9,23.7c0.5,0,1-0.2,1.3-0.5
			c0.3-0.4,0.5-0.8,0.5-1.4v-0.3h-0.3c-0.7,0-1.3,0-1.7,0.1c-0.4,0.1-0.7,0.2-0.8,0.3c-0.2,0.2-0.3,0.4-0.3,0.7
			c0,0.3,0.1,0.6,0.4,0.8C109.2,23.6,109.5,23.7,109.9,23.7z M122.8,17.2V25h-2v-1.2c-0.2,0.4-0.6,0.8-1,1c-0.4,0.2-0.9,0.3-1.4,0.3
			c-1.9,0-2.9-1.1-2.9-3.2v-4.7h2v4.7c0,0.6,0.1,1,0.3,1.2s0.6,0.4,1.1,0.4c0.6,0,1-0.2,1.3-0.6s0.5-0.9,0.5-1.5v-4.4
			C120.8,17.2,122.8,17.2,122.8,17.2z M129.5,17c0.9,0,1.6,0.3,2.1,0.8c0.5,0.5,0.7,1.3,0.7,2.4V25h-2v-4.7c0-0.6-0.1-1-0.3-1.3
			c-0.2-0.3-0.6-0.4-1.1-0.4c-0.6,0-1,0.2-1.4,0.5c-0.3,0.4-0.5,0.8-0.5,1.5V25h-2v-7.8h2v1.2c0.3-0.4,0.6-0.8,1.1-1
			C128.4,17.1,128.9,17,129.5,17z M137.8,25.1c-0.8,0-1.5-0.2-2.1-0.5c-0.6-0.3-1.1-0.8-1.4-1.4c-0.3-0.6-0.5-1.3-0.5-2.1
			c0-0.8,0.2-1.5,0.5-2.2c0.3-0.6,0.8-1.1,1.4-1.4c0.6-0.3,1.3-0.5,2.1-0.5c0.6,0,1.1,0.1,1.6,0.3s1,0.4,1.3,0.7l-0.6,1.4
			c-0.3-0.3-0.7-0.5-1-0.6c-0.3-0.1-0.7-0.2-1.1-0.2c-0.7,0-1.2,0.2-1.6,0.6c-0.4,0.4-0.6,1.1-0.6,1.9c0,0.8,0.2,1.4,0.6,1.8
			s0.9,0.6,1.6,0.6c0.4,0,0.7-0.1,1.1-0.2c0.4-0.1,0.7-0.4,1-0.6l0.6,1.4c-0.3,0.3-0.8,0.6-1.3,0.7C139,25,138.4,25.1,137.8,25.1z
			 M146.6,17c0.9,0,1.6,0.3,2.1,0.8c0.5,0.5,0.7,1.3,0.7,2.4V25h-2v-4.7c0-0.6-0.1-1-0.3-1.3c-0.2-0.3-0.6-0.4-1.1-0.4
			c-0.6,0-1,0.2-1.4,0.5c-0.3,0.4-0.5,0.8-0.5,1.5V25h-2V13.7h2v4.5c0.3-0.4,0.6-0.7,1.1-1C145.6,17.1,146.1,17,146.6,17L146.6,17z"
			/>
	</g>
	<g transform="translate(160 178)">
		<path class="st3" d="M5,0h1010c2.8,0,5,2.2,5,5v30c0,2.8-2.2,5-5,5H5c-2.8,0-5-2.2-5-5V5C0,2.2,2.2,0,5,0z"/>
		<path class="st4" d="M16.8,25v-9.6h-3.7v-1.7h9.4v1.7h-3.7V25H16.8z M27.4,25.1c-0.8,0-1.5-0.2-2.1-0.5c-0.6-0.3-1.1-0.8-1.4-1.4
			c-0.3-0.6-0.5-1.3-0.5-2.2s0.2-1.5,0.5-2.2c0.3-0.6,0.8-1.1,1.4-1.4c0.6-0.3,1.3-0.5,2.1-0.5s1.5,0.2,2.1,0.5
			c0.6,0.3,1.1,0.8,1.4,1.4c0.3,0.6,0.5,1.3,0.5,2.2c0,0.8-0.2,1.5-0.5,2.2c-0.3,0.6-0.8,1.1-1.4,1.4C28.9,25,28.2,25.1,27.4,25.1z
			 M27.3,23.6c0.6,0,1.1-0.2,1.5-0.6c0.3-0.4,0.5-1.1,0.5-1.9c0-0.8-0.2-1.4-0.5-1.9c-0.3-0.4-0.8-0.6-1.5-0.6s-1.1,0.2-1.5,0.6
			c-0.3,0.4-0.5,1.1-0.5,1.9c0,0.8,0.2,1.5,0.5,1.9C26.2,23.4,26.7,23.6,27.3,23.6z M40.8,25h-2.5L35,21.4V25h-2V13.7h2v6.9l3.2-3.4
			h2.4l-3.5,3.7L40.8,25z M48.4,21.4h-5.3c0.1,0.7,0.3,1.3,0.7,1.6c0.4,0.4,0.9,0.5,1.6,0.5c0.9,0,1.7-0.3,2.4-0.8l0.6,1.4
			c-0.4,0.3-0.8,0.5-1.4,0.7c-0.5,0.2-1.1,0.3-1.7,0.3c-1.3,0-2.3-0.4-3-1.1c-0.7-0.7-1.1-1.7-1.1-3c0-0.8,0.2-1.5,0.5-2.1
			c0.3-0.6,0.8-1.1,1.4-1.4c0.6-0.3,1.2-0.5,2-0.5c1.1,0,1.9,0.3,2.6,1s0.9,1.6,0.9,2.9L48.4,21.4z M45,18.4c-0.5,0-1,0.2-1.3,0.5
			c-0.3,0.3-0.5,0.8-0.6,1.5h3.6c0-0.6-0.2-1.1-0.5-1.5C45.9,18.6,45.5,18.4,45,18.4z M54.6,17c0.9,0,1.6,0.3,2.1,0.8
			c0.5,0.5,0.7,1.3,0.7,2.4V25h-2v-4.7c0-0.6-0.1-1-0.3-1.3c-0.2-0.3-0.6-0.4-1.1-0.4c-0.6,0-1,0.2-1.4,0.5
			c-0.3,0.4-0.5,0.8-0.5,1.5V25h-2v-7.8h2v1.2c0.3-0.4,0.6-0.8,1.1-1C53.6,17.1,54.1,17,54.6,17z M62.3,25.1c-0.7,0-1.3-0.1-1.9-0.3
			c-0.6-0.2-1.1-0.4-1.5-0.7l0.6-1.4c0.8,0.6,1.8,0.9,2.9,0.9c0.5,0,0.8-0.1,1-0.2c0.2-0.1,0.4-0.4,0.4-0.6c0-0.2-0.1-0.4-0.2-0.5
			c-0.2-0.1-0.5-0.2-0.9-0.4l-1.3-0.3c-0.7-0.2-1.3-0.4-1.6-0.8s-0.5-0.8-0.5-1.4c0-0.5,0.1-0.9,0.4-1.3s0.7-0.7,1.1-0.9
			c0.5-0.2,1-0.3,1.7-0.3c0.5,0,1.1,0.1,1.6,0.3c0.5,0.2,1,0.4,1.4,0.7l-0.6,1.4c-0.8-0.6-1.6-0.9-2.4-0.9c-0.4,0-0.8,0.1-1,0.2
			c-0.2,0.1-0.4,0.4-0.4,0.7c0,0.2,0.1,0.4,0.2,0.5c0.2,0.1,0.4,0.2,0.7,0.3l1.3,0.3c0.8,0.2,1.3,0.4,1.7,0.8
			c0.4,0.4,0.5,0.9,0.5,1.4c0,0.7-0.3,1.3-0.9,1.7C64.1,24.9,63.3,25.1,62.3,25.1z M76.7,25.1c-1.1,0-2.1-0.2-2.9-0.7
			c-0.8-0.5-1.4-1.1-1.9-2c-0.4-0.9-0.7-1.9-0.7-3.1s0.2-2.2,0.6-3.1c0.4-0.8,1.1-1.5,1.9-2c0.8-0.5,1.8-0.7,2.9-0.7
			c1.1,0,2.1,0.2,2.9,0.7c0.8,0.5,1.4,1.1,1.9,2c0.4,0.9,0.6,1.9,0.6,3.1c0,1.2-0.2,2.2-0.7,3.1c-0.4,0.9-1.1,1.5-1.9,2
			C78.8,24.9,77.8,25.1,76.7,25.1L76.7,25.1z M76.7,23.5c1,0,1.8-0.4,2.4-1.1c0.6-0.7,0.9-1.7,0.9-3.1s-0.3-2.4-0.9-3.1
			c-0.6-0.7-1.4-1.1-2.4-1.1c-1,0-1.9,0.4-2.4,1.1c-0.6,0.7-0.9,1.7-0.9,3.1c0,1.3,0.3,2.4,0.9,3.1C74.9,23.1,75.7,23.5,76.7,23.5z
			 M88.5,17c0.9,0,1.6,0.3,2.1,0.8c0.5,0.5,0.7,1.3,0.7,2.4V25h-2v-4.7c0-0.6-0.1-1-0.3-1.3c-0.2-0.3-0.6-0.4-1.1-0.4
			c-0.6,0-1,0.2-1.4,0.5C86.2,19.5,86,20,86,20.6V25h-2v-7.8h2v1.2c0.3-0.4,0.6-0.8,1.1-1C87.5,17.1,88,17,88.5,17z M97.9,25V13.7
			h7.6v1.6h-5.5v3.1h5.2v1.6h-5.2v3.3h5.5V25H97.9z M111.5,21l3.3,4h-2.4l-2.1-2.6l-2.1,2.6h-2.4l3.3-4l-3.1-3.8h2.4l1.9,2.4
			l1.9-2.4h2.4L111.5,21z M119.2,25.1c-0.8,0-1.5-0.2-2.1-0.5c-0.6-0.3-1.1-0.8-1.4-1.4c-0.3-0.6-0.5-1.3-0.5-2.1
			c0-0.8,0.2-1.5,0.5-2.2c0.3-0.6,0.8-1.1,1.4-1.4c0.6-0.3,1.3-0.5,2.1-0.5c0.6,0,1.1,0.1,1.6,0.3s1,0.4,1.3,0.7l-0.6,1.4
			c-0.3-0.3-0.7-0.5-1-0.6c-0.3-0.1-0.7-0.2-1.1-0.2c-0.7,0-1.2,0.2-1.6,0.6c-0.4,0.4-0.6,1.1-0.6,1.9c0,0.8,0.2,1.4,0.6,1.8
			c0.4,0.4,0.9,0.6,1.6,0.6c0.4,0,0.7-0.1,1.1-0.2c0.4-0.1,0.7-0.4,1-0.6l0.6,1.4c-0.3,0.3-0.8,0.6-1.3,0.7
			C120.3,25,119.8,25.1,119.2,25.1z M128,17c0.9,0,1.6,0.3,2.1,0.8c0.5,0.5,0.7,1.3,0.7,2.4V25h-2v-4.7c0-0.6-0.1-1-0.3-1.3
			c-0.2-0.3-0.6-0.4-1.1-0.4c-0.6,0-1,0.2-1.4,0.5c-0.3,0.4-0.5,0.8-0.5,1.5V25h-2V13.7h2v4.5c0.3-0.4,0.6-0.7,1.1-1
			C127,17.1,127.5,17,128,17z M136.1,17c1.1,0,1.9,0.3,2.4,0.8c0.5,0.5,0.8,1.4,0.8,2.5V25h-1.9v-1.2c-0.2,0.4-0.5,0.7-0.9,1
			c-0.4,0.2-0.8,0.4-1.4,0.4c-0.5,0-1-0.1-1.4-0.3c-0.4-0.2-0.8-0.5-1-0.9c-0.2-0.4-0.4-0.8-0.4-1.2c0-0.6,0.1-1,0.4-1.4
			c0.3-0.3,0.8-0.6,1.4-0.7c0.7-0.1,1.6-0.2,2.7-0.2h0.4V20c0-0.5-0.1-0.9-0.3-1.2c-0.2-0.2-0.6-0.4-1.1-0.4c-0.4,0-0.9,0.1-1.3,0.2
			c-0.5,0.1-0.9,0.4-1.3,0.6l-0.6-1.4c0.4-0.3,1-0.5,1.6-0.7C135,17.1,135.5,17,136.1,17z M135.7,23.7c0.5,0,1-0.2,1.3-0.5
			c0.3-0.4,0.5-0.8,0.5-1.4v-0.3h-0.3c-0.7,0-1.3,0-1.7,0.1c-0.4,0.1-0.7,0.2-0.8,0.3c-0.2,0.2-0.3,0.4-0.3,0.7
			c0,0.3,0.1,0.6,0.4,0.8C135,23.6,135.3,23.7,135.7,23.7z M146,17c0.9,0,1.6,0.3,2.1,0.8c0.5,0.5,0.7,1.3,0.7,2.4V25h-2v-4.7
			c0-0.6-0.1-1-0.3-1.3c-0.2-0.3-0.6-0.4-1.1-0.4c-0.6,0-1,0.2-1.4,0.5c-0.3,0.4-0.5,0.8-0.5,1.5V25h-2v-7.8h2v1.2
			c0.3-0.4,0.6-0.8,1.1-1C144.9,17.1,145.4,17,146,17z M158.4,17.2v7.1c0,1.2-0.3,2.2-1,2.8c-0.7,0.6-1.7,0.9-3,0.9
			c-0.7,0-1.3-0.1-2-0.3c-0.6-0.2-1.1-0.4-1.6-0.7l0.6-1.4c1,0.6,2,0.9,3,0.9c1.4,0,2.1-0.7,2.1-2v-1c-0.2,0.4-0.6,0.8-1,1
			c-0.4,0.2-1,0.4-1.5,0.4c-0.7,0-1.3-0.2-1.8-0.5c-0.5-0.3-1-0.8-1.2-1.4c-0.3-0.6-0.4-1.3-0.4-2s0.1-1.4,0.4-2
			c0.3-0.6,0.7-1,1.2-1.4c0.5-0.3,1.1-0.5,1.8-0.5c0.6,0,1.1,0.1,1.5,0.4s0.8,0.6,1,1v-1.2H158.4L158.4,17.2z M154.4,23.2
			c0.6,0,1.1-0.2,1.5-0.6c0.4-0.4,0.5-1,0.5-1.7c0-0.7-0.2-1.3-0.5-1.7c-0.4-0.4-0.9-0.6-1.5-0.6c-0.6,0-1.1,0.2-1.5,0.6
			c-0.4,0.4-0.5,1-0.5,1.7c0,0.7,0.2,1.3,0.5,1.7C153.3,23,153.8,23.2,154.4,23.2z M167.3,21.4H162c0.1,0.7,0.3,1.3,0.7,1.6
			c0.4,0.4,0.9,0.5,1.6,0.5c0.9,0,1.7-0.3,2.4-0.8l0.6,1.4c-0.4,0.3-0.8,0.5-1.4,0.7c-0.5,0.2-1.1,0.3-1.7,0.3c-1.3,0-2.3-0.4-3-1.1
			c-0.7-0.7-1.1-1.7-1.1-3c0-0.8,0.2-1.5,0.5-2.1c0.3-0.6,0.8-1.1,1.4-1.4c0.6-0.3,1.2-0.5,2-0.5c1.1,0,1.9,0.3,2.6,1
			c0.6,0.7,0.9,1.6,0.9,2.9L167.3,21.4L167.3,21.4z M163.9,18.4c-0.5,0-1,0.2-1.3,0.5c-0.3,0.3-0.5,0.8-0.6,1.5h3.6
			c0-0.6-0.2-1.1-0.5-1.5C164.8,18.6,164.4,18.4,163.9,18.4z"/>
	</g>
	<path class="st5" d="M421.8,300h754.4c2.1,0,3.7,2.2,3.7,5v30c0,2.8-1.7,5-3.7,5H421.8c-2.1,0-3.7-2.2-3.7-5v-30
		C418.1,302.2,419.8,300,421.8,300z"/>
	<text transform="matrix(1 0 0 1 433.508 327.3075)" class="st4 st6 st7">Grid Solution Developers</text>
</g>
</svg>
