<svg id="Layer_1" xmlns="http://www.w3.org/2000/svg" viewBox="0 0 590.6 399.7"><style>.st1{fill:#fff}.st2{opacity:.5}.st3{fill:#edf2fa}</style><path d="M589.6 171c.4 43.6-28.1 87.1-85.5 120.3-35.4 20.4-77.5 34.5-122.4 42.2-4.2.8-8.5 1.5-12.8 2-97.2 14.1-204.6-1-281-45-57.3-33-86.2-76.3-86.8-119.5H1v58h.1c.6 43.2 29.5 86.5 86.8 119.5 76.3 44.1 183.8 59.1 281 45 4.3-.6 8.6-1.2 12.8-2 44.8-7.8 87-21.8 122.4-42.2 57.4-33.2 85.9-76.7 85.5-120.3v-58z" fill="#e6edf8"/><path class="st1" d="M297.2 399.7c-25.8 0-51.6-1.9-76.7-5.8-50.1-7.7-96.1-23.1-133-44.4C32.1 317.5 1.2 275.1.1 230H0v-60h2.1v1c.6 44.7 31.2 86.9 86.3 118.7 36.7 21.2 82.5 36.5 132.3 44.2 48.4 7.5 99.6 7.7 148 .7 4.3-.6 8.6-1.2 12.8-2 45.9-7.9 88.1-22.5 122.1-42.1 55.2-31.9 85.4-74.3 85-119.4v-1h2v60c0 45.5-30.6 88.1-86 120.2-34.2 19.7-76.6 34.4-122.7 42.4-4.2.8-8.5 1.5-12.8 2-23.6 3.3-47.7 5-71.9 5zM2 228h.1v1c.6 44.7 31.2 86.9 86.3 118.7 36.7 21.2 82.5 36.5 132.3 44.2 48.4 7.5 99.6 7.7 148 .7 4.3-.6 8.6-1.2 12.8-2 45.9-7.9 88.1-22.5 122.1-42.1 55.2-31.9 85.4-74.3 85-119.4V192c-7.6 37.9-36.7 73-84 100.3-34.2 19.7-76.6 34.4-122.7 42.4-4.2.8-8.5 1.5-12.8 2-48.6 7-100 6.8-148.6-.7-50.1-7.7-96.1-23.1-133-44.4-48.3-28-78-63.8-85.5-102.4V228z"/><g><g class="st2"><path class="st3" d="M503.2 51.3c.8.5 1.6 1 2.5 1.5-.9-.6-1.7-1-2.5-1.5z"/></g><path class="st3" d="M504.1 291.3c-35.4 20.4-77.5 34.5-122.4 42.2-4.2.7-8.5 1.4-12.8 2-44.3 5.7-92.7-1.4-127.4-21.4-53.7-31-54-81.1-.6-111.9 33.7-19.4 80.6-26.5 124.2-21.4 5.1 1 10.2 1.8 15.4 2.4 43.2 5.1 89.7-1.9 123-21.2 1.6-.9 3.2-1.9 4.7-2.9.6-.4 1.2-.8 1.7-1.1l2.7-1.8c.4-.3.9-.6 1.3-.9.3-.2.6-.5 1-.7 1.3-1 2.6-2 3.8-3 .6-.5 1.2-1 1.8-1.6.6-.5 1.2-1.1 1.8-1.6.6-.5 1.2-1.1 1.7-1.6.3-.3.7-.6 1-1l.9-.9c.5-.5 1-1 1.5-1.6.4-.4.8-.9 1.2-1.3.1-.1.2-.2.2-.3.4-.4.7-.8 1-1.2.2-.2.3-.3.4-.5l.9-1.2c.6-.8 1.1-1.5 1.7-2.3.2-.3.5-.6.7-1 .2-.3.5-.7.7-1 .1-.1.1-.2.2-.3l.9-1.5.9-1.5c.2-.4.4-.7.6-1.1.2-.3.3-.6.5-.9.1-.2.2-.4.3-.5.2-.5.5-.9.7-1.4.2-.5.5-1 .7-1.5.2-.4.3-.7.5-1.1.1-.3.2-.6.4-.9.1-.3.2-.5.3-.8.2-.4.3-.8.4-1.2 0-.1.1-.3.1-.4.1-.4.3-.9.4-1.3.2-.5.3-1.1.4-1.6.1-.4.2-.8.3-1.3.1-.5.2-.9.3-1.4.1-.4.2-.9.2-1.3.1-.5.2-1 .2-1.5.1-.4.1-.9.2-1.3 0-.2 0-.4.1-.6 0-.4.1-.7.1-1.1 0-.4.1-.7.1-1.1v-.5-1.4-.4-1.7c0-.6-.1-1.2-.1-1.8v-.2c0-.4-.1-.8-.1-1.2 0-.4-.1-.8-.2-1.2 0-.1 0-.3-.1-.4-.1-.4-.1-.9-.2-1.3 0-.2-.1-.4-.1-.7-.1-.4-.2-.7-.2-1.1-.1-.4-.2-.8-.3-1.1 0-.2-.1-.3-.1-.5l-.3-1.2-.3-.9c0-.1-.1-.3-.1-.4-.1-.5-.3-1-.5-1.4-.1-.2-.1-.4-.2-.6-.1-.3-.3-.7-.4-1.1-.1-.3-.3-.7-.4-1-.1-.2-.2-.5-.3-.7-.1-.3-.2-.6-.4-.9l-.6-1.2c-.2-.5-.5-1-.7-1.4-.2-.4-.4-.8-.7-1.3-.1-.2-.3-.5-.4-.8-.3-.6-.6-1.1-1-1.7-.3-.6-.7-1.1-1.1-1.7-.2-.4-.5-.8-.8-1.1-.2-.3-.4-.6-.7-1-.1-.1-.1-.2-.2-.3-.3-.5-.7-.9-1-1.4-.1-.2-.2-.3-.4-.5-.3-.5-.7-.9-1.1-1.4-.4-.5-.8-.9-1.2-1.4-.4-.5-.8-.9-1.2-1.4-.1-.2-.3-.3-.4-.5-.5-.5-1-1.1-1.5-1.6-.3-.3-.6-.7-1-1l-.9-.9c-.5-.5-1-1-1.5-1.4-.6-.5-1.2-1.1-1.8-1.6-.6-.6-1.3-1.1-2-1.7-.5-.4-1-.8-1.6-1.3-2.2-1.7-4.5-3.4-6.9-5.1-1.5-1-3-2-4.6-2.9 112.6 66.8 112.3 173.1-1.3 238.7z"/><path class="st1" d="M338.7 338.5c-36.2 0-71.3-8.3-97.7-23.5-26.4-15.2-40.9-35.5-40.9-57.1 0-21.4 14.3-41.5 40.3-56.5 32.7-18.9 79.3-26.9 124.8-21.5 5.1 1 10.2 1.8 15.4 2.4 44.6 5.3 90.4-2.6 122.4-21 1.6-.9 3.1-1.8 4.7-2.8.6-.4 1.1-.7 1.7-1.1l2.7-1.8c.4-.3.9-.6 1.3-.9l1-.7c1.4-1.1 2.7-2 3.8-3l1.8-1.5c.6-.5 1.2-1.1 1.8-1.6.6-.5 1.1-1 1.7-1.6l.1-.1.9-.9.9-.9c.5-.5 1-1 1.4-1.5.4-.4.8-.9 1.2-1.3l.1-.1c0-.1.1-.1.1-.2.4-.4.7-.8 1-1.2.1-.2.2-.3.3-.4l.2-.2c.3-.4.6-.8.9-1.1.6-.7 1.1-1.5 1.7-2.3.2-.3.5-.6.7-.9.2-.3.5-.7.7-1 .1-.1.1-.2.2-.3l.9-1.5c.3-.5.6-1 .9-1.4.2-.4.4-.7.6-1.1.2-.3.3-.6.5-.9.1-.2.2-.3.2-.5.3-.5.5-1 .7-1.4.2-.5.4-1 .6-1.4.2-.4.3-.7.5-1.1.1-.2.2-.4.2-.6l.2-.4c.1-.2.1-.4.2-.6.2-.4.3-.8.4-1.2l.1-.2c0-.1 0-.1.1-.2.2-.5.3-.9.4-1.4.2-.5.3-1.1.4-1.6l.3-1.2c.1-.5.2-.9.3-1.4.1-.4.2-.9.2-1.3.1-.5.2-1 .2-1.4.1-.5.1-.9.2-1.3 0-.2 0-.4.1-.5v-.1c0-.3.1-.7.1-1 0-.4.1-.7.1-1.1V108.5v-1.3-.3-1.7c0-.6-.1-1.2-.1-1.7v-.2c0-.4-.1-.8-.1-1.2 0-.4-.1-.8-.1-1.1v-.5c-.1-.4-.1-.8-.2-1.2 0-.2-.1-.4-.1-.6-.1-.4-.1-.7-.2-1v-.1c-.1-.4-.2-.7-.3-1.1 0-.2-.1-.4-.1-.5l-.3-1.2-.3-.9c0-.2-.1-.3-.1-.3v-.1c-.1-.5-.3-.9-.5-1.4-.1-.2-.1-.4-.2-.6-.1-.4-.3-.7-.4-1.1-.1-.4-.3-.7-.4-1v-.1l-.3-.6c-.1-.3-.2-.6-.4-.8-.2-.5-.4-.8-.6-1.2-.2-.5-.5-1-.7-1.4-.2-.4-.4-.8-.7-1.2l-.4-.7c-.3-.5-.6-1.1-1-1.6-.3-.6-.7-1.1-1-1.6-.2-.4-.5-.8-.8-1.1-.2-.4-.5-.7-.7-1-.1-.1-.1-.2-.2-.3-.4-.5-.7-.9-1-1.4-.1-.2-.2-.3-.3-.4-.4-.5-.7-.9-1.1-1.3-.4-.5-.8-.9-1.2-1.4-.4-.5-.8-.9-1.2-1.3-.2-.2-.3-.3-.4-.5-.5-.5-1-1.1-1.5-1.6-.3-.3-.6-.6-.9-1l-.9-.9c-.5-.5-1-.9-1.5-1.4-.6-.5-1.2-1.1-1.8-1.6-.6-.5-1.3-1.1-1.9-1.6l-1.5-1.2c-2.1-1.7-4.4-3.4-6.8-5-1.6-1-3-2-4.6-2.9l1-1.7c54.7 32.5 84.7 75.3 84.5 120.6-.3 45.3-30.8 87.8-86 119.7l-.5-.9.5.9c-34.2 19.7-76.6 34.4-122.7 42.4-4.3.7-8.6 1.4-12.8 2-10.6.5-20.7 1.2-30.8 1.2zm-1.5-158.3c-35.6 0-70.1 8.1-95.7 22.9-25.4 14.6-39.3 34.1-39.3 54.8 0 20.9 14.2 40.5 39.9 55.4 33.4 19.3 80.8 27.3 126.7 21.3 4.2-.6 8.5-1.3 12.8-2 45.8-7.9 88-22.5 122-42.1 54.6-31.5 84.8-73.4 85-118 .2-38.4-21.8-75.1-62.5-105l.5.5c.5.5 1 1.1 1.5 1.6.1.2.3.3.4.5.4.5.8.9 1.2 1.4.4.4.8.9 1.2 1.4.4.5.8 1 1.1 1.4.1.1.3.3.4.5.3.4.7.9 1 1.3.1.1.2.2.3.4.2.3.4.6.7 1 .3.3.5.7.8 1.2.4.5.7 1.1 1.1 1.7.3.5.7 1.1 1 1.7l.4.8c.2.4.5.9.7 1.3.3.5.5 1 .7 1.5l.6 1.2c.1.3.3.6.4.9.1.2.2.5.3.7.2.3.3.7.4 1 .2.4.3.7.4 1.1.1.2.2.4.2.6.2.4.3.9.5 1.4v.1c0 .1.1.3.1.4.1.2.2.6.3.9l.3 1.2c0 .2.1.4.1.6.1.3.2.7.3 1.1v.1c.1.3.1.7.2 1 .1.3.1.5.1.7.1.4.2.9.2 1.3 0 .2.1.4.1.5.1.3.1.7.2 1.1.1.4.1.8.1 1.3v.3c.1.5.1 1.1.1 1.8 0 .6.1 1.2 0 1.8v2.3c0 .3 0 .7-.1 1.1 0 .3 0 .7-.1 1 0 .3 0 .5-.1.7 0 .4-.1.9-.2 1.3-.1.5-.1 1-.2 1.5-.1.4-.2.9-.2 1.3-.1.5-.2.9-.3 1.4-.1.4-.2.9-.3 1.3-.1.5-.3 1.1-.5 1.6-.1.5-.3.9-.4 1.4 0 0 0 .1-.1.3v.1c-.1.4-.3.9-.5 1.3-.1.2-.1.4-.2.6l-.2.5-.3.6c-.1.3-.3.7-.5 1.1-.2.5-.4 1-.7 1.5-.2.5-.4.9-.7 1.4-.1.2-.2.4-.3.5-.1.3-.3.6-.5.9-.2.4-.4.7-.6 1.1l-.9 1.5c-.3.5-.6 1-1 1.5-.1.1-.1.2-.2.4-.2.3-.4.7-.7 1-.2.3-.4.7-.7 1-.5.8-1.1 1.5-1.7 2.3l-.9 1.2-.2.2c-.1.1-.2.3-.3.4-.3.4-.6.8-1 1.2 0 .1-.1.1-.2.2-.4.5-.8.9-1.2 1.4-.5.5-1 1.1-1.5 1.6l-.9.9-1 1-.1.1c-.5.5-1.1 1-1.7 1.6-.6.5-1.2 1.1-1.8 1.6-.6.5-1.2 1.1-1.9 1.6-1.1 1-2.4 1.9-3.9 3l-1 .7c-.4.3-.9.6-1.3.9-.9.6-1.8 1.2-2.7 1.9-.6.4-1.2.8-1.7 1.1-1.6 1-3.2 2-4.8 2.9-32.4 18.7-78.6 26.7-123.7 21.3-5.2-.6-10.5-1.4-15.5-2.4-8.8-1-18.1-1.5-27.3-1.5z"/><g class="st2"><path class="st3" d="M380.5 183.2c-5.2-.6-10.4-1.4-15.4-2.4 5.2.7 10.4 1.5 15.4 2.4z"/></g><path class="st3" d="M368.9 335.6c-97.2 14.1-204.6-1-281-45S-14.4 184.4 10 128.3c1.1-2.5 2.2-4.9 3.5-7.4 6.4-11.3 17.4-22 33-31 53.3-30.8 140.1-30.6 193.8.4 16.7 9.6 28.2 21.1 34.5 33.2.7 1.8 1.5 3.5 2.4 5.2 10.2 25.6-1.9 53.6-36.3 73.4-53.3 30.8-53.1 80.9.6 111.9 34.7 20.1 83.1 27.3 127.4 21.6z"/><path class="st1" d="M297.2 341.7c-25.8 0-51.6-1.9-76.7-5.8-50.1-7.7-96.1-23.1-133-44.4-37-21.4-63.7-48-77.2-77-13.1-28.4-13.6-58.3-1.3-86.6 1.1-2.5 2.3-5 3.5-7.5 6.8-11.9 18-22.5 33.4-31.4 53.5-30.9 140.9-30.8 194.8.4 16.2 9.4 28.3 21 34.9 33.6v.1c.7 1.7 1.5 3.4 2.4 5.1v.1c10.8 27.2-2.9 55.1-36.8 74.7-25.4 14.6-39.3 34.1-39.3 54.8 0 20.9 14.2 40.5 39.9 55.4 33.4 19.3 80.8 27.3 126.7 21.3l.3 2c-23.3 3.5-47.4 5.2-71.6 5.2zM142.8 68C108 68 73.3 75.6 47 90.8c-15.1 8.7-26.1 19-32.6 30.6-1.3 2.4-2.4 4.9-3.5 7.3-12.1 27.8-11.6 57.1 1.2 84.8 13.3 28.7 39.7 55 76.4 76.1 36.7 21.2 82.5 36.5 132.3 44.2 36.6 5.7 74.7 7.2 112.1 4.6-34.1-.8-66.8-9-91.8-23.4-26.4-15.2-40.9-35.5-40.9-57.1 0-21.4 14.3-41.5 40.3-56.5 32.9-19 46.3-46 35.9-72.1-.9-1.7-1.7-3.5-2.4-5.2-6.4-12.3-18.2-23.6-34.1-32.8C213 75.7 177.9 68 142.8 68z"/><g class="st2"><path class="st3" d="M274.8 123.6c.9 1.7 1.7 3.5 2.4 5.2-.9-1.7-1.7-3.5-2.4-5.2z"/></g><path class="st3" d="M503.6 162.1c-33.3 19.3-79.9 26.3-123 21.2-5.1-1-10.2-1.8-15.4-2.4-19.6-3.7-38-10.1-53.6-19.1-16.5-9.5-27.9-20.9-34.2-32.9-.7-1.8-1.5-3.5-2.4-5.2-6.4-12.2-17.9-23.6-34.5-33.2-53.9-31.2-140.7-31.3-194-.5-15.6 9-26.6 19.6-33 31 13.4-25.9 37.8-50.2 73.2-70.7 114.5-66.1 300.8-65.8 416.1.7l.4.2c.8.5 1.6 1 2.4 1.4 1.6 1 3.1 1.9 4.6 2.9 2.4 1.6 4.7 3.3 6.9 5.1.5.4 1 .8 1.6 1.3.7.5 1.3 1.1 2 1.7.6.5 1.2 1.1 1.8 1.6.5.5 1 1 1.5 1.4l.9.9c.3.3.7.6 1 1 .5.5 1 1.1 1.5 1.6.1.1.3.3.4.5.4.5.8.9 1.2 1.4.4.5.8.9 1.2 1.4.4.4.7.9 1.1 1.4.1.2.3.3.4.5.3.4.7.9 1 1.4.1.1.2.2.2.3.2.3.5.6.7 1 .3.4.5.8.8 1.1.4.5.7 1.1 1.1 1.7.3.5.7 1.1 1 1.7.1.2.3.5.4.8.2.4.5.8.7 1.3.2.5.5 1 .7 1.4l.6 1.2c.1.3.3.6.4.9.1.2.2.5.3.7.2.3.3.7.4 1 .1.3.3.7.4 1.1.1.2.1.4.2.6.2.5.3 1 .5 1.4 0 .1.1.3.1.4l.3.9.3 1.2c0 .2.1.3.1.5.1.4.2.8.3 1.1.1.4.2.7.2 1.1 0 .2.1.4.1.7.1.4.2.9.2 1.3 0 .1.1.3.1.4.1.4.1.8.2 1.2.1.4.1.8.1 1.2v.2c.1.6.1 1.2.1 1.8v4c0 .4 0 .7-.1 1.1 0 .4 0 .7-.1 1.1 0 .2 0 .4-.1.6 0 .5-.1.9-.2 1.3-.1.5-.1 1-.2 1.5-.1.4-.2.9-.2 1.3-.1.5-.2.9-.3 1.4-.1.4-.2.8-.3 1.3-.1.5-.3 1.1-.4 1.6-.1.4-.3.9-.4 1.3 0 .1-.1.3-.1.4-.1.4-.3.8-.4 1.2-.1.3-.2.5-.3.8-.1.3-.2.6-.4.9-.1.4-.3.7-.5 1.1-.2.5-.4 1-.7 1.5-.2.5-.4.9-.7 1.4-.1.2-.2.4-.3.5-.1.3-.3.6-.5.9-.2.4-.4.7-.6 1.1l-.9 1.5-.9 1.5c-.1.1-.1.2-.2.3-.2.3-.4.7-.7 1-.2.3-.4.6-.7 1-.5.8-1.1 1.5-1.7 2.3l-.9 1.2c-.1.2-.3.4-.4.5-.3.4-.7.8-1 1.2-.1.1-.2.2-.2.3-.4.4-.8.9-1.2 1.3-.5.5-1 1-1.5 1.6l-.9.9c-.3.3-.6.7-1 1-.5.5-1.1 1.1-1.7 1.6-.6.5-1.2 1.1-1.8 1.6-.6.5-1.2 1-1.8 1.6-1.2 1-2.5 2-3.8 3-.3.2-.6.5-1 .7-.4.3-.9.6-1.3.9l-2.7 1.8c-.6.4-1.1.8-1.7 1.1-1.6 1.1-3.2 2-4.8 3z"/><path class="st1" d="M408.2 185.9c-9.2 0-18.5-.5-27.8-1.6-5.1-1-10.2-1.8-15.4-2.4-20.5-3.9-38.6-10.4-54-19.3-16.1-9.3-28.1-20.8-34.6-33.3v-.1c-.7-1.7-1.5-3.4-2.4-5.1-6.4-12.3-18.2-23.7-34.2-32.8C186.5 60.4 100 60.2 47 90.8c-15.1 8.7-26.1 19-32.6 30.6l-1.8-1c13.9-26.7 39.3-51.3 73.6-71.1 114.6-66.2 301.8-65.8 417.1.8l.4.2c.8.5 1.6.9 2.4 1.4l.1.1c1.5.9 3.1 1.9 4.6 3 2.5 1.7 4.8 3.4 7 5.1.5.4 1.1.8 1.6 1.3.7.6 1.3 1.1 2 1.7.6.5 1.2 1.1 1.8 1.6l1.5 1.5 1 1 1 1c.5.5 1 1.1 1.5 1.6.1.2.3.3.4.5.4.5.8.9 1.2 1.4.4.4.8.9 1.2 1.4.4.5.8 1 1.1 1.4.1.1.3.3.4.5.3.4.7.9 1 1.3.1.1.2.2.3.4.2.3.4.6.7 1 .3.3.5.7.8 1.2.4.5.7 1.1 1.1 1.7.3.5.7 1.1 1 1.7l.4.8c.2.4.5.9.7 1.3.3.5.5 1 .7 1.5l.6 1.2c.1.3.3.6.4.9.1.2.2.5.3.7.2.3.3.7.4 1 .2.4.3.7.4 1.1.1.2.2.4.2.6.2.4.3.9.5 1.4v.1c0 .1.1.3.1.4l.3.9.3 1.2c0 .2.1.4.1.6.1.3.2.7.3 1.1v.1c.1.3.1.7.2 1 .1.3.1.5.1.7.1.4.2.9.2 1.3 0 .2.1.4.1.5.1.3.1.7.2 1.1.1.4.1.8.1 1.3v.3c.1.5.1 1.1.1 1.8 0 .6.1 1.2 0 1.8v2.3c0 .3 0 .7-.1 1.1 0 .3 0 .7-.1 1 0 .3 0 .5-.1.7 0 .4-.1.9-.2 1.3-.1.5-.1 1-.2 1.5-.1.4-.2.9-.2 1.3-.1.5-.2.9-.3 1.4-.1.4-.2.9-.3 1.3-.1.5-.3 1.1-.5 1.6-.1.4-.3.9-.4 1.4 0 0 0 .1-.1.2v.1c-.1.4-.3.9-.5 1.3-.1.2-.1.4-.2.6l-.2.5-.3.6c-.1.3-.3.7-.5 1.1-.2.5-.4 1-.7 1.5-.2.5-.4.9-.7 1.4-.1.2-.2.4-.3.5-.1.3-.3.6-.5.9-.2.4-.4.7-.6 1.1l-.9 1.5c-.3.5-.6 1-1 1.5-.1.1-.1.2-.2.4-.2.3-.4.7-.7 1-.2.2-.3.5-.5.8l-.1.2c-.5.8-1.1 1.6-1.7 2.3l-.9 1.2-.2.2c-.1.1-.2.3-.3.4-.3.4-.6.8-1 1.2-.1.1-.1.2-.2.2-.4.5-.8.9-1.2 1.4-.5.5-1 1.1-1.5 1.6l-.9.9-1 1-.1.1c-.5.5-1.1 1-1.7 1.6-.6.5-1.2 1.1-1.8 1.6-.6.5-1.2 1.1-1.9 1.6-1.1 1-2.4 1.9-3.9 3l-1 .7c-.4.3-.9.6-1.3.9-.9.6-1.8 1.2-2.7 1.9-.6.4-1.2.8-1.7 1.1-1.6 1-3.2 2-4.8 2.9-25.6 15.1-60 23.2-95.7 23.2zm-130-57.5c6.4 12.2 18.1 23.4 33.8 32.5 15.2 8.8 33.1 15.2 53.3 19 5.2.6 10.4 1.4 15.4 2.4 44.6 5.3 90.3-2.6 122.4-21.1 1.6-.9 3.1-1.8 4.7-2.8.6-.4 1.1-.7 1.7-1.1l2.7-1.8c.4-.3.9-.6 1.3-.9l1-.7c1.4-1.1 2.7-2 3.8-3l1.8-1.5c.6-.5 1.2-1.1 1.8-1.6.6-.5 1.1-1.1 1.7-1.6l.1-.1.9-.9.9-.9c.5-.5 1-1 1.4-1.5.4-.4.8-.9 1.2-1.3l.1-.1c0-.1.1-.1.1-.2.4-.4.7-.8 1-1.2l.3-.3.2-.2c.3-.4.6-.8.9-1.1.6-.7 1.1-1.5 1.7-2.3l.2-.2c.2-.2.3-.5.5-.7.2-.3.5-.7.7-1 .1-.1.1-.2.2-.3l.9-1.5c.3-.5.6-1 .9-1.4.2-.4.4-.7.6-1.1.2-.3.3-.6.5-.9.1-.2.2-.3.2-.5.3-.5.5-1 .7-1.4.2-.5.4-1 .6-1.4.2-.4.3-.7.5-1.1.1-.2.2-.4.2-.6l.2-.4c.1-.2.1-.4.2-.6.2-.4.3-.8.4-1.2l.1-.2c0-.1 0-.1.1-.2.2-.5.3-.9.4-1.4.2-.5.3-1.1.4-1.6l.3-1.2c.1-.5.2-.9.3-1.4.1-.4.2-.9.2-1.3.1-.5.2-1 .2-1.4.1-.5.1-.9.2-1.3 0-.2 0-.4.1-.5v-.1c0-.3.1-.7.1-1 0-.4.1-.7.1-1.1V108.5v-1.3-.3-1.7c0-.6-.1-1.2-.1-1.7v-.2c0-.4-.1-.8-.1-1.2 0-.4-.1-.8-.1-1.1v-.5c-.1-.4-.1-.8-.2-1.2 0-.2-.1-.4-.1-.6-.1-.4-.1-.7-.2-1v-.1c-.1-.4-.2-.7-.3-1.1 0-.2-.1-.4-.1-.5l-.3-1.2-.3-.9c0-.1-.1-.2-.1-.3v-.1c-.1-.5-.3-.9-.5-1.4-.1-.2-.1-.4-.2-.6-.1-.4-.3-.7-.4-1.1-.1-.4-.3-.7-.4-1v-.1l-.3-.6c-.1-.3-.2-.6-.4-.8-.2-.5-.4-.8-.6-1.2-.2-.5-.5-1-.7-1.4-.2-.4-.4-.8-.7-1.2l-.4-.7c-.3-.5-.6-1.1-1-1.6-.3-.6-.7-1.1-1-1.6-.2-.4-.5-.8-.8-1.1-.2-.4-.5-.7-.7-1-.1-.1-.1-.2-.2-.3-.4-.5-.7-.9-1-1.4-.1-.2-.2-.3-.3-.4-.4-.5-.7-.9-1.1-1.3-.4-.5-.8-.9-1.2-1.4-.4-.5-.8-.9-1.2-1.3-.2-.2-.3-.3-.4-.5-.5-.5-1-1.1-1.5-1.6-.3-.3-.6-.6-.9-1l-.9-.9c-.5-.5-1-.9-1.5-1.4-.6-.5-1.2-1.1-1.8-1.6-.6-.5-1.3-1.1-1.9-1.6l-1.5-1.2c-2.1-1.7-4.4-3.4-6.8-5-1.6-1-3-2-4.6-2.9l.4-.9-.5.9c-.8-.5-1.6-.9-2.4-1.4l-.4-.2c-114.8-66.3-301-66.6-415.1-.8C60.7 67.4 39.3 86 24.7 106.1c5.5-6.6 12.8-12.1 21.3-17 53.5-30.9 140.9-30.8 194.8.4 16.2 9.4 28.3 21 34.9 33.6.9 1.7 1.8 3.5 2.5 5.3z"/><g class="st2"><path class="st3" d="M277.3 128.8c-.9-1.7-1.7-3.5-2.4-5.2.9 1.7 1.7 3.4 2.4 5.2z"/></g><g class="st2"><path class="st3" d="M380.5 183.2c-5.2-.6-10.4-1.4-15.4-2.4 5.2.7 10.4 1.5 15.4 2.4z"/></g><g class="st2"><path class="st3" d="M13.5 120.9c-1.3 2.4-2.5 4.9-3.5 7.4.9-2.5 2.1-4.9 3.5-7.4z"/></g><g class="st2"><path class="st3" d="M381.7 333.5c-4.2.8-8.5 1.5-12.8 2 4.3-.6 8.6-1.2 12.8-2z"/></g><g><ellipse transform="matrix(.00542 -1 1 .00542 304.828 518.893)" class="st1" cx="413.3" cy="106.2" rx="21.1" ry="36.6"/></g><g><ellipse transform="matrix(.00542 -1 1 .00542 8.85 288.14)" class="st1" cx="149.3" cy="139.6" rx="21.1" ry="36.6"/></g><g><ellipse transform="matrix(.00542 -1 1 .00542 76.489 593.08)" class="st1" cx="336.4" cy="258.1" rx="21.1" ry="36.6"/></g></g></svg>