<?xml version="1.0" encoding="UTF-8"?>
<svg width="50px" height="50px" viewBox="0 0 50 50" version="1.1" xmlns="http://www.w3.org/2000/svg" xmlns:xlink="http://www.w3.org/1999/xlink">
    <!-- Generator: Sketch 49.2 (51160) - http://www.bohemiancoding.com/sketch -->
    <title>ic-06-ambassador</title>
    <desc>Created with Sketch.</desc>
    <defs></defs>
    <g id="ic-06-ambassador" stroke="none" stroke-width="1" fill="none" fill-rule="evenodd">
        <path d="M25,45 C13.954305,45 5,36.045695 5,25 C5,13.954305 13.954305,5 25,5 C36.045695,5 45,13.954305 45,25 C45,36.045695 36.045695,45 25,45 Z M25,44 C35.4934102,44 44,35.4934102 44,25 C44,14.5065898 35.4934102,6 25,6 C14.5065898,6 6,14.5065898 6,25 C6,35.4934102 14.5065898,44 25,44 Z M37.2932549,19.1868388 C38.4437074,19.4161816 38.8975062,20.8179224 38.0997362,21.6779818 L33.042071,27.1305456 L33.9061777,34.4918021 C34.0424218,35.6524545 32.8578397,36.5162241 31.7944203,36.0316463 L25,32.9355723 L18.2055797,36.0316463 C17.1421603,36.5162241 15.9575782,35.6524545 16.0938223,34.4918021 L16.957929,27.1305459 L11.9002641,21.6779854 C11.1024939,20.8179264 11.5562922,19.4161855 12.7067445,19.1868422 L20.0335154,17.7262466 L23.6947518,11.2608605 C24.2692347,10.2463798 25.7307653,10.2463798 26.3052482,11.2608605 L29.9664845,17.7262463 L37.2932549,19.1868388 Z M25,12 L21.00033,19.0630267 L13,20.6578967 L18.5284,26.6179467 L17.5835933,34.66668 L25,31.28718 L32.4164067,34.66668 L31.4716,26.6179467 L37,20.6578933 L28.99967,19.0630267 L25,12 Z" id="Combined-Shape" fill="#FFFFFF" fill-rule="nonzero"></path>
    </g>
</svg>