<?xml version="1.0" encoding="UTF-8"?>
<svg width="50px" height="50px" viewBox="0 0 50 50" version="1.1" xmlns="http://www.w3.org/2000/svg" xmlns:xlink="http://www.w3.org/1999/xlink">
    <!-- Generator: Sketch 49.2 (51160) - http://www.bohemiancoding.com/sketch -->
    <title>ic-02-cooperative</title>
    <desc>Created with Sketch.</desc>
    <defs></defs>
    <g id="ic-02-cooperative" stroke="none" stroke-width="1" fill="none" fill-rule="evenodd">
        <path d="M11.9902168,8.0002577 C11.8462168,8.00589695 11.7052865,8.06931088 11.6062725,8.17313945 L1.15304191,18.5275786 C0.948986031,18.7320844 0.948986031,19.1009578 1.15304191,19.3054636 L5.28902415,23.4368785 C5.49665212,23.6494561 5.8841127,23.6494561 6.09174067,23.4368785 L7.01663397,22.5034166 C8.1829785,23.782924 8.83393683,24.5660611 8.95371361,25.2000899 C9.13125785,26.1542844 9.19365787,27.0728189 10.0007837,28.3461839 C10.0007837,28.3517126 10.0007837,28.3577941 10.0007837,28.3633228 C10.8977142,29.7654507 11.8658633,31.0085739 13.9272407,33.3071769 C13.2149428,34.2108945 13.2638358,35.5195325 14.1018268,36.3496082 C14.60432,36.8472998 15.2902178,37.0609279 15.9516134,37.0064704 C15.893511,37.6658758 16.109232,38.3379971 16.614795,38.8387847 C17.1201905,39.3354258 17.8025163,39.5505467 18.4645258,39.4957022 C18.406535,40.153836 18.6227584,40.8278371 19.1277632,41.3280165 C20.0335681,42.2252656 21.515429,42.2227224 22.4259781,41.3280165 C22.461699,41.292633 22.4801177,41.2444229 22.5132153,41.2069938 C22.9613457,41.568514 23.4979412,41.7399583 24.014053,41.7428885 C24.7732346,41.7484172 25.4972534,41.4664546 25.9860164,40.9823083 C26.3684537,40.6034281 26.5793189,40.1306155 26.6491422,39.6339744 C26.8596725,39.713311 27.0659609,39.7672156 27.2773842,39.7895514 C28.0754682,39.8738638 28.8227614,39.6071051 29.3191709,39.1153845 C29.8499059,38.5896072 30.0711525,37.8711556 29.9997664,37.1792968 C30.6955992,37.2474654 31.4081203,37.0461663 31.9367902,36.5224347 C32.6541672,35.811889 32.8079905,34.7517651 32.4254416,33.8776259 C32.9433952,33.8162575 33.4447163,33.59406 33.8389862,33.2034589 C34.6193771,32.4304392 34.726819,31.2446484 34.2054607,30.3339646 C36.759787,28.3524866 38.3177782,27.1885341 39.0743366,25.2345336 C39.3969413,24.3998138 39.9627833,23.8670704 40.6798254,23.4021584 C41.2944489,23.0036513 42.0199747,22.6675077 42.7216121,22.2612605 L43.9082729,23.4367679 C44.1147288,23.6388964 44.4871196,23.6388964 44.6935755,23.4367679 L48.8469162,19.305353 C49.0510279,19.1008472 49.0510279,18.7319185 48.8469162,18.5274681 L38.393741,8.17297359 C38.2866898,8.06090729 38.130634,7.9964982 37.974913,8.00014712 C37.8308571,8.00578637 37.6899269,8.06920031 37.5909129,8.17297359 L33.4376279,12.287139 C33.2335162,12.4915895 33.2335162,12.8605182 33.4376279,13.0649687 L34.7289399,14.3441941 C34.3111724,14.7072624 33.817721,15.1498883 33.2282139,15.5196463 C32.4710974,15.9944491 31.6780925,16.2662942 31.0293109,16.0727905 C29.8013478,15.7030878 27.7444913,14.9301787 25.8637838,15.7789413 C25.184751,16.1174622 24.308974,16.2352783 23.6477459,16.3147254 C22.7069456,16.4233639 21.6379407,16.4433224 20.7334753,16.2974759 C18.2475769,15.8962045 16.4311112,14.4344774 15.7598924,13.8427984 L16.545195,13.0649134 C16.7493066,12.8604629 16.7493066,12.4915343 16.545195,12.2870838 L12.3917984,8.1729183 C12.2887658,8.06510909 12.1403006,8.00119757 11.9904401,8.00009184 L11.9902168,8.0002577 Z M12.0075192,9.3485916 L15.3581434,12.6848168 L5.69015915,22.2614263 L2.3395911,18.9251458 L12.0075192,9.3485916 Z M37.9921595,9.3485916 L47.660088,18.9251458 L44.2919939,22.2614263 L34.6241213,12.6848168 L37.9921595,9.3485916 Z M14.9741433,14.6209044 C15.6782924,15.24758 17.6886558,16.9234881 20.5584985,17.3866807 C21.6084709,17.5560794 22.7636526,17.5221333 23.7870018,17.4039302 C23.9268158,17.3877864 24.0542949,17.371311 24.18836,17.3521265 L19.3893074,22.1058494 C18.4526374,23.033672 18.4526374,24.5661164 19.3893074,25.4939391 C20.3250286,26.4207666 21.8566198,26.4207666 22.7922294,25.4939391 L25.3401371,22.9701475 L33.0535162,30.610675 C33.5586326,31.1110203 33.5586326,31.9254498 33.0535162,32.4257398 C32.5485114,32.9260852 31.72626,32.9260852 31.2211435,32.4257398 L25.4623139,26.7212503 C25.2521743,26.5176291 24.8738672,26.5217203 24.6682485,26.7300961 C24.4626299,26.9382509 24.4668159,27.3129293 24.6771788,27.5166058 C26.7779608,29.675665 29.2158592,32.1108263 31.1515435,33.9298166 C31.6566599,34.4301066 31.6566599,35.2272866 31.1515435,35.7275767 C30.6465387,36.227922 29.8243431,36.227922 29.3192267,35.7275767 C27.3282307,33.7874531 25.3470022,31.7986772 23.368397,29.8329559 C23.2653644,29.7251467 23.1168992,29.6612352 22.9670387,29.6601294 C22.5268339,29.6656581 22.266685,30.3075929 22.5830386,30.6108408 C24.5574578,32.5830307 26.5817189,34.5406802 28.5339241,36.5227664 C29.0389847,37.0230564 29.0389847,37.8201812 28.5339241,38.3205265 C28.3099985,38.5423923 27.8578495,38.7319707 27.399561,38.6835395 C27.0615516,38.6476031 26.7057933,38.5065665 26.3874305,38.1649495 C26.3818491,38.1594208 26.3751514,38.1533393 26.3701281,38.1478106 C24.579002,36.3045495 22.5021084,34.1779989 20.5938845,32.287744 C20.4907961,32.1799348 20.3423868,32.1160233 20.1924705,32.1149176 C19.7522657,32.1204462 19.4921726,32.762381 19.8085262,33.065629 C21.6595407,34.9886689 23.7177366,37.0566708 25.445179,38.7528138 C25.7856442,39.0900078 25.5814209,39.810671 25.1834673,40.2048657 C24.9518951,40.4343058 24.4627415,40.6395856 24.0142763,40.6370424 C23.6328436,40.6370424 23.3145923,40.5096617 23.0544434,40.1875609 C23.2170295,39.4437879 23.0063876,38.6357717 22.4262014,38.0613421 C21.9709268,37.6140168 21.3840429,37.3871198 20.785773,37.3871751 C20.717066,37.3871751 20.6448985,37.3987854 20.5763589,37.404314 C20.6316706,36.7476177 20.4166194,36.0705758 19.9132332,35.5719444 C19.4603586,35.1232922 18.8710747,34.8978327 18.2728606,34.8977775 C18.204042,34.8977775 18.1319861,34.9093877 18.0634466,34.9149164 C18.117028,34.261869 17.9026465,33.5954422 17.400265,33.0998515 C17.400265,33.0998515 17.400265,33.0838183 17.400265,33.0827126 C16.9481718,32.63301 16.3573251,32.4085456 15.7598924,32.4085456 C15.4401342,32.4085456 15.1150178,32.4872187 14.8175293,32.6159816 C12.7429799,30.3060448 11.8163005,29.1230737 10.94337,27.7585407 C10.2443559,26.6550167 10.2266628,26.0179472 10.0359465,24.9927645 C9.83032783,23.8997449 9.02286712,23.0377633 7.81968537,21.7256422 L14.9741433,14.6209044 Z M35.5316006,15.1394944 L41.9012025,21.4489872 C41.3200675,21.7676049 40.6860208,22.0860014 40.0688857,22.4861671 C39.2460762,23.0196292 38.4527922,23.7359302 38.027099,24.8370769 C37.3964012,26.4657701 36.0577031,27.4916162 33.489814,29.4870818 L29.7379989,25.7705388 C30.1938316,25.7312852 30.7191527,25.6961781 31.2737203,25.6841256 C31.5660739,25.6896543 31.8362693,25.4291983 31.840846,25.1395509 C31.8464274,24.8499587 31.5835436,24.5823155 31.2911342,24.5777819 C31.2794133,24.5772291 31.2676924,24.5772291 31.2564738,24.5777819 C30.6036178,24.5921565 29.9741478,24.6365518 29.4765104,24.6814999 C29.0783336,24.7174363 28.8619986,24.735681 28.7086218,24.7506637 L26.1258862,22.1922626 L26.876305,21.4489872 C27.0472632,21.2387868 27.0289562,20.9015375 26.836119,20.7106323 C26.6434491,20.5197823 26.3029281,20.5017035 26.0907792,20.6711022 L22.0072059,24.7161095 C21.5021453,25.2163995 20.6799497,25.2163995 20.1748891,24.7161095 C19.6708889,24.2168699 19.6708331,23.3830845 20.1748891,22.8837343 L26.3350769,16.7989823 C27.6895146,16.1896114 29.4396732,16.7433638 30.7153015,17.127441 C31.8421298,17.4643586 32.938651,17.0070264 33.8215722,16.4532741 C34.5474887,15.9979875 35.1230424,15.4973104 35.5318239,15.1394944 L35.5316006,15.1394944 Z M15.7596691,33.5147787 C16.0683204,33.5147787 16.3747949,33.6381788 16.614795,33.8777917 C17.0985347,34.3532027 17.0985347,35.0964228 16.614795,35.5718338 C16.1356879,36.0464155 15.3835946,36.0464155 14.9045433,35.5718338 C14.425492,35.0972521 14.425492,34.3523734 14.9045433,33.8777917 C15.1445992,33.6381788 15.4510737,33.5147787 15.7596691,33.5147787 Z M18.2726373,36.0040106 C18.5832421,36.0040106 18.8882096,36.1124279 19.1277632,36.3497188 C19.605754,36.82325 19.605754,37.5875344 19.1277632,38.0610656 C18.6491584,38.5350945 17.8856791,38.5366425 17.4000417,38.0610656 C16.924116,37.5879214 16.924116,36.8228077 17.4000417,36.3497188 C17.6426092,36.1122068 17.9627024,36.0040658 18.2726373,36.0040106 Z M20.7855497,38.4932424 C21.0954847,38.4932424 21.3981638,38.6014386 21.6406755,38.8389506 C22.1521548,39.3455986 22.1275408,40.0680309 21.6406755,40.5502975 C21.155094,41.025819 20.3916147,41.0243263 19.9130099,40.5502975 C19.4339586,40.0757158 19.4339586,39.3135323 19.9130099,38.8389506 C20.1525635,38.6016597 20.474945,38.4931318 20.7855497,38.4932424 Z" fill="#FFFFFF"></path>
    </g>
</svg>