<svg width="65" height="65" xmlns="http://www.w3.org/2000/svg"><g fill="none" fill-rule="evenodd"><path d="M32.5 0l7.88 19.136 8.772-2.917-3.113 8.366L65 32.5l-18.995 7.822 3.147 8.456-8.675-2.884L32.5 65l-7.869-19.11-8.687 2.888 3.099-8.328L0 32.5l19.08-7.856-3.136-8.425 8.593 2.857L32.5 0zm0 6.563L24.84 25.052 32.5 32.5l7.449-7.661 18.488 7.66H32.5v25.938l7.661-18.489-7.66-7.448V6.563zm0 25.937H6.563l18.489 7.661L32.5 32.5z" fill="#29CC7A"/><circle fill="#266CEF" cx="53" cy="12" r="10"/><path d="M56.995 17h-7.47v-1.575l3.09-2.805c.705-.645 1.185-1.155 1.455-1.56.285-.405.42-.825.42-1.275 0-.9-.72-1.47-1.8-1.47-.99 0-1.935.405-2.835 1.2v-2.22c.855-.675 1.875-1.005 3.06-1.005 1.005 0 1.875.3 2.61.885.735.585 1.11 1.365 1.11 2.325 0 .735-.165 1.395-.495 1.965-.315.57-.9 1.23-1.725 1.995l-1.8 1.65h4.38V17z" fill="#FFF"/></g></svg>