<?xml version="1.0" encoding="UTF-8"?>
<svg width="40px" height="40px" viewBox="0 0 40 40" version="1.1" xmlns="http://www.w3.org/2000/svg" xmlns:xlink="http://www.w3.org/1999/xlink">
    <!-- Generator: Sketch 49.2 (51160) - http://www.bohemiancoding.com/sketch -->
    <title>ic-09-f-tech</title>
    <desc>Created with Sketch.</desc>
    <defs></defs>
    <g id="ic-09-f-tech" stroke="none" stroke-width="1" fill="none" fill-rule="evenodd">
        <path d="M1,1 L7,1 L7,7 L1,7 L1,1 Z M2,2 L2,6 L6,6 L6,2 L2,2 Z M33,1 L39,1 L39,7 L33,7 L33,1 Z M34,2 L34,6 L38,6 L38,2 L34,2 Z M33,17 L39,17 L39,23 L33,23 L33,17 Z M34,18 L34,22 L38,22 L38,18 L34,18 Z M17,17 L23,17 L23,23 L17,23 L17,17 Z M18,18 L18,22 L22,22 L22,18 L18,18 Z M4,17 C5.65685425,17 7,18.3431458 7,20 C7,21.6568542 5.65685425,23 4,23 C2.34314575,23 1,21.6568542 1,20 C1,18.3431458 2.34314575,17 4,17 Z M4,18 C2.8954305,18 2,18.8954305 2,20 C2,21.1045695 2.8954305,22 4,22 C5.1045695,22 6,21.1045695 6,20 C6,18.8954305 5.1045695,18 4,18 Z M1,33 L7,33 L7,39 L1,39 L1,33 Z M2,34 L2,38 L6,38 L6,34 L2,34 Z M20,33 C21.6568542,33 23,34.3431458 23,36 C23,37.6568542 21.6568542,39 20,39 C18.3431458,39 17,37.6568542 17,36 C17,34.3431458 18.3431458,33 20,33 Z M20,34 C18.8954305,34 18,34.8954305 18,36 C18,37.1045695 18.8954305,38 20,38 C21.1045695,38 22,37.1045695 22,36 C22,34.8954305 21.1045695,34 20,34 Z M9,3.5 L15,3.5 L15,4.5 L9,4.5 L9,3.5 Z M25,3.5 L31,3.5 L31,4.5 L25,4.5 L25,3.5 Z M25,19.5 L31,19.5 L31,20.5 L25,20.5 L25,19.5 Z M9,19.5 L15,19.5 L15,20.5 L9,20.5 L9,19.5 Z M9,35.5 L15,35.5 L15,36.5 L9,36.5 L9,35.5 Z M25,35.5 L31,35.5 L31,36.5 L25,36.5 L25,35.5 Z M35.5,9 L36.5,9 L36.5,15 L35.5,15 L35.5,9 Z M3.5,25 L4.5,25 L4.5,31 L3.5,31 L3.5,25 Z M19.5,25 L20.5,25 L20.5,31 L19.5,31 L19.5,25 Z M35.5,25 L36.5,25 L36.5,31 L35.5,31 L35.5,25 Z M19.5,9 L20.5,9 L20.5,15 L19.5,15 L19.5,9 Z M3.5,9 L4.5,9 L4.5,15 L3.5,15 L3.5,9 Z" id="Rectangle-13" fill="#6699FF" fill-rule="nonzero"></path>
        <path d="M17,1 L23,1 L23,7 L17,7 L17,1 Z M33,33 L39,33 L39,39 L33,39 L33,33 Z" id="Combined-Shape" fill="#33FF99"></path>
    </g>
</svg>