<?xml version="1.0" encoding="UTF-8"?>
<svg width="50px" height="50px" viewBox="0 0 50 50" version="1.1" xmlns="http://www.w3.org/2000/svg" xmlns:xlink="http://www.w3.org/1999/xlink">
    <!-- Generator: Sketch 49.2 (51160) - http://www.bohemiancoding.com/sketch -->
    <title>ic-01-farm</title>
    <desc>Created with Sketch.</desc>
    <defs></defs>
    <g id="ic-01-farm" stroke="none" stroke-width="1" fill="none" fill-rule="evenodd">
        <path d="M44.3766475,14.2847139 C44.740398,14.4907693 45,14.8726004 45,15.3422141 L45,35.5890249 C45,36.0266982 44.7606318,36.4309607 44.3724366,36.6488998 L26.2272753,46.835889 C25.8187479,47.0652429 25.3607662,47.0408029 25,46.8455902 C24.6392338,47.0408029 24.1812521,47.0652429 23.7727247,46.835889 L5.6275634,36.6488998 C5.23936817,36.4309607 5,36.0266982 5,35.5890249 L5,15.3422141 C5,14.8770243 5.25473398,14.4979711 5.61310042,14.290584 C5.65549917,13.9283484 5.86108945,13.5820002 6.22987141,13.3738384 L24.3182391,3.16372152 C24.7049728,2.94542672 25.1814366,2.94542612 25.5681709,3.16371996 L43.7701258,13.4378915 C44.1151013,13.6326144 44.3172752,13.9482585 44.3766475,14.2847139 Z M42.9463072,14.3840994 L24.9432064,4.22217183 L6.99679887,14.3521582 L25,24.4594486 L42.9463072,14.3840994 Z M24.3548387,45.7533763 L24.3548387,25.5292033 C24.3548387,25.5216868 24.3549093,25.5141802 24.35505,25.5066842 L6.25,15.3422141 L6.25,35.5890249 L24.3548387,45.7533763 Z M43.75,35.5890249 L43.75,15.3422141 L25.6048387,25.5292033 L25.6048387,45.7760141 L43.75,35.5890249 Z M11.25,24.0822723 C11.25,24.9590237 10.550446,25.2593514 9.68745483,24.7532368 C8.82455405,24.2470303 8.125,23.1260332 8.125,22.2492819 C8.125,21.3726223 8.82455405,21.0722946 9.68745483,21.578501 C10.550446,22.0845238 11.25,23.2056127 11.25,24.0822723 Z M16.25,27.1377019 C16.25,28.0144533 15.550446,28.314781 14.6874548,27.8086663 C13.824554,27.3024599 13.125,26.1814628 13.125,25.3047114 C13.125,24.4280519 13.824554,24.1277241 14.6874548,24.6339306 C15.550446,25.1399534 16.25,26.2610423 16.25,27.1377019 Z M21.25,30.1931315 C21.25,31.0698828 20.550446,31.3702106 19.6874548,30.8640959 C18.824554,30.3578895 18.125,29.2368924 18.125,28.360141 C18.125,27.4834814 18.824554,27.1831537 19.6874548,27.6893601 C20.550446,28.195383 21.25,29.3164719 21.25,30.1931315 Z M29.6899194,29.1934516 C29.3917619,29.3635047 29.0090634,29.2650366 28.8351382,28.9735169 C28.661213,28.6819972 28.7619232,28.3078185 29.0600806,28.1377653 L36.5600806,23.8601639 C36.8582381,23.6901107 37.2409366,23.7885788 37.4148618,24.0800985 C37.588787,24.3716182 37.4880768,24.745797 37.1899194,24.9158501 L29.6899194,29.1934516 Z M29.6899194,32.2488811 C29.3917619,32.4189343 29.0090634,32.3204662 28.8351382,32.0289465 C28.661213,31.7374268 28.7619232,31.363248 29.0600806,31.1931949 L36.5600806,26.9155935 C36.8582381,26.7455403 37.2409366,26.8440084 37.4148618,27.1355281 C37.588787,27.4270478 37.4880768,27.8012266 37.1899194,27.9712797 L29.6899194,32.2488811 Z M29.6899194,35.3043107 C29.3917619,35.4743639 29.0090634,35.3758958 28.8351382,35.0843761 C28.661213,34.7928564 28.7619232,34.4186776 29.0600806,34.2486245 L36.5600806,29.9710231 C36.8582381,29.8009699 37.2409366,29.899438 37.4148618,30.1909577 C37.588787,30.4824774 37.4880768,30.8566561 37.1899194,31.0267093 L29.6899194,35.3043107 Z" id="Combined-Shape" fill="#FFFFFF" fill-rule="nonzero"></path>
    </g>
</svg>