<?xml version="1.0" encoding="UTF-8"?>
<svg width="24px" height="24px" viewBox="0 0 24 24" version="1.1" xmlns="http://www.w3.org/2000/svg" xmlns:xlink="http://www.w3.org/1999/xlink">
    <!-- Generator: Sketch 49.2 (51160) - http://www.bohemiancoding.com/sketch -->
    <title>ic-github</title>
    <desc>Created with Sketch.</desc>
    <defs></defs>
    <g id="ic-github" stroke="none" stroke-width="1" fill="none" fill-rule="evenodd">
        <path d="M11.8465455,0 C5.30472727,0 0,5.30472727 0,11.848 C0,17.0814545 3.39418182,21.5221818 8.10254545,23.0887273 C8.69527273,23.1970909 8.91127273,22.832 8.91127273,22.5178182 C8.91127273,22.2363636 8.90109091,21.4916364 8.89527273,20.5025455 C5.6,21.2189091 4.90472727,18.9149091 4.90472727,18.9149091 C4.36581818,17.5461818 3.58909091,17.1818182 3.58909091,17.1818182 C2.51345455,16.4465455 3.67054545,16.4618182 3.67054545,16.4618182 C4.85963636,16.5454545 5.48509091,17.6821818 5.48509091,17.6821818 C6.54181818,19.4930909 8.25745455,18.9701818 8.93309091,18.6669091 C9.04072727,17.9010909 9.34618182,17.3789091 9.68509091,17.0829091 C7.05454545,16.784 4.28872727,15.768 4.28872727,11.2276364 C4.28872727,9.93454545 4.75054545,8.87709091 5.50836364,8.04872727 C5.38618182,7.74909091 4.97963636,6.54472727 5.624,4.91418182 C5.624,4.91418182 6.61890909,4.59490909 8.88218182,6.128 C9.82690909,5.86545455 10.8407273,5.73381818 11.848,5.72945455 C12.8538182,5.73381818 13.8676364,5.86545455 14.8138182,6.128 C17.0756364,4.59490909 18.0683636,4.91418182 18.0683636,4.91418182 C18.7149091,6.54472727 18.3083636,7.74909091 18.1861818,8.04872727 C18.9454545,8.87709091 19.4043636,9.93454545 19.4043636,11.2276364 C19.4043636,15.7789091 16.6341818,16.7803636 13.9949091,17.0741818 C14.4203636,17.4392727 14.7992727,18.1629091 14.7992727,19.2676364 C14.7992727,20.8516364 14.7847273,22.1294545 14.7847273,22.5178182 C14.7847273,22.8341818 14.9978182,23.2029091 15.5992727,23.0872727 C20.3025455,21.5178182 23.6945455,17.08 23.6945455,11.848 C23.6945455,5.30472727 18.3898182,0 11.8465455,0" id="Fill-1" fill="#FEFEFE"></path>
    </g>
</svg>