<svg width="61" height="67" xmlns="http://www.w3.org/2000/svg"><defs><linearGradient x1="50%" y1="100%" x2="50%" y2="0%" id="a"><stop stop-color="#53E8B2" stop-opacity="0" offset="0%"/><stop stop-color="#29CC7A" offset="100%"/></linearGradient></defs><g fill="none" fill-rule="nonzero"><path d="M31.745 31.745l7.657-7.657c-1.595-1.117-3.669-1.755-5.902-1.755-6.221 0-11.167 4.946-11.167 11.167S27.28 44.667 33.5 44.667c3.031 0 5.902-1.277 7.817-3.35l2.233 2.233c-2.552 2.712-6.062 4.307-10.05 4.307A14.297 14.297 0 0 1 19.143 33.5 14.297 14.297 0 0 1 33.5 19.143c3.031 0 5.902.957 8.295 2.712l4.626-4.626c-3.51-2.872-7.976-4.467-12.921-4.467A20.697 20.697 0 0 0 12.762 33.5 20.697 20.697 0 0 0 33.5 54.238c5.743 0 10.848-2.393 14.676-6.062l2.234 2.234c-4.308 4.307-10.37 7.019-16.91 7.019-13.24 0-23.929-10.689-23.929-23.929C9.571 20.26 20.26 9.571 33.5 9.571c5.743 0 11.007 2.074 15.155 5.424l4.466-4.466C47.857 5.902 40.998 3.19 33.5 3.19 16.75 3.19 3.19 16.75 3.19 33.5S16.75 63.81 33.5 63.81c8.295 0 15.952-3.35 21.376-8.934l2.234 2.234C51.207 63.33 42.752 67 33.5 67 14.995 67 0 52.005 0 33.5 0 14.995 14.995 0 33.5 0c8.455 0 16.112 3.031 21.855 8.136l.319-.32c.957-.956 2.393-.956 3.35 0 .957.958.957 2.394 0 3.35l-23.929 23.93c-.478.478-1.116.637-1.755.637-.638 0-1.276-.16-1.754-.638-.638-.797-.638-2.393.16-3.35z" fill="url(#a)"/><path d="M34.768 35.768a2.5 2.5 0 0 1-3.536-3.536l25-25a2.5 2.5 0 0 1 3.536 3.536l-25 25z" fill="#266CEF"/></g></svg>